M48
; DRILL file {KiCad 8.0.6} date 2026-05-25T09:03:54-0700
; FORMAT={-:-/ absolute / metric / decimal}
; #@! TF.CreationDate,2026-05-25T09:03:54-07:00
; #@! TF.GenerationSoftware,Kicad,Pcbnew,8.0.6
; #@! TF.FileFunction,Plated,1,4,PTH
FMAT,2
METRIC
; #@! TA.AperFunction,Plated,PTH,ComponentDrill
T1C0.200
; #@! TA.AperFunction,Plated,PTH,ViaDrill
T2C0.300
; #@! TA.AperFunction,Plated,PTH,ViaDrill
T3C0.400
; #@! TA.AperFunction,Plated,PTH,ComponentDrill
T4C0.600
; #@! TA.AperFunction,Plated,PTH,ComponentDrill
T5C1.000
; #@! TA.AperFunction,Plated,PTH,ComponentDrill
T6C1.100
; #@! TA.AperFunction,Plated,PTH,ComponentDrill
T7C3.200
%
G90
G05
T1
X118.7Y-94.1
X119.8Y-94.1
T2
X101.0Y-78.2
X101.3Y-111.8
X103.0Y-78.2
X103.3Y-111.8
X105.0Y-78.2
X105.3Y-91.8
X105.3Y-93.5
X105.3Y-111.8
X105.4Y-96.0
X106.5Y-94.8
X107.0Y-78.2
X107.1Y-92.6
X107.3Y-111.8
X107.7Y-96.0
X108.9Y-94.8
X109.6Y-79.7
X109.6Y-88.6
X109.6Y-101.3
X109.6Y-102.5
X109.65Y-87.3
X109.7Y-81.25
X109.7Y-108.7
X109.7Y-110.0
X110.0Y-105.688
X110.137Y-84.3
X111.8Y-82.0
X113.5Y-82.0
X116.0Y-88.5
X117.1Y-87.95
X117.1Y-89.8
X122.9Y-82.6
X126.0Y-80.25
X127.25Y-80.25
X128.5Y-80.25
X129.75Y-80.25
X130.8Y-88.3
X131.0Y-80.25
X131.4Y-88.8
X132.0Y-87.7
X132.1Y-88.9
X132.15Y-99.55
X132.15Y-101.05
X132.25Y-80.25
X132.5Y-98.2
X132.6Y-88.2
X132.8Y-99.95
X132.9Y-100.75
X133.1Y-87.7
X133.265Y-98.285
X133.5Y-97.1
X133.55Y-99.2
X133.6Y-88.9
X133.715Y-99.915
X133.735Y-97.815
X134.55Y-88.15
X134.6Y-87.4
X134.75Y-98.2
X135.3Y-88.7
X135.8Y-92.1
X135.8Y-100.8
X136.0Y-90.3
X136.0Y-93.35
X136.45Y-99.718
X136.45Y-100.382
X136.7Y-91.2
X136.7Y-92.95
X136.9Y-99.15
X137.25Y-94.0
X137.45Y-74.6
X137.95Y-94.25
X139.1Y-94.05
X139.2Y-93.35
X139.55Y-94.65
X140.0Y-116.5
X140.15Y-94.25
X140.2Y-101.675
X140.8Y-109.6
X141.1Y-101.675
X141.35Y-95.2
X141.6Y-89.75
X141.6Y-110.7
X141.6Y-115.5
X142.2Y-95.1
X142.35Y-89.45
X142.55Y-90.35
X143.4Y-90.325
X143.5Y-83.7
X143.5Y-91.225
X144.2Y-97.225
X144.25Y-93.375
X144.25Y-94.275
X144.3Y-92.525
X144.3Y-98.125
X144.4Y-84.6
X145.15Y-92.525
X145.6Y-84.5
X145.85Y-92.475
X145.9Y-83.5
X146.15Y-100.875
X147.2Y-100.875
X147.8Y-92.525
X147.95Y-100.875
X148.95Y-100.875
X149.2Y-92.525
X149.65Y-100.9
X150.0Y-92.475
X150.25Y-79.25
X150.35Y-100.875
X150.5Y-103.1
X150.55Y-76.4
X150.6Y-73.55
X150.75Y-75.5
X150.8Y-92.525
X151.0Y-80.0
X151.0Y-81.0
X151.0Y-107.0
X151.4Y-100.9
X151.5Y-76.0
X152.3Y-104.2
X152.45Y-100.875
X152.5Y-102.675
X152.6Y-94.225
X152.6Y-96.025
X152.6Y-97.9
X152.65Y-93.375
X152.65Y-95.125
X152.65Y-96.875
X152.65Y-98.975
X153.4Y-101.6
X155.5Y-86.5
X157.25Y-108.0
X157.4Y-102.1
X158.5Y-108.0
X158.55Y-102.5
X158.65Y-93.2
X158.7Y-103.3
X159.75Y-108.0
X160.1Y-100.85
X160.8Y-99.9
X160.8Y-100.65
X161.0Y-108.0
X161.6Y-102.75
X161.7Y-100.75
X162.1Y-102.0
X162.25Y-97.5
X162.25Y-108.0
X162.45Y-106.4
X162.5Y-95.05
X162.55Y-99.7
X162.75Y-99.0
X162.75Y-102.3
X162.85Y-97.05
X163.1Y-106.1
X163.15Y-96.4
X163.2Y-100.75
X163.25Y-95.05
X163.25Y-98.5
X163.5Y-108.0
X163.6Y-94.45
X163.6Y-95.75
X163.7Y-97.95
X163.7Y-99.1
X163.7Y-106.45
X163.75Y-100.25
X163.75Y-107.25
X164.4Y-106.2
X164.775Y-102.375
X165.3Y-102.75
X170.0Y-85.85
X170.65Y-86.357
X171.6Y-85.35
X172.2Y-102.228
X172.25Y-84.95
X172.45Y-86.4
X173.15Y-86.05
X173.75Y-85.5
X174.05Y-93.95
X174.2Y-93.2
X174.35Y-86.4
X174.75Y-105.55
X175.086Y-93.986
X176.1Y-85.75
X176.35Y-105.45
X176.6Y-95.65
X177.25Y-104.2
X177.3Y-83.3
X177.3Y-96.1
X177.85Y-85.75
X178.1Y-90.7
X178.1Y-92.4
X178.1Y-94.1
X179.068Y-87.632
X179.15Y-103.65
X179.35Y-81.85
X179.7Y-94.1
X179.8Y-90.7
X181.5Y-90.7
X181.5Y-92.4
X181.5Y-94.1
X181.575Y-88.325
X182.45Y-88.25
X182.85Y-89.2
X184.25Y-111.8
X184.3Y-85.6
X184.3Y-86.75
X184.3Y-93.25
X184.3Y-110.0
X184.5Y-84.65
X184.75Y-101.75
X185.2Y-112.4
X185.35Y-89.75
X185.5Y-84.4
X185.55Y-83.2
X185.65Y-96.05
X185.95Y-103.0
X186.0Y-103.95
X186.2Y-89.2
X186.85Y-84.8
X186.85Y-85.9
X186.9Y-93.9
X186.9Y-95.0
X186.9Y-96.05
X187.85Y-90.9
X187.9Y-88.55
X188.0Y-84.8
X188.0Y-85.9
X188.15Y-93.9
X188.15Y-95.0
X188.15Y-96.05
X188.75Y-88.6
X189.35Y-84.8
X189.35Y-85.9
X189.4Y-93.9
X189.4Y-95.0
X189.4Y-96.05
X189.6Y-88.6
X189.6Y-90.95
X189.8Y-89.8
X190.6Y-84.8
X190.6Y-85.9
X190.65Y-93.9
X190.65Y-95.0
X191.35Y-89.8
X191.35Y-91.55
X191.7Y-88.05
X191.95Y-93.45
X191.95Y-94.35
X191.95Y-95.6
X192.0Y-83.95
X192.0Y-85.2
X192.0Y-86.45
X193.0Y-89.8
X193.05Y-93.1
X193.05Y-94.35
X193.05Y-95.6
X193.1Y-83.95
X193.1Y-85.2
X193.1Y-86.45
X193.1Y-87.7
X193.25Y-103.95
X193.4Y-92.1
X193.7Y-90.95
X193.75Y-88.6
X194.25Y-83.95
X194.25Y-85.2
X194.25Y-86.45
X194.25Y-87.7
X194.3Y-91.8
X194.3Y-93.05
X194.3Y-94.3
X194.3Y-95.55
X195.45Y-84.3
X195.45Y-85.55
X195.6Y-88.2
X195.6Y-91.4
X195.6Y-94.05
X195.6Y-95.3
X196.55Y-84.3
X196.55Y-85.55
X196.7Y-88.2
X196.7Y-91.4
X196.7Y-94.05
X196.7Y-95.3
X197.55Y-103.5
X197.7Y-84.3
X197.7Y-85.55
X197.85Y-88.2
X197.85Y-91.4
X197.85Y-94.05
X197.85Y-95.3
X198.85Y-84.3
X198.85Y-85.55
X199.0Y-88.2
X199.0Y-91.4
X199.0Y-94.05
X199.0Y-95.3
T3
X134.0Y-70.7
X136.0Y-70.7
X138.0Y-70.7
X139.0Y-74.6
X140.0Y-70.7
X142.0Y-70.7
X144.0Y-70.7
X146.0Y-70.7
X148.0Y-70.7
X150.0Y-70.7
T5
X113.02Y-112.3
X113.02Y-114.84
X115.56Y-112.3
X115.56Y-114.84
X118.1Y-112.3
X118.1Y-114.84
X126.92Y-126.1
X126.92Y-128.64
X129.46Y-126.1
X129.46Y-128.64
X132.0Y-126.1
X132.0Y-128.64
X154.65Y-74.55
X154.65Y-77.09
X157.19Y-74.55
X157.19Y-77.09
X157.56Y-133.65
X157.56Y-136.19
X159.73Y-74.55
X159.73Y-77.09
X160.1Y-133.65
X160.1Y-136.19
X162.27Y-74.55
X162.27Y-77.09
X162.64Y-133.65
X162.64Y-136.19
X164.81Y-74.55
X164.81Y-77.09
X167.35Y-74.55
X167.35Y-77.09
X174.64Y-74.5
X174.64Y-77.04
X177.18Y-74.5
X177.18Y-77.04
X179.72Y-74.5
X179.72Y-77.04
X182.26Y-74.5
X182.26Y-77.04
X184.8Y-74.5
X184.8Y-77.04
X187.34Y-74.5
X187.34Y-77.04
X189.88Y-74.5
X189.88Y-77.04
X226.35Y-37.925
X226.35Y-40.465
X226.35Y-43.005
X226.35Y-45.545
X226.35Y-48.085
X228.89Y-37.925
X228.89Y-40.465
X228.89Y-43.005
X228.89Y-45.545
X228.89Y-48.085
T6
X113.0Y-78.45
X115.5Y-78.45
X118.0Y-78.45
X125.4Y-78.45
X127.9Y-78.45
X130.4Y-78.45
T7
X104.0Y-74.0
X104.0Y-116.0
X196.0Y-74.0
X196.0Y-116.0
T4
X102.9Y-80.0G85X102.3Y-80.0
G05
X102.9Y-88.64G85X102.3Y-88.64
G05
X102.9Y-101.39G85X102.3Y-101.39
G05
X102.9Y-110.03G85X102.3Y-110.03
G05
X107.33Y-80.0G85X106.23Y-80.0
G05
X107.33Y-88.64G85X106.23Y-88.64
G05
X107.33Y-101.39G85X106.23Y-101.39
G05
X107.33Y-110.03G85X106.23Y-110.03
G05
M30
