G04 #@! TF.GenerationSoftware,KiCad,Pcbnew,8.0.6*
G04 #@! TF.CreationDate,2026-05-22T12:08:14-07:00*
G04 #@! TF.ProjectId,ESP32P4C5_Board,45535033-3250-4344-9335-5f426f617264,rev?*
G04 #@! TF.SameCoordinates,Original*
G04 #@! TF.FileFunction,Soldermask,Bot*
G04 #@! TF.FilePolarity,Negative*
%FSLAX46Y46*%
G04 Gerber Fmt 4.6, Leading zero omitted, Abs format (unit mm)*
G04 Created by KiCad (PCBNEW 8.0.6) date 2026-05-22 12:08:14*
%MOMM*%
%LPD*%
G01*
G04 APERTURE LIST*
G04 Aperture macros list*
%AMRoundRect*
0 Rectangle with rounded corners*
0 $1 Rounding radius*
0 $2 $3 $4 $5 $6 $7 $8 $9 X,Y pos of 4 corners*
0 Add a 4 corners polygon primitive as box body*
4,1,4,$2,$3,$4,$5,$6,$7,$8,$9,$2,$3,0*
0 Add four circle primitives for the rounded corners*
1,1,$1+$1,$2,$3*
1,1,$1+$1,$4,$5*
1,1,$1+$1,$6,$7*
1,1,$1+$1,$8,$9*
0 Add four rect primitives between the rounded corners*
20,1,$1+$1,$2,$3,$4,$5,0*
20,1,$1+$1,$4,$5,$6,$7,0*
20,1,$1+$1,$6,$7,$8,$9,0*
20,1,$1+$1,$8,$9,$2,$3,0*%
G04 Aperture macros list end*
%ADD10C,0.010000*%
%ADD11R,1.700000X1.700000*%
%ADD12O,1.700000X1.700000*%
%ADD13R,0.599999X1.100000*%
%ADD14C,6.400000*%
%ADD15C,0.650000*%
%ADD16O,2.100000X1.000000*%
%ADD17O,1.600000X1.000000*%
%ADD18RoundRect,0.225000X0.225000X0.250000X-0.225000X0.250000X-0.225000X-0.250000X0.225000X-0.250000X0*%
%ADD19R,1.650000X1.650000*%
%ADD20C,1.650000*%
%ADD21RoundRect,0.250000X-0.250000X-0.475000X0.250000X-0.475000X0.250000X0.475000X-0.250000X0.475000X0*%
%ADD22RoundRect,0.225000X-0.250000X0.225000X-0.250000X-0.225000X0.250000X-0.225000X0.250000X0.225000X0*%
%ADD23RoundRect,0.250000X-0.450000X0.262500X-0.450000X-0.262500X0.450000X-0.262500X0.450000X0.262500X0*%
%ADD24RoundRect,0.250000X-0.325000X-0.650000X0.325000X-0.650000X0.325000X0.650000X-0.325000X0.650000X0*%
%ADD25R,0.250000X0.675000*%
%ADD26R,0.250000X0.975000*%
%ADD27R,0.625000X0.250000*%
%ADD28R,1.225000X0.250000*%
%ADD29RoundRect,0.200000X0.200000X0.275000X-0.200000X0.275000X-0.200000X-0.275000X0.200000X-0.275000X0*%
%ADD30RoundRect,0.250000X0.325000X0.650000X-0.325000X0.650000X-0.325000X-0.650000X0.325000X-0.650000X0*%
%ADD31RoundRect,0.250000X0.262500X0.450000X-0.262500X0.450000X-0.262500X-0.450000X0.262500X-0.450000X0*%
%ADD32RoundRect,0.225000X-0.225000X-0.250000X0.225000X-0.250000X0.225000X0.250000X-0.225000X0.250000X0*%
%ADD33RoundRect,0.225000X0.250000X-0.225000X0.250000X0.225000X-0.250000X0.225000X-0.250000X-0.225000X0*%
%ADD34RoundRect,0.250000X-0.262500X-0.450000X0.262500X-0.450000X0.262500X0.450000X-0.262500X0.450000X0*%
%ADD35RoundRect,0.250000X0.250000X0.475000X-0.250000X0.475000X-0.250000X-0.475000X0.250000X-0.475000X0*%
%ADD36RoundRect,0.200000X-0.200000X-0.275000X0.200000X-0.275000X0.200000X0.275000X-0.200000X0.275000X0*%
%ADD37RoundRect,0.250000X0.450000X-0.400000X0.450000X0.400000X-0.450000X0.400000X-0.450000X-0.400000X0*%
%ADD38RoundRect,0.250000X-0.850000X0.375000X-0.850000X-0.375000X0.850000X-0.375000X0.850000X0.375000X0*%
%ADD39RoundRect,0.250000X-0.475000X0.250000X-0.475000X-0.250000X0.475000X-0.250000X0.475000X0.250000X0*%
%ADD40RoundRect,0.250000X0.450000X-0.262500X0.450000X0.262500X-0.450000X0.262500X-0.450000X-0.262500X0*%
%ADD41RoundRect,0.200000X0.275000X-0.200000X0.275000X0.200000X-0.275000X0.200000X-0.275000X-0.200000X0*%
%ADD42RoundRect,0.250000X0.475000X-0.250000X0.475000X0.250000X-0.475000X0.250000X-0.475000X-0.250000X0*%
%ADD43RoundRect,0.250000X-0.650000X0.325000X-0.650000X-0.325000X0.650000X-0.325000X0.650000X0.325000X0*%
%ADD44RoundRect,0.250000X0.850000X-0.375000X0.850000X0.375000X-0.850000X0.375000X-0.850000X-0.375000X0*%
%ADD45RoundRect,0.250000X0.650000X-0.325000X0.650000X0.325000X-0.650000X0.325000X-0.650000X-0.325000X0*%
G04 APERTURE END LIST*
D10*
X118653000Y-92796000D02*
X118655000Y-92796000D01*
X118658000Y-92797000D01*
X118660000Y-92797000D01*
X118663000Y-92798000D01*
X118665000Y-92799000D01*
X118668000Y-92800000D01*
X118670000Y-92802000D01*
X118672000Y-92803000D01*
X118674000Y-92805000D01*
X118676000Y-92806000D01*
X118678000Y-92808000D01*
X118680000Y-92810000D01*
X118682000Y-92812000D01*
X118684000Y-92814000D01*
X118685000Y-92816000D01*
X118687000Y-92818000D01*
X118688000Y-92820000D01*
X118690000Y-92822000D01*
X118691000Y-92825000D01*
X118692000Y-92827000D01*
X118693000Y-92830000D01*
X118693000Y-92832000D01*
X118694000Y-92835000D01*
X118694000Y-92837000D01*
X118695000Y-92840000D01*
X118695000Y-92842000D01*
X118695000Y-92845000D01*
X118695000Y-93385000D01*
X118695000Y-93388000D01*
X118695000Y-93390000D01*
X118694000Y-93393000D01*
X118694000Y-93395000D01*
X118693000Y-93398000D01*
X118693000Y-93400000D01*
X118692000Y-93403000D01*
X118691000Y-93405000D01*
X118690000Y-93408000D01*
X118688000Y-93410000D01*
X118687000Y-93412000D01*
X118685000Y-93414000D01*
X118684000Y-93416000D01*
X118682000Y-93418000D01*
X118680000Y-93420000D01*
X118678000Y-93422000D01*
X118676000Y-93424000D01*
X118674000Y-93425000D01*
X118672000Y-93427000D01*
X118670000Y-93428000D01*
X118668000Y-93430000D01*
X118665000Y-93431000D01*
X118663000Y-93432000D01*
X118660000Y-93433000D01*
X118658000Y-93433000D01*
X118655000Y-93434000D01*
X118653000Y-93434000D01*
X118650000Y-93435000D01*
X118648000Y-93435000D01*
X118645000Y-93435000D01*
X118355000Y-93435000D01*
X118352000Y-93435000D01*
X118350000Y-93435000D01*
X118347000Y-93434000D01*
X118345000Y-93434000D01*
X118342000Y-93433000D01*
X118340000Y-93433000D01*
X118337000Y-93432000D01*
X118335000Y-93431000D01*
X118332000Y-93430000D01*
X118330000Y-93428000D01*
X118328000Y-93427000D01*
X118326000Y-93425000D01*
X118324000Y-93424000D01*
X118322000Y-93422000D01*
X118320000Y-93420000D01*
X118318000Y-93418000D01*
X118316000Y-93416000D01*
X118315000Y-93414000D01*
X118313000Y-93412000D01*
X118312000Y-93410000D01*
X118310000Y-93408000D01*
X118309000Y-93405000D01*
X118308000Y-93403000D01*
X118307000Y-93400000D01*
X118307000Y-93398000D01*
X118306000Y-93395000D01*
X118306000Y-93393000D01*
X118305000Y-93390000D01*
X118305000Y-93388000D01*
X118305000Y-93385000D01*
X118305000Y-92845000D01*
X118305000Y-92842000D01*
X118305000Y-92840000D01*
X118306000Y-92837000D01*
X118306000Y-92835000D01*
X118307000Y-92832000D01*
X118307000Y-92830000D01*
X118308000Y-92827000D01*
X118309000Y-92825000D01*
X118310000Y-92822000D01*
X118312000Y-92820000D01*
X118313000Y-92818000D01*
X118315000Y-92816000D01*
X118316000Y-92814000D01*
X118318000Y-92812000D01*
X118320000Y-92810000D01*
X118322000Y-92808000D01*
X118324000Y-92806000D01*
X118326000Y-92805000D01*
X118328000Y-92803000D01*
X118330000Y-92802000D01*
X118332000Y-92800000D01*
X118335000Y-92799000D01*
X118337000Y-92798000D01*
X118340000Y-92797000D01*
X118342000Y-92797000D01*
X118345000Y-92796000D01*
X118347000Y-92796000D01*
X118350000Y-92795000D01*
X118352000Y-92795000D01*
X118355000Y-92795000D01*
X118645000Y-92795000D01*
X118648000Y-92795000D01*
X118650000Y-92795000D01*
X118653000Y-92796000D01*
G36*
X118653000Y-92796000D02*
G01*
X118655000Y-92796000D01*
X118658000Y-92797000D01*
X118660000Y-92797000D01*
X118663000Y-92798000D01*
X118665000Y-92799000D01*
X118668000Y-92800000D01*
X118670000Y-92802000D01*
X118672000Y-92803000D01*
X118674000Y-92805000D01*
X118676000Y-92806000D01*
X118678000Y-92808000D01*
X118680000Y-92810000D01*
X118682000Y-92812000D01*
X118684000Y-92814000D01*
X118685000Y-92816000D01*
X118687000Y-92818000D01*
X118688000Y-92820000D01*
X118690000Y-92822000D01*
X118691000Y-92825000D01*
X118692000Y-92827000D01*
X118693000Y-92830000D01*
X118693000Y-92832000D01*
X118694000Y-92835000D01*
X118694000Y-92837000D01*
X118695000Y-92840000D01*
X118695000Y-92842000D01*
X118695000Y-92845000D01*
X118695000Y-93385000D01*
X118695000Y-93388000D01*
X118695000Y-93390000D01*
X118694000Y-93393000D01*
X118694000Y-93395000D01*
X118693000Y-93398000D01*
X118693000Y-93400000D01*
X118692000Y-93403000D01*
X118691000Y-93405000D01*
X118690000Y-93408000D01*
X118688000Y-93410000D01*
X118687000Y-93412000D01*
X118685000Y-93414000D01*
X118684000Y-93416000D01*
X118682000Y-93418000D01*
X118680000Y-93420000D01*
X118678000Y-93422000D01*
X118676000Y-93424000D01*
X118674000Y-93425000D01*
X118672000Y-93427000D01*
X118670000Y-93428000D01*
X118668000Y-93430000D01*
X118665000Y-93431000D01*
X118663000Y-93432000D01*
X118660000Y-93433000D01*
X118658000Y-93433000D01*
X118655000Y-93434000D01*
X118653000Y-93434000D01*
X118650000Y-93435000D01*
X118648000Y-93435000D01*
X118645000Y-93435000D01*
X118355000Y-93435000D01*
X118352000Y-93435000D01*
X118350000Y-93435000D01*
X118347000Y-93434000D01*
X118345000Y-93434000D01*
X118342000Y-93433000D01*
X118340000Y-93433000D01*
X118337000Y-93432000D01*
X118335000Y-93431000D01*
X118332000Y-93430000D01*
X118330000Y-93428000D01*
X118328000Y-93427000D01*
X118326000Y-93425000D01*
X118324000Y-93424000D01*
X118322000Y-93422000D01*
X118320000Y-93420000D01*
X118318000Y-93418000D01*
X118316000Y-93416000D01*
X118315000Y-93414000D01*
X118313000Y-93412000D01*
X118312000Y-93410000D01*
X118310000Y-93408000D01*
X118309000Y-93405000D01*
X118308000Y-93403000D01*
X118307000Y-93400000D01*
X118307000Y-93398000D01*
X118306000Y-93395000D01*
X118306000Y-93393000D01*
X118305000Y-93390000D01*
X118305000Y-93388000D01*
X118305000Y-93385000D01*
X118305000Y-92845000D01*
X118305000Y-92842000D01*
X118305000Y-92840000D01*
X118306000Y-92837000D01*
X118306000Y-92835000D01*
X118307000Y-92832000D01*
X118307000Y-92830000D01*
X118308000Y-92827000D01*
X118309000Y-92825000D01*
X118310000Y-92822000D01*
X118312000Y-92820000D01*
X118313000Y-92818000D01*
X118315000Y-92816000D01*
X118316000Y-92814000D01*
X118318000Y-92812000D01*
X118320000Y-92810000D01*
X118322000Y-92808000D01*
X118324000Y-92806000D01*
X118326000Y-92805000D01*
X118328000Y-92803000D01*
X118330000Y-92802000D01*
X118332000Y-92800000D01*
X118335000Y-92799000D01*
X118337000Y-92798000D01*
X118340000Y-92797000D01*
X118342000Y-92797000D01*
X118345000Y-92796000D01*
X118347000Y-92796000D01*
X118350000Y-92795000D01*
X118352000Y-92795000D01*
X118355000Y-92795000D01*
X118645000Y-92795000D01*
X118648000Y-92795000D01*
X118650000Y-92795000D01*
X118653000Y-92796000D01*
G37*
X118653000Y-94766000D02*
X118655000Y-94766000D01*
X118658000Y-94767000D01*
X118660000Y-94767000D01*
X118663000Y-94768000D01*
X118665000Y-94769000D01*
X118668000Y-94770000D01*
X118670000Y-94772000D01*
X118672000Y-94773000D01*
X118674000Y-94775000D01*
X118676000Y-94776000D01*
X118678000Y-94778000D01*
X118680000Y-94780000D01*
X118682000Y-94782000D01*
X118684000Y-94784000D01*
X118685000Y-94786000D01*
X118687000Y-94788000D01*
X118688000Y-94790000D01*
X118690000Y-94792000D01*
X118691000Y-94795000D01*
X118692000Y-94797000D01*
X118693000Y-94800000D01*
X118693000Y-94802000D01*
X118694000Y-94805000D01*
X118694000Y-94807000D01*
X118695000Y-94810000D01*
X118695000Y-94812000D01*
X118695000Y-94815000D01*
X118695000Y-95355000D01*
X118695000Y-95358000D01*
X118695000Y-95360000D01*
X118694000Y-95363000D01*
X118694000Y-95365000D01*
X118693000Y-95368000D01*
X118693000Y-95370000D01*
X118692000Y-95373000D01*
X118691000Y-95375000D01*
X118690000Y-95378000D01*
X118688000Y-95380000D01*
X118687000Y-95382000D01*
X118685000Y-95384000D01*
X118684000Y-95386000D01*
X118682000Y-95388000D01*
X118680000Y-95390000D01*
X118678000Y-95392000D01*
X118676000Y-95394000D01*
X118674000Y-95395000D01*
X118672000Y-95397000D01*
X118670000Y-95398000D01*
X118668000Y-95400000D01*
X118665000Y-95401000D01*
X118663000Y-95402000D01*
X118660000Y-95403000D01*
X118658000Y-95403000D01*
X118655000Y-95404000D01*
X118653000Y-95404000D01*
X118650000Y-95405000D01*
X118648000Y-95405000D01*
X118645000Y-95405000D01*
X118355000Y-95405000D01*
X118352000Y-95405000D01*
X118350000Y-95405000D01*
X118347000Y-95404000D01*
X118345000Y-95404000D01*
X118342000Y-95403000D01*
X118340000Y-95403000D01*
X118337000Y-95402000D01*
X118335000Y-95401000D01*
X118332000Y-95400000D01*
X118330000Y-95398000D01*
X118328000Y-95397000D01*
X118326000Y-95395000D01*
X118324000Y-95394000D01*
X118322000Y-95392000D01*
X118320000Y-95390000D01*
X118318000Y-95388000D01*
X118316000Y-95386000D01*
X118315000Y-95384000D01*
X118313000Y-95382000D01*
X118312000Y-95380000D01*
X118310000Y-95378000D01*
X118309000Y-95375000D01*
X118308000Y-95373000D01*
X118307000Y-95370000D01*
X118307000Y-95368000D01*
X118306000Y-95365000D01*
X118306000Y-95363000D01*
X118305000Y-95360000D01*
X118305000Y-95358000D01*
X118305000Y-95355000D01*
X118305000Y-94815000D01*
X118305000Y-94812000D01*
X118305000Y-94810000D01*
X118306000Y-94807000D01*
X118306000Y-94805000D01*
X118307000Y-94802000D01*
X118307000Y-94800000D01*
X118308000Y-94797000D01*
X118309000Y-94795000D01*
X118310000Y-94792000D01*
X118312000Y-94790000D01*
X118313000Y-94788000D01*
X118315000Y-94786000D01*
X118316000Y-94784000D01*
X118318000Y-94782000D01*
X118320000Y-94780000D01*
X118322000Y-94778000D01*
X118324000Y-94776000D01*
X118326000Y-94775000D01*
X118328000Y-94773000D01*
X118330000Y-94772000D01*
X118332000Y-94770000D01*
X118335000Y-94769000D01*
X118337000Y-94768000D01*
X118340000Y-94767000D01*
X118342000Y-94767000D01*
X118345000Y-94766000D01*
X118347000Y-94766000D01*
X118350000Y-94765000D01*
X118352000Y-94765000D01*
X118355000Y-94765000D01*
X118645000Y-94765000D01*
X118648000Y-94765000D01*
X118650000Y-94765000D01*
X118653000Y-94766000D01*
G36*
X118653000Y-94766000D02*
G01*
X118655000Y-94766000D01*
X118658000Y-94767000D01*
X118660000Y-94767000D01*
X118663000Y-94768000D01*
X118665000Y-94769000D01*
X118668000Y-94770000D01*
X118670000Y-94772000D01*
X118672000Y-94773000D01*
X118674000Y-94775000D01*
X118676000Y-94776000D01*
X118678000Y-94778000D01*
X118680000Y-94780000D01*
X118682000Y-94782000D01*
X118684000Y-94784000D01*
X118685000Y-94786000D01*
X118687000Y-94788000D01*
X118688000Y-94790000D01*
X118690000Y-94792000D01*
X118691000Y-94795000D01*
X118692000Y-94797000D01*
X118693000Y-94800000D01*
X118693000Y-94802000D01*
X118694000Y-94805000D01*
X118694000Y-94807000D01*
X118695000Y-94810000D01*
X118695000Y-94812000D01*
X118695000Y-94815000D01*
X118695000Y-95355000D01*
X118695000Y-95358000D01*
X118695000Y-95360000D01*
X118694000Y-95363000D01*
X118694000Y-95365000D01*
X118693000Y-95368000D01*
X118693000Y-95370000D01*
X118692000Y-95373000D01*
X118691000Y-95375000D01*
X118690000Y-95378000D01*
X118688000Y-95380000D01*
X118687000Y-95382000D01*
X118685000Y-95384000D01*
X118684000Y-95386000D01*
X118682000Y-95388000D01*
X118680000Y-95390000D01*
X118678000Y-95392000D01*
X118676000Y-95394000D01*
X118674000Y-95395000D01*
X118672000Y-95397000D01*
X118670000Y-95398000D01*
X118668000Y-95400000D01*
X118665000Y-95401000D01*
X118663000Y-95402000D01*
X118660000Y-95403000D01*
X118658000Y-95403000D01*
X118655000Y-95404000D01*
X118653000Y-95404000D01*
X118650000Y-95405000D01*
X118648000Y-95405000D01*
X118645000Y-95405000D01*
X118355000Y-95405000D01*
X118352000Y-95405000D01*
X118350000Y-95405000D01*
X118347000Y-95404000D01*
X118345000Y-95404000D01*
X118342000Y-95403000D01*
X118340000Y-95403000D01*
X118337000Y-95402000D01*
X118335000Y-95401000D01*
X118332000Y-95400000D01*
X118330000Y-95398000D01*
X118328000Y-95397000D01*
X118326000Y-95395000D01*
X118324000Y-95394000D01*
X118322000Y-95392000D01*
X118320000Y-95390000D01*
X118318000Y-95388000D01*
X118316000Y-95386000D01*
X118315000Y-95384000D01*
X118313000Y-95382000D01*
X118312000Y-95380000D01*
X118310000Y-95378000D01*
X118309000Y-95375000D01*
X118308000Y-95373000D01*
X118307000Y-95370000D01*
X118307000Y-95368000D01*
X118306000Y-95365000D01*
X118306000Y-95363000D01*
X118305000Y-95360000D01*
X118305000Y-95358000D01*
X118305000Y-95355000D01*
X118305000Y-94815000D01*
X118305000Y-94812000D01*
X118305000Y-94810000D01*
X118306000Y-94807000D01*
X118306000Y-94805000D01*
X118307000Y-94802000D01*
X118307000Y-94800000D01*
X118308000Y-94797000D01*
X118309000Y-94795000D01*
X118310000Y-94792000D01*
X118312000Y-94790000D01*
X118313000Y-94788000D01*
X118315000Y-94786000D01*
X118316000Y-94784000D01*
X118318000Y-94782000D01*
X118320000Y-94780000D01*
X118322000Y-94778000D01*
X118324000Y-94776000D01*
X118326000Y-94775000D01*
X118328000Y-94773000D01*
X118330000Y-94772000D01*
X118332000Y-94770000D01*
X118335000Y-94769000D01*
X118337000Y-94768000D01*
X118340000Y-94767000D01*
X118342000Y-94767000D01*
X118345000Y-94766000D01*
X118347000Y-94766000D01*
X118350000Y-94765000D01*
X118352000Y-94765000D01*
X118355000Y-94765000D01*
X118645000Y-94765000D01*
X118648000Y-94765000D01*
X118650000Y-94765000D01*
X118653000Y-94766000D01*
G37*
X119153000Y-92796000D02*
X119155000Y-92796000D01*
X119158000Y-92797000D01*
X119160000Y-92797000D01*
X119163000Y-92798000D01*
X119165000Y-92799000D01*
X119168000Y-92800000D01*
X119170000Y-92802000D01*
X119172000Y-92803000D01*
X119174000Y-92805000D01*
X119176000Y-92806000D01*
X119178000Y-92808000D01*
X119180000Y-92810000D01*
X119182000Y-92812000D01*
X119184000Y-92814000D01*
X119185000Y-92816000D01*
X119187000Y-92818000D01*
X119188000Y-92820000D01*
X119190000Y-92822000D01*
X119191000Y-92825000D01*
X119192000Y-92827000D01*
X119193000Y-92830000D01*
X119193000Y-92832000D01*
X119194000Y-92835000D01*
X119194000Y-92837000D01*
X119195000Y-92840000D01*
X119195000Y-92842000D01*
X119195000Y-92845000D01*
X119195000Y-93385000D01*
X119195000Y-93388000D01*
X119195000Y-93390000D01*
X119194000Y-93393000D01*
X119194000Y-93395000D01*
X119193000Y-93398000D01*
X119193000Y-93400000D01*
X119192000Y-93403000D01*
X119191000Y-93405000D01*
X119190000Y-93408000D01*
X119188000Y-93410000D01*
X119187000Y-93412000D01*
X119185000Y-93414000D01*
X119184000Y-93416000D01*
X119182000Y-93418000D01*
X119180000Y-93420000D01*
X119178000Y-93422000D01*
X119176000Y-93424000D01*
X119174000Y-93425000D01*
X119172000Y-93427000D01*
X119170000Y-93428000D01*
X119168000Y-93430000D01*
X119165000Y-93431000D01*
X119163000Y-93432000D01*
X119160000Y-93433000D01*
X119158000Y-93433000D01*
X119155000Y-93434000D01*
X119153000Y-93434000D01*
X119150000Y-93435000D01*
X119148000Y-93435000D01*
X119145000Y-93435000D01*
X118855000Y-93435000D01*
X118852000Y-93435000D01*
X118850000Y-93435000D01*
X118847000Y-93434000D01*
X118845000Y-93434000D01*
X118842000Y-93433000D01*
X118840000Y-93433000D01*
X118837000Y-93432000D01*
X118835000Y-93431000D01*
X118832000Y-93430000D01*
X118830000Y-93428000D01*
X118828000Y-93427000D01*
X118826000Y-93425000D01*
X118824000Y-93424000D01*
X118822000Y-93422000D01*
X118820000Y-93420000D01*
X118818000Y-93418000D01*
X118816000Y-93416000D01*
X118815000Y-93414000D01*
X118813000Y-93412000D01*
X118812000Y-93410000D01*
X118810000Y-93408000D01*
X118809000Y-93405000D01*
X118808000Y-93403000D01*
X118807000Y-93400000D01*
X118807000Y-93398000D01*
X118806000Y-93395000D01*
X118806000Y-93393000D01*
X118805000Y-93390000D01*
X118805000Y-93388000D01*
X118805000Y-93385000D01*
X118805000Y-92845000D01*
X118805000Y-92842000D01*
X118805000Y-92840000D01*
X118806000Y-92837000D01*
X118806000Y-92835000D01*
X118807000Y-92832000D01*
X118807000Y-92830000D01*
X118808000Y-92827000D01*
X118809000Y-92825000D01*
X118810000Y-92822000D01*
X118812000Y-92820000D01*
X118813000Y-92818000D01*
X118815000Y-92816000D01*
X118816000Y-92814000D01*
X118818000Y-92812000D01*
X118820000Y-92810000D01*
X118822000Y-92808000D01*
X118824000Y-92806000D01*
X118826000Y-92805000D01*
X118828000Y-92803000D01*
X118830000Y-92802000D01*
X118832000Y-92800000D01*
X118835000Y-92799000D01*
X118837000Y-92798000D01*
X118840000Y-92797000D01*
X118842000Y-92797000D01*
X118845000Y-92796000D01*
X118847000Y-92796000D01*
X118850000Y-92795000D01*
X118852000Y-92795000D01*
X118855000Y-92795000D01*
X119145000Y-92795000D01*
X119148000Y-92795000D01*
X119150000Y-92795000D01*
X119153000Y-92796000D01*
G36*
X119153000Y-92796000D02*
G01*
X119155000Y-92796000D01*
X119158000Y-92797000D01*
X119160000Y-92797000D01*
X119163000Y-92798000D01*
X119165000Y-92799000D01*
X119168000Y-92800000D01*
X119170000Y-92802000D01*
X119172000Y-92803000D01*
X119174000Y-92805000D01*
X119176000Y-92806000D01*
X119178000Y-92808000D01*
X119180000Y-92810000D01*
X119182000Y-92812000D01*
X119184000Y-92814000D01*
X119185000Y-92816000D01*
X119187000Y-92818000D01*
X119188000Y-92820000D01*
X119190000Y-92822000D01*
X119191000Y-92825000D01*
X119192000Y-92827000D01*
X119193000Y-92830000D01*
X119193000Y-92832000D01*
X119194000Y-92835000D01*
X119194000Y-92837000D01*
X119195000Y-92840000D01*
X119195000Y-92842000D01*
X119195000Y-92845000D01*
X119195000Y-93385000D01*
X119195000Y-93388000D01*
X119195000Y-93390000D01*
X119194000Y-93393000D01*
X119194000Y-93395000D01*
X119193000Y-93398000D01*
X119193000Y-93400000D01*
X119192000Y-93403000D01*
X119191000Y-93405000D01*
X119190000Y-93408000D01*
X119188000Y-93410000D01*
X119187000Y-93412000D01*
X119185000Y-93414000D01*
X119184000Y-93416000D01*
X119182000Y-93418000D01*
X119180000Y-93420000D01*
X119178000Y-93422000D01*
X119176000Y-93424000D01*
X119174000Y-93425000D01*
X119172000Y-93427000D01*
X119170000Y-93428000D01*
X119168000Y-93430000D01*
X119165000Y-93431000D01*
X119163000Y-93432000D01*
X119160000Y-93433000D01*
X119158000Y-93433000D01*
X119155000Y-93434000D01*
X119153000Y-93434000D01*
X119150000Y-93435000D01*
X119148000Y-93435000D01*
X119145000Y-93435000D01*
X118855000Y-93435000D01*
X118852000Y-93435000D01*
X118850000Y-93435000D01*
X118847000Y-93434000D01*
X118845000Y-93434000D01*
X118842000Y-93433000D01*
X118840000Y-93433000D01*
X118837000Y-93432000D01*
X118835000Y-93431000D01*
X118832000Y-93430000D01*
X118830000Y-93428000D01*
X118828000Y-93427000D01*
X118826000Y-93425000D01*
X118824000Y-93424000D01*
X118822000Y-93422000D01*
X118820000Y-93420000D01*
X118818000Y-93418000D01*
X118816000Y-93416000D01*
X118815000Y-93414000D01*
X118813000Y-93412000D01*
X118812000Y-93410000D01*
X118810000Y-93408000D01*
X118809000Y-93405000D01*
X118808000Y-93403000D01*
X118807000Y-93400000D01*
X118807000Y-93398000D01*
X118806000Y-93395000D01*
X118806000Y-93393000D01*
X118805000Y-93390000D01*
X118805000Y-93388000D01*
X118805000Y-93385000D01*
X118805000Y-92845000D01*
X118805000Y-92842000D01*
X118805000Y-92840000D01*
X118806000Y-92837000D01*
X118806000Y-92835000D01*
X118807000Y-92832000D01*
X118807000Y-92830000D01*
X118808000Y-92827000D01*
X118809000Y-92825000D01*
X118810000Y-92822000D01*
X118812000Y-92820000D01*
X118813000Y-92818000D01*
X118815000Y-92816000D01*
X118816000Y-92814000D01*
X118818000Y-92812000D01*
X118820000Y-92810000D01*
X118822000Y-92808000D01*
X118824000Y-92806000D01*
X118826000Y-92805000D01*
X118828000Y-92803000D01*
X118830000Y-92802000D01*
X118832000Y-92800000D01*
X118835000Y-92799000D01*
X118837000Y-92798000D01*
X118840000Y-92797000D01*
X118842000Y-92797000D01*
X118845000Y-92796000D01*
X118847000Y-92796000D01*
X118850000Y-92795000D01*
X118852000Y-92795000D01*
X118855000Y-92795000D01*
X119145000Y-92795000D01*
X119148000Y-92795000D01*
X119150000Y-92795000D01*
X119153000Y-92796000D01*
G37*
X119153000Y-94766000D02*
X119155000Y-94766000D01*
X119158000Y-94767000D01*
X119160000Y-94767000D01*
X119163000Y-94768000D01*
X119165000Y-94769000D01*
X119168000Y-94770000D01*
X119170000Y-94772000D01*
X119172000Y-94773000D01*
X119174000Y-94775000D01*
X119176000Y-94776000D01*
X119178000Y-94778000D01*
X119180000Y-94780000D01*
X119182000Y-94782000D01*
X119184000Y-94784000D01*
X119185000Y-94786000D01*
X119187000Y-94788000D01*
X119188000Y-94790000D01*
X119190000Y-94792000D01*
X119191000Y-94795000D01*
X119192000Y-94797000D01*
X119193000Y-94800000D01*
X119193000Y-94802000D01*
X119194000Y-94805000D01*
X119194000Y-94807000D01*
X119195000Y-94810000D01*
X119195000Y-94812000D01*
X119195000Y-94815000D01*
X119195000Y-95355000D01*
X119195000Y-95358000D01*
X119195000Y-95360000D01*
X119194000Y-95363000D01*
X119194000Y-95365000D01*
X119193000Y-95368000D01*
X119193000Y-95370000D01*
X119192000Y-95373000D01*
X119191000Y-95375000D01*
X119190000Y-95378000D01*
X119188000Y-95380000D01*
X119187000Y-95382000D01*
X119185000Y-95384000D01*
X119184000Y-95386000D01*
X119182000Y-95388000D01*
X119180000Y-95390000D01*
X119178000Y-95392000D01*
X119176000Y-95394000D01*
X119174000Y-95395000D01*
X119172000Y-95397000D01*
X119170000Y-95398000D01*
X119168000Y-95400000D01*
X119165000Y-95401000D01*
X119163000Y-95402000D01*
X119160000Y-95403000D01*
X119158000Y-95403000D01*
X119155000Y-95404000D01*
X119153000Y-95404000D01*
X119150000Y-95405000D01*
X119148000Y-95405000D01*
X119145000Y-95405000D01*
X118855000Y-95405000D01*
X118852000Y-95405000D01*
X118850000Y-95405000D01*
X118847000Y-95404000D01*
X118845000Y-95404000D01*
X118842000Y-95403000D01*
X118840000Y-95403000D01*
X118837000Y-95402000D01*
X118835000Y-95401000D01*
X118832000Y-95400000D01*
X118830000Y-95398000D01*
X118828000Y-95397000D01*
X118826000Y-95395000D01*
X118824000Y-95394000D01*
X118822000Y-95392000D01*
X118820000Y-95390000D01*
X118818000Y-95388000D01*
X118816000Y-95386000D01*
X118815000Y-95384000D01*
X118813000Y-95382000D01*
X118812000Y-95380000D01*
X118810000Y-95378000D01*
X118809000Y-95375000D01*
X118808000Y-95373000D01*
X118807000Y-95370000D01*
X118807000Y-95368000D01*
X118806000Y-95365000D01*
X118806000Y-95363000D01*
X118805000Y-95360000D01*
X118805000Y-95358000D01*
X118805000Y-95355000D01*
X118805000Y-94815000D01*
X118805000Y-94812000D01*
X118805000Y-94810000D01*
X118806000Y-94807000D01*
X118806000Y-94805000D01*
X118807000Y-94802000D01*
X118807000Y-94800000D01*
X118808000Y-94797000D01*
X118809000Y-94795000D01*
X118810000Y-94792000D01*
X118812000Y-94790000D01*
X118813000Y-94788000D01*
X118815000Y-94786000D01*
X118816000Y-94784000D01*
X118818000Y-94782000D01*
X118820000Y-94780000D01*
X118822000Y-94778000D01*
X118824000Y-94776000D01*
X118826000Y-94775000D01*
X118828000Y-94773000D01*
X118830000Y-94772000D01*
X118832000Y-94770000D01*
X118835000Y-94769000D01*
X118837000Y-94768000D01*
X118840000Y-94767000D01*
X118842000Y-94767000D01*
X118845000Y-94766000D01*
X118847000Y-94766000D01*
X118850000Y-94765000D01*
X118852000Y-94765000D01*
X118855000Y-94765000D01*
X119145000Y-94765000D01*
X119148000Y-94765000D01*
X119150000Y-94765000D01*
X119153000Y-94766000D01*
G36*
X119153000Y-94766000D02*
G01*
X119155000Y-94766000D01*
X119158000Y-94767000D01*
X119160000Y-94767000D01*
X119163000Y-94768000D01*
X119165000Y-94769000D01*
X119168000Y-94770000D01*
X119170000Y-94772000D01*
X119172000Y-94773000D01*
X119174000Y-94775000D01*
X119176000Y-94776000D01*
X119178000Y-94778000D01*
X119180000Y-94780000D01*
X119182000Y-94782000D01*
X119184000Y-94784000D01*
X119185000Y-94786000D01*
X119187000Y-94788000D01*
X119188000Y-94790000D01*
X119190000Y-94792000D01*
X119191000Y-94795000D01*
X119192000Y-94797000D01*
X119193000Y-94800000D01*
X119193000Y-94802000D01*
X119194000Y-94805000D01*
X119194000Y-94807000D01*
X119195000Y-94810000D01*
X119195000Y-94812000D01*
X119195000Y-94815000D01*
X119195000Y-95355000D01*
X119195000Y-95358000D01*
X119195000Y-95360000D01*
X119194000Y-95363000D01*
X119194000Y-95365000D01*
X119193000Y-95368000D01*
X119193000Y-95370000D01*
X119192000Y-95373000D01*
X119191000Y-95375000D01*
X119190000Y-95378000D01*
X119188000Y-95380000D01*
X119187000Y-95382000D01*
X119185000Y-95384000D01*
X119184000Y-95386000D01*
X119182000Y-95388000D01*
X119180000Y-95390000D01*
X119178000Y-95392000D01*
X119176000Y-95394000D01*
X119174000Y-95395000D01*
X119172000Y-95397000D01*
X119170000Y-95398000D01*
X119168000Y-95400000D01*
X119165000Y-95401000D01*
X119163000Y-95402000D01*
X119160000Y-95403000D01*
X119158000Y-95403000D01*
X119155000Y-95404000D01*
X119153000Y-95404000D01*
X119150000Y-95405000D01*
X119148000Y-95405000D01*
X119145000Y-95405000D01*
X118855000Y-95405000D01*
X118852000Y-95405000D01*
X118850000Y-95405000D01*
X118847000Y-95404000D01*
X118845000Y-95404000D01*
X118842000Y-95403000D01*
X118840000Y-95403000D01*
X118837000Y-95402000D01*
X118835000Y-95401000D01*
X118832000Y-95400000D01*
X118830000Y-95398000D01*
X118828000Y-95397000D01*
X118826000Y-95395000D01*
X118824000Y-95394000D01*
X118822000Y-95392000D01*
X118820000Y-95390000D01*
X118818000Y-95388000D01*
X118816000Y-95386000D01*
X118815000Y-95384000D01*
X118813000Y-95382000D01*
X118812000Y-95380000D01*
X118810000Y-95378000D01*
X118809000Y-95375000D01*
X118808000Y-95373000D01*
X118807000Y-95370000D01*
X118807000Y-95368000D01*
X118806000Y-95365000D01*
X118806000Y-95363000D01*
X118805000Y-95360000D01*
X118805000Y-95358000D01*
X118805000Y-95355000D01*
X118805000Y-94815000D01*
X118805000Y-94812000D01*
X118805000Y-94810000D01*
X118806000Y-94807000D01*
X118806000Y-94805000D01*
X118807000Y-94802000D01*
X118807000Y-94800000D01*
X118808000Y-94797000D01*
X118809000Y-94795000D01*
X118810000Y-94792000D01*
X118812000Y-94790000D01*
X118813000Y-94788000D01*
X118815000Y-94786000D01*
X118816000Y-94784000D01*
X118818000Y-94782000D01*
X118820000Y-94780000D01*
X118822000Y-94778000D01*
X118824000Y-94776000D01*
X118826000Y-94775000D01*
X118828000Y-94773000D01*
X118830000Y-94772000D01*
X118832000Y-94770000D01*
X118835000Y-94769000D01*
X118837000Y-94768000D01*
X118840000Y-94767000D01*
X118842000Y-94767000D01*
X118845000Y-94766000D01*
X118847000Y-94766000D01*
X118850000Y-94765000D01*
X118852000Y-94765000D01*
X118855000Y-94765000D01*
X119145000Y-94765000D01*
X119148000Y-94765000D01*
X119150000Y-94765000D01*
X119153000Y-94766000D01*
G37*
X119653000Y-92796000D02*
X119655000Y-92796000D01*
X119658000Y-92797000D01*
X119660000Y-92797000D01*
X119663000Y-92798000D01*
X119665000Y-92799000D01*
X119668000Y-92800000D01*
X119670000Y-92802000D01*
X119672000Y-92803000D01*
X119674000Y-92805000D01*
X119676000Y-92806000D01*
X119678000Y-92808000D01*
X119680000Y-92810000D01*
X119682000Y-92812000D01*
X119684000Y-92814000D01*
X119685000Y-92816000D01*
X119687000Y-92818000D01*
X119688000Y-92820000D01*
X119690000Y-92822000D01*
X119691000Y-92825000D01*
X119692000Y-92827000D01*
X119693000Y-92830000D01*
X119693000Y-92832000D01*
X119694000Y-92835000D01*
X119694000Y-92837000D01*
X119695000Y-92840000D01*
X119695000Y-92842000D01*
X119695000Y-92845000D01*
X119695000Y-93385000D01*
X119695000Y-93388000D01*
X119695000Y-93390000D01*
X119694000Y-93393000D01*
X119694000Y-93395000D01*
X119693000Y-93398000D01*
X119693000Y-93400000D01*
X119692000Y-93403000D01*
X119691000Y-93405000D01*
X119690000Y-93408000D01*
X119688000Y-93410000D01*
X119687000Y-93412000D01*
X119685000Y-93414000D01*
X119684000Y-93416000D01*
X119682000Y-93418000D01*
X119680000Y-93420000D01*
X119678000Y-93422000D01*
X119676000Y-93424000D01*
X119674000Y-93425000D01*
X119672000Y-93427000D01*
X119670000Y-93428000D01*
X119668000Y-93430000D01*
X119665000Y-93431000D01*
X119663000Y-93432000D01*
X119660000Y-93433000D01*
X119658000Y-93433000D01*
X119655000Y-93434000D01*
X119653000Y-93434000D01*
X119650000Y-93435000D01*
X119648000Y-93435000D01*
X119645000Y-93435000D01*
X119355000Y-93435000D01*
X119352000Y-93435000D01*
X119350000Y-93435000D01*
X119347000Y-93434000D01*
X119345000Y-93434000D01*
X119342000Y-93433000D01*
X119340000Y-93433000D01*
X119337000Y-93432000D01*
X119335000Y-93431000D01*
X119332000Y-93430000D01*
X119330000Y-93428000D01*
X119328000Y-93427000D01*
X119326000Y-93425000D01*
X119324000Y-93424000D01*
X119322000Y-93422000D01*
X119320000Y-93420000D01*
X119318000Y-93418000D01*
X119316000Y-93416000D01*
X119315000Y-93414000D01*
X119313000Y-93412000D01*
X119312000Y-93410000D01*
X119310000Y-93408000D01*
X119309000Y-93405000D01*
X119308000Y-93403000D01*
X119307000Y-93400000D01*
X119307000Y-93398000D01*
X119306000Y-93395000D01*
X119306000Y-93393000D01*
X119305000Y-93390000D01*
X119305000Y-93388000D01*
X119305000Y-93385000D01*
X119305000Y-92845000D01*
X119305000Y-92842000D01*
X119305000Y-92840000D01*
X119306000Y-92837000D01*
X119306000Y-92835000D01*
X119307000Y-92832000D01*
X119307000Y-92830000D01*
X119308000Y-92827000D01*
X119309000Y-92825000D01*
X119310000Y-92822000D01*
X119312000Y-92820000D01*
X119313000Y-92818000D01*
X119315000Y-92816000D01*
X119316000Y-92814000D01*
X119318000Y-92812000D01*
X119320000Y-92810000D01*
X119322000Y-92808000D01*
X119324000Y-92806000D01*
X119326000Y-92805000D01*
X119328000Y-92803000D01*
X119330000Y-92802000D01*
X119332000Y-92800000D01*
X119335000Y-92799000D01*
X119337000Y-92798000D01*
X119340000Y-92797000D01*
X119342000Y-92797000D01*
X119345000Y-92796000D01*
X119347000Y-92796000D01*
X119350000Y-92795000D01*
X119352000Y-92795000D01*
X119355000Y-92795000D01*
X119645000Y-92795000D01*
X119648000Y-92795000D01*
X119650000Y-92795000D01*
X119653000Y-92796000D01*
G36*
X119653000Y-92796000D02*
G01*
X119655000Y-92796000D01*
X119658000Y-92797000D01*
X119660000Y-92797000D01*
X119663000Y-92798000D01*
X119665000Y-92799000D01*
X119668000Y-92800000D01*
X119670000Y-92802000D01*
X119672000Y-92803000D01*
X119674000Y-92805000D01*
X119676000Y-92806000D01*
X119678000Y-92808000D01*
X119680000Y-92810000D01*
X119682000Y-92812000D01*
X119684000Y-92814000D01*
X119685000Y-92816000D01*
X119687000Y-92818000D01*
X119688000Y-92820000D01*
X119690000Y-92822000D01*
X119691000Y-92825000D01*
X119692000Y-92827000D01*
X119693000Y-92830000D01*
X119693000Y-92832000D01*
X119694000Y-92835000D01*
X119694000Y-92837000D01*
X119695000Y-92840000D01*
X119695000Y-92842000D01*
X119695000Y-92845000D01*
X119695000Y-93385000D01*
X119695000Y-93388000D01*
X119695000Y-93390000D01*
X119694000Y-93393000D01*
X119694000Y-93395000D01*
X119693000Y-93398000D01*
X119693000Y-93400000D01*
X119692000Y-93403000D01*
X119691000Y-93405000D01*
X119690000Y-93408000D01*
X119688000Y-93410000D01*
X119687000Y-93412000D01*
X119685000Y-93414000D01*
X119684000Y-93416000D01*
X119682000Y-93418000D01*
X119680000Y-93420000D01*
X119678000Y-93422000D01*
X119676000Y-93424000D01*
X119674000Y-93425000D01*
X119672000Y-93427000D01*
X119670000Y-93428000D01*
X119668000Y-93430000D01*
X119665000Y-93431000D01*
X119663000Y-93432000D01*
X119660000Y-93433000D01*
X119658000Y-93433000D01*
X119655000Y-93434000D01*
X119653000Y-93434000D01*
X119650000Y-93435000D01*
X119648000Y-93435000D01*
X119645000Y-93435000D01*
X119355000Y-93435000D01*
X119352000Y-93435000D01*
X119350000Y-93435000D01*
X119347000Y-93434000D01*
X119345000Y-93434000D01*
X119342000Y-93433000D01*
X119340000Y-93433000D01*
X119337000Y-93432000D01*
X119335000Y-93431000D01*
X119332000Y-93430000D01*
X119330000Y-93428000D01*
X119328000Y-93427000D01*
X119326000Y-93425000D01*
X119324000Y-93424000D01*
X119322000Y-93422000D01*
X119320000Y-93420000D01*
X119318000Y-93418000D01*
X119316000Y-93416000D01*
X119315000Y-93414000D01*
X119313000Y-93412000D01*
X119312000Y-93410000D01*
X119310000Y-93408000D01*
X119309000Y-93405000D01*
X119308000Y-93403000D01*
X119307000Y-93400000D01*
X119307000Y-93398000D01*
X119306000Y-93395000D01*
X119306000Y-93393000D01*
X119305000Y-93390000D01*
X119305000Y-93388000D01*
X119305000Y-93385000D01*
X119305000Y-92845000D01*
X119305000Y-92842000D01*
X119305000Y-92840000D01*
X119306000Y-92837000D01*
X119306000Y-92835000D01*
X119307000Y-92832000D01*
X119307000Y-92830000D01*
X119308000Y-92827000D01*
X119309000Y-92825000D01*
X119310000Y-92822000D01*
X119312000Y-92820000D01*
X119313000Y-92818000D01*
X119315000Y-92816000D01*
X119316000Y-92814000D01*
X119318000Y-92812000D01*
X119320000Y-92810000D01*
X119322000Y-92808000D01*
X119324000Y-92806000D01*
X119326000Y-92805000D01*
X119328000Y-92803000D01*
X119330000Y-92802000D01*
X119332000Y-92800000D01*
X119335000Y-92799000D01*
X119337000Y-92798000D01*
X119340000Y-92797000D01*
X119342000Y-92797000D01*
X119345000Y-92796000D01*
X119347000Y-92796000D01*
X119350000Y-92795000D01*
X119352000Y-92795000D01*
X119355000Y-92795000D01*
X119645000Y-92795000D01*
X119648000Y-92795000D01*
X119650000Y-92795000D01*
X119653000Y-92796000D01*
G37*
X119653000Y-94766000D02*
X119655000Y-94766000D01*
X119658000Y-94767000D01*
X119660000Y-94767000D01*
X119663000Y-94768000D01*
X119665000Y-94769000D01*
X119668000Y-94770000D01*
X119670000Y-94772000D01*
X119672000Y-94773000D01*
X119674000Y-94775000D01*
X119676000Y-94776000D01*
X119678000Y-94778000D01*
X119680000Y-94780000D01*
X119682000Y-94782000D01*
X119684000Y-94784000D01*
X119685000Y-94786000D01*
X119687000Y-94788000D01*
X119688000Y-94790000D01*
X119690000Y-94792000D01*
X119691000Y-94795000D01*
X119692000Y-94797000D01*
X119693000Y-94800000D01*
X119693000Y-94802000D01*
X119694000Y-94805000D01*
X119694000Y-94807000D01*
X119695000Y-94810000D01*
X119695000Y-94812000D01*
X119695000Y-94815000D01*
X119695000Y-95355000D01*
X119695000Y-95358000D01*
X119695000Y-95360000D01*
X119694000Y-95363000D01*
X119694000Y-95365000D01*
X119693000Y-95368000D01*
X119693000Y-95370000D01*
X119692000Y-95373000D01*
X119691000Y-95375000D01*
X119690000Y-95378000D01*
X119688000Y-95380000D01*
X119687000Y-95382000D01*
X119685000Y-95384000D01*
X119684000Y-95386000D01*
X119682000Y-95388000D01*
X119680000Y-95390000D01*
X119678000Y-95392000D01*
X119676000Y-95394000D01*
X119674000Y-95395000D01*
X119672000Y-95397000D01*
X119670000Y-95398000D01*
X119668000Y-95400000D01*
X119665000Y-95401000D01*
X119663000Y-95402000D01*
X119660000Y-95403000D01*
X119658000Y-95403000D01*
X119655000Y-95404000D01*
X119653000Y-95404000D01*
X119650000Y-95405000D01*
X119648000Y-95405000D01*
X119645000Y-95405000D01*
X119355000Y-95405000D01*
X119352000Y-95405000D01*
X119350000Y-95405000D01*
X119347000Y-95404000D01*
X119345000Y-95404000D01*
X119342000Y-95403000D01*
X119340000Y-95403000D01*
X119337000Y-95402000D01*
X119335000Y-95401000D01*
X119332000Y-95400000D01*
X119330000Y-95398000D01*
X119328000Y-95397000D01*
X119326000Y-95395000D01*
X119324000Y-95394000D01*
X119322000Y-95392000D01*
X119320000Y-95390000D01*
X119318000Y-95388000D01*
X119316000Y-95386000D01*
X119315000Y-95384000D01*
X119313000Y-95382000D01*
X119312000Y-95380000D01*
X119310000Y-95378000D01*
X119309000Y-95375000D01*
X119308000Y-95373000D01*
X119307000Y-95370000D01*
X119307000Y-95368000D01*
X119306000Y-95365000D01*
X119306000Y-95363000D01*
X119305000Y-95360000D01*
X119305000Y-95358000D01*
X119305000Y-95355000D01*
X119305000Y-94815000D01*
X119305000Y-94812000D01*
X119305000Y-94810000D01*
X119306000Y-94807000D01*
X119306000Y-94805000D01*
X119307000Y-94802000D01*
X119307000Y-94800000D01*
X119308000Y-94797000D01*
X119309000Y-94795000D01*
X119310000Y-94792000D01*
X119312000Y-94790000D01*
X119313000Y-94788000D01*
X119315000Y-94786000D01*
X119316000Y-94784000D01*
X119318000Y-94782000D01*
X119320000Y-94780000D01*
X119322000Y-94778000D01*
X119324000Y-94776000D01*
X119326000Y-94775000D01*
X119328000Y-94773000D01*
X119330000Y-94772000D01*
X119332000Y-94770000D01*
X119335000Y-94769000D01*
X119337000Y-94768000D01*
X119340000Y-94767000D01*
X119342000Y-94767000D01*
X119345000Y-94766000D01*
X119347000Y-94766000D01*
X119350000Y-94765000D01*
X119352000Y-94765000D01*
X119355000Y-94765000D01*
X119645000Y-94765000D01*
X119648000Y-94765000D01*
X119650000Y-94765000D01*
X119653000Y-94766000D01*
G36*
X119653000Y-94766000D02*
G01*
X119655000Y-94766000D01*
X119658000Y-94767000D01*
X119660000Y-94767000D01*
X119663000Y-94768000D01*
X119665000Y-94769000D01*
X119668000Y-94770000D01*
X119670000Y-94772000D01*
X119672000Y-94773000D01*
X119674000Y-94775000D01*
X119676000Y-94776000D01*
X119678000Y-94778000D01*
X119680000Y-94780000D01*
X119682000Y-94782000D01*
X119684000Y-94784000D01*
X119685000Y-94786000D01*
X119687000Y-94788000D01*
X119688000Y-94790000D01*
X119690000Y-94792000D01*
X119691000Y-94795000D01*
X119692000Y-94797000D01*
X119693000Y-94800000D01*
X119693000Y-94802000D01*
X119694000Y-94805000D01*
X119694000Y-94807000D01*
X119695000Y-94810000D01*
X119695000Y-94812000D01*
X119695000Y-94815000D01*
X119695000Y-95355000D01*
X119695000Y-95358000D01*
X119695000Y-95360000D01*
X119694000Y-95363000D01*
X119694000Y-95365000D01*
X119693000Y-95368000D01*
X119693000Y-95370000D01*
X119692000Y-95373000D01*
X119691000Y-95375000D01*
X119690000Y-95378000D01*
X119688000Y-95380000D01*
X119687000Y-95382000D01*
X119685000Y-95384000D01*
X119684000Y-95386000D01*
X119682000Y-95388000D01*
X119680000Y-95390000D01*
X119678000Y-95392000D01*
X119676000Y-95394000D01*
X119674000Y-95395000D01*
X119672000Y-95397000D01*
X119670000Y-95398000D01*
X119668000Y-95400000D01*
X119665000Y-95401000D01*
X119663000Y-95402000D01*
X119660000Y-95403000D01*
X119658000Y-95403000D01*
X119655000Y-95404000D01*
X119653000Y-95404000D01*
X119650000Y-95405000D01*
X119648000Y-95405000D01*
X119645000Y-95405000D01*
X119355000Y-95405000D01*
X119352000Y-95405000D01*
X119350000Y-95405000D01*
X119347000Y-95404000D01*
X119345000Y-95404000D01*
X119342000Y-95403000D01*
X119340000Y-95403000D01*
X119337000Y-95402000D01*
X119335000Y-95401000D01*
X119332000Y-95400000D01*
X119330000Y-95398000D01*
X119328000Y-95397000D01*
X119326000Y-95395000D01*
X119324000Y-95394000D01*
X119322000Y-95392000D01*
X119320000Y-95390000D01*
X119318000Y-95388000D01*
X119316000Y-95386000D01*
X119315000Y-95384000D01*
X119313000Y-95382000D01*
X119312000Y-95380000D01*
X119310000Y-95378000D01*
X119309000Y-95375000D01*
X119308000Y-95373000D01*
X119307000Y-95370000D01*
X119307000Y-95368000D01*
X119306000Y-95365000D01*
X119306000Y-95363000D01*
X119305000Y-95360000D01*
X119305000Y-95358000D01*
X119305000Y-95355000D01*
X119305000Y-94815000D01*
X119305000Y-94812000D01*
X119305000Y-94810000D01*
X119306000Y-94807000D01*
X119306000Y-94805000D01*
X119307000Y-94802000D01*
X119307000Y-94800000D01*
X119308000Y-94797000D01*
X119309000Y-94795000D01*
X119310000Y-94792000D01*
X119312000Y-94790000D01*
X119313000Y-94788000D01*
X119315000Y-94786000D01*
X119316000Y-94784000D01*
X119318000Y-94782000D01*
X119320000Y-94780000D01*
X119322000Y-94778000D01*
X119324000Y-94776000D01*
X119326000Y-94775000D01*
X119328000Y-94773000D01*
X119330000Y-94772000D01*
X119332000Y-94770000D01*
X119335000Y-94769000D01*
X119337000Y-94768000D01*
X119340000Y-94767000D01*
X119342000Y-94767000D01*
X119345000Y-94766000D01*
X119347000Y-94766000D01*
X119350000Y-94765000D01*
X119352000Y-94765000D01*
X119355000Y-94765000D01*
X119645000Y-94765000D01*
X119648000Y-94765000D01*
X119650000Y-94765000D01*
X119653000Y-94766000D01*
G37*
X120153000Y-92796000D02*
X120155000Y-92796000D01*
X120158000Y-92797000D01*
X120160000Y-92797000D01*
X120163000Y-92798000D01*
X120165000Y-92799000D01*
X120168000Y-92800000D01*
X120170000Y-92802000D01*
X120172000Y-92803000D01*
X120174000Y-92805000D01*
X120176000Y-92806000D01*
X120178000Y-92808000D01*
X120180000Y-92810000D01*
X120182000Y-92812000D01*
X120184000Y-92814000D01*
X120185000Y-92816000D01*
X120187000Y-92818000D01*
X120188000Y-92820000D01*
X120190000Y-92822000D01*
X120191000Y-92825000D01*
X120192000Y-92827000D01*
X120193000Y-92830000D01*
X120193000Y-92832000D01*
X120194000Y-92835000D01*
X120194000Y-92837000D01*
X120195000Y-92840000D01*
X120195000Y-92842000D01*
X120195000Y-92845000D01*
X120195000Y-93385000D01*
X120195000Y-93388000D01*
X120195000Y-93390000D01*
X120194000Y-93393000D01*
X120194000Y-93395000D01*
X120193000Y-93398000D01*
X120193000Y-93400000D01*
X120192000Y-93403000D01*
X120191000Y-93405000D01*
X120190000Y-93408000D01*
X120188000Y-93410000D01*
X120187000Y-93412000D01*
X120185000Y-93414000D01*
X120184000Y-93416000D01*
X120182000Y-93418000D01*
X120180000Y-93420000D01*
X120178000Y-93422000D01*
X120176000Y-93424000D01*
X120174000Y-93425000D01*
X120172000Y-93427000D01*
X120170000Y-93428000D01*
X120168000Y-93430000D01*
X120165000Y-93431000D01*
X120163000Y-93432000D01*
X120160000Y-93433000D01*
X120158000Y-93433000D01*
X120155000Y-93434000D01*
X120153000Y-93434000D01*
X120150000Y-93435000D01*
X120148000Y-93435000D01*
X120145000Y-93435000D01*
X119855000Y-93435000D01*
X119852000Y-93435000D01*
X119850000Y-93435000D01*
X119847000Y-93434000D01*
X119845000Y-93434000D01*
X119842000Y-93433000D01*
X119840000Y-93433000D01*
X119837000Y-93432000D01*
X119835000Y-93431000D01*
X119832000Y-93430000D01*
X119830000Y-93428000D01*
X119828000Y-93427000D01*
X119826000Y-93425000D01*
X119824000Y-93424000D01*
X119822000Y-93422000D01*
X119820000Y-93420000D01*
X119818000Y-93418000D01*
X119816000Y-93416000D01*
X119815000Y-93414000D01*
X119813000Y-93412000D01*
X119812000Y-93410000D01*
X119810000Y-93408000D01*
X119809000Y-93405000D01*
X119808000Y-93403000D01*
X119807000Y-93400000D01*
X119807000Y-93398000D01*
X119806000Y-93395000D01*
X119806000Y-93393000D01*
X119805000Y-93390000D01*
X119805000Y-93388000D01*
X119805000Y-93385000D01*
X119805000Y-92845000D01*
X119805000Y-92842000D01*
X119805000Y-92840000D01*
X119806000Y-92837000D01*
X119806000Y-92835000D01*
X119807000Y-92832000D01*
X119807000Y-92830000D01*
X119808000Y-92827000D01*
X119809000Y-92825000D01*
X119810000Y-92822000D01*
X119812000Y-92820000D01*
X119813000Y-92818000D01*
X119815000Y-92816000D01*
X119816000Y-92814000D01*
X119818000Y-92812000D01*
X119820000Y-92810000D01*
X119822000Y-92808000D01*
X119824000Y-92806000D01*
X119826000Y-92805000D01*
X119828000Y-92803000D01*
X119830000Y-92802000D01*
X119832000Y-92800000D01*
X119835000Y-92799000D01*
X119837000Y-92798000D01*
X119840000Y-92797000D01*
X119842000Y-92797000D01*
X119845000Y-92796000D01*
X119847000Y-92796000D01*
X119850000Y-92795000D01*
X119852000Y-92795000D01*
X119855000Y-92795000D01*
X120145000Y-92795000D01*
X120148000Y-92795000D01*
X120150000Y-92795000D01*
X120153000Y-92796000D01*
G36*
X120153000Y-92796000D02*
G01*
X120155000Y-92796000D01*
X120158000Y-92797000D01*
X120160000Y-92797000D01*
X120163000Y-92798000D01*
X120165000Y-92799000D01*
X120168000Y-92800000D01*
X120170000Y-92802000D01*
X120172000Y-92803000D01*
X120174000Y-92805000D01*
X120176000Y-92806000D01*
X120178000Y-92808000D01*
X120180000Y-92810000D01*
X120182000Y-92812000D01*
X120184000Y-92814000D01*
X120185000Y-92816000D01*
X120187000Y-92818000D01*
X120188000Y-92820000D01*
X120190000Y-92822000D01*
X120191000Y-92825000D01*
X120192000Y-92827000D01*
X120193000Y-92830000D01*
X120193000Y-92832000D01*
X120194000Y-92835000D01*
X120194000Y-92837000D01*
X120195000Y-92840000D01*
X120195000Y-92842000D01*
X120195000Y-92845000D01*
X120195000Y-93385000D01*
X120195000Y-93388000D01*
X120195000Y-93390000D01*
X120194000Y-93393000D01*
X120194000Y-93395000D01*
X120193000Y-93398000D01*
X120193000Y-93400000D01*
X120192000Y-93403000D01*
X120191000Y-93405000D01*
X120190000Y-93408000D01*
X120188000Y-93410000D01*
X120187000Y-93412000D01*
X120185000Y-93414000D01*
X120184000Y-93416000D01*
X120182000Y-93418000D01*
X120180000Y-93420000D01*
X120178000Y-93422000D01*
X120176000Y-93424000D01*
X120174000Y-93425000D01*
X120172000Y-93427000D01*
X120170000Y-93428000D01*
X120168000Y-93430000D01*
X120165000Y-93431000D01*
X120163000Y-93432000D01*
X120160000Y-93433000D01*
X120158000Y-93433000D01*
X120155000Y-93434000D01*
X120153000Y-93434000D01*
X120150000Y-93435000D01*
X120148000Y-93435000D01*
X120145000Y-93435000D01*
X119855000Y-93435000D01*
X119852000Y-93435000D01*
X119850000Y-93435000D01*
X119847000Y-93434000D01*
X119845000Y-93434000D01*
X119842000Y-93433000D01*
X119840000Y-93433000D01*
X119837000Y-93432000D01*
X119835000Y-93431000D01*
X119832000Y-93430000D01*
X119830000Y-93428000D01*
X119828000Y-93427000D01*
X119826000Y-93425000D01*
X119824000Y-93424000D01*
X119822000Y-93422000D01*
X119820000Y-93420000D01*
X119818000Y-93418000D01*
X119816000Y-93416000D01*
X119815000Y-93414000D01*
X119813000Y-93412000D01*
X119812000Y-93410000D01*
X119810000Y-93408000D01*
X119809000Y-93405000D01*
X119808000Y-93403000D01*
X119807000Y-93400000D01*
X119807000Y-93398000D01*
X119806000Y-93395000D01*
X119806000Y-93393000D01*
X119805000Y-93390000D01*
X119805000Y-93388000D01*
X119805000Y-93385000D01*
X119805000Y-92845000D01*
X119805000Y-92842000D01*
X119805000Y-92840000D01*
X119806000Y-92837000D01*
X119806000Y-92835000D01*
X119807000Y-92832000D01*
X119807000Y-92830000D01*
X119808000Y-92827000D01*
X119809000Y-92825000D01*
X119810000Y-92822000D01*
X119812000Y-92820000D01*
X119813000Y-92818000D01*
X119815000Y-92816000D01*
X119816000Y-92814000D01*
X119818000Y-92812000D01*
X119820000Y-92810000D01*
X119822000Y-92808000D01*
X119824000Y-92806000D01*
X119826000Y-92805000D01*
X119828000Y-92803000D01*
X119830000Y-92802000D01*
X119832000Y-92800000D01*
X119835000Y-92799000D01*
X119837000Y-92798000D01*
X119840000Y-92797000D01*
X119842000Y-92797000D01*
X119845000Y-92796000D01*
X119847000Y-92796000D01*
X119850000Y-92795000D01*
X119852000Y-92795000D01*
X119855000Y-92795000D01*
X120145000Y-92795000D01*
X120148000Y-92795000D01*
X120150000Y-92795000D01*
X120153000Y-92796000D01*
G37*
X120153000Y-94766000D02*
X120155000Y-94766000D01*
X120158000Y-94767000D01*
X120160000Y-94767000D01*
X120163000Y-94768000D01*
X120165000Y-94769000D01*
X120168000Y-94770000D01*
X120170000Y-94772000D01*
X120172000Y-94773000D01*
X120174000Y-94775000D01*
X120176000Y-94776000D01*
X120178000Y-94778000D01*
X120180000Y-94780000D01*
X120182000Y-94782000D01*
X120184000Y-94784000D01*
X120185000Y-94786000D01*
X120187000Y-94788000D01*
X120188000Y-94790000D01*
X120190000Y-94792000D01*
X120191000Y-94795000D01*
X120192000Y-94797000D01*
X120193000Y-94800000D01*
X120193000Y-94802000D01*
X120194000Y-94805000D01*
X120194000Y-94807000D01*
X120195000Y-94810000D01*
X120195000Y-94812000D01*
X120195000Y-94815000D01*
X120195000Y-95355000D01*
X120195000Y-95358000D01*
X120195000Y-95360000D01*
X120194000Y-95363000D01*
X120194000Y-95365000D01*
X120193000Y-95368000D01*
X120193000Y-95370000D01*
X120192000Y-95373000D01*
X120191000Y-95375000D01*
X120190000Y-95378000D01*
X120188000Y-95380000D01*
X120187000Y-95382000D01*
X120185000Y-95384000D01*
X120184000Y-95386000D01*
X120182000Y-95388000D01*
X120180000Y-95390000D01*
X120178000Y-95392000D01*
X120176000Y-95394000D01*
X120174000Y-95395000D01*
X120172000Y-95397000D01*
X120170000Y-95398000D01*
X120168000Y-95400000D01*
X120165000Y-95401000D01*
X120163000Y-95402000D01*
X120160000Y-95403000D01*
X120158000Y-95403000D01*
X120155000Y-95404000D01*
X120153000Y-95404000D01*
X120150000Y-95405000D01*
X120148000Y-95405000D01*
X120145000Y-95405000D01*
X119855000Y-95405000D01*
X119852000Y-95405000D01*
X119850000Y-95405000D01*
X119847000Y-95404000D01*
X119845000Y-95404000D01*
X119842000Y-95403000D01*
X119840000Y-95403000D01*
X119837000Y-95402000D01*
X119835000Y-95401000D01*
X119832000Y-95400000D01*
X119830000Y-95398000D01*
X119828000Y-95397000D01*
X119826000Y-95395000D01*
X119824000Y-95394000D01*
X119822000Y-95392000D01*
X119820000Y-95390000D01*
X119818000Y-95388000D01*
X119816000Y-95386000D01*
X119815000Y-95384000D01*
X119813000Y-95382000D01*
X119812000Y-95380000D01*
X119810000Y-95378000D01*
X119809000Y-95375000D01*
X119808000Y-95373000D01*
X119807000Y-95370000D01*
X119807000Y-95368000D01*
X119806000Y-95365000D01*
X119806000Y-95363000D01*
X119805000Y-95360000D01*
X119805000Y-95358000D01*
X119805000Y-95355000D01*
X119805000Y-94815000D01*
X119805000Y-94812000D01*
X119805000Y-94810000D01*
X119806000Y-94807000D01*
X119806000Y-94805000D01*
X119807000Y-94802000D01*
X119807000Y-94800000D01*
X119808000Y-94797000D01*
X119809000Y-94795000D01*
X119810000Y-94792000D01*
X119812000Y-94790000D01*
X119813000Y-94788000D01*
X119815000Y-94786000D01*
X119816000Y-94784000D01*
X119818000Y-94782000D01*
X119820000Y-94780000D01*
X119822000Y-94778000D01*
X119824000Y-94776000D01*
X119826000Y-94775000D01*
X119828000Y-94773000D01*
X119830000Y-94772000D01*
X119832000Y-94770000D01*
X119835000Y-94769000D01*
X119837000Y-94768000D01*
X119840000Y-94767000D01*
X119842000Y-94767000D01*
X119845000Y-94766000D01*
X119847000Y-94766000D01*
X119850000Y-94765000D01*
X119852000Y-94765000D01*
X119855000Y-94765000D01*
X120145000Y-94765000D01*
X120148000Y-94765000D01*
X120150000Y-94765000D01*
X120153000Y-94766000D01*
G36*
X120153000Y-94766000D02*
G01*
X120155000Y-94766000D01*
X120158000Y-94767000D01*
X120160000Y-94767000D01*
X120163000Y-94768000D01*
X120165000Y-94769000D01*
X120168000Y-94770000D01*
X120170000Y-94772000D01*
X120172000Y-94773000D01*
X120174000Y-94775000D01*
X120176000Y-94776000D01*
X120178000Y-94778000D01*
X120180000Y-94780000D01*
X120182000Y-94782000D01*
X120184000Y-94784000D01*
X120185000Y-94786000D01*
X120187000Y-94788000D01*
X120188000Y-94790000D01*
X120190000Y-94792000D01*
X120191000Y-94795000D01*
X120192000Y-94797000D01*
X120193000Y-94800000D01*
X120193000Y-94802000D01*
X120194000Y-94805000D01*
X120194000Y-94807000D01*
X120195000Y-94810000D01*
X120195000Y-94812000D01*
X120195000Y-94815000D01*
X120195000Y-95355000D01*
X120195000Y-95358000D01*
X120195000Y-95360000D01*
X120194000Y-95363000D01*
X120194000Y-95365000D01*
X120193000Y-95368000D01*
X120193000Y-95370000D01*
X120192000Y-95373000D01*
X120191000Y-95375000D01*
X120190000Y-95378000D01*
X120188000Y-95380000D01*
X120187000Y-95382000D01*
X120185000Y-95384000D01*
X120184000Y-95386000D01*
X120182000Y-95388000D01*
X120180000Y-95390000D01*
X120178000Y-95392000D01*
X120176000Y-95394000D01*
X120174000Y-95395000D01*
X120172000Y-95397000D01*
X120170000Y-95398000D01*
X120168000Y-95400000D01*
X120165000Y-95401000D01*
X120163000Y-95402000D01*
X120160000Y-95403000D01*
X120158000Y-95403000D01*
X120155000Y-95404000D01*
X120153000Y-95404000D01*
X120150000Y-95405000D01*
X120148000Y-95405000D01*
X120145000Y-95405000D01*
X119855000Y-95405000D01*
X119852000Y-95405000D01*
X119850000Y-95405000D01*
X119847000Y-95404000D01*
X119845000Y-95404000D01*
X119842000Y-95403000D01*
X119840000Y-95403000D01*
X119837000Y-95402000D01*
X119835000Y-95401000D01*
X119832000Y-95400000D01*
X119830000Y-95398000D01*
X119828000Y-95397000D01*
X119826000Y-95395000D01*
X119824000Y-95394000D01*
X119822000Y-95392000D01*
X119820000Y-95390000D01*
X119818000Y-95388000D01*
X119816000Y-95386000D01*
X119815000Y-95384000D01*
X119813000Y-95382000D01*
X119812000Y-95380000D01*
X119810000Y-95378000D01*
X119809000Y-95375000D01*
X119808000Y-95373000D01*
X119807000Y-95370000D01*
X119807000Y-95368000D01*
X119806000Y-95365000D01*
X119806000Y-95363000D01*
X119805000Y-95360000D01*
X119805000Y-95358000D01*
X119805000Y-95355000D01*
X119805000Y-94815000D01*
X119805000Y-94812000D01*
X119805000Y-94810000D01*
X119806000Y-94807000D01*
X119806000Y-94805000D01*
X119807000Y-94802000D01*
X119807000Y-94800000D01*
X119808000Y-94797000D01*
X119809000Y-94795000D01*
X119810000Y-94792000D01*
X119812000Y-94790000D01*
X119813000Y-94788000D01*
X119815000Y-94786000D01*
X119816000Y-94784000D01*
X119818000Y-94782000D01*
X119820000Y-94780000D01*
X119822000Y-94778000D01*
X119824000Y-94776000D01*
X119826000Y-94775000D01*
X119828000Y-94773000D01*
X119830000Y-94772000D01*
X119832000Y-94770000D01*
X119835000Y-94769000D01*
X119837000Y-94768000D01*
X119840000Y-94767000D01*
X119842000Y-94767000D01*
X119845000Y-94766000D01*
X119847000Y-94766000D01*
X119850000Y-94765000D01*
X119852000Y-94765000D01*
X119855000Y-94765000D01*
X120145000Y-94765000D01*
X120148000Y-94765000D01*
X120150000Y-94765000D01*
X120153000Y-94766000D01*
G37*
X120078000Y-93581000D02*
X120080000Y-93581000D01*
X120083000Y-93582000D01*
X120085000Y-93582000D01*
X120088000Y-93583000D01*
X120090000Y-93584000D01*
X120093000Y-93585000D01*
X120095000Y-93587000D01*
X120097000Y-93588000D01*
X120099000Y-93590000D01*
X120101000Y-93591000D01*
X120103000Y-93593000D01*
X120105000Y-93595000D01*
X120107000Y-93597000D01*
X120109000Y-93599000D01*
X120110000Y-93601000D01*
X120112000Y-93603000D01*
X120113000Y-93605000D01*
X120115000Y-93607000D01*
X120116000Y-93610000D01*
X120117000Y-93612000D01*
X120118000Y-93615000D01*
X120118000Y-93617000D01*
X120119000Y-93620000D01*
X120119000Y-93622000D01*
X120120000Y-93625000D01*
X120120000Y-93627000D01*
X120120000Y-93630000D01*
X120120000Y-94570000D01*
X120120000Y-94573000D01*
X120120000Y-94575000D01*
X120119000Y-94578000D01*
X120119000Y-94580000D01*
X120118000Y-94583000D01*
X120118000Y-94585000D01*
X120117000Y-94588000D01*
X120116000Y-94590000D01*
X120115000Y-94593000D01*
X120113000Y-94595000D01*
X120112000Y-94597000D01*
X120110000Y-94599000D01*
X120109000Y-94601000D01*
X120107000Y-94603000D01*
X120105000Y-94605000D01*
X120103000Y-94607000D01*
X120101000Y-94609000D01*
X120099000Y-94610000D01*
X120097000Y-94612000D01*
X120095000Y-94613000D01*
X120093000Y-94615000D01*
X120090000Y-94616000D01*
X120088000Y-94617000D01*
X120085000Y-94618000D01*
X120083000Y-94618000D01*
X120080000Y-94619000D01*
X120078000Y-94619000D01*
X120075000Y-94620000D01*
X120073000Y-94620000D01*
X120070000Y-94620000D01*
X118430000Y-94620000D01*
X118427000Y-94620000D01*
X118425000Y-94620000D01*
X118422000Y-94619000D01*
X118420000Y-94619000D01*
X118417000Y-94618000D01*
X118415000Y-94618000D01*
X118412000Y-94617000D01*
X118410000Y-94616000D01*
X118407000Y-94615000D01*
X118405000Y-94613000D01*
X118403000Y-94612000D01*
X118401000Y-94610000D01*
X118399000Y-94609000D01*
X118397000Y-94607000D01*
X118395000Y-94605000D01*
X118393000Y-94603000D01*
X118391000Y-94601000D01*
X118390000Y-94599000D01*
X118388000Y-94597000D01*
X118387000Y-94595000D01*
X118385000Y-94593000D01*
X118384000Y-94590000D01*
X118383000Y-94588000D01*
X118382000Y-94585000D01*
X118382000Y-94583000D01*
X118381000Y-94580000D01*
X118381000Y-94578000D01*
X118380000Y-94575000D01*
X118380000Y-94573000D01*
X118380000Y-94570000D01*
X118380000Y-93630000D01*
X118380000Y-93627000D01*
X118380000Y-93625000D01*
X118381000Y-93622000D01*
X118381000Y-93620000D01*
X118382000Y-93617000D01*
X118382000Y-93615000D01*
X118383000Y-93612000D01*
X118384000Y-93610000D01*
X118385000Y-93607000D01*
X118387000Y-93605000D01*
X118388000Y-93603000D01*
X118390000Y-93601000D01*
X118391000Y-93599000D01*
X118393000Y-93597000D01*
X118395000Y-93595000D01*
X118397000Y-93593000D01*
X118399000Y-93591000D01*
X118401000Y-93590000D01*
X118403000Y-93588000D01*
X118405000Y-93587000D01*
X118407000Y-93585000D01*
X118410000Y-93584000D01*
X118412000Y-93583000D01*
X118415000Y-93582000D01*
X118417000Y-93582000D01*
X118420000Y-93581000D01*
X118422000Y-93581000D01*
X118425000Y-93580000D01*
X118427000Y-93580000D01*
X118430000Y-93580000D01*
X120070000Y-93580000D01*
X120073000Y-93580000D01*
X120075000Y-93580000D01*
X120078000Y-93581000D01*
G36*
X120078000Y-93581000D02*
G01*
X120080000Y-93581000D01*
X120083000Y-93582000D01*
X120085000Y-93582000D01*
X120088000Y-93583000D01*
X120090000Y-93584000D01*
X120093000Y-93585000D01*
X120095000Y-93587000D01*
X120097000Y-93588000D01*
X120099000Y-93590000D01*
X120101000Y-93591000D01*
X120103000Y-93593000D01*
X120105000Y-93595000D01*
X120107000Y-93597000D01*
X120109000Y-93599000D01*
X120110000Y-93601000D01*
X120112000Y-93603000D01*
X120113000Y-93605000D01*
X120115000Y-93607000D01*
X120116000Y-93610000D01*
X120117000Y-93612000D01*
X120118000Y-93615000D01*
X120118000Y-93617000D01*
X120119000Y-93620000D01*
X120119000Y-93622000D01*
X120120000Y-93625000D01*
X120120000Y-93627000D01*
X120120000Y-93630000D01*
X120120000Y-94570000D01*
X120120000Y-94573000D01*
X120120000Y-94575000D01*
X120119000Y-94578000D01*
X120119000Y-94580000D01*
X120118000Y-94583000D01*
X120118000Y-94585000D01*
X120117000Y-94588000D01*
X120116000Y-94590000D01*
X120115000Y-94593000D01*
X120113000Y-94595000D01*
X120112000Y-94597000D01*
X120110000Y-94599000D01*
X120109000Y-94601000D01*
X120107000Y-94603000D01*
X120105000Y-94605000D01*
X120103000Y-94607000D01*
X120101000Y-94609000D01*
X120099000Y-94610000D01*
X120097000Y-94612000D01*
X120095000Y-94613000D01*
X120093000Y-94615000D01*
X120090000Y-94616000D01*
X120088000Y-94617000D01*
X120085000Y-94618000D01*
X120083000Y-94618000D01*
X120080000Y-94619000D01*
X120078000Y-94619000D01*
X120075000Y-94620000D01*
X120073000Y-94620000D01*
X120070000Y-94620000D01*
X118430000Y-94620000D01*
X118427000Y-94620000D01*
X118425000Y-94620000D01*
X118422000Y-94619000D01*
X118420000Y-94619000D01*
X118417000Y-94618000D01*
X118415000Y-94618000D01*
X118412000Y-94617000D01*
X118410000Y-94616000D01*
X118407000Y-94615000D01*
X118405000Y-94613000D01*
X118403000Y-94612000D01*
X118401000Y-94610000D01*
X118399000Y-94609000D01*
X118397000Y-94607000D01*
X118395000Y-94605000D01*
X118393000Y-94603000D01*
X118391000Y-94601000D01*
X118390000Y-94599000D01*
X118388000Y-94597000D01*
X118387000Y-94595000D01*
X118385000Y-94593000D01*
X118384000Y-94590000D01*
X118383000Y-94588000D01*
X118382000Y-94585000D01*
X118382000Y-94583000D01*
X118381000Y-94580000D01*
X118381000Y-94578000D01*
X118380000Y-94575000D01*
X118380000Y-94573000D01*
X118380000Y-94570000D01*
X118380000Y-93630000D01*
X118380000Y-93627000D01*
X118380000Y-93625000D01*
X118381000Y-93622000D01*
X118381000Y-93620000D01*
X118382000Y-93617000D01*
X118382000Y-93615000D01*
X118383000Y-93612000D01*
X118384000Y-93610000D01*
X118385000Y-93607000D01*
X118387000Y-93605000D01*
X118388000Y-93603000D01*
X118390000Y-93601000D01*
X118391000Y-93599000D01*
X118393000Y-93597000D01*
X118395000Y-93595000D01*
X118397000Y-93593000D01*
X118399000Y-93591000D01*
X118401000Y-93590000D01*
X118403000Y-93588000D01*
X118405000Y-93587000D01*
X118407000Y-93585000D01*
X118410000Y-93584000D01*
X118412000Y-93583000D01*
X118415000Y-93582000D01*
X118417000Y-93582000D01*
X118420000Y-93581000D01*
X118422000Y-93581000D01*
X118425000Y-93580000D01*
X118427000Y-93580000D01*
X118430000Y-93580000D01*
X120070000Y-93580000D01*
X120073000Y-93580000D01*
X120075000Y-93580000D01*
X120078000Y-93581000D01*
G37*
X119003000Y-80951000D02*
X119006000Y-80952000D01*
X119009000Y-80953000D01*
X119012000Y-80954000D01*
X119015000Y-80955000D01*
X119018000Y-80957000D01*
X119021000Y-80958000D01*
X119024000Y-80960000D01*
X119027000Y-80962000D01*
X119029000Y-80964000D01*
X119032000Y-80967000D01*
X119034000Y-80969000D01*
X119036000Y-80972000D01*
X119038000Y-80974000D01*
X119040000Y-80977000D01*
X119042000Y-80980000D01*
X119044000Y-80983000D01*
X119045000Y-80986000D01*
X119047000Y-80989000D01*
X119048000Y-80992000D01*
X119049000Y-80995000D01*
X119050000Y-80998000D01*
X119050000Y-81001000D01*
X119051000Y-81005000D01*
X119051000Y-81008000D01*
X119051000Y-81011000D01*
X119051000Y-81015000D01*
X119051000Y-81018000D01*
X119051000Y-81021000D01*
X119050000Y-81025000D01*
X119050000Y-81225000D01*
X119051000Y-81229000D01*
X119051000Y-81232000D01*
X119051000Y-81235000D01*
X119051000Y-81239000D01*
X119051000Y-81242000D01*
X119051000Y-81245000D01*
X119050000Y-81249000D01*
X119050000Y-81252000D01*
X119049000Y-81255000D01*
X119048000Y-81258000D01*
X119047000Y-81261000D01*
X119045000Y-81264000D01*
X119044000Y-81267000D01*
X119042000Y-81270000D01*
X119040000Y-81273000D01*
X119038000Y-81276000D01*
X119036000Y-81278000D01*
X119034000Y-81281000D01*
X119032000Y-81283000D01*
X119029000Y-81286000D01*
X119027000Y-81288000D01*
X119024000Y-81290000D01*
X119021000Y-81292000D01*
X119018000Y-81293000D01*
X119015000Y-81295000D01*
X119012000Y-81296000D01*
X119009000Y-81297000D01*
X119006000Y-81298000D01*
X119003000Y-81299000D01*
X119000000Y-81300000D01*
X118400000Y-81300000D01*
X118397000Y-81299000D01*
X118394000Y-81298000D01*
X118391000Y-81297000D01*
X118388000Y-81296000D01*
X118385000Y-81295000D01*
X118382000Y-81293000D01*
X118379000Y-81292000D01*
X118376000Y-81290000D01*
X118373000Y-81288000D01*
X118371000Y-81286000D01*
X118368000Y-81283000D01*
X118366000Y-81281000D01*
X118364000Y-81278000D01*
X118362000Y-81276000D01*
X118360000Y-81273000D01*
X118358000Y-81270000D01*
X118356000Y-81267000D01*
X118355000Y-81264000D01*
X118353000Y-81261000D01*
X118352000Y-81258000D01*
X118351000Y-81255000D01*
X118350000Y-81252000D01*
X118350000Y-81249000D01*
X118349000Y-81245000D01*
X118349000Y-81242000D01*
X118349000Y-81239000D01*
X118349000Y-81235000D01*
X118349000Y-81232000D01*
X118349000Y-81229000D01*
X118350000Y-81225000D01*
X118350000Y-81025000D01*
X118349000Y-81021000D01*
X118349000Y-81018000D01*
X118349000Y-81015000D01*
X118349000Y-81011000D01*
X118349000Y-81008000D01*
X118349000Y-81005000D01*
X118350000Y-81001000D01*
X118350000Y-80998000D01*
X118351000Y-80995000D01*
X118352000Y-80992000D01*
X118353000Y-80989000D01*
X118355000Y-80986000D01*
X118356000Y-80983000D01*
X118358000Y-80980000D01*
X118360000Y-80977000D01*
X118362000Y-80974000D01*
X118364000Y-80972000D01*
X118366000Y-80969000D01*
X118368000Y-80967000D01*
X118371000Y-80964000D01*
X118373000Y-80962000D01*
X118376000Y-80960000D01*
X118379000Y-80958000D01*
X118382000Y-80957000D01*
X118385000Y-80955000D01*
X118388000Y-80954000D01*
X118391000Y-80953000D01*
X118394000Y-80952000D01*
X118397000Y-80951000D01*
X118400000Y-80950000D01*
X119000000Y-80950000D01*
X119003000Y-80951000D01*
G36*
X119003000Y-80951000D02*
G01*
X119006000Y-80952000D01*
X119009000Y-80953000D01*
X119012000Y-80954000D01*
X119015000Y-80955000D01*
X119018000Y-80957000D01*
X119021000Y-80958000D01*
X119024000Y-80960000D01*
X119027000Y-80962000D01*
X119029000Y-80964000D01*
X119032000Y-80967000D01*
X119034000Y-80969000D01*
X119036000Y-80972000D01*
X119038000Y-80974000D01*
X119040000Y-80977000D01*
X119042000Y-80980000D01*
X119044000Y-80983000D01*
X119045000Y-80986000D01*
X119047000Y-80989000D01*
X119048000Y-80992000D01*
X119049000Y-80995000D01*
X119050000Y-80998000D01*
X119050000Y-81001000D01*
X119051000Y-81005000D01*
X119051000Y-81008000D01*
X119051000Y-81011000D01*
X119051000Y-81015000D01*
X119051000Y-81018000D01*
X119051000Y-81021000D01*
X119050000Y-81025000D01*
X119050000Y-81225000D01*
X119051000Y-81229000D01*
X119051000Y-81232000D01*
X119051000Y-81235000D01*
X119051000Y-81239000D01*
X119051000Y-81242000D01*
X119051000Y-81245000D01*
X119050000Y-81249000D01*
X119050000Y-81252000D01*
X119049000Y-81255000D01*
X119048000Y-81258000D01*
X119047000Y-81261000D01*
X119045000Y-81264000D01*
X119044000Y-81267000D01*
X119042000Y-81270000D01*
X119040000Y-81273000D01*
X119038000Y-81276000D01*
X119036000Y-81278000D01*
X119034000Y-81281000D01*
X119032000Y-81283000D01*
X119029000Y-81286000D01*
X119027000Y-81288000D01*
X119024000Y-81290000D01*
X119021000Y-81292000D01*
X119018000Y-81293000D01*
X119015000Y-81295000D01*
X119012000Y-81296000D01*
X119009000Y-81297000D01*
X119006000Y-81298000D01*
X119003000Y-81299000D01*
X119000000Y-81300000D01*
X118400000Y-81300000D01*
X118397000Y-81299000D01*
X118394000Y-81298000D01*
X118391000Y-81297000D01*
X118388000Y-81296000D01*
X118385000Y-81295000D01*
X118382000Y-81293000D01*
X118379000Y-81292000D01*
X118376000Y-81290000D01*
X118373000Y-81288000D01*
X118371000Y-81286000D01*
X118368000Y-81283000D01*
X118366000Y-81281000D01*
X118364000Y-81278000D01*
X118362000Y-81276000D01*
X118360000Y-81273000D01*
X118358000Y-81270000D01*
X118356000Y-81267000D01*
X118355000Y-81264000D01*
X118353000Y-81261000D01*
X118352000Y-81258000D01*
X118351000Y-81255000D01*
X118350000Y-81252000D01*
X118350000Y-81249000D01*
X118349000Y-81245000D01*
X118349000Y-81242000D01*
X118349000Y-81239000D01*
X118349000Y-81235000D01*
X118349000Y-81232000D01*
X118349000Y-81229000D01*
X118350000Y-81225000D01*
X118350000Y-81025000D01*
X118349000Y-81021000D01*
X118349000Y-81018000D01*
X118349000Y-81015000D01*
X118349000Y-81011000D01*
X118349000Y-81008000D01*
X118349000Y-81005000D01*
X118350000Y-81001000D01*
X118350000Y-80998000D01*
X118351000Y-80995000D01*
X118352000Y-80992000D01*
X118353000Y-80989000D01*
X118355000Y-80986000D01*
X118356000Y-80983000D01*
X118358000Y-80980000D01*
X118360000Y-80977000D01*
X118362000Y-80974000D01*
X118364000Y-80972000D01*
X118366000Y-80969000D01*
X118368000Y-80967000D01*
X118371000Y-80964000D01*
X118373000Y-80962000D01*
X118376000Y-80960000D01*
X118379000Y-80958000D01*
X118382000Y-80957000D01*
X118385000Y-80955000D01*
X118388000Y-80954000D01*
X118391000Y-80953000D01*
X118394000Y-80952000D01*
X118397000Y-80951000D01*
X118400000Y-80950000D01*
X119000000Y-80950000D01*
X119003000Y-80951000D01*
G37*
X119003000Y-81401000D02*
X119006000Y-81402000D01*
X119009000Y-81403000D01*
X119012000Y-81404000D01*
X119015000Y-81405000D01*
X119018000Y-81407000D01*
X119021000Y-81408000D01*
X119024000Y-81410000D01*
X119027000Y-81412000D01*
X119029000Y-81414000D01*
X119032000Y-81417000D01*
X119034000Y-81419000D01*
X119036000Y-81422000D01*
X119038000Y-81424000D01*
X119040000Y-81427000D01*
X119042000Y-81430000D01*
X119044000Y-81433000D01*
X119045000Y-81436000D01*
X119047000Y-81439000D01*
X119048000Y-81442000D01*
X119049000Y-81445000D01*
X119050000Y-81448000D01*
X119050000Y-81451000D01*
X119051000Y-81455000D01*
X119051000Y-81458000D01*
X119051000Y-81461000D01*
X119051000Y-81465000D01*
X119051000Y-81468000D01*
X119051000Y-81471000D01*
X119050000Y-81475000D01*
X119050000Y-81675000D01*
X119051000Y-81679000D01*
X119051000Y-81682000D01*
X119051000Y-81685000D01*
X119051000Y-81689000D01*
X119051000Y-81692000D01*
X119051000Y-81695000D01*
X119050000Y-81699000D01*
X119050000Y-81702000D01*
X119049000Y-81705000D01*
X119048000Y-81708000D01*
X119047000Y-81711000D01*
X119045000Y-81714000D01*
X119044000Y-81717000D01*
X119042000Y-81720000D01*
X119040000Y-81723000D01*
X119038000Y-81726000D01*
X119036000Y-81728000D01*
X119034000Y-81731000D01*
X119032000Y-81733000D01*
X119029000Y-81736000D01*
X119027000Y-81738000D01*
X119024000Y-81740000D01*
X119021000Y-81742000D01*
X119018000Y-81743000D01*
X119015000Y-81745000D01*
X119012000Y-81746000D01*
X119009000Y-81747000D01*
X119006000Y-81748000D01*
X119003000Y-81749000D01*
X119000000Y-81750000D01*
X118400000Y-81750000D01*
X118397000Y-81749000D01*
X118394000Y-81748000D01*
X118391000Y-81747000D01*
X118388000Y-81746000D01*
X118385000Y-81745000D01*
X118382000Y-81743000D01*
X118379000Y-81742000D01*
X118376000Y-81740000D01*
X118373000Y-81738000D01*
X118371000Y-81736000D01*
X118368000Y-81733000D01*
X118366000Y-81731000D01*
X118364000Y-81728000D01*
X118362000Y-81726000D01*
X118360000Y-81723000D01*
X118358000Y-81720000D01*
X118356000Y-81717000D01*
X118355000Y-81714000D01*
X118353000Y-81711000D01*
X118352000Y-81708000D01*
X118351000Y-81705000D01*
X118350000Y-81702000D01*
X118350000Y-81699000D01*
X118349000Y-81695000D01*
X118349000Y-81692000D01*
X118349000Y-81689000D01*
X118349000Y-81685000D01*
X118349000Y-81682000D01*
X118349000Y-81679000D01*
X118350000Y-81675000D01*
X118350000Y-81475000D01*
X118349000Y-81471000D01*
X118349000Y-81468000D01*
X118349000Y-81465000D01*
X118349000Y-81461000D01*
X118349000Y-81458000D01*
X118349000Y-81455000D01*
X118350000Y-81451000D01*
X118350000Y-81448000D01*
X118351000Y-81445000D01*
X118352000Y-81442000D01*
X118353000Y-81439000D01*
X118355000Y-81436000D01*
X118356000Y-81433000D01*
X118358000Y-81430000D01*
X118360000Y-81427000D01*
X118362000Y-81424000D01*
X118364000Y-81422000D01*
X118366000Y-81419000D01*
X118368000Y-81417000D01*
X118371000Y-81414000D01*
X118373000Y-81412000D01*
X118376000Y-81410000D01*
X118379000Y-81408000D01*
X118382000Y-81407000D01*
X118385000Y-81405000D01*
X118388000Y-81404000D01*
X118391000Y-81403000D01*
X118394000Y-81402000D01*
X118397000Y-81401000D01*
X118400000Y-81400000D01*
X119000000Y-81400000D01*
X119003000Y-81401000D01*
G36*
X119003000Y-81401000D02*
G01*
X119006000Y-81402000D01*
X119009000Y-81403000D01*
X119012000Y-81404000D01*
X119015000Y-81405000D01*
X119018000Y-81407000D01*
X119021000Y-81408000D01*
X119024000Y-81410000D01*
X119027000Y-81412000D01*
X119029000Y-81414000D01*
X119032000Y-81417000D01*
X119034000Y-81419000D01*
X119036000Y-81422000D01*
X119038000Y-81424000D01*
X119040000Y-81427000D01*
X119042000Y-81430000D01*
X119044000Y-81433000D01*
X119045000Y-81436000D01*
X119047000Y-81439000D01*
X119048000Y-81442000D01*
X119049000Y-81445000D01*
X119050000Y-81448000D01*
X119050000Y-81451000D01*
X119051000Y-81455000D01*
X119051000Y-81458000D01*
X119051000Y-81461000D01*
X119051000Y-81465000D01*
X119051000Y-81468000D01*
X119051000Y-81471000D01*
X119050000Y-81475000D01*
X119050000Y-81675000D01*
X119051000Y-81679000D01*
X119051000Y-81682000D01*
X119051000Y-81685000D01*
X119051000Y-81689000D01*
X119051000Y-81692000D01*
X119051000Y-81695000D01*
X119050000Y-81699000D01*
X119050000Y-81702000D01*
X119049000Y-81705000D01*
X119048000Y-81708000D01*
X119047000Y-81711000D01*
X119045000Y-81714000D01*
X119044000Y-81717000D01*
X119042000Y-81720000D01*
X119040000Y-81723000D01*
X119038000Y-81726000D01*
X119036000Y-81728000D01*
X119034000Y-81731000D01*
X119032000Y-81733000D01*
X119029000Y-81736000D01*
X119027000Y-81738000D01*
X119024000Y-81740000D01*
X119021000Y-81742000D01*
X119018000Y-81743000D01*
X119015000Y-81745000D01*
X119012000Y-81746000D01*
X119009000Y-81747000D01*
X119006000Y-81748000D01*
X119003000Y-81749000D01*
X119000000Y-81750000D01*
X118400000Y-81750000D01*
X118397000Y-81749000D01*
X118394000Y-81748000D01*
X118391000Y-81747000D01*
X118388000Y-81746000D01*
X118385000Y-81745000D01*
X118382000Y-81743000D01*
X118379000Y-81742000D01*
X118376000Y-81740000D01*
X118373000Y-81738000D01*
X118371000Y-81736000D01*
X118368000Y-81733000D01*
X118366000Y-81731000D01*
X118364000Y-81728000D01*
X118362000Y-81726000D01*
X118360000Y-81723000D01*
X118358000Y-81720000D01*
X118356000Y-81717000D01*
X118355000Y-81714000D01*
X118353000Y-81711000D01*
X118352000Y-81708000D01*
X118351000Y-81705000D01*
X118350000Y-81702000D01*
X118350000Y-81699000D01*
X118349000Y-81695000D01*
X118349000Y-81692000D01*
X118349000Y-81689000D01*
X118349000Y-81685000D01*
X118349000Y-81682000D01*
X118349000Y-81679000D01*
X118350000Y-81675000D01*
X118350000Y-81475000D01*
X118349000Y-81471000D01*
X118349000Y-81468000D01*
X118349000Y-81465000D01*
X118349000Y-81461000D01*
X118349000Y-81458000D01*
X118349000Y-81455000D01*
X118350000Y-81451000D01*
X118350000Y-81448000D01*
X118351000Y-81445000D01*
X118352000Y-81442000D01*
X118353000Y-81439000D01*
X118355000Y-81436000D01*
X118356000Y-81433000D01*
X118358000Y-81430000D01*
X118360000Y-81427000D01*
X118362000Y-81424000D01*
X118364000Y-81422000D01*
X118366000Y-81419000D01*
X118368000Y-81417000D01*
X118371000Y-81414000D01*
X118373000Y-81412000D01*
X118376000Y-81410000D01*
X118379000Y-81408000D01*
X118382000Y-81407000D01*
X118385000Y-81405000D01*
X118388000Y-81404000D01*
X118391000Y-81403000D01*
X118394000Y-81402000D01*
X118397000Y-81401000D01*
X118400000Y-81400000D01*
X119000000Y-81400000D01*
X119003000Y-81401000D01*
G37*
X119508000Y-80101000D02*
X119510000Y-80101000D01*
X119513000Y-80102000D01*
X119515000Y-80102000D01*
X119518000Y-80103000D01*
X119520000Y-80104000D01*
X119523000Y-80105000D01*
X119525000Y-80107000D01*
X119527000Y-80108000D01*
X119529000Y-80110000D01*
X119531000Y-80111000D01*
X119533000Y-80113000D01*
X119535000Y-80115000D01*
X119537000Y-80117000D01*
X119539000Y-80119000D01*
X119540000Y-80121000D01*
X119542000Y-80123000D01*
X119543000Y-80125000D01*
X119545000Y-80127000D01*
X119546000Y-80130000D01*
X119547000Y-80132000D01*
X119548000Y-80135000D01*
X119548000Y-80137000D01*
X119549000Y-80140000D01*
X119549000Y-80142000D01*
X119550000Y-80145000D01*
X119550000Y-80147000D01*
X119550000Y-80150000D01*
X119550000Y-82550000D01*
X119550000Y-82553000D01*
X119550000Y-82555000D01*
X119549000Y-82558000D01*
X119549000Y-82560000D01*
X119548000Y-82563000D01*
X119548000Y-82565000D01*
X119547000Y-82568000D01*
X119546000Y-82570000D01*
X119545000Y-82573000D01*
X119543000Y-82575000D01*
X119542000Y-82577000D01*
X119540000Y-82579000D01*
X119539000Y-82581000D01*
X119537000Y-82583000D01*
X119535000Y-82585000D01*
X119533000Y-82587000D01*
X119531000Y-82589000D01*
X119529000Y-82590000D01*
X119527000Y-82592000D01*
X119525000Y-82593000D01*
X119523000Y-82595000D01*
X119520000Y-82596000D01*
X119518000Y-82597000D01*
X119515000Y-82598000D01*
X119513000Y-82598000D01*
X119510000Y-82599000D01*
X119508000Y-82599000D01*
X119505000Y-82600000D01*
X119503000Y-82600000D01*
X119500000Y-82600000D01*
X119200000Y-82600000D01*
X119197000Y-82600000D01*
X119195000Y-82600000D01*
X119192000Y-82599000D01*
X119190000Y-82599000D01*
X119187000Y-82598000D01*
X119185000Y-82598000D01*
X119182000Y-82597000D01*
X119180000Y-82596000D01*
X119177000Y-82595000D01*
X119175000Y-82593000D01*
X119173000Y-82592000D01*
X119171000Y-82590000D01*
X119169000Y-82589000D01*
X119167000Y-82587000D01*
X119165000Y-82585000D01*
X119163000Y-82583000D01*
X119161000Y-82581000D01*
X119160000Y-82579000D01*
X119158000Y-82577000D01*
X119157000Y-82575000D01*
X119155000Y-82573000D01*
X119154000Y-82570000D01*
X119153000Y-82568000D01*
X119152000Y-82565000D01*
X119152000Y-82563000D01*
X119151000Y-82560000D01*
X119151000Y-82558000D01*
X119150000Y-82555000D01*
X119150000Y-82553000D01*
X119150000Y-82550000D01*
X119150000Y-80150000D01*
X119150000Y-80147000D01*
X119150000Y-80145000D01*
X119151000Y-80142000D01*
X119151000Y-80140000D01*
X119152000Y-80137000D01*
X119152000Y-80135000D01*
X119153000Y-80132000D01*
X119154000Y-80130000D01*
X119155000Y-80127000D01*
X119157000Y-80125000D01*
X119158000Y-80123000D01*
X119160000Y-80121000D01*
X119161000Y-80119000D01*
X119163000Y-80117000D01*
X119165000Y-80115000D01*
X119167000Y-80113000D01*
X119169000Y-80111000D01*
X119171000Y-80110000D01*
X119173000Y-80108000D01*
X119175000Y-80107000D01*
X119177000Y-80105000D01*
X119180000Y-80104000D01*
X119182000Y-80103000D01*
X119185000Y-80102000D01*
X119187000Y-80102000D01*
X119190000Y-80101000D01*
X119192000Y-80101000D01*
X119195000Y-80100000D01*
X119197000Y-80100000D01*
X119200000Y-80100000D01*
X119500000Y-80100000D01*
X119503000Y-80100000D01*
X119505000Y-80100000D01*
X119508000Y-80101000D01*
G36*
X119508000Y-80101000D02*
G01*
X119510000Y-80101000D01*
X119513000Y-80102000D01*
X119515000Y-80102000D01*
X119518000Y-80103000D01*
X119520000Y-80104000D01*
X119523000Y-80105000D01*
X119525000Y-80107000D01*
X119527000Y-80108000D01*
X119529000Y-80110000D01*
X119531000Y-80111000D01*
X119533000Y-80113000D01*
X119535000Y-80115000D01*
X119537000Y-80117000D01*
X119539000Y-80119000D01*
X119540000Y-80121000D01*
X119542000Y-80123000D01*
X119543000Y-80125000D01*
X119545000Y-80127000D01*
X119546000Y-80130000D01*
X119547000Y-80132000D01*
X119548000Y-80135000D01*
X119548000Y-80137000D01*
X119549000Y-80140000D01*
X119549000Y-80142000D01*
X119550000Y-80145000D01*
X119550000Y-80147000D01*
X119550000Y-80150000D01*
X119550000Y-82550000D01*
X119550000Y-82553000D01*
X119550000Y-82555000D01*
X119549000Y-82558000D01*
X119549000Y-82560000D01*
X119548000Y-82563000D01*
X119548000Y-82565000D01*
X119547000Y-82568000D01*
X119546000Y-82570000D01*
X119545000Y-82573000D01*
X119543000Y-82575000D01*
X119542000Y-82577000D01*
X119540000Y-82579000D01*
X119539000Y-82581000D01*
X119537000Y-82583000D01*
X119535000Y-82585000D01*
X119533000Y-82587000D01*
X119531000Y-82589000D01*
X119529000Y-82590000D01*
X119527000Y-82592000D01*
X119525000Y-82593000D01*
X119523000Y-82595000D01*
X119520000Y-82596000D01*
X119518000Y-82597000D01*
X119515000Y-82598000D01*
X119513000Y-82598000D01*
X119510000Y-82599000D01*
X119508000Y-82599000D01*
X119505000Y-82600000D01*
X119503000Y-82600000D01*
X119500000Y-82600000D01*
X119200000Y-82600000D01*
X119197000Y-82600000D01*
X119195000Y-82600000D01*
X119192000Y-82599000D01*
X119190000Y-82599000D01*
X119187000Y-82598000D01*
X119185000Y-82598000D01*
X119182000Y-82597000D01*
X119180000Y-82596000D01*
X119177000Y-82595000D01*
X119175000Y-82593000D01*
X119173000Y-82592000D01*
X119171000Y-82590000D01*
X119169000Y-82589000D01*
X119167000Y-82587000D01*
X119165000Y-82585000D01*
X119163000Y-82583000D01*
X119161000Y-82581000D01*
X119160000Y-82579000D01*
X119158000Y-82577000D01*
X119157000Y-82575000D01*
X119155000Y-82573000D01*
X119154000Y-82570000D01*
X119153000Y-82568000D01*
X119152000Y-82565000D01*
X119152000Y-82563000D01*
X119151000Y-82560000D01*
X119151000Y-82558000D01*
X119150000Y-82555000D01*
X119150000Y-82553000D01*
X119150000Y-82550000D01*
X119150000Y-80150000D01*
X119150000Y-80147000D01*
X119150000Y-80145000D01*
X119151000Y-80142000D01*
X119151000Y-80140000D01*
X119152000Y-80137000D01*
X119152000Y-80135000D01*
X119153000Y-80132000D01*
X119154000Y-80130000D01*
X119155000Y-80127000D01*
X119157000Y-80125000D01*
X119158000Y-80123000D01*
X119160000Y-80121000D01*
X119161000Y-80119000D01*
X119163000Y-80117000D01*
X119165000Y-80115000D01*
X119167000Y-80113000D01*
X119169000Y-80111000D01*
X119171000Y-80110000D01*
X119173000Y-80108000D01*
X119175000Y-80107000D01*
X119177000Y-80105000D01*
X119180000Y-80104000D01*
X119182000Y-80103000D01*
X119185000Y-80102000D01*
X119187000Y-80102000D01*
X119190000Y-80101000D01*
X119192000Y-80101000D01*
X119195000Y-80100000D01*
X119197000Y-80100000D01*
X119200000Y-80100000D01*
X119500000Y-80100000D01*
X119503000Y-80100000D01*
X119505000Y-80100000D01*
X119508000Y-80101000D01*
G37*
X120008000Y-80101000D02*
X120010000Y-80101000D01*
X120013000Y-80102000D01*
X120015000Y-80102000D01*
X120018000Y-80103000D01*
X120020000Y-80104000D01*
X120023000Y-80105000D01*
X120025000Y-80107000D01*
X120027000Y-80108000D01*
X120029000Y-80110000D01*
X120031000Y-80111000D01*
X120033000Y-80113000D01*
X120035000Y-80115000D01*
X120037000Y-80117000D01*
X120039000Y-80119000D01*
X120040000Y-80121000D01*
X120042000Y-80123000D01*
X120043000Y-80125000D01*
X120045000Y-80127000D01*
X120046000Y-80130000D01*
X120047000Y-80132000D01*
X120048000Y-80135000D01*
X120048000Y-80137000D01*
X120049000Y-80140000D01*
X120049000Y-80142000D01*
X120050000Y-80145000D01*
X120050000Y-80147000D01*
X120050000Y-80150000D01*
X120050000Y-82550000D01*
X120050000Y-82553000D01*
X120050000Y-82555000D01*
X120049000Y-82558000D01*
X120049000Y-82560000D01*
X120048000Y-82563000D01*
X120048000Y-82565000D01*
X120047000Y-82568000D01*
X120046000Y-82570000D01*
X120045000Y-82573000D01*
X120043000Y-82575000D01*
X120042000Y-82577000D01*
X120040000Y-82579000D01*
X120039000Y-82581000D01*
X120037000Y-82583000D01*
X120035000Y-82585000D01*
X120033000Y-82587000D01*
X120031000Y-82589000D01*
X120029000Y-82590000D01*
X120027000Y-82592000D01*
X120025000Y-82593000D01*
X120023000Y-82595000D01*
X120020000Y-82596000D01*
X120018000Y-82597000D01*
X120015000Y-82598000D01*
X120013000Y-82598000D01*
X120010000Y-82599000D01*
X120008000Y-82599000D01*
X120005000Y-82600000D01*
X120003000Y-82600000D01*
X120000000Y-82600000D01*
X119700000Y-82600000D01*
X119697000Y-82600000D01*
X119695000Y-82600000D01*
X119692000Y-82599000D01*
X119690000Y-82599000D01*
X119687000Y-82598000D01*
X119685000Y-82598000D01*
X119682000Y-82597000D01*
X119680000Y-82596000D01*
X119677000Y-82595000D01*
X119675000Y-82593000D01*
X119673000Y-82592000D01*
X119671000Y-82590000D01*
X119669000Y-82589000D01*
X119667000Y-82587000D01*
X119665000Y-82585000D01*
X119663000Y-82583000D01*
X119661000Y-82581000D01*
X119660000Y-82579000D01*
X119658000Y-82577000D01*
X119657000Y-82575000D01*
X119655000Y-82573000D01*
X119654000Y-82570000D01*
X119653000Y-82568000D01*
X119652000Y-82565000D01*
X119652000Y-82563000D01*
X119651000Y-82560000D01*
X119651000Y-82558000D01*
X119650000Y-82555000D01*
X119650000Y-82553000D01*
X119650000Y-82550000D01*
X119650000Y-80150000D01*
X119650000Y-80147000D01*
X119650000Y-80145000D01*
X119651000Y-80142000D01*
X119651000Y-80140000D01*
X119652000Y-80137000D01*
X119652000Y-80135000D01*
X119653000Y-80132000D01*
X119654000Y-80130000D01*
X119655000Y-80127000D01*
X119657000Y-80125000D01*
X119658000Y-80123000D01*
X119660000Y-80121000D01*
X119661000Y-80119000D01*
X119663000Y-80117000D01*
X119665000Y-80115000D01*
X119667000Y-80113000D01*
X119669000Y-80111000D01*
X119671000Y-80110000D01*
X119673000Y-80108000D01*
X119675000Y-80107000D01*
X119677000Y-80105000D01*
X119680000Y-80104000D01*
X119682000Y-80103000D01*
X119685000Y-80102000D01*
X119687000Y-80102000D01*
X119690000Y-80101000D01*
X119692000Y-80101000D01*
X119695000Y-80100000D01*
X119697000Y-80100000D01*
X119700000Y-80100000D01*
X120000000Y-80100000D01*
X120003000Y-80100000D01*
X120005000Y-80100000D01*
X120008000Y-80101000D01*
G36*
X120008000Y-80101000D02*
G01*
X120010000Y-80101000D01*
X120013000Y-80102000D01*
X120015000Y-80102000D01*
X120018000Y-80103000D01*
X120020000Y-80104000D01*
X120023000Y-80105000D01*
X120025000Y-80107000D01*
X120027000Y-80108000D01*
X120029000Y-80110000D01*
X120031000Y-80111000D01*
X120033000Y-80113000D01*
X120035000Y-80115000D01*
X120037000Y-80117000D01*
X120039000Y-80119000D01*
X120040000Y-80121000D01*
X120042000Y-80123000D01*
X120043000Y-80125000D01*
X120045000Y-80127000D01*
X120046000Y-80130000D01*
X120047000Y-80132000D01*
X120048000Y-80135000D01*
X120048000Y-80137000D01*
X120049000Y-80140000D01*
X120049000Y-80142000D01*
X120050000Y-80145000D01*
X120050000Y-80147000D01*
X120050000Y-80150000D01*
X120050000Y-82550000D01*
X120050000Y-82553000D01*
X120050000Y-82555000D01*
X120049000Y-82558000D01*
X120049000Y-82560000D01*
X120048000Y-82563000D01*
X120048000Y-82565000D01*
X120047000Y-82568000D01*
X120046000Y-82570000D01*
X120045000Y-82573000D01*
X120043000Y-82575000D01*
X120042000Y-82577000D01*
X120040000Y-82579000D01*
X120039000Y-82581000D01*
X120037000Y-82583000D01*
X120035000Y-82585000D01*
X120033000Y-82587000D01*
X120031000Y-82589000D01*
X120029000Y-82590000D01*
X120027000Y-82592000D01*
X120025000Y-82593000D01*
X120023000Y-82595000D01*
X120020000Y-82596000D01*
X120018000Y-82597000D01*
X120015000Y-82598000D01*
X120013000Y-82598000D01*
X120010000Y-82599000D01*
X120008000Y-82599000D01*
X120005000Y-82600000D01*
X120003000Y-82600000D01*
X120000000Y-82600000D01*
X119700000Y-82600000D01*
X119697000Y-82600000D01*
X119695000Y-82600000D01*
X119692000Y-82599000D01*
X119690000Y-82599000D01*
X119687000Y-82598000D01*
X119685000Y-82598000D01*
X119682000Y-82597000D01*
X119680000Y-82596000D01*
X119677000Y-82595000D01*
X119675000Y-82593000D01*
X119673000Y-82592000D01*
X119671000Y-82590000D01*
X119669000Y-82589000D01*
X119667000Y-82587000D01*
X119665000Y-82585000D01*
X119663000Y-82583000D01*
X119661000Y-82581000D01*
X119660000Y-82579000D01*
X119658000Y-82577000D01*
X119657000Y-82575000D01*
X119655000Y-82573000D01*
X119654000Y-82570000D01*
X119653000Y-82568000D01*
X119652000Y-82565000D01*
X119652000Y-82563000D01*
X119651000Y-82560000D01*
X119651000Y-82558000D01*
X119650000Y-82555000D01*
X119650000Y-82553000D01*
X119650000Y-82550000D01*
X119650000Y-80150000D01*
X119650000Y-80147000D01*
X119650000Y-80145000D01*
X119651000Y-80142000D01*
X119651000Y-80140000D01*
X119652000Y-80137000D01*
X119652000Y-80135000D01*
X119653000Y-80132000D01*
X119654000Y-80130000D01*
X119655000Y-80127000D01*
X119657000Y-80125000D01*
X119658000Y-80123000D01*
X119660000Y-80121000D01*
X119661000Y-80119000D01*
X119663000Y-80117000D01*
X119665000Y-80115000D01*
X119667000Y-80113000D01*
X119669000Y-80111000D01*
X119671000Y-80110000D01*
X119673000Y-80108000D01*
X119675000Y-80107000D01*
X119677000Y-80105000D01*
X119680000Y-80104000D01*
X119682000Y-80103000D01*
X119685000Y-80102000D01*
X119687000Y-80102000D01*
X119690000Y-80101000D01*
X119692000Y-80101000D01*
X119695000Y-80100000D01*
X119697000Y-80100000D01*
X119700000Y-80100000D01*
X120000000Y-80100000D01*
X120003000Y-80100000D01*
X120005000Y-80100000D01*
X120008000Y-80101000D01*
G37*
X120803000Y-80951000D02*
X120806000Y-80952000D01*
X120809000Y-80953000D01*
X120812000Y-80954000D01*
X120815000Y-80955000D01*
X120818000Y-80957000D01*
X120821000Y-80958000D01*
X120824000Y-80960000D01*
X120827000Y-80962000D01*
X120829000Y-80964000D01*
X120832000Y-80967000D01*
X120834000Y-80969000D01*
X120836000Y-80972000D01*
X120838000Y-80974000D01*
X120840000Y-80977000D01*
X120842000Y-80980000D01*
X120844000Y-80983000D01*
X120845000Y-80986000D01*
X120847000Y-80989000D01*
X120848000Y-80992000D01*
X120849000Y-80995000D01*
X120850000Y-80998000D01*
X120850000Y-81001000D01*
X120851000Y-81005000D01*
X120851000Y-81008000D01*
X120851000Y-81011000D01*
X120851000Y-81015000D01*
X120851000Y-81018000D01*
X120851000Y-81021000D01*
X120850000Y-81025000D01*
X120850000Y-81225000D01*
X120851000Y-81229000D01*
X120851000Y-81232000D01*
X120851000Y-81235000D01*
X120851000Y-81239000D01*
X120851000Y-81242000D01*
X120851000Y-81245000D01*
X120850000Y-81249000D01*
X120850000Y-81252000D01*
X120849000Y-81255000D01*
X120848000Y-81258000D01*
X120847000Y-81261000D01*
X120845000Y-81264000D01*
X120844000Y-81267000D01*
X120842000Y-81270000D01*
X120840000Y-81273000D01*
X120838000Y-81276000D01*
X120836000Y-81278000D01*
X120834000Y-81281000D01*
X120832000Y-81283000D01*
X120829000Y-81286000D01*
X120827000Y-81288000D01*
X120824000Y-81290000D01*
X120821000Y-81292000D01*
X120818000Y-81293000D01*
X120815000Y-81295000D01*
X120812000Y-81296000D01*
X120809000Y-81297000D01*
X120806000Y-81298000D01*
X120803000Y-81299000D01*
X120800000Y-81300000D01*
X120200000Y-81300000D01*
X120197000Y-81299000D01*
X120194000Y-81298000D01*
X120191000Y-81297000D01*
X120188000Y-81296000D01*
X120185000Y-81295000D01*
X120182000Y-81293000D01*
X120179000Y-81292000D01*
X120176000Y-81290000D01*
X120173000Y-81288000D01*
X120171000Y-81286000D01*
X120168000Y-81283000D01*
X120166000Y-81281000D01*
X120164000Y-81278000D01*
X120162000Y-81276000D01*
X120160000Y-81273000D01*
X120158000Y-81270000D01*
X120156000Y-81267000D01*
X120155000Y-81264000D01*
X120153000Y-81261000D01*
X120152000Y-81258000D01*
X120151000Y-81255000D01*
X120150000Y-81252000D01*
X120150000Y-81249000D01*
X120149000Y-81245000D01*
X120149000Y-81242000D01*
X120149000Y-81239000D01*
X120149000Y-81235000D01*
X120149000Y-81232000D01*
X120149000Y-81229000D01*
X120150000Y-81225000D01*
X120150000Y-81025000D01*
X120149000Y-81021000D01*
X120149000Y-81018000D01*
X120149000Y-81015000D01*
X120149000Y-81011000D01*
X120149000Y-81008000D01*
X120149000Y-81005000D01*
X120150000Y-81001000D01*
X120150000Y-80998000D01*
X120151000Y-80995000D01*
X120152000Y-80992000D01*
X120153000Y-80989000D01*
X120155000Y-80986000D01*
X120156000Y-80983000D01*
X120158000Y-80980000D01*
X120160000Y-80977000D01*
X120162000Y-80974000D01*
X120164000Y-80972000D01*
X120166000Y-80969000D01*
X120168000Y-80967000D01*
X120171000Y-80964000D01*
X120173000Y-80962000D01*
X120176000Y-80960000D01*
X120179000Y-80958000D01*
X120182000Y-80957000D01*
X120185000Y-80955000D01*
X120188000Y-80954000D01*
X120191000Y-80953000D01*
X120194000Y-80952000D01*
X120197000Y-80951000D01*
X120200000Y-80950000D01*
X120800000Y-80950000D01*
X120803000Y-80951000D01*
G36*
X120803000Y-80951000D02*
G01*
X120806000Y-80952000D01*
X120809000Y-80953000D01*
X120812000Y-80954000D01*
X120815000Y-80955000D01*
X120818000Y-80957000D01*
X120821000Y-80958000D01*
X120824000Y-80960000D01*
X120827000Y-80962000D01*
X120829000Y-80964000D01*
X120832000Y-80967000D01*
X120834000Y-80969000D01*
X120836000Y-80972000D01*
X120838000Y-80974000D01*
X120840000Y-80977000D01*
X120842000Y-80980000D01*
X120844000Y-80983000D01*
X120845000Y-80986000D01*
X120847000Y-80989000D01*
X120848000Y-80992000D01*
X120849000Y-80995000D01*
X120850000Y-80998000D01*
X120850000Y-81001000D01*
X120851000Y-81005000D01*
X120851000Y-81008000D01*
X120851000Y-81011000D01*
X120851000Y-81015000D01*
X120851000Y-81018000D01*
X120851000Y-81021000D01*
X120850000Y-81025000D01*
X120850000Y-81225000D01*
X120851000Y-81229000D01*
X120851000Y-81232000D01*
X120851000Y-81235000D01*
X120851000Y-81239000D01*
X120851000Y-81242000D01*
X120851000Y-81245000D01*
X120850000Y-81249000D01*
X120850000Y-81252000D01*
X120849000Y-81255000D01*
X120848000Y-81258000D01*
X120847000Y-81261000D01*
X120845000Y-81264000D01*
X120844000Y-81267000D01*
X120842000Y-81270000D01*
X120840000Y-81273000D01*
X120838000Y-81276000D01*
X120836000Y-81278000D01*
X120834000Y-81281000D01*
X120832000Y-81283000D01*
X120829000Y-81286000D01*
X120827000Y-81288000D01*
X120824000Y-81290000D01*
X120821000Y-81292000D01*
X120818000Y-81293000D01*
X120815000Y-81295000D01*
X120812000Y-81296000D01*
X120809000Y-81297000D01*
X120806000Y-81298000D01*
X120803000Y-81299000D01*
X120800000Y-81300000D01*
X120200000Y-81300000D01*
X120197000Y-81299000D01*
X120194000Y-81298000D01*
X120191000Y-81297000D01*
X120188000Y-81296000D01*
X120185000Y-81295000D01*
X120182000Y-81293000D01*
X120179000Y-81292000D01*
X120176000Y-81290000D01*
X120173000Y-81288000D01*
X120171000Y-81286000D01*
X120168000Y-81283000D01*
X120166000Y-81281000D01*
X120164000Y-81278000D01*
X120162000Y-81276000D01*
X120160000Y-81273000D01*
X120158000Y-81270000D01*
X120156000Y-81267000D01*
X120155000Y-81264000D01*
X120153000Y-81261000D01*
X120152000Y-81258000D01*
X120151000Y-81255000D01*
X120150000Y-81252000D01*
X120150000Y-81249000D01*
X120149000Y-81245000D01*
X120149000Y-81242000D01*
X120149000Y-81239000D01*
X120149000Y-81235000D01*
X120149000Y-81232000D01*
X120149000Y-81229000D01*
X120150000Y-81225000D01*
X120150000Y-81025000D01*
X120149000Y-81021000D01*
X120149000Y-81018000D01*
X120149000Y-81015000D01*
X120149000Y-81011000D01*
X120149000Y-81008000D01*
X120149000Y-81005000D01*
X120150000Y-81001000D01*
X120150000Y-80998000D01*
X120151000Y-80995000D01*
X120152000Y-80992000D01*
X120153000Y-80989000D01*
X120155000Y-80986000D01*
X120156000Y-80983000D01*
X120158000Y-80980000D01*
X120160000Y-80977000D01*
X120162000Y-80974000D01*
X120164000Y-80972000D01*
X120166000Y-80969000D01*
X120168000Y-80967000D01*
X120171000Y-80964000D01*
X120173000Y-80962000D01*
X120176000Y-80960000D01*
X120179000Y-80958000D01*
X120182000Y-80957000D01*
X120185000Y-80955000D01*
X120188000Y-80954000D01*
X120191000Y-80953000D01*
X120194000Y-80952000D01*
X120197000Y-80951000D01*
X120200000Y-80950000D01*
X120800000Y-80950000D01*
X120803000Y-80951000D01*
G37*
X120803000Y-81401000D02*
X120806000Y-81402000D01*
X120809000Y-81403000D01*
X120812000Y-81404000D01*
X120815000Y-81405000D01*
X120818000Y-81407000D01*
X120821000Y-81408000D01*
X120824000Y-81410000D01*
X120827000Y-81412000D01*
X120829000Y-81414000D01*
X120832000Y-81417000D01*
X120834000Y-81419000D01*
X120836000Y-81422000D01*
X120838000Y-81424000D01*
X120840000Y-81427000D01*
X120842000Y-81430000D01*
X120844000Y-81433000D01*
X120845000Y-81436000D01*
X120847000Y-81439000D01*
X120848000Y-81442000D01*
X120849000Y-81445000D01*
X120850000Y-81448000D01*
X120850000Y-81451000D01*
X120851000Y-81455000D01*
X120851000Y-81458000D01*
X120851000Y-81461000D01*
X120851000Y-81465000D01*
X120851000Y-81468000D01*
X120851000Y-81471000D01*
X120850000Y-81475000D01*
X120850000Y-81675000D01*
X120851000Y-81679000D01*
X120851000Y-81682000D01*
X120851000Y-81685000D01*
X120851000Y-81689000D01*
X120851000Y-81692000D01*
X120851000Y-81695000D01*
X120850000Y-81699000D01*
X120850000Y-81702000D01*
X120849000Y-81705000D01*
X120848000Y-81708000D01*
X120847000Y-81711000D01*
X120845000Y-81714000D01*
X120844000Y-81717000D01*
X120842000Y-81720000D01*
X120840000Y-81723000D01*
X120838000Y-81726000D01*
X120836000Y-81728000D01*
X120834000Y-81731000D01*
X120832000Y-81733000D01*
X120829000Y-81736000D01*
X120827000Y-81738000D01*
X120824000Y-81740000D01*
X120821000Y-81742000D01*
X120818000Y-81743000D01*
X120815000Y-81745000D01*
X120812000Y-81746000D01*
X120809000Y-81747000D01*
X120806000Y-81748000D01*
X120803000Y-81749000D01*
X120800000Y-81750000D01*
X120200000Y-81750000D01*
X120197000Y-81749000D01*
X120194000Y-81748000D01*
X120191000Y-81747000D01*
X120188000Y-81746000D01*
X120185000Y-81745000D01*
X120182000Y-81743000D01*
X120179000Y-81742000D01*
X120176000Y-81740000D01*
X120173000Y-81738000D01*
X120171000Y-81736000D01*
X120168000Y-81733000D01*
X120166000Y-81731000D01*
X120164000Y-81728000D01*
X120162000Y-81726000D01*
X120160000Y-81723000D01*
X120158000Y-81720000D01*
X120156000Y-81717000D01*
X120155000Y-81714000D01*
X120153000Y-81711000D01*
X120152000Y-81708000D01*
X120151000Y-81705000D01*
X120150000Y-81702000D01*
X120150000Y-81699000D01*
X120149000Y-81695000D01*
X120149000Y-81692000D01*
X120149000Y-81689000D01*
X120149000Y-81685000D01*
X120149000Y-81682000D01*
X120149000Y-81679000D01*
X120150000Y-81675000D01*
X120150000Y-81475000D01*
X120149000Y-81471000D01*
X120149000Y-81468000D01*
X120149000Y-81465000D01*
X120149000Y-81461000D01*
X120149000Y-81458000D01*
X120149000Y-81455000D01*
X120150000Y-81451000D01*
X120150000Y-81448000D01*
X120151000Y-81445000D01*
X120152000Y-81442000D01*
X120153000Y-81439000D01*
X120155000Y-81436000D01*
X120156000Y-81433000D01*
X120158000Y-81430000D01*
X120160000Y-81427000D01*
X120162000Y-81424000D01*
X120164000Y-81422000D01*
X120166000Y-81419000D01*
X120168000Y-81417000D01*
X120171000Y-81414000D01*
X120173000Y-81412000D01*
X120176000Y-81410000D01*
X120179000Y-81408000D01*
X120182000Y-81407000D01*
X120185000Y-81405000D01*
X120188000Y-81404000D01*
X120191000Y-81403000D01*
X120194000Y-81402000D01*
X120197000Y-81401000D01*
X120200000Y-81400000D01*
X120800000Y-81400000D01*
X120803000Y-81401000D01*
G36*
X120803000Y-81401000D02*
G01*
X120806000Y-81402000D01*
X120809000Y-81403000D01*
X120812000Y-81404000D01*
X120815000Y-81405000D01*
X120818000Y-81407000D01*
X120821000Y-81408000D01*
X120824000Y-81410000D01*
X120827000Y-81412000D01*
X120829000Y-81414000D01*
X120832000Y-81417000D01*
X120834000Y-81419000D01*
X120836000Y-81422000D01*
X120838000Y-81424000D01*
X120840000Y-81427000D01*
X120842000Y-81430000D01*
X120844000Y-81433000D01*
X120845000Y-81436000D01*
X120847000Y-81439000D01*
X120848000Y-81442000D01*
X120849000Y-81445000D01*
X120850000Y-81448000D01*
X120850000Y-81451000D01*
X120851000Y-81455000D01*
X120851000Y-81458000D01*
X120851000Y-81461000D01*
X120851000Y-81465000D01*
X120851000Y-81468000D01*
X120851000Y-81471000D01*
X120850000Y-81475000D01*
X120850000Y-81675000D01*
X120851000Y-81679000D01*
X120851000Y-81682000D01*
X120851000Y-81685000D01*
X120851000Y-81689000D01*
X120851000Y-81692000D01*
X120851000Y-81695000D01*
X120850000Y-81699000D01*
X120850000Y-81702000D01*
X120849000Y-81705000D01*
X120848000Y-81708000D01*
X120847000Y-81711000D01*
X120845000Y-81714000D01*
X120844000Y-81717000D01*
X120842000Y-81720000D01*
X120840000Y-81723000D01*
X120838000Y-81726000D01*
X120836000Y-81728000D01*
X120834000Y-81731000D01*
X120832000Y-81733000D01*
X120829000Y-81736000D01*
X120827000Y-81738000D01*
X120824000Y-81740000D01*
X120821000Y-81742000D01*
X120818000Y-81743000D01*
X120815000Y-81745000D01*
X120812000Y-81746000D01*
X120809000Y-81747000D01*
X120806000Y-81748000D01*
X120803000Y-81749000D01*
X120800000Y-81750000D01*
X120200000Y-81750000D01*
X120197000Y-81749000D01*
X120194000Y-81748000D01*
X120191000Y-81747000D01*
X120188000Y-81746000D01*
X120185000Y-81745000D01*
X120182000Y-81743000D01*
X120179000Y-81742000D01*
X120176000Y-81740000D01*
X120173000Y-81738000D01*
X120171000Y-81736000D01*
X120168000Y-81733000D01*
X120166000Y-81731000D01*
X120164000Y-81728000D01*
X120162000Y-81726000D01*
X120160000Y-81723000D01*
X120158000Y-81720000D01*
X120156000Y-81717000D01*
X120155000Y-81714000D01*
X120153000Y-81711000D01*
X120152000Y-81708000D01*
X120151000Y-81705000D01*
X120150000Y-81702000D01*
X120150000Y-81699000D01*
X120149000Y-81695000D01*
X120149000Y-81692000D01*
X120149000Y-81689000D01*
X120149000Y-81685000D01*
X120149000Y-81682000D01*
X120149000Y-81679000D01*
X120150000Y-81675000D01*
X120150000Y-81475000D01*
X120149000Y-81471000D01*
X120149000Y-81468000D01*
X120149000Y-81465000D01*
X120149000Y-81461000D01*
X120149000Y-81458000D01*
X120149000Y-81455000D01*
X120150000Y-81451000D01*
X120150000Y-81448000D01*
X120151000Y-81445000D01*
X120152000Y-81442000D01*
X120153000Y-81439000D01*
X120155000Y-81436000D01*
X120156000Y-81433000D01*
X120158000Y-81430000D01*
X120160000Y-81427000D01*
X120162000Y-81424000D01*
X120164000Y-81422000D01*
X120166000Y-81419000D01*
X120168000Y-81417000D01*
X120171000Y-81414000D01*
X120173000Y-81412000D01*
X120176000Y-81410000D01*
X120179000Y-81408000D01*
X120182000Y-81407000D01*
X120185000Y-81405000D01*
X120188000Y-81404000D01*
X120191000Y-81403000D01*
X120194000Y-81402000D01*
X120197000Y-81401000D01*
X120200000Y-81400000D01*
X120800000Y-81400000D01*
X120803000Y-81401000D01*
G37*
X118960000Y-80101000D02*
X118966000Y-80101000D01*
X118971000Y-80102000D01*
X118976000Y-80103000D01*
X118981000Y-80105000D01*
X118986000Y-80107000D01*
X118991000Y-80109000D01*
X118995000Y-80111000D01*
X119000000Y-80113000D01*
X119004000Y-80116000D01*
X119009000Y-80119000D01*
X119013000Y-80122000D01*
X119017000Y-80126000D01*
X119021000Y-80129000D01*
X119024000Y-80133000D01*
X119028000Y-80137000D01*
X119031000Y-80141000D01*
X119034000Y-80146000D01*
X119037000Y-80150000D01*
X119039000Y-80155000D01*
X119041000Y-80159000D01*
X119043000Y-80164000D01*
X119045000Y-80169000D01*
X119047000Y-80174000D01*
X119048000Y-80179000D01*
X119049000Y-80184000D01*
X119049000Y-80190000D01*
X119050000Y-80195000D01*
X119050000Y-80200000D01*
X119050000Y-80750000D01*
X119050000Y-80755000D01*
X119049000Y-80760000D01*
X119049000Y-80766000D01*
X119048000Y-80771000D01*
X119047000Y-80776000D01*
X119045000Y-80781000D01*
X119043000Y-80786000D01*
X119041000Y-80791000D01*
X119039000Y-80795000D01*
X119037000Y-80800000D01*
X119034000Y-80804000D01*
X119031000Y-80809000D01*
X119028000Y-80813000D01*
X119024000Y-80817000D01*
X119021000Y-80821000D01*
X119017000Y-80824000D01*
X119013000Y-80828000D01*
X119009000Y-80831000D01*
X119004000Y-80834000D01*
X119000000Y-80837000D01*
X118995000Y-80839000D01*
X118991000Y-80841000D01*
X118986000Y-80843000D01*
X118981000Y-80845000D01*
X118976000Y-80847000D01*
X118971000Y-80848000D01*
X118966000Y-80849000D01*
X118960000Y-80849000D01*
X118955000Y-80850000D01*
X118950000Y-80850000D01*
X118450000Y-80850000D01*
X118445000Y-80850000D01*
X118440000Y-80849000D01*
X118434000Y-80849000D01*
X118429000Y-80848000D01*
X118424000Y-80847000D01*
X118419000Y-80845000D01*
X118414000Y-80843000D01*
X118409000Y-80841000D01*
X118405000Y-80839000D01*
X118400000Y-80837000D01*
X118396000Y-80834000D01*
X118391000Y-80831000D01*
X118387000Y-80828000D01*
X118383000Y-80824000D01*
X118379000Y-80821000D01*
X118376000Y-80817000D01*
X118372000Y-80813000D01*
X118369000Y-80809000D01*
X118366000Y-80804000D01*
X118363000Y-80800000D01*
X118361000Y-80795000D01*
X118359000Y-80791000D01*
X118357000Y-80786000D01*
X118355000Y-80781000D01*
X118353000Y-80776000D01*
X118352000Y-80771000D01*
X118351000Y-80766000D01*
X118351000Y-80760000D01*
X118350000Y-80755000D01*
X118350000Y-80750000D01*
X118350000Y-80550000D01*
X118350000Y-80545000D01*
X118351000Y-80540000D01*
X118351000Y-80534000D01*
X118352000Y-80529000D01*
X118353000Y-80524000D01*
X118355000Y-80519000D01*
X118357000Y-80514000D01*
X118359000Y-80509000D01*
X118361000Y-80505000D01*
X118363000Y-80500000D01*
X118366000Y-80496000D01*
X118369000Y-80491000D01*
X118372000Y-80487000D01*
X118376000Y-80483000D01*
X118379000Y-80479000D01*
X118383000Y-80476000D01*
X118387000Y-80472000D01*
X118391000Y-80469000D01*
X118396000Y-80466000D01*
X118400000Y-80463000D01*
X118405000Y-80461000D01*
X118409000Y-80459000D01*
X118414000Y-80457000D01*
X118419000Y-80455000D01*
X118424000Y-80453000D01*
X118429000Y-80452000D01*
X118434000Y-80451000D01*
X118440000Y-80451000D01*
X118445000Y-80450000D01*
X118450000Y-80450000D01*
X118650000Y-80450000D01*
X118653000Y-80450000D01*
X118655000Y-80450000D01*
X118658000Y-80449000D01*
X118660000Y-80449000D01*
X118663000Y-80448000D01*
X118665000Y-80448000D01*
X118668000Y-80447000D01*
X118670000Y-80446000D01*
X118673000Y-80445000D01*
X118675000Y-80443000D01*
X118677000Y-80442000D01*
X118679000Y-80440000D01*
X118681000Y-80439000D01*
X118683000Y-80437000D01*
X118685000Y-80435000D01*
X118687000Y-80433000D01*
X118689000Y-80431000D01*
X118690000Y-80429000D01*
X118692000Y-80427000D01*
X118693000Y-80425000D01*
X118695000Y-80423000D01*
X118696000Y-80420000D01*
X118697000Y-80418000D01*
X118698000Y-80415000D01*
X118698000Y-80413000D01*
X118699000Y-80410000D01*
X118699000Y-80408000D01*
X118700000Y-80405000D01*
X118700000Y-80403000D01*
X118700000Y-80400000D01*
X118700000Y-80200000D01*
X118700000Y-80195000D01*
X118701000Y-80190000D01*
X118701000Y-80184000D01*
X118702000Y-80179000D01*
X118703000Y-80174000D01*
X118705000Y-80169000D01*
X118707000Y-80164000D01*
X118709000Y-80159000D01*
X118711000Y-80155000D01*
X118713000Y-80150000D01*
X118716000Y-80146000D01*
X118719000Y-80141000D01*
X118722000Y-80137000D01*
X118726000Y-80133000D01*
X118729000Y-80129000D01*
X118733000Y-80126000D01*
X118737000Y-80122000D01*
X118741000Y-80119000D01*
X118746000Y-80116000D01*
X118750000Y-80113000D01*
X118755000Y-80111000D01*
X118759000Y-80109000D01*
X118764000Y-80107000D01*
X118769000Y-80105000D01*
X118774000Y-80103000D01*
X118779000Y-80102000D01*
X118784000Y-80101000D01*
X118790000Y-80101000D01*
X118795000Y-80100000D01*
X118800000Y-80100000D01*
X118950000Y-80100000D01*
X118955000Y-80100000D01*
X118960000Y-80101000D01*
G36*
X118960000Y-80101000D02*
G01*
X118966000Y-80101000D01*
X118971000Y-80102000D01*
X118976000Y-80103000D01*
X118981000Y-80105000D01*
X118986000Y-80107000D01*
X118991000Y-80109000D01*
X118995000Y-80111000D01*
X119000000Y-80113000D01*
X119004000Y-80116000D01*
X119009000Y-80119000D01*
X119013000Y-80122000D01*
X119017000Y-80126000D01*
X119021000Y-80129000D01*
X119024000Y-80133000D01*
X119028000Y-80137000D01*
X119031000Y-80141000D01*
X119034000Y-80146000D01*
X119037000Y-80150000D01*
X119039000Y-80155000D01*
X119041000Y-80159000D01*
X119043000Y-80164000D01*
X119045000Y-80169000D01*
X119047000Y-80174000D01*
X119048000Y-80179000D01*
X119049000Y-80184000D01*
X119049000Y-80190000D01*
X119050000Y-80195000D01*
X119050000Y-80200000D01*
X119050000Y-80750000D01*
X119050000Y-80755000D01*
X119049000Y-80760000D01*
X119049000Y-80766000D01*
X119048000Y-80771000D01*
X119047000Y-80776000D01*
X119045000Y-80781000D01*
X119043000Y-80786000D01*
X119041000Y-80791000D01*
X119039000Y-80795000D01*
X119037000Y-80800000D01*
X119034000Y-80804000D01*
X119031000Y-80809000D01*
X119028000Y-80813000D01*
X119024000Y-80817000D01*
X119021000Y-80821000D01*
X119017000Y-80824000D01*
X119013000Y-80828000D01*
X119009000Y-80831000D01*
X119004000Y-80834000D01*
X119000000Y-80837000D01*
X118995000Y-80839000D01*
X118991000Y-80841000D01*
X118986000Y-80843000D01*
X118981000Y-80845000D01*
X118976000Y-80847000D01*
X118971000Y-80848000D01*
X118966000Y-80849000D01*
X118960000Y-80849000D01*
X118955000Y-80850000D01*
X118950000Y-80850000D01*
X118450000Y-80850000D01*
X118445000Y-80850000D01*
X118440000Y-80849000D01*
X118434000Y-80849000D01*
X118429000Y-80848000D01*
X118424000Y-80847000D01*
X118419000Y-80845000D01*
X118414000Y-80843000D01*
X118409000Y-80841000D01*
X118405000Y-80839000D01*
X118400000Y-80837000D01*
X118396000Y-80834000D01*
X118391000Y-80831000D01*
X118387000Y-80828000D01*
X118383000Y-80824000D01*
X118379000Y-80821000D01*
X118376000Y-80817000D01*
X118372000Y-80813000D01*
X118369000Y-80809000D01*
X118366000Y-80804000D01*
X118363000Y-80800000D01*
X118361000Y-80795000D01*
X118359000Y-80791000D01*
X118357000Y-80786000D01*
X118355000Y-80781000D01*
X118353000Y-80776000D01*
X118352000Y-80771000D01*
X118351000Y-80766000D01*
X118351000Y-80760000D01*
X118350000Y-80755000D01*
X118350000Y-80750000D01*
X118350000Y-80550000D01*
X118350000Y-80545000D01*
X118351000Y-80540000D01*
X118351000Y-80534000D01*
X118352000Y-80529000D01*
X118353000Y-80524000D01*
X118355000Y-80519000D01*
X118357000Y-80514000D01*
X118359000Y-80509000D01*
X118361000Y-80505000D01*
X118363000Y-80500000D01*
X118366000Y-80496000D01*
X118369000Y-80491000D01*
X118372000Y-80487000D01*
X118376000Y-80483000D01*
X118379000Y-80479000D01*
X118383000Y-80476000D01*
X118387000Y-80472000D01*
X118391000Y-80469000D01*
X118396000Y-80466000D01*
X118400000Y-80463000D01*
X118405000Y-80461000D01*
X118409000Y-80459000D01*
X118414000Y-80457000D01*
X118419000Y-80455000D01*
X118424000Y-80453000D01*
X118429000Y-80452000D01*
X118434000Y-80451000D01*
X118440000Y-80451000D01*
X118445000Y-80450000D01*
X118450000Y-80450000D01*
X118650000Y-80450000D01*
X118653000Y-80450000D01*
X118655000Y-80450000D01*
X118658000Y-80449000D01*
X118660000Y-80449000D01*
X118663000Y-80448000D01*
X118665000Y-80448000D01*
X118668000Y-80447000D01*
X118670000Y-80446000D01*
X118673000Y-80445000D01*
X118675000Y-80443000D01*
X118677000Y-80442000D01*
X118679000Y-80440000D01*
X118681000Y-80439000D01*
X118683000Y-80437000D01*
X118685000Y-80435000D01*
X118687000Y-80433000D01*
X118689000Y-80431000D01*
X118690000Y-80429000D01*
X118692000Y-80427000D01*
X118693000Y-80425000D01*
X118695000Y-80423000D01*
X118696000Y-80420000D01*
X118697000Y-80418000D01*
X118698000Y-80415000D01*
X118698000Y-80413000D01*
X118699000Y-80410000D01*
X118699000Y-80408000D01*
X118700000Y-80405000D01*
X118700000Y-80403000D01*
X118700000Y-80400000D01*
X118700000Y-80200000D01*
X118700000Y-80195000D01*
X118701000Y-80190000D01*
X118701000Y-80184000D01*
X118702000Y-80179000D01*
X118703000Y-80174000D01*
X118705000Y-80169000D01*
X118707000Y-80164000D01*
X118709000Y-80159000D01*
X118711000Y-80155000D01*
X118713000Y-80150000D01*
X118716000Y-80146000D01*
X118719000Y-80141000D01*
X118722000Y-80137000D01*
X118726000Y-80133000D01*
X118729000Y-80129000D01*
X118733000Y-80126000D01*
X118737000Y-80122000D01*
X118741000Y-80119000D01*
X118746000Y-80116000D01*
X118750000Y-80113000D01*
X118755000Y-80111000D01*
X118759000Y-80109000D01*
X118764000Y-80107000D01*
X118769000Y-80105000D01*
X118774000Y-80103000D01*
X118779000Y-80102000D01*
X118784000Y-80101000D01*
X118790000Y-80101000D01*
X118795000Y-80100000D01*
X118800000Y-80100000D01*
X118950000Y-80100000D01*
X118955000Y-80100000D01*
X118960000Y-80101000D01*
G37*
X118960000Y-81851000D02*
X118966000Y-81851000D01*
X118971000Y-81852000D01*
X118976000Y-81853000D01*
X118981000Y-81855000D01*
X118986000Y-81857000D01*
X118991000Y-81859000D01*
X118995000Y-81861000D01*
X119000000Y-81863000D01*
X119004000Y-81866000D01*
X119009000Y-81869000D01*
X119013000Y-81872000D01*
X119017000Y-81876000D01*
X119021000Y-81879000D01*
X119024000Y-81883000D01*
X119028000Y-81887000D01*
X119031000Y-81891000D01*
X119034000Y-81896000D01*
X119037000Y-81900000D01*
X119039000Y-81905000D01*
X119041000Y-81909000D01*
X119043000Y-81914000D01*
X119045000Y-81919000D01*
X119047000Y-81924000D01*
X119048000Y-81929000D01*
X119049000Y-81934000D01*
X119049000Y-81940000D01*
X119050000Y-81945000D01*
X119050000Y-81950000D01*
X119050000Y-82500000D01*
X119050000Y-82505000D01*
X119049000Y-82510000D01*
X119049000Y-82516000D01*
X119048000Y-82521000D01*
X119047000Y-82526000D01*
X119045000Y-82531000D01*
X119043000Y-82536000D01*
X119041000Y-82541000D01*
X119039000Y-82545000D01*
X119037000Y-82550000D01*
X119034000Y-82554000D01*
X119031000Y-82559000D01*
X119028000Y-82563000D01*
X119024000Y-82567000D01*
X119021000Y-82571000D01*
X119017000Y-82574000D01*
X119013000Y-82578000D01*
X119009000Y-82581000D01*
X119004000Y-82584000D01*
X119000000Y-82587000D01*
X118995000Y-82589000D01*
X118991000Y-82591000D01*
X118986000Y-82593000D01*
X118981000Y-82595000D01*
X118976000Y-82597000D01*
X118971000Y-82598000D01*
X118966000Y-82599000D01*
X118960000Y-82599000D01*
X118955000Y-82600000D01*
X118950000Y-82600000D01*
X118800000Y-82600000D01*
X118795000Y-82600000D01*
X118790000Y-82599000D01*
X118784000Y-82599000D01*
X118779000Y-82598000D01*
X118774000Y-82597000D01*
X118769000Y-82595000D01*
X118764000Y-82593000D01*
X118759000Y-82591000D01*
X118755000Y-82589000D01*
X118750000Y-82587000D01*
X118746000Y-82584000D01*
X118741000Y-82581000D01*
X118737000Y-82578000D01*
X118733000Y-82574000D01*
X118729000Y-82571000D01*
X118726000Y-82567000D01*
X118722000Y-82563000D01*
X118719000Y-82559000D01*
X118716000Y-82554000D01*
X118713000Y-82550000D01*
X118711000Y-82545000D01*
X118709000Y-82541000D01*
X118707000Y-82536000D01*
X118705000Y-82531000D01*
X118703000Y-82526000D01*
X118702000Y-82521000D01*
X118701000Y-82516000D01*
X118701000Y-82510000D01*
X118700000Y-82505000D01*
X118700000Y-82500000D01*
X118700000Y-82300000D01*
X118700000Y-82297000D01*
X118700000Y-82295000D01*
X118699000Y-82292000D01*
X118699000Y-82290000D01*
X118698000Y-82287000D01*
X118698000Y-82285000D01*
X118697000Y-82282000D01*
X118696000Y-82280000D01*
X118695000Y-82277000D01*
X118693000Y-82275000D01*
X118692000Y-82273000D01*
X118690000Y-82271000D01*
X118689000Y-82269000D01*
X118687000Y-82267000D01*
X118685000Y-82265000D01*
X118683000Y-82263000D01*
X118681000Y-82261000D01*
X118679000Y-82260000D01*
X118677000Y-82258000D01*
X118675000Y-82257000D01*
X118673000Y-82255000D01*
X118670000Y-82254000D01*
X118668000Y-82253000D01*
X118665000Y-82252000D01*
X118663000Y-82252000D01*
X118660000Y-82251000D01*
X118658000Y-82251000D01*
X118655000Y-82250000D01*
X118653000Y-82250000D01*
X118650000Y-82250000D01*
X118450000Y-82250000D01*
X118445000Y-82250000D01*
X118440000Y-82249000D01*
X118434000Y-82249000D01*
X118429000Y-82248000D01*
X118424000Y-82247000D01*
X118419000Y-82245000D01*
X118414000Y-82243000D01*
X118409000Y-82241000D01*
X118405000Y-82239000D01*
X118400000Y-82237000D01*
X118396000Y-82234000D01*
X118391000Y-82231000D01*
X118387000Y-82228000D01*
X118383000Y-82224000D01*
X118379000Y-82221000D01*
X118376000Y-82217000D01*
X118372000Y-82213000D01*
X118369000Y-82209000D01*
X118366000Y-82204000D01*
X118363000Y-82200000D01*
X118361000Y-82195000D01*
X118359000Y-82191000D01*
X118357000Y-82186000D01*
X118355000Y-82181000D01*
X118353000Y-82176000D01*
X118352000Y-82171000D01*
X118351000Y-82166000D01*
X118351000Y-82160000D01*
X118350000Y-82155000D01*
X118350000Y-82150000D01*
X118350000Y-81950000D01*
X118350000Y-81945000D01*
X118351000Y-81940000D01*
X118351000Y-81934000D01*
X118352000Y-81929000D01*
X118353000Y-81924000D01*
X118355000Y-81919000D01*
X118357000Y-81914000D01*
X118359000Y-81909000D01*
X118361000Y-81905000D01*
X118363000Y-81900000D01*
X118366000Y-81896000D01*
X118369000Y-81891000D01*
X118372000Y-81887000D01*
X118376000Y-81883000D01*
X118379000Y-81879000D01*
X118383000Y-81876000D01*
X118387000Y-81872000D01*
X118391000Y-81869000D01*
X118396000Y-81866000D01*
X118400000Y-81863000D01*
X118405000Y-81861000D01*
X118409000Y-81859000D01*
X118414000Y-81857000D01*
X118419000Y-81855000D01*
X118424000Y-81853000D01*
X118429000Y-81852000D01*
X118434000Y-81851000D01*
X118440000Y-81851000D01*
X118445000Y-81850000D01*
X118450000Y-81850000D01*
X118950000Y-81850000D01*
X118955000Y-81850000D01*
X118960000Y-81851000D01*
G36*
X118960000Y-81851000D02*
G01*
X118966000Y-81851000D01*
X118971000Y-81852000D01*
X118976000Y-81853000D01*
X118981000Y-81855000D01*
X118986000Y-81857000D01*
X118991000Y-81859000D01*
X118995000Y-81861000D01*
X119000000Y-81863000D01*
X119004000Y-81866000D01*
X119009000Y-81869000D01*
X119013000Y-81872000D01*
X119017000Y-81876000D01*
X119021000Y-81879000D01*
X119024000Y-81883000D01*
X119028000Y-81887000D01*
X119031000Y-81891000D01*
X119034000Y-81896000D01*
X119037000Y-81900000D01*
X119039000Y-81905000D01*
X119041000Y-81909000D01*
X119043000Y-81914000D01*
X119045000Y-81919000D01*
X119047000Y-81924000D01*
X119048000Y-81929000D01*
X119049000Y-81934000D01*
X119049000Y-81940000D01*
X119050000Y-81945000D01*
X119050000Y-81950000D01*
X119050000Y-82500000D01*
X119050000Y-82505000D01*
X119049000Y-82510000D01*
X119049000Y-82516000D01*
X119048000Y-82521000D01*
X119047000Y-82526000D01*
X119045000Y-82531000D01*
X119043000Y-82536000D01*
X119041000Y-82541000D01*
X119039000Y-82545000D01*
X119037000Y-82550000D01*
X119034000Y-82554000D01*
X119031000Y-82559000D01*
X119028000Y-82563000D01*
X119024000Y-82567000D01*
X119021000Y-82571000D01*
X119017000Y-82574000D01*
X119013000Y-82578000D01*
X119009000Y-82581000D01*
X119004000Y-82584000D01*
X119000000Y-82587000D01*
X118995000Y-82589000D01*
X118991000Y-82591000D01*
X118986000Y-82593000D01*
X118981000Y-82595000D01*
X118976000Y-82597000D01*
X118971000Y-82598000D01*
X118966000Y-82599000D01*
X118960000Y-82599000D01*
X118955000Y-82600000D01*
X118950000Y-82600000D01*
X118800000Y-82600000D01*
X118795000Y-82600000D01*
X118790000Y-82599000D01*
X118784000Y-82599000D01*
X118779000Y-82598000D01*
X118774000Y-82597000D01*
X118769000Y-82595000D01*
X118764000Y-82593000D01*
X118759000Y-82591000D01*
X118755000Y-82589000D01*
X118750000Y-82587000D01*
X118746000Y-82584000D01*
X118741000Y-82581000D01*
X118737000Y-82578000D01*
X118733000Y-82574000D01*
X118729000Y-82571000D01*
X118726000Y-82567000D01*
X118722000Y-82563000D01*
X118719000Y-82559000D01*
X118716000Y-82554000D01*
X118713000Y-82550000D01*
X118711000Y-82545000D01*
X118709000Y-82541000D01*
X118707000Y-82536000D01*
X118705000Y-82531000D01*
X118703000Y-82526000D01*
X118702000Y-82521000D01*
X118701000Y-82516000D01*
X118701000Y-82510000D01*
X118700000Y-82505000D01*
X118700000Y-82500000D01*
X118700000Y-82300000D01*
X118700000Y-82297000D01*
X118700000Y-82295000D01*
X118699000Y-82292000D01*
X118699000Y-82290000D01*
X118698000Y-82287000D01*
X118698000Y-82285000D01*
X118697000Y-82282000D01*
X118696000Y-82280000D01*
X118695000Y-82277000D01*
X118693000Y-82275000D01*
X118692000Y-82273000D01*
X118690000Y-82271000D01*
X118689000Y-82269000D01*
X118687000Y-82267000D01*
X118685000Y-82265000D01*
X118683000Y-82263000D01*
X118681000Y-82261000D01*
X118679000Y-82260000D01*
X118677000Y-82258000D01*
X118675000Y-82257000D01*
X118673000Y-82255000D01*
X118670000Y-82254000D01*
X118668000Y-82253000D01*
X118665000Y-82252000D01*
X118663000Y-82252000D01*
X118660000Y-82251000D01*
X118658000Y-82251000D01*
X118655000Y-82250000D01*
X118653000Y-82250000D01*
X118650000Y-82250000D01*
X118450000Y-82250000D01*
X118445000Y-82250000D01*
X118440000Y-82249000D01*
X118434000Y-82249000D01*
X118429000Y-82248000D01*
X118424000Y-82247000D01*
X118419000Y-82245000D01*
X118414000Y-82243000D01*
X118409000Y-82241000D01*
X118405000Y-82239000D01*
X118400000Y-82237000D01*
X118396000Y-82234000D01*
X118391000Y-82231000D01*
X118387000Y-82228000D01*
X118383000Y-82224000D01*
X118379000Y-82221000D01*
X118376000Y-82217000D01*
X118372000Y-82213000D01*
X118369000Y-82209000D01*
X118366000Y-82204000D01*
X118363000Y-82200000D01*
X118361000Y-82195000D01*
X118359000Y-82191000D01*
X118357000Y-82186000D01*
X118355000Y-82181000D01*
X118353000Y-82176000D01*
X118352000Y-82171000D01*
X118351000Y-82166000D01*
X118351000Y-82160000D01*
X118350000Y-82155000D01*
X118350000Y-82150000D01*
X118350000Y-81950000D01*
X118350000Y-81945000D01*
X118351000Y-81940000D01*
X118351000Y-81934000D01*
X118352000Y-81929000D01*
X118353000Y-81924000D01*
X118355000Y-81919000D01*
X118357000Y-81914000D01*
X118359000Y-81909000D01*
X118361000Y-81905000D01*
X118363000Y-81900000D01*
X118366000Y-81896000D01*
X118369000Y-81891000D01*
X118372000Y-81887000D01*
X118376000Y-81883000D01*
X118379000Y-81879000D01*
X118383000Y-81876000D01*
X118387000Y-81872000D01*
X118391000Y-81869000D01*
X118396000Y-81866000D01*
X118400000Y-81863000D01*
X118405000Y-81861000D01*
X118409000Y-81859000D01*
X118414000Y-81857000D01*
X118419000Y-81855000D01*
X118424000Y-81853000D01*
X118429000Y-81852000D01*
X118434000Y-81851000D01*
X118440000Y-81851000D01*
X118445000Y-81850000D01*
X118450000Y-81850000D01*
X118950000Y-81850000D01*
X118955000Y-81850000D01*
X118960000Y-81851000D01*
G37*
X120410000Y-80101000D02*
X120416000Y-80101000D01*
X120421000Y-80102000D01*
X120426000Y-80103000D01*
X120431000Y-80105000D01*
X120436000Y-80107000D01*
X120441000Y-80109000D01*
X120445000Y-80111000D01*
X120450000Y-80113000D01*
X120454000Y-80116000D01*
X120459000Y-80119000D01*
X120463000Y-80122000D01*
X120467000Y-80126000D01*
X120471000Y-80129000D01*
X120474000Y-80133000D01*
X120478000Y-80137000D01*
X120481000Y-80141000D01*
X120484000Y-80146000D01*
X120487000Y-80150000D01*
X120489000Y-80155000D01*
X120491000Y-80159000D01*
X120493000Y-80164000D01*
X120495000Y-80169000D01*
X120497000Y-80174000D01*
X120498000Y-80179000D01*
X120499000Y-80184000D01*
X120499000Y-80190000D01*
X120500000Y-80195000D01*
X120500000Y-80200000D01*
X120500000Y-80400000D01*
X120500000Y-80403000D01*
X120500000Y-80405000D01*
X120501000Y-80408000D01*
X120501000Y-80410000D01*
X120502000Y-80413000D01*
X120502000Y-80415000D01*
X120503000Y-80418000D01*
X120504000Y-80420000D01*
X120505000Y-80423000D01*
X120507000Y-80425000D01*
X120508000Y-80427000D01*
X120510000Y-80429000D01*
X120511000Y-80431000D01*
X120513000Y-80433000D01*
X120515000Y-80435000D01*
X120517000Y-80437000D01*
X120519000Y-80439000D01*
X120521000Y-80440000D01*
X120523000Y-80442000D01*
X120525000Y-80443000D01*
X120527000Y-80445000D01*
X120530000Y-80446000D01*
X120532000Y-80447000D01*
X120535000Y-80448000D01*
X120537000Y-80448000D01*
X120540000Y-80449000D01*
X120542000Y-80449000D01*
X120545000Y-80450000D01*
X120547000Y-80450000D01*
X120550000Y-80450000D01*
X120750000Y-80450000D01*
X120755000Y-80450000D01*
X120760000Y-80451000D01*
X120766000Y-80451000D01*
X120771000Y-80452000D01*
X120776000Y-80453000D01*
X120781000Y-80455000D01*
X120786000Y-80457000D01*
X120791000Y-80459000D01*
X120795000Y-80461000D01*
X120800000Y-80463000D01*
X120804000Y-80466000D01*
X120809000Y-80469000D01*
X120813000Y-80472000D01*
X120817000Y-80476000D01*
X120821000Y-80479000D01*
X120824000Y-80483000D01*
X120828000Y-80487000D01*
X120831000Y-80491000D01*
X120834000Y-80496000D01*
X120837000Y-80500000D01*
X120839000Y-80505000D01*
X120841000Y-80509000D01*
X120843000Y-80514000D01*
X120845000Y-80519000D01*
X120847000Y-80524000D01*
X120848000Y-80529000D01*
X120849000Y-80534000D01*
X120849000Y-80540000D01*
X120850000Y-80545000D01*
X120850000Y-80550000D01*
X120850000Y-80750000D01*
X120850000Y-80755000D01*
X120849000Y-80760000D01*
X120849000Y-80766000D01*
X120848000Y-80771000D01*
X120847000Y-80776000D01*
X120845000Y-80781000D01*
X120843000Y-80786000D01*
X120841000Y-80791000D01*
X120839000Y-80795000D01*
X120837000Y-80800000D01*
X120834000Y-80804000D01*
X120831000Y-80809000D01*
X120828000Y-80813000D01*
X120824000Y-80817000D01*
X120821000Y-80821000D01*
X120817000Y-80824000D01*
X120813000Y-80828000D01*
X120809000Y-80831000D01*
X120804000Y-80834000D01*
X120800000Y-80837000D01*
X120795000Y-80839000D01*
X120791000Y-80841000D01*
X120786000Y-80843000D01*
X120781000Y-80845000D01*
X120776000Y-80847000D01*
X120771000Y-80848000D01*
X120766000Y-80849000D01*
X120760000Y-80849000D01*
X120755000Y-80850000D01*
X120750000Y-80850000D01*
X120250000Y-80850000D01*
X120245000Y-80850000D01*
X120240000Y-80849000D01*
X120234000Y-80849000D01*
X120229000Y-80848000D01*
X120224000Y-80847000D01*
X120219000Y-80845000D01*
X120214000Y-80843000D01*
X120209000Y-80841000D01*
X120205000Y-80839000D01*
X120200000Y-80837000D01*
X120196000Y-80834000D01*
X120191000Y-80831000D01*
X120187000Y-80828000D01*
X120183000Y-80824000D01*
X120179000Y-80821000D01*
X120176000Y-80817000D01*
X120172000Y-80813000D01*
X120169000Y-80809000D01*
X120166000Y-80804000D01*
X120163000Y-80800000D01*
X120161000Y-80795000D01*
X120159000Y-80791000D01*
X120157000Y-80786000D01*
X120155000Y-80781000D01*
X120153000Y-80776000D01*
X120152000Y-80771000D01*
X120151000Y-80766000D01*
X120151000Y-80760000D01*
X120150000Y-80755000D01*
X120150000Y-80750000D01*
X120150000Y-80200000D01*
X120150000Y-80195000D01*
X120151000Y-80190000D01*
X120151000Y-80184000D01*
X120152000Y-80179000D01*
X120153000Y-80174000D01*
X120155000Y-80169000D01*
X120157000Y-80164000D01*
X120159000Y-80159000D01*
X120161000Y-80155000D01*
X120163000Y-80150000D01*
X120166000Y-80146000D01*
X120169000Y-80141000D01*
X120172000Y-80137000D01*
X120176000Y-80133000D01*
X120179000Y-80129000D01*
X120183000Y-80126000D01*
X120187000Y-80122000D01*
X120191000Y-80119000D01*
X120196000Y-80116000D01*
X120200000Y-80113000D01*
X120205000Y-80111000D01*
X120209000Y-80109000D01*
X120214000Y-80107000D01*
X120219000Y-80105000D01*
X120224000Y-80103000D01*
X120229000Y-80102000D01*
X120234000Y-80101000D01*
X120240000Y-80101000D01*
X120245000Y-80100000D01*
X120250000Y-80100000D01*
X120400000Y-80100000D01*
X120405000Y-80100000D01*
X120410000Y-80101000D01*
G36*
X120410000Y-80101000D02*
G01*
X120416000Y-80101000D01*
X120421000Y-80102000D01*
X120426000Y-80103000D01*
X120431000Y-80105000D01*
X120436000Y-80107000D01*
X120441000Y-80109000D01*
X120445000Y-80111000D01*
X120450000Y-80113000D01*
X120454000Y-80116000D01*
X120459000Y-80119000D01*
X120463000Y-80122000D01*
X120467000Y-80126000D01*
X120471000Y-80129000D01*
X120474000Y-80133000D01*
X120478000Y-80137000D01*
X120481000Y-80141000D01*
X120484000Y-80146000D01*
X120487000Y-80150000D01*
X120489000Y-80155000D01*
X120491000Y-80159000D01*
X120493000Y-80164000D01*
X120495000Y-80169000D01*
X120497000Y-80174000D01*
X120498000Y-80179000D01*
X120499000Y-80184000D01*
X120499000Y-80190000D01*
X120500000Y-80195000D01*
X120500000Y-80200000D01*
X120500000Y-80400000D01*
X120500000Y-80403000D01*
X120500000Y-80405000D01*
X120501000Y-80408000D01*
X120501000Y-80410000D01*
X120502000Y-80413000D01*
X120502000Y-80415000D01*
X120503000Y-80418000D01*
X120504000Y-80420000D01*
X120505000Y-80423000D01*
X120507000Y-80425000D01*
X120508000Y-80427000D01*
X120510000Y-80429000D01*
X120511000Y-80431000D01*
X120513000Y-80433000D01*
X120515000Y-80435000D01*
X120517000Y-80437000D01*
X120519000Y-80439000D01*
X120521000Y-80440000D01*
X120523000Y-80442000D01*
X120525000Y-80443000D01*
X120527000Y-80445000D01*
X120530000Y-80446000D01*
X120532000Y-80447000D01*
X120535000Y-80448000D01*
X120537000Y-80448000D01*
X120540000Y-80449000D01*
X120542000Y-80449000D01*
X120545000Y-80450000D01*
X120547000Y-80450000D01*
X120550000Y-80450000D01*
X120750000Y-80450000D01*
X120755000Y-80450000D01*
X120760000Y-80451000D01*
X120766000Y-80451000D01*
X120771000Y-80452000D01*
X120776000Y-80453000D01*
X120781000Y-80455000D01*
X120786000Y-80457000D01*
X120791000Y-80459000D01*
X120795000Y-80461000D01*
X120800000Y-80463000D01*
X120804000Y-80466000D01*
X120809000Y-80469000D01*
X120813000Y-80472000D01*
X120817000Y-80476000D01*
X120821000Y-80479000D01*
X120824000Y-80483000D01*
X120828000Y-80487000D01*
X120831000Y-80491000D01*
X120834000Y-80496000D01*
X120837000Y-80500000D01*
X120839000Y-80505000D01*
X120841000Y-80509000D01*
X120843000Y-80514000D01*
X120845000Y-80519000D01*
X120847000Y-80524000D01*
X120848000Y-80529000D01*
X120849000Y-80534000D01*
X120849000Y-80540000D01*
X120850000Y-80545000D01*
X120850000Y-80550000D01*
X120850000Y-80750000D01*
X120850000Y-80755000D01*
X120849000Y-80760000D01*
X120849000Y-80766000D01*
X120848000Y-80771000D01*
X120847000Y-80776000D01*
X120845000Y-80781000D01*
X120843000Y-80786000D01*
X120841000Y-80791000D01*
X120839000Y-80795000D01*
X120837000Y-80800000D01*
X120834000Y-80804000D01*
X120831000Y-80809000D01*
X120828000Y-80813000D01*
X120824000Y-80817000D01*
X120821000Y-80821000D01*
X120817000Y-80824000D01*
X120813000Y-80828000D01*
X120809000Y-80831000D01*
X120804000Y-80834000D01*
X120800000Y-80837000D01*
X120795000Y-80839000D01*
X120791000Y-80841000D01*
X120786000Y-80843000D01*
X120781000Y-80845000D01*
X120776000Y-80847000D01*
X120771000Y-80848000D01*
X120766000Y-80849000D01*
X120760000Y-80849000D01*
X120755000Y-80850000D01*
X120750000Y-80850000D01*
X120250000Y-80850000D01*
X120245000Y-80850000D01*
X120240000Y-80849000D01*
X120234000Y-80849000D01*
X120229000Y-80848000D01*
X120224000Y-80847000D01*
X120219000Y-80845000D01*
X120214000Y-80843000D01*
X120209000Y-80841000D01*
X120205000Y-80839000D01*
X120200000Y-80837000D01*
X120196000Y-80834000D01*
X120191000Y-80831000D01*
X120187000Y-80828000D01*
X120183000Y-80824000D01*
X120179000Y-80821000D01*
X120176000Y-80817000D01*
X120172000Y-80813000D01*
X120169000Y-80809000D01*
X120166000Y-80804000D01*
X120163000Y-80800000D01*
X120161000Y-80795000D01*
X120159000Y-80791000D01*
X120157000Y-80786000D01*
X120155000Y-80781000D01*
X120153000Y-80776000D01*
X120152000Y-80771000D01*
X120151000Y-80766000D01*
X120151000Y-80760000D01*
X120150000Y-80755000D01*
X120150000Y-80750000D01*
X120150000Y-80200000D01*
X120150000Y-80195000D01*
X120151000Y-80190000D01*
X120151000Y-80184000D01*
X120152000Y-80179000D01*
X120153000Y-80174000D01*
X120155000Y-80169000D01*
X120157000Y-80164000D01*
X120159000Y-80159000D01*
X120161000Y-80155000D01*
X120163000Y-80150000D01*
X120166000Y-80146000D01*
X120169000Y-80141000D01*
X120172000Y-80137000D01*
X120176000Y-80133000D01*
X120179000Y-80129000D01*
X120183000Y-80126000D01*
X120187000Y-80122000D01*
X120191000Y-80119000D01*
X120196000Y-80116000D01*
X120200000Y-80113000D01*
X120205000Y-80111000D01*
X120209000Y-80109000D01*
X120214000Y-80107000D01*
X120219000Y-80105000D01*
X120224000Y-80103000D01*
X120229000Y-80102000D01*
X120234000Y-80101000D01*
X120240000Y-80101000D01*
X120245000Y-80100000D01*
X120250000Y-80100000D01*
X120400000Y-80100000D01*
X120405000Y-80100000D01*
X120410000Y-80101000D01*
G37*
X120760000Y-81851000D02*
X120766000Y-81851000D01*
X120771000Y-81852000D01*
X120776000Y-81853000D01*
X120781000Y-81855000D01*
X120786000Y-81857000D01*
X120791000Y-81859000D01*
X120795000Y-81861000D01*
X120800000Y-81863000D01*
X120804000Y-81866000D01*
X120809000Y-81869000D01*
X120813000Y-81872000D01*
X120817000Y-81876000D01*
X120821000Y-81879000D01*
X120824000Y-81883000D01*
X120828000Y-81887000D01*
X120831000Y-81891000D01*
X120834000Y-81896000D01*
X120837000Y-81900000D01*
X120839000Y-81905000D01*
X120841000Y-81909000D01*
X120843000Y-81914000D01*
X120845000Y-81919000D01*
X120847000Y-81924000D01*
X120848000Y-81929000D01*
X120849000Y-81934000D01*
X120849000Y-81940000D01*
X120850000Y-81945000D01*
X120850000Y-81950000D01*
X120850000Y-82150000D01*
X120850000Y-82155000D01*
X120849000Y-82160000D01*
X120849000Y-82166000D01*
X120848000Y-82171000D01*
X120847000Y-82176000D01*
X120845000Y-82181000D01*
X120843000Y-82186000D01*
X120841000Y-82191000D01*
X120839000Y-82195000D01*
X120837000Y-82200000D01*
X120834000Y-82204000D01*
X120831000Y-82209000D01*
X120828000Y-82213000D01*
X120824000Y-82217000D01*
X120821000Y-82221000D01*
X120817000Y-82224000D01*
X120813000Y-82228000D01*
X120809000Y-82231000D01*
X120804000Y-82234000D01*
X120800000Y-82237000D01*
X120795000Y-82239000D01*
X120791000Y-82241000D01*
X120786000Y-82243000D01*
X120781000Y-82245000D01*
X120776000Y-82247000D01*
X120771000Y-82248000D01*
X120766000Y-82249000D01*
X120760000Y-82249000D01*
X120755000Y-82250000D01*
X120750000Y-82250000D01*
X120550000Y-82250000D01*
X120547000Y-82250000D01*
X120545000Y-82250000D01*
X120542000Y-82251000D01*
X120540000Y-82251000D01*
X120537000Y-82252000D01*
X120535000Y-82252000D01*
X120532000Y-82253000D01*
X120530000Y-82254000D01*
X120527000Y-82255000D01*
X120525000Y-82257000D01*
X120523000Y-82258000D01*
X120521000Y-82260000D01*
X120519000Y-82261000D01*
X120517000Y-82263000D01*
X120515000Y-82265000D01*
X120513000Y-82267000D01*
X120511000Y-82269000D01*
X120510000Y-82271000D01*
X120508000Y-82273000D01*
X120507000Y-82275000D01*
X120505000Y-82277000D01*
X120504000Y-82280000D01*
X120503000Y-82282000D01*
X120502000Y-82285000D01*
X120502000Y-82287000D01*
X120501000Y-82290000D01*
X120501000Y-82292000D01*
X120500000Y-82295000D01*
X120500000Y-82297000D01*
X120500000Y-82300000D01*
X120500000Y-82500000D01*
X120500000Y-82505000D01*
X120499000Y-82510000D01*
X120499000Y-82516000D01*
X120498000Y-82521000D01*
X120497000Y-82526000D01*
X120495000Y-82531000D01*
X120493000Y-82536000D01*
X120491000Y-82541000D01*
X120489000Y-82545000D01*
X120487000Y-82550000D01*
X120484000Y-82554000D01*
X120481000Y-82559000D01*
X120478000Y-82563000D01*
X120474000Y-82567000D01*
X120471000Y-82571000D01*
X120467000Y-82574000D01*
X120463000Y-82578000D01*
X120459000Y-82581000D01*
X120454000Y-82584000D01*
X120450000Y-82587000D01*
X120445000Y-82589000D01*
X120441000Y-82591000D01*
X120436000Y-82593000D01*
X120431000Y-82595000D01*
X120426000Y-82597000D01*
X120421000Y-82598000D01*
X120416000Y-82599000D01*
X120410000Y-82599000D01*
X120405000Y-82600000D01*
X120400000Y-82600000D01*
X120250000Y-82600000D01*
X120245000Y-82600000D01*
X120240000Y-82599000D01*
X120234000Y-82599000D01*
X120229000Y-82598000D01*
X120224000Y-82597000D01*
X120219000Y-82595000D01*
X120214000Y-82593000D01*
X120209000Y-82591000D01*
X120205000Y-82589000D01*
X120200000Y-82587000D01*
X120196000Y-82584000D01*
X120191000Y-82581000D01*
X120187000Y-82578000D01*
X120183000Y-82574000D01*
X120179000Y-82571000D01*
X120176000Y-82567000D01*
X120172000Y-82563000D01*
X120169000Y-82559000D01*
X120166000Y-82554000D01*
X120163000Y-82550000D01*
X120161000Y-82545000D01*
X120159000Y-82541000D01*
X120157000Y-82536000D01*
X120155000Y-82531000D01*
X120153000Y-82526000D01*
X120152000Y-82521000D01*
X120151000Y-82516000D01*
X120151000Y-82510000D01*
X120150000Y-82505000D01*
X120150000Y-82500000D01*
X120150000Y-81950000D01*
X120150000Y-81945000D01*
X120151000Y-81940000D01*
X120151000Y-81934000D01*
X120152000Y-81929000D01*
X120153000Y-81924000D01*
X120155000Y-81919000D01*
X120157000Y-81914000D01*
X120159000Y-81909000D01*
X120161000Y-81905000D01*
X120163000Y-81900000D01*
X120166000Y-81896000D01*
X120169000Y-81891000D01*
X120172000Y-81887000D01*
X120176000Y-81883000D01*
X120179000Y-81879000D01*
X120183000Y-81876000D01*
X120187000Y-81872000D01*
X120191000Y-81869000D01*
X120196000Y-81866000D01*
X120200000Y-81863000D01*
X120205000Y-81861000D01*
X120209000Y-81859000D01*
X120214000Y-81857000D01*
X120219000Y-81855000D01*
X120224000Y-81853000D01*
X120229000Y-81852000D01*
X120234000Y-81851000D01*
X120240000Y-81851000D01*
X120245000Y-81850000D01*
X120250000Y-81850000D01*
X120750000Y-81850000D01*
X120755000Y-81850000D01*
X120760000Y-81851000D01*
G36*
X120760000Y-81851000D02*
G01*
X120766000Y-81851000D01*
X120771000Y-81852000D01*
X120776000Y-81853000D01*
X120781000Y-81855000D01*
X120786000Y-81857000D01*
X120791000Y-81859000D01*
X120795000Y-81861000D01*
X120800000Y-81863000D01*
X120804000Y-81866000D01*
X120809000Y-81869000D01*
X120813000Y-81872000D01*
X120817000Y-81876000D01*
X120821000Y-81879000D01*
X120824000Y-81883000D01*
X120828000Y-81887000D01*
X120831000Y-81891000D01*
X120834000Y-81896000D01*
X120837000Y-81900000D01*
X120839000Y-81905000D01*
X120841000Y-81909000D01*
X120843000Y-81914000D01*
X120845000Y-81919000D01*
X120847000Y-81924000D01*
X120848000Y-81929000D01*
X120849000Y-81934000D01*
X120849000Y-81940000D01*
X120850000Y-81945000D01*
X120850000Y-81950000D01*
X120850000Y-82150000D01*
X120850000Y-82155000D01*
X120849000Y-82160000D01*
X120849000Y-82166000D01*
X120848000Y-82171000D01*
X120847000Y-82176000D01*
X120845000Y-82181000D01*
X120843000Y-82186000D01*
X120841000Y-82191000D01*
X120839000Y-82195000D01*
X120837000Y-82200000D01*
X120834000Y-82204000D01*
X120831000Y-82209000D01*
X120828000Y-82213000D01*
X120824000Y-82217000D01*
X120821000Y-82221000D01*
X120817000Y-82224000D01*
X120813000Y-82228000D01*
X120809000Y-82231000D01*
X120804000Y-82234000D01*
X120800000Y-82237000D01*
X120795000Y-82239000D01*
X120791000Y-82241000D01*
X120786000Y-82243000D01*
X120781000Y-82245000D01*
X120776000Y-82247000D01*
X120771000Y-82248000D01*
X120766000Y-82249000D01*
X120760000Y-82249000D01*
X120755000Y-82250000D01*
X120750000Y-82250000D01*
X120550000Y-82250000D01*
X120547000Y-82250000D01*
X120545000Y-82250000D01*
X120542000Y-82251000D01*
X120540000Y-82251000D01*
X120537000Y-82252000D01*
X120535000Y-82252000D01*
X120532000Y-82253000D01*
X120530000Y-82254000D01*
X120527000Y-82255000D01*
X120525000Y-82257000D01*
X120523000Y-82258000D01*
X120521000Y-82260000D01*
X120519000Y-82261000D01*
X120517000Y-82263000D01*
X120515000Y-82265000D01*
X120513000Y-82267000D01*
X120511000Y-82269000D01*
X120510000Y-82271000D01*
X120508000Y-82273000D01*
X120507000Y-82275000D01*
X120505000Y-82277000D01*
X120504000Y-82280000D01*
X120503000Y-82282000D01*
X120502000Y-82285000D01*
X120502000Y-82287000D01*
X120501000Y-82290000D01*
X120501000Y-82292000D01*
X120500000Y-82295000D01*
X120500000Y-82297000D01*
X120500000Y-82300000D01*
X120500000Y-82500000D01*
X120500000Y-82505000D01*
X120499000Y-82510000D01*
X120499000Y-82516000D01*
X120498000Y-82521000D01*
X120497000Y-82526000D01*
X120495000Y-82531000D01*
X120493000Y-82536000D01*
X120491000Y-82541000D01*
X120489000Y-82545000D01*
X120487000Y-82550000D01*
X120484000Y-82554000D01*
X120481000Y-82559000D01*
X120478000Y-82563000D01*
X120474000Y-82567000D01*
X120471000Y-82571000D01*
X120467000Y-82574000D01*
X120463000Y-82578000D01*
X120459000Y-82581000D01*
X120454000Y-82584000D01*
X120450000Y-82587000D01*
X120445000Y-82589000D01*
X120441000Y-82591000D01*
X120436000Y-82593000D01*
X120431000Y-82595000D01*
X120426000Y-82597000D01*
X120421000Y-82598000D01*
X120416000Y-82599000D01*
X120410000Y-82599000D01*
X120405000Y-82600000D01*
X120400000Y-82600000D01*
X120250000Y-82600000D01*
X120245000Y-82600000D01*
X120240000Y-82599000D01*
X120234000Y-82599000D01*
X120229000Y-82598000D01*
X120224000Y-82597000D01*
X120219000Y-82595000D01*
X120214000Y-82593000D01*
X120209000Y-82591000D01*
X120205000Y-82589000D01*
X120200000Y-82587000D01*
X120196000Y-82584000D01*
X120191000Y-82581000D01*
X120187000Y-82578000D01*
X120183000Y-82574000D01*
X120179000Y-82571000D01*
X120176000Y-82567000D01*
X120172000Y-82563000D01*
X120169000Y-82559000D01*
X120166000Y-82554000D01*
X120163000Y-82550000D01*
X120161000Y-82545000D01*
X120159000Y-82541000D01*
X120157000Y-82536000D01*
X120155000Y-82531000D01*
X120153000Y-82526000D01*
X120152000Y-82521000D01*
X120151000Y-82516000D01*
X120151000Y-82510000D01*
X120150000Y-82505000D01*
X120150000Y-82500000D01*
X120150000Y-81950000D01*
X120150000Y-81945000D01*
X120151000Y-81940000D01*
X120151000Y-81934000D01*
X120152000Y-81929000D01*
X120153000Y-81924000D01*
X120155000Y-81919000D01*
X120157000Y-81914000D01*
X120159000Y-81909000D01*
X120161000Y-81905000D01*
X120163000Y-81900000D01*
X120166000Y-81896000D01*
X120169000Y-81891000D01*
X120172000Y-81887000D01*
X120176000Y-81883000D01*
X120179000Y-81879000D01*
X120183000Y-81876000D01*
X120187000Y-81872000D01*
X120191000Y-81869000D01*
X120196000Y-81866000D01*
X120200000Y-81863000D01*
X120205000Y-81861000D01*
X120209000Y-81859000D01*
X120214000Y-81857000D01*
X120219000Y-81855000D01*
X120224000Y-81853000D01*
X120229000Y-81852000D01*
X120234000Y-81851000D01*
X120240000Y-81851000D01*
X120245000Y-81850000D01*
X120250000Y-81850000D01*
X120750000Y-81850000D01*
X120755000Y-81850000D01*
X120760000Y-81851000D01*
G37*
D11*
X154650000Y-77090000D03*
D12*
X154650000Y-74550000D03*
X157190000Y-77090000D03*
X157190000Y-74550000D03*
X159730000Y-77090000D03*
X159730000Y-74550000D03*
X162270000Y-77090000D03*
X162270000Y-74550000D03*
X164810000Y-77090000D03*
X164810000Y-74550000D03*
X167350000Y-77090000D03*
X167350000Y-74550000D03*
D13*
X137312501Y-78200000D03*
X136362500Y-78200000D03*
X135412499Y-78200000D03*
X135412499Y-75600000D03*
X137312501Y-75600000D03*
D14*
X104000000Y-74000000D03*
D15*
X106250000Y-81430000D03*
X106250000Y-87210000D03*
D16*
X106780000Y-80000000D03*
D17*
X102600000Y-80000000D03*
D16*
X106780000Y-88640000D03*
D17*
X102600000Y-88640000D03*
D18*
X141800000Y-75550000D03*
X140250000Y-75550000D03*
D11*
X226350000Y-37925000D03*
D12*
X228890000Y-37925000D03*
X226350000Y-40465000D03*
X228890000Y-40465000D03*
X226350000Y-43005000D03*
X228890000Y-43005000D03*
X226350000Y-45545000D03*
X228890000Y-45545000D03*
X226350000Y-48085000D03*
X228890000Y-48085000D03*
D11*
X132000000Y-126100000D03*
D12*
X132000000Y-128640000D03*
X129460000Y-126100000D03*
X129460000Y-128640000D03*
X126920000Y-126100000D03*
X126920000Y-128640000D03*
D19*
X130400000Y-78450000D03*
D20*
X127900000Y-78450000D03*
X125400000Y-78450000D03*
D11*
X174640000Y-77040000D03*
D12*
X174640000Y-74500000D03*
X177180000Y-77040000D03*
X177180000Y-74500000D03*
X179720000Y-77040000D03*
X179720000Y-74500000D03*
X182260000Y-77040000D03*
X182260000Y-74500000D03*
X184800000Y-77040000D03*
X184800000Y-74500000D03*
X187340000Y-77040000D03*
X187340000Y-74500000D03*
X189880000Y-77040000D03*
X189880000Y-74500000D03*
D14*
X196000000Y-74000000D03*
D19*
X118000000Y-78450000D03*
D20*
X115500000Y-78450000D03*
X113000000Y-78450000D03*
D11*
X157560000Y-136190000D03*
D12*
X157560000Y-133650000D03*
X160100000Y-136190000D03*
X160100000Y-133650000D03*
X162640000Y-136190000D03*
X162640000Y-133650000D03*
D14*
X196000000Y-116000000D03*
D15*
X106250000Y-102820000D03*
X106250000Y-108600000D03*
D16*
X106780000Y-101390000D03*
D17*
X102600000Y-101390000D03*
D16*
X106780000Y-110030000D03*
D17*
X102600000Y-110030000D03*
D11*
X118100000Y-112300000D03*
D12*
X118100000Y-114840000D03*
X115560000Y-112300000D03*
X115560000Y-114840000D03*
X113020000Y-112300000D03*
X113020000Y-114840000D03*
D21*
X135425000Y-73450000D03*
X137325000Y-73450000D03*
D14*
X104000000Y-116000000D03*
D22*
X132300000Y-72125000D03*
X132300000Y-73675000D03*
D21*
X135412498Y-80300000D03*
X137312498Y-80300000D03*
D23*
X128950000Y-98512500D03*
X128950000Y-96687500D03*
D24*
X144925000Y-84500000D03*
X147875000Y-84500000D03*
D25*
X126700000Y-100524000D03*
X126200000Y-100524000D03*
D26*
X125700000Y-100674000D03*
D25*
X125200000Y-100524000D03*
D27*
X124912000Y-101237000D03*
D28*
X125213000Y-101737000D03*
D27*
X124912000Y-102237000D03*
D25*
X125200000Y-102950000D03*
D26*
X125700000Y-102800000D03*
D25*
X126200000Y-102950000D03*
X126700000Y-102950000D03*
D27*
X126988000Y-102237000D03*
X126988000Y-101737000D03*
X126988000Y-101237000D03*
D22*
X142500000Y-100225000D03*
X142500000Y-101775000D03*
D29*
X119825000Y-91550000D03*
X118175000Y-91550000D03*
D30*
X128825000Y-94400000D03*
X131775000Y-94400000D03*
D31*
X123237500Y-93550000D03*
X125062500Y-93550000D03*
D24*
X155575000Y-92650000D03*
X158525000Y-92650000D03*
D32*
X181625000Y-85250000D03*
X183175000Y-85250000D03*
D18*
X152825000Y-91750000D03*
X151275000Y-91750000D03*
D33*
X149050000Y-96775000D03*
X149050000Y-95225000D03*
D34*
X118737500Y-88000000D03*
X120562500Y-88000000D03*
D33*
X152800000Y-97075000D03*
X152800000Y-95525000D03*
D35*
X120600000Y-85750000D03*
X118700000Y-85750000D03*
D34*
X130575000Y-100650000D03*
X128750000Y-100650000D03*
D33*
X155500000Y-98025000D03*
X155500000Y-96475000D03*
D36*
X120925000Y-78650000D03*
X122575000Y-78650000D03*
D32*
X155500000Y-99750000D03*
X157050000Y-99750000D03*
D33*
X148750000Y-88325000D03*
X148750000Y-86775000D03*
X131000000Y-96825000D03*
X131000000Y-98375000D03*
D32*
X155525000Y-101600000D03*
X157075000Y-101600000D03*
D22*
X130900000Y-106575000D03*
X130900000Y-105025000D03*
D32*
X181625000Y-87050000D03*
X183175000Y-87050000D03*
D35*
X175500000Y-95700000D03*
X173600000Y-95700000D03*
D33*
X179600000Y-86425000D03*
X179600000Y-84875000D03*
D37*
X118000000Y-76100000D03*
X118000000Y-73200000D03*
D32*
X115525000Y-82600000D03*
X117075000Y-82600000D03*
D38*
X125700000Y-107775000D03*
X125700000Y-105625000D03*
D36*
X116375000Y-98350000D03*
X118025000Y-98350000D03*
D39*
X120600000Y-74100000D03*
X120600000Y-76000000D03*
D24*
X157375000Y-97550000D03*
X160325000Y-97550000D03*
D40*
X128900000Y-104987500D03*
X128900000Y-106812500D03*
D33*
X151450000Y-88325000D03*
X151450000Y-86775000D03*
D18*
X149325000Y-100350000D03*
X147775000Y-100350000D03*
D41*
X124250000Y-78725000D03*
X124250000Y-77075000D03*
D30*
X128825000Y-111850000D03*
X131775000Y-111850000D03*
D18*
X143575000Y-95700000D03*
X142025000Y-95700000D03*
D33*
X116950000Y-94875000D03*
X116950000Y-93325000D03*
D34*
X155550000Y-104400000D03*
X157375000Y-104400000D03*
D29*
X118025000Y-96600000D03*
X116375000Y-96600000D03*
D21*
X146850000Y-93050000D03*
X148750000Y-93050000D03*
D29*
X117125000Y-80650000D03*
X115475000Y-80650000D03*
D42*
X147100000Y-97050000D03*
X147100000Y-95150000D03*
D22*
X140800000Y-100225000D03*
X140800000Y-101775000D03*
D39*
X138800000Y-100125000D03*
X138800000Y-102025000D03*
D36*
X118825000Y-83800000D03*
X120475000Y-83800000D03*
D32*
X155275000Y-89900000D03*
X156825000Y-89900000D03*
D36*
X122675000Y-80350000D03*
X124325000Y-80350000D03*
D29*
X116575000Y-91550000D03*
X114925000Y-91550000D03*
D35*
X143650000Y-97650000D03*
X141750000Y-97650000D03*
D22*
X151900000Y-101175000D03*
X151900000Y-102725000D03*
D23*
X125750000Y-111612500D03*
X125750000Y-109787500D03*
D33*
X151050000Y-97075000D03*
X151050000Y-95525000D03*
D32*
X144800000Y-86650000D03*
X146350000Y-86650000D03*
D30*
X128825000Y-109100000D03*
X131775000Y-109100000D03*
X128825000Y-91700000D03*
X131775000Y-91700000D03*
D34*
X155487500Y-106600000D03*
X157312500Y-106600000D03*
X130562500Y-102900000D03*
X128737500Y-102900000D03*
D43*
X122800000Y-100300000D03*
X122800000Y-97350000D03*
D44*
X125700000Y-95675000D03*
X125700000Y-97825000D03*
D32*
X155475000Y-94800000D03*
X157025000Y-94800000D03*
D18*
X152825000Y-93800000D03*
X151275000Y-93800000D03*
D36*
X122125000Y-83800000D03*
X123775000Y-83800000D03*
X139575000Y-88900000D03*
X141225000Y-88900000D03*
D18*
X143575000Y-93950000D03*
X142025000Y-93950000D03*
D45*
X153550000Y-88175000D03*
X153550000Y-85225000D03*
D18*
X141175000Y-90650000D03*
X139625000Y-90650000D03*
D45*
X122800000Y-103200000D03*
X122800000Y-106150000D03*
D24*
X181725000Y-83050000D03*
X184675000Y-83050000D03*
D32*
X146825000Y-91100000D03*
X148375000Y-91100000D03*
M02*
