M48
; DRILL file {KiCad 8.0.6} date 2026-05-22T12:08:21-0700
; FORMAT={-:-/ absolute / metric / decimal}
; #@! TF.CreationDate,2026-05-22T12:08:21-07:00
; #@! TF.GenerationSoftware,Kicad,Pcbnew,8.0.6
; #@! TF.FileFunction,Plated,1,4,PTH
FMAT,2
METRIC
; #@! TA.AperFunction,Plated,PTH,ComponentDrill
T1C0.200
; #@! TA.AperFunction,Plated,PTH,ViaDrill
T2C0.300
; #@! TA.AperFunction,Plated,PTH,ViaDrill
T3C0.400
; #@! TA.AperFunction,Plated,PTH,ComponentDrill
T4C0.600
; #@! TA.AperFunction,Plated,PTH,ComponentDrill
T5C1.000
; #@! TA.AperFunction,Plated,PTH,ComponentDrill
T6C1.100
; #@! TA.AperFunction,Plated,PTH,ComponentDrill
T7C3.200
%
G90
G05
T1
X118.7Y-94.1
X119.8Y-94.1
T2
X101.0Y-78.2
X101.3Y-111.8
X103.0Y-78.2
X103.3Y-111.8
X105.0Y-78.2
X105.3Y-91.8
X105.3Y-93.5
X105.3Y-111.8
X105.4Y-96.0
X106.5Y-94.8
X107.0Y-78.2
X107.1Y-92.6
X107.3Y-111.8
X107.7Y-96.0
X108.9Y-94.8
X109.6Y-79.7
X109.6Y-88.6
X109.6Y-101.3
X109.6Y-102.5
X109.65Y-87.3
X109.7Y-81.25
X109.7Y-108.7
X109.7Y-110.0
X110.0Y-105.688
X110.137Y-84.3
X111.8Y-82.0
X113.5Y-82.0
X116.0Y-88.5
X117.1Y-87.95
X117.1Y-89.8
X122.9Y-82.6
X126.0Y-80.25
X127.25Y-80.25
X128.5Y-80.25
X129.75Y-80.25
X131.0Y-80.25
X132.25Y-80.25
X141.6Y-99.05
X142.025Y-92.2
X142.15Y-87.15
X142.25Y-82.5
X142.5Y-99.05
X143.4Y-87.8
X144.8Y-87.7
X144.9Y-88.6
X145.6Y-94.6
X145.6Y-95.5
X145.65Y-90.75
X145.65Y-91.65
X145.65Y-97.2
X145.7Y-89.9
X146.55Y-89.9
X147.25Y-89.85
X147.55Y-98.25
X148.6Y-98.25
X149.2Y-89.9
X149.35Y-98.25
X150.25Y-79.25
X150.35Y-98.25
X150.55Y-76.4
X150.6Y-89.9
X150.75Y-75.5
X151.0Y-80.0
X151.0Y-81.0
X151.05Y-98.3
X151.4Y-89.85
X151.5Y-76.0
X151.75Y-98.25
X151.9Y-99.95
X152.2Y-89.9
X152.5Y-98.3
X153.2Y-98.3
X153.85Y-98.25
X153.9Y-100.05
X154.0Y-93.4
X154.0Y-97.2
X154.05Y-90.75
X154.05Y-91.6
X154.05Y-92.5
X154.05Y-94.25
X154.05Y-96.35
X154.45Y-100.65
X156.05Y-86.95
X157.7Y-86.55
X158.4Y-101.75
X158.55Y-102.5
X159.1Y-86.6
X159.8Y-91.95
X159.8Y-101.3
X160.1Y-102.05
X160.35Y-99.65
X162.1Y-99.15
X162.2Y-96.25
X162.2Y-97.1
X162.225Y-98.375
X162.4Y-94.9
X162.85Y-101.55
X162.9Y-99.7
X163.05Y-105.401
X163.25Y-96.55
X163.25Y-98.2
X163.4Y-94.15
X163.6Y-97.2
X163.6Y-99.2
X163.6Y-101.4
X163.65Y-94.8
X163.7Y-96.0
X164.2Y-93.45
X164.25Y-105.45
X164.9Y-101.2
X170.0Y-85.85
X170.65Y-86.357
X171.25Y-84.2
X171.6Y-85.35
X172.2Y-102.228
X172.25Y-84.95
X172.45Y-86.4
X173.15Y-86.05
X173.75Y-85.5
X174.05Y-93.95
X174.2Y-93.2
X174.35Y-86.4
X174.75Y-105.55
X175.086Y-93.986
X176.1Y-85.75
X176.35Y-105.45
X176.6Y-95.65
X177.25Y-104.2
X177.3Y-96.1
X177.85Y-85.75
X178.1Y-90.7
X178.1Y-92.4
X178.1Y-94.1
X179.068Y-87.632
X179.15Y-103.65
X179.35Y-81.85
X179.7Y-94.1
X179.8Y-90.7
X181.5Y-90.7
X181.5Y-92.4
X181.5Y-94.1
X181.575Y-88.325
X182.45Y-88.25
X182.85Y-89.2
X184.25Y-111.8
X184.3Y-85.6
X184.3Y-86.75
X184.3Y-93.25
X184.3Y-110.0
X184.5Y-84.65
X184.75Y-101.75
X185.2Y-112.4
X185.35Y-89.75
X185.5Y-84.4
X185.55Y-83.2
X185.65Y-96.05
X185.95Y-103.0
X186.0Y-103.95
X186.2Y-89.2
X186.85Y-84.8
X186.85Y-85.9
X186.9Y-93.9
X186.9Y-95.0
X186.9Y-96.05
X187.85Y-90.9
X187.9Y-88.55
X188.0Y-84.8
X188.0Y-85.9
X188.15Y-93.9
X188.15Y-95.0
X188.15Y-96.05
X188.75Y-88.6
X189.35Y-84.8
X189.35Y-85.9
X189.4Y-93.9
X189.4Y-95.0
X189.4Y-96.05
X189.6Y-88.6
X189.6Y-90.95
X189.8Y-89.8
X190.6Y-84.8
X190.6Y-85.9
X190.65Y-93.9
X190.65Y-95.0
X191.35Y-89.8
X191.35Y-91.55
X191.7Y-88.05
X191.95Y-93.45
X191.95Y-94.35
X191.95Y-95.6
X192.0Y-83.95
X192.0Y-85.2
X192.0Y-86.45
X193.0Y-89.8
X193.05Y-93.1
X193.05Y-94.35
X193.05Y-95.6
X193.1Y-83.95
X193.1Y-85.2
X193.1Y-86.45
X193.1Y-87.7
X193.25Y-103.95
X193.4Y-92.1
X193.7Y-90.95
X193.75Y-88.6
X194.25Y-83.95
X194.25Y-85.2
X194.25Y-86.45
X194.25Y-87.7
X194.3Y-91.8
X194.3Y-93.05
X194.3Y-94.3
X194.3Y-95.55
X195.45Y-84.3
X195.45Y-85.55
X195.6Y-88.2
X195.6Y-91.4
X195.6Y-94.05
X195.6Y-95.3
X196.55Y-84.3
X196.55Y-85.55
X196.7Y-88.2
X196.7Y-91.4
X196.7Y-94.05
X196.7Y-95.3
X197.55Y-103.5
X197.7Y-84.3
X197.7Y-85.55
X197.85Y-88.2
X197.85Y-91.4
X197.85Y-94.05
X197.85Y-95.3
X198.85Y-84.3
X198.85Y-85.55
X199.0Y-88.2
X199.0Y-91.4
X199.0Y-94.05
X199.0Y-95.3
T3
X134.0Y-70.7
X136.0Y-70.7
X138.0Y-70.7
X139.125Y-73.45
X140.0Y-70.7
X142.0Y-70.7
X144.0Y-70.7
X146.0Y-70.7
X148.0Y-70.7
X150.0Y-70.7
T5
X113.02Y-112.3
X113.02Y-114.84
X115.56Y-112.3
X115.56Y-114.84
X118.1Y-112.3
X118.1Y-114.84
X126.92Y-126.1
X126.92Y-128.64
X129.46Y-126.1
X129.46Y-128.64
X132.0Y-126.1
X132.0Y-128.64
X154.65Y-74.55
X154.65Y-77.09
X157.19Y-74.55
X157.19Y-77.09
X157.56Y-133.65
X157.56Y-136.19
X159.73Y-74.55
X159.73Y-77.09
X160.1Y-133.65
X160.1Y-136.19
X162.27Y-74.55
X162.27Y-77.09
X162.64Y-133.65
X162.64Y-136.19
X164.81Y-74.55
X164.81Y-77.09
X167.35Y-74.55
X167.35Y-77.09
X174.64Y-74.5
X174.64Y-77.04
X177.18Y-74.5
X177.18Y-77.04
X179.72Y-74.5
X179.72Y-77.04
X182.26Y-74.5
X182.26Y-77.04
X184.8Y-74.5
X184.8Y-77.04
X187.34Y-74.5
X187.34Y-77.04
X189.88Y-74.5
X189.88Y-77.04
X226.35Y-37.925
X226.35Y-40.465
X226.35Y-43.005
X226.35Y-45.545
X226.35Y-48.085
X228.89Y-37.925
X228.89Y-40.465
X228.89Y-43.005
X228.89Y-45.545
X228.89Y-48.085
T6
X113.0Y-78.45
X115.5Y-78.45
X118.0Y-78.45
X125.4Y-78.45
X127.9Y-78.45
X130.4Y-78.45
T7
X104.0Y-74.0
X104.0Y-116.0
X196.0Y-74.0
X196.0Y-116.0
T4
X102.9Y-80.0G85X102.3Y-80.0
G05
X102.9Y-88.64G85X102.3Y-88.64
G05
X102.9Y-101.39G85X102.3Y-101.39
G05
X102.9Y-110.03G85X102.3Y-110.03
G05
X107.33Y-80.0G85X106.23Y-80.0
G05
X107.33Y-88.64G85X106.23Y-88.64
G05
X107.33Y-101.39G85X106.23Y-101.39
G05
X107.33Y-110.03G85X106.23Y-110.03
G05
M30
