%TF.GenerationSoftware,KiCad,Pcbnew,10.0.3*%
%TF.CreationDate,2026-06-05T10:33:33-07:00*%
%TF.ProjectId,ESP32P4C5_Board,45535033-3250-4344-9335-5f426f617264,rev?*%
%TF.SameCoordinates,Original*%
%TF.FileFunction,Paste,Bot*%
%TF.FilePolarity,Positive*%
%FSLAX46Y46*%
G04 Gerber Fmt 4.6, Leading zero omitted, Abs format (unit mm)*
G04 Created by KiCad (PCBNEW 10.0.3) date 2026-06-05 10:33:33*
%MOMM*%
%LPD*%
G01*
G04 APERTURE LIST*
G04 Aperture macros list*
%AMRoundRect*
0 Rectangle with rounded corners*
0 $1 Rounding radius*
0 $2 $3 $4 $5 $6 $7 $8 $9 X,Y pos of 4 corners*
0 Add a 4 corners polygon primitive as box body*
4,1,4,$2,$3,$4,$5,$6,$7,$8,$9,$2,$3,0*
0 Add four circle primitives for the rounded corners*
1,1,$1+$1,$2,$3*
1,1,$1+$1,$4,$5*
1,1,$1+$1,$6,$7*
1,1,$1+$1,$8,$9*
0 Add four rect primitives between the rounded corners*
20,1,$1+$1,$2,$3,$4,$5,0*
20,1,$1+$1,$4,$5,$6,$7,0*
20,1,$1+$1,$6,$7,$8,$9,0*
20,1,$1+$1,$8,$9,$2,$3,0*%
G04 Aperture macros list end*
%ADD10C,0.010000*%
%ADD11RoundRect,0.250000X-0.450000X0.262500X-0.450000X-0.262500X0.450000X-0.262500X0.450000X0.262500X0*%
%ADD12RoundRect,0.250000X-0.325000X-0.650000X0.325000X-0.650000X0.325000X0.650000X-0.325000X0.650000X0*%
%ADD13R,1.100000X0.599999*%
%ADD14R,0.625000X0.250000*%
%ADD15R,0.250000X0.675000*%
%ADD16R,0.250000X0.975000*%
%ADD17R,1.225000X0.250000*%
%ADD18RoundRect,0.225000X0.225000X0.250000X-0.225000X0.250000X-0.225000X-0.250000X0.225000X-0.250000X0*%
%ADD19RoundRect,0.200000X0.200000X0.275000X-0.200000X0.275000X-0.200000X-0.275000X0.200000X-0.275000X0*%
%ADD20RoundRect,0.031250X-0.093750X0.218750X-0.093750X-0.218750X0.093750X-0.218750X0.093750X0.218750X0*%
%ADD21RoundRect,0.250000X0.325000X0.650000X-0.325000X0.650000X-0.325000X-0.650000X0.325000X-0.650000X0*%
%ADD22RoundRect,0.250000X0.262500X0.450000X-0.262500X0.450000X-0.262500X-0.450000X0.262500X-0.450000X0*%
%ADD23RoundRect,0.250000X0.650000X-0.325000X0.650000X0.325000X-0.650000X0.325000X-0.650000X-0.325000X0*%
%ADD24RoundRect,0.200000X-0.275000X0.200000X-0.275000X-0.200000X0.275000X-0.200000X0.275000X0.200000X0*%
%ADD25RoundRect,0.225000X-0.225000X-0.250000X0.225000X-0.250000X0.225000X0.250000X-0.225000X0.250000X0*%
%ADD26RoundRect,0.225000X-0.250000X0.225000X-0.250000X-0.225000X0.250000X-0.225000X0.250000X0.225000X0*%
%ADD27RoundRect,0.225000X0.250000X-0.225000X0.250000X0.225000X-0.250000X0.225000X-0.250000X-0.225000X0*%
%ADD28RoundRect,0.200000X-0.200000X-0.275000X0.200000X-0.275000X0.200000X0.275000X-0.200000X0.275000X0*%
%ADD29RoundRect,0.250000X-0.262500X-0.450000X0.262500X-0.450000X0.262500X0.450000X-0.262500X0.450000X0*%
%ADD30RoundRect,0.150000X-0.512500X-0.150000X0.512500X-0.150000X0.512500X0.150000X-0.512500X0.150000X0*%
%ADD31RoundRect,0.250000X0.250000X0.475000X-0.250000X0.475000X-0.250000X-0.475000X0.250000X-0.475000X0*%
%ADD32RoundRect,0.250000X0.450000X-0.262500X0.450000X0.262500X-0.450000X0.262500X-0.450000X-0.262500X0*%
%ADD33RoundRect,0.041250X0.258750X0.083750X-0.258750X0.083750X-0.258750X-0.083750X0.258750X-0.083750X0*%
%ADD34RoundRect,0.250000X-0.475000X0.250000X-0.475000X-0.250000X0.475000X-0.250000X0.475000X0.250000X0*%
%ADD35RoundRect,0.250000X0.450000X-0.400000X0.450000X0.400000X-0.450000X0.400000X-0.450000X-0.400000X0*%
%ADD36RoundRect,0.250000X-0.850000X0.375000X-0.850000X-0.375000X0.850000X-0.375000X0.850000X0.375000X0*%
%ADD37RoundRect,0.200000X0.275000X-0.200000X0.275000X0.200000X-0.275000X0.200000X-0.275000X-0.200000X0*%
%ADD38RoundRect,0.150000X-0.150000X0.587500X-0.150000X-0.587500X0.150000X-0.587500X0.150000X0.587500X0*%
%ADD39RoundRect,0.250000X-0.250000X-0.475000X0.250000X-0.475000X0.250000X0.475000X-0.250000X0.475000X0*%
%ADD40RoundRect,0.250000X0.475000X-0.250000X0.475000X0.250000X-0.475000X0.250000X-0.475000X-0.250000X0*%
%ADD41RoundRect,0.250000X-0.650000X0.325000X-0.650000X-0.325000X0.650000X-0.325000X0.650000X0.325000X0*%
%ADD42RoundRect,0.250000X0.850000X-0.375000X0.850000X0.375000X-0.850000X0.375000X-0.850000X-0.375000X0*%
G04 APERTURE END LIST*
D10*
%TO.C,EF1*%
X119100000Y-93650000D02*
X118500000Y-93650000D01*
X118497000Y-93650000D01*
X118495000Y-93650000D01*
X118492000Y-93651000D01*
X118490000Y-93651000D01*
X118487000Y-93652000D01*
X118485000Y-93652000D01*
X118482000Y-93653000D01*
X118480000Y-93654000D01*
X118477000Y-93655000D01*
X118475000Y-93657000D01*
X118473000Y-93658000D01*
X118471000Y-93660000D01*
X118469000Y-93661000D01*
X118467000Y-93663000D01*
X118465000Y-93665000D01*
X118463000Y-93667000D01*
X118461000Y-93669000D01*
X118460000Y-93671000D01*
X118458000Y-93673000D01*
X118457000Y-93675000D01*
X118455000Y-93677000D01*
X118454000Y-93680000D01*
X118453000Y-93682000D01*
X118452000Y-93685000D01*
X118452000Y-93687000D01*
X118451000Y-93690000D01*
X118451000Y-93692000D01*
X118450000Y-93695000D01*
X118450000Y-93697000D01*
X118450000Y-93700000D01*
X118450000Y-94500000D01*
X118450000Y-94503000D01*
X118450000Y-94505000D01*
X118451000Y-94508000D01*
X118451000Y-94510000D01*
X118452000Y-94513000D01*
X118452000Y-94515000D01*
X118453000Y-94518000D01*
X118454000Y-94520000D01*
X118455000Y-94523000D01*
X118457000Y-94525000D01*
X118458000Y-94527000D01*
X118460000Y-94529000D01*
X118461000Y-94531000D01*
X118463000Y-94533000D01*
X118465000Y-94535000D01*
X118467000Y-94537000D01*
X118469000Y-94539000D01*
X118471000Y-94540000D01*
X118473000Y-94542000D01*
X118475000Y-94543000D01*
X118477000Y-94545000D01*
X118480000Y-94546000D01*
X118482000Y-94547000D01*
X118485000Y-94548000D01*
X118487000Y-94548000D01*
X118490000Y-94549000D01*
X118492000Y-94549000D01*
X118495000Y-94550000D01*
X118497000Y-94550000D01*
X118500000Y-94550000D01*
X119100000Y-94550000D01*
X119103000Y-94550000D01*
X119105000Y-94550000D01*
X119108000Y-94549000D01*
X119110000Y-94549000D01*
X119113000Y-94548000D01*
X119115000Y-94548000D01*
X119118000Y-94547000D01*
X119120000Y-94546000D01*
X119123000Y-94545000D01*
X119125000Y-94543000D01*
X119127000Y-94542000D01*
X119129000Y-94540000D01*
X119131000Y-94539000D01*
X119133000Y-94537000D01*
X119135000Y-94535000D01*
X119137000Y-94533000D01*
X119139000Y-94531000D01*
X119140000Y-94529000D01*
X119142000Y-94527000D01*
X119143000Y-94525000D01*
X119145000Y-94523000D01*
X119146000Y-94520000D01*
X119147000Y-94518000D01*
X119148000Y-94515000D01*
X119148000Y-94513000D01*
X119149000Y-94510000D01*
X119149000Y-94508000D01*
X119150000Y-94505000D01*
X119150000Y-94503000D01*
X119150000Y-94500000D01*
X119150000Y-93700000D01*
X119150000Y-93697000D01*
X119150000Y-93695000D01*
X119149000Y-93692000D01*
X119149000Y-93690000D01*
X119148000Y-93687000D01*
X119148000Y-93685000D01*
X119147000Y-93682000D01*
X119146000Y-93680000D01*
X119145000Y-93677000D01*
X119143000Y-93675000D01*
X119142000Y-93673000D01*
X119140000Y-93671000D01*
X119139000Y-93669000D01*
X119137000Y-93667000D01*
X119135000Y-93665000D01*
X119133000Y-93663000D01*
X119131000Y-93661000D01*
X119129000Y-93660000D01*
X119127000Y-93658000D01*
X119125000Y-93657000D01*
X119123000Y-93655000D01*
X119120000Y-93654000D01*
X119118000Y-93653000D01*
X119115000Y-93652000D01*
X119113000Y-93652000D01*
X119110000Y-93651000D01*
X119108000Y-93651000D01*
X119105000Y-93650000D01*
X119103000Y-93650000D01*
X119100000Y-93650000D01*
G36*
X119108000Y-93651000D02*
G01*
X119110000Y-93651000D01*
X119113000Y-93652000D01*
X119115000Y-93652000D01*
X119118000Y-93653000D01*
X119120000Y-93654000D01*
X119123000Y-93655000D01*
X119125000Y-93657000D01*
X119127000Y-93658000D01*
X119129000Y-93660000D01*
X119131000Y-93661000D01*
X119133000Y-93663000D01*
X119135000Y-93665000D01*
X119137000Y-93667000D01*
X119139000Y-93669000D01*
X119140000Y-93671000D01*
X119142000Y-93673000D01*
X119143000Y-93675000D01*
X119145000Y-93677000D01*
X119146000Y-93680000D01*
X119147000Y-93682000D01*
X119148000Y-93685000D01*
X119148000Y-93687000D01*
X119149000Y-93690000D01*
X119149000Y-93692000D01*
X119150000Y-93695000D01*
X119150000Y-93697000D01*
X119150000Y-93700000D01*
X119150000Y-94500000D01*
X119150000Y-94503000D01*
X119150000Y-94505000D01*
X119149000Y-94508000D01*
X119149000Y-94510000D01*
X119148000Y-94513000D01*
X119148000Y-94515000D01*
X119147000Y-94518000D01*
X119146000Y-94520000D01*
X119145000Y-94523000D01*
X119143000Y-94525000D01*
X119142000Y-94527000D01*
X119140000Y-94529000D01*
X119139000Y-94531000D01*
X119137000Y-94533000D01*
X119135000Y-94535000D01*
X119133000Y-94537000D01*
X119131000Y-94539000D01*
X119129000Y-94540000D01*
X119127000Y-94542000D01*
X119125000Y-94543000D01*
X119123000Y-94545000D01*
X119120000Y-94546000D01*
X119118000Y-94547000D01*
X119115000Y-94548000D01*
X119113000Y-94548000D01*
X119110000Y-94549000D01*
X119108000Y-94549000D01*
X119105000Y-94550000D01*
X119103000Y-94550000D01*
X119100000Y-94550000D01*
X118500000Y-94550000D01*
X118497000Y-94550000D01*
X118495000Y-94550000D01*
X118492000Y-94549000D01*
X118490000Y-94549000D01*
X118487000Y-94548000D01*
X118485000Y-94548000D01*
X118482000Y-94547000D01*
X118480000Y-94546000D01*
X118477000Y-94545000D01*
X118475000Y-94543000D01*
X118473000Y-94542000D01*
X118471000Y-94540000D01*
X118469000Y-94539000D01*
X118467000Y-94537000D01*
X118465000Y-94535000D01*
X118463000Y-94533000D01*
X118461000Y-94531000D01*
X118460000Y-94529000D01*
X118458000Y-94527000D01*
X118457000Y-94525000D01*
X118455000Y-94523000D01*
X118454000Y-94520000D01*
X118453000Y-94518000D01*
X118452000Y-94515000D01*
X118452000Y-94513000D01*
X118451000Y-94510000D01*
X118451000Y-94508000D01*
X118450000Y-94505000D01*
X118450000Y-94503000D01*
X118450000Y-94500000D01*
X118450000Y-93700000D01*
X118450000Y-93697000D01*
X118450000Y-93695000D01*
X118451000Y-93692000D01*
X118451000Y-93690000D01*
X118452000Y-93687000D01*
X118452000Y-93685000D01*
X118453000Y-93682000D01*
X118454000Y-93680000D01*
X118455000Y-93677000D01*
X118457000Y-93675000D01*
X118458000Y-93673000D01*
X118460000Y-93671000D01*
X118461000Y-93669000D01*
X118463000Y-93667000D01*
X118465000Y-93665000D01*
X118467000Y-93663000D01*
X118469000Y-93661000D01*
X118471000Y-93660000D01*
X118473000Y-93658000D01*
X118475000Y-93657000D01*
X118477000Y-93655000D01*
X118480000Y-93654000D01*
X118482000Y-93653000D01*
X118485000Y-93652000D01*
X118487000Y-93652000D01*
X118490000Y-93651000D01*
X118492000Y-93651000D01*
X118495000Y-93650000D01*
X118497000Y-93650000D01*
X118500000Y-93650000D01*
X119100000Y-93650000D01*
X119103000Y-93650000D01*
X119105000Y-93650000D01*
X119108000Y-93651000D01*
G37*
X120000000Y-93650000D02*
X119400000Y-93650000D01*
X119397000Y-93650000D01*
X119395000Y-93650000D01*
X119392000Y-93651000D01*
X119390000Y-93651000D01*
X119387000Y-93652000D01*
X119385000Y-93652000D01*
X119382000Y-93653000D01*
X119380000Y-93654000D01*
X119377000Y-93655000D01*
X119375000Y-93657000D01*
X119373000Y-93658000D01*
X119371000Y-93660000D01*
X119369000Y-93661000D01*
X119367000Y-93663000D01*
X119365000Y-93665000D01*
X119363000Y-93667000D01*
X119361000Y-93669000D01*
X119360000Y-93671000D01*
X119358000Y-93673000D01*
X119357000Y-93675000D01*
X119355000Y-93677000D01*
X119354000Y-93680000D01*
X119353000Y-93682000D01*
X119352000Y-93685000D01*
X119352000Y-93687000D01*
X119351000Y-93690000D01*
X119351000Y-93692000D01*
X119350000Y-93695000D01*
X119350000Y-93697000D01*
X119350000Y-93700000D01*
X119350000Y-94500000D01*
X119350000Y-94503000D01*
X119350000Y-94505000D01*
X119351000Y-94508000D01*
X119351000Y-94510000D01*
X119352000Y-94513000D01*
X119352000Y-94515000D01*
X119353000Y-94518000D01*
X119354000Y-94520000D01*
X119355000Y-94523000D01*
X119357000Y-94525000D01*
X119358000Y-94527000D01*
X119360000Y-94529000D01*
X119361000Y-94531000D01*
X119363000Y-94533000D01*
X119365000Y-94535000D01*
X119367000Y-94537000D01*
X119369000Y-94539000D01*
X119371000Y-94540000D01*
X119373000Y-94542000D01*
X119375000Y-94543000D01*
X119377000Y-94545000D01*
X119380000Y-94546000D01*
X119382000Y-94547000D01*
X119385000Y-94548000D01*
X119387000Y-94548000D01*
X119390000Y-94549000D01*
X119392000Y-94549000D01*
X119395000Y-94550000D01*
X119397000Y-94550000D01*
X119400000Y-94550000D01*
X120000000Y-94550000D01*
X120003000Y-94550000D01*
X120005000Y-94550000D01*
X120008000Y-94549000D01*
X120010000Y-94549000D01*
X120013000Y-94548000D01*
X120015000Y-94548000D01*
X120018000Y-94547000D01*
X120020000Y-94546000D01*
X120023000Y-94545000D01*
X120025000Y-94543000D01*
X120027000Y-94542000D01*
X120029000Y-94540000D01*
X120031000Y-94539000D01*
X120033000Y-94537000D01*
X120035000Y-94535000D01*
X120037000Y-94533000D01*
X120039000Y-94531000D01*
X120040000Y-94529000D01*
X120042000Y-94527000D01*
X120043000Y-94525000D01*
X120045000Y-94523000D01*
X120046000Y-94520000D01*
X120047000Y-94518000D01*
X120048000Y-94515000D01*
X120048000Y-94513000D01*
X120049000Y-94510000D01*
X120049000Y-94508000D01*
X120050000Y-94505000D01*
X120050000Y-94503000D01*
X120050000Y-94500000D01*
X120050000Y-93700000D01*
X120050000Y-93697000D01*
X120050000Y-93695000D01*
X120049000Y-93692000D01*
X120049000Y-93690000D01*
X120048000Y-93687000D01*
X120048000Y-93685000D01*
X120047000Y-93682000D01*
X120046000Y-93680000D01*
X120045000Y-93677000D01*
X120043000Y-93675000D01*
X120042000Y-93673000D01*
X120040000Y-93671000D01*
X120039000Y-93669000D01*
X120037000Y-93667000D01*
X120035000Y-93665000D01*
X120033000Y-93663000D01*
X120031000Y-93661000D01*
X120029000Y-93660000D01*
X120027000Y-93658000D01*
X120025000Y-93657000D01*
X120023000Y-93655000D01*
X120020000Y-93654000D01*
X120018000Y-93653000D01*
X120015000Y-93652000D01*
X120013000Y-93652000D01*
X120010000Y-93651000D01*
X120008000Y-93651000D01*
X120005000Y-93650000D01*
X120003000Y-93650000D01*
X120000000Y-93650000D01*
G36*
X120008000Y-93651000D02*
G01*
X120010000Y-93651000D01*
X120013000Y-93652000D01*
X120015000Y-93652000D01*
X120018000Y-93653000D01*
X120020000Y-93654000D01*
X120023000Y-93655000D01*
X120025000Y-93657000D01*
X120027000Y-93658000D01*
X120029000Y-93660000D01*
X120031000Y-93661000D01*
X120033000Y-93663000D01*
X120035000Y-93665000D01*
X120037000Y-93667000D01*
X120039000Y-93669000D01*
X120040000Y-93671000D01*
X120042000Y-93673000D01*
X120043000Y-93675000D01*
X120045000Y-93677000D01*
X120046000Y-93680000D01*
X120047000Y-93682000D01*
X120048000Y-93685000D01*
X120048000Y-93687000D01*
X120049000Y-93690000D01*
X120049000Y-93692000D01*
X120050000Y-93695000D01*
X120050000Y-93697000D01*
X120050000Y-93700000D01*
X120050000Y-94500000D01*
X120050000Y-94503000D01*
X120050000Y-94505000D01*
X120049000Y-94508000D01*
X120049000Y-94510000D01*
X120048000Y-94513000D01*
X120048000Y-94515000D01*
X120047000Y-94518000D01*
X120046000Y-94520000D01*
X120045000Y-94523000D01*
X120043000Y-94525000D01*
X120042000Y-94527000D01*
X120040000Y-94529000D01*
X120039000Y-94531000D01*
X120037000Y-94533000D01*
X120035000Y-94535000D01*
X120033000Y-94537000D01*
X120031000Y-94539000D01*
X120029000Y-94540000D01*
X120027000Y-94542000D01*
X120025000Y-94543000D01*
X120023000Y-94545000D01*
X120020000Y-94546000D01*
X120018000Y-94547000D01*
X120015000Y-94548000D01*
X120013000Y-94548000D01*
X120010000Y-94549000D01*
X120008000Y-94549000D01*
X120005000Y-94550000D01*
X120003000Y-94550000D01*
X120000000Y-94550000D01*
X119400000Y-94550000D01*
X119397000Y-94550000D01*
X119395000Y-94550000D01*
X119392000Y-94549000D01*
X119390000Y-94549000D01*
X119387000Y-94548000D01*
X119385000Y-94548000D01*
X119382000Y-94547000D01*
X119380000Y-94546000D01*
X119377000Y-94545000D01*
X119375000Y-94543000D01*
X119373000Y-94542000D01*
X119371000Y-94540000D01*
X119369000Y-94539000D01*
X119367000Y-94537000D01*
X119365000Y-94535000D01*
X119363000Y-94533000D01*
X119361000Y-94531000D01*
X119360000Y-94529000D01*
X119358000Y-94527000D01*
X119357000Y-94525000D01*
X119355000Y-94523000D01*
X119354000Y-94520000D01*
X119353000Y-94518000D01*
X119352000Y-94515000D01*
X119352000Y-94513000D01*
X119351000Y-94510000D01*
X119351000Y-94508000D01*
X119350000Y-94505000D01*
X119350000Y-94503000D01*
X119350000Y-94500000D01*
X119350000Y-93700000D01*
X119350000Y-93697000D01*
X119350000Y-93695000D01*
X119351000Y-93692000D01*
X119351000Y-93690000D01*
X119352000Y-93687000D01*
X119352000Y-93685000D01*
X119353000Y-93682000D01*
X119354000Y-93680000D01*
X119355000Y-93677000D01*
X119357000Y-93675000D01*
X119358000Y-93673000D01*
X119360000Y-93671000D01*
X119361000Y-93669000D01*
X119363000Y-93667000D01*
X119365000Y-93665000D01*
X119367000Y-93663000D01*
X119369000Y-93661000D01*
X119371000Y-93660000D01*
X119373000Y-93658000D01*
X119375000Y-93657000D01*
X119377000Y-93655000D01*
X119380000Y-93654000D01*
X119382000Y-93653000D01*
X119385000Y-93652000D01*
X119387000Y-93652000D01*
X119390000Y-93651000D01*
X119392000Y-93651000D01*
X119395000Y-93650000D01*
X119397000Y-93650000D01*
X119400000Y-93650000D01*
X120000000Y-93650000D01*
X120003000Y-93650000D01*
X120005000Y-93650000D01*
X120008000Y-93651000D01*
G37*
%TO.C,ID1*%
X119490000Y-81200000D02*
X119490000Y-80240000D01*
X119490000Y-80237000D01*
X119490000Y-80235000D01*
X119489000Y-80232000D01*
X119489000Y-80230000D01*
X119488000Y-80227000D01*
X119488000Y-80225000D01*
X119487000Y-80222000D01*
X119486000Y-80220000D01*
X119485000Y-80217000D01*
X119483000Y-80215000D01*
X119482000Y-80213000D01*
X119480000Y-80211000D01*
X119479000Y-80209000D01*
X119477000Y-80207000D01*
X119475000Y-80205000D01*
X119473000Y-80203000D01*
X119471000Y-80201000D01*
X119469000Y-80200000D01*
X119467000Y-80198000D01*
X119465000Y-80197000D01*
X119463000Y-80195000D01*
X119460000Y-80194000D01*
X119458000Y-80193000D01*
X119455000Y-80192000D01*
X119453000Y-80192000D01*
X119450000Y-80191000D01*
X119448000Y-80191000D01*
X119445000Y-80190000D01*
X119443000Y-80190000D01*
X119440000Y-80190000D01*
X119260000Y-80190000D01*
X119257000Y-80190000D01*
X119255000Y-80190000D01*
X119252000Y-80191000D01*
X119250000Y-80191000D01*
X119247000Y-80192000D01*
X119245000Y-80192000D01*
X119242000Y-80193000D01*
X119240000Y-80194000D01*
X119237000Y-80195000D01*
X119235000Y-80197000D01*
X119233000Y-80198000D01*
X119231000Y-80200000D01*
X119229000Y-80201000D01*
X119227000Y-80203000D01*
X119225000Y-80205000D01*
X119223000Y-80207000D01*
X119221000Y-80209000D01*
X119220000Y-80211000D01*
X119218000Y-80213000D01*
X119217000Y-80215000D01*
X119215000Y-80217000D01*
X119214000Y-80220000D01*
X119213000Y-80222000D01*
X119212000Y-80225000D01*
X119212000Y-80227000D01*
X119211000Y-80230000D01*
X119211000Y-80232000D01*
X119210000Y-80235000D01*
X119210000Y-80237000D01*
X119210000Y-80240000D01*
X119210000Y-81200000D01*
X119210000Y-81203000D01*
X119210000Y-81205000D01*
X119211000Y-81208000D01*
X119211000Y-81210000D01*
X119212000Y-81213000D01*
X119212000Y-81215000D01*
X119213000Y-81218000D01*
X119214000Y-81220000D01*
X119215000Y-81223000D01*
X119217000Y-81225000D01*
X119218000Y-81227000D01*
X119220000Y-81229000D01*
X119221000Y-81231000D01*
X119223000Y-81233000D01*
X119225000Y-81235000D01*
X119227000Y-81237000D01*
X119229000Y-81239000D01*
X119231000Y-81240000D01*
X119233000Y-81242000D01*
X119235000Y-81243000D01*
X119237000Y-81245000D01*
X119240000Y-81246000D01*
X119242000Y-81247000D01*
X119245000Y-81248000D01*
X119247000Y-81248000D01*
X119250000Y-81249000D01*
X119252000Y-81249000D01*
X119255000Y-81250000D01*
X119257000Y-81250000D01*
X119260000Y-81250000D01*
X119440000Y-81250000D01*
X119443000Y-81250000D01*
X119445000Y-81250000D01*
X119448000Y-81249000D01*
X119450000Y-81249000D01*
X119453000Y-81248000D01*
X119455000Y-81248000D01*
X119458000Y-81247000D01*
X119460000Y-81246000D01*
X119463000Y-81245000D01*
X119465000Y-81243000D01*
X119467000Y-81242000D01*
X119469000Y-81240000D01*
X119471000Y-81239000D01*
X119473000Y-81237000D01*
X119475000Y-81235000D01*
X119477000Y-81233000D01*
X119479000Y-81231000D01*
X119480000Y-81229000D01*
X119482000Y-81227000D01*
X119483000Y-81225000D01*
X119485000Y-81223000D01*
X119486000Y-81220000D01*
X119487000Y-81218000D01*
X119488000Y-81215000D01*
X119488000Y-81213000D01*
X119489000Y-81210000D01*
X119489000Y-81208000D01*
X119490000Y-81205000D01*
X119490000Y-81203000D01*
X119490000Y-81200000D01*
G36*
X119448000Y-80191000D02*
G01*
X119450000Y-80191000D01*
X119453000Y-80192000D01*
X119455000Y-80192000D01*
X119458000Y-80193000D01*
X119460000Y-80194000D01*
X119463000Y-80195000D01*
X119465000Y-80197000D01*
X119467000Y-80198000D01*
X119469000Y-80200000D01*
X119471000Y-80201000D01*
X119473000Y-80203000D01*
X119475000Y-80205000D01*
X119477000Y-80207000D01*
X119479000Y-80209000D01*
X119480000Y-80211000D01*
X119482000Y-80213000D01*
X119483000Y-80215000D01*
X119485000Y-80217000D01*
X119486000Y-80220000D01*
X119487000Y-80222000D01*
X119488000Y-80225000D01*
X119488000Y-80227000D01*
X119489000Y-80230000D01*
X119489000Y-80232000D01*
X119490000Y-80235000D01*
X119490000Y-80237000D01*
X119490000Y-80240000D01*
X119490000Y-81200000D01*
X119490000Y-81203000D01*
X119490000Y-81205000D01*
X119489000Y-81208000D01*
X119489000Y-81210000D01*
X119488000Y-81213000D01*
X119488000Y-81215000D01*
X119487000Y-81218000D01*
X119486000Y-81220000D01*
X119485000Y-81223000D01*
X119483000Y-81225000D01*
X119482000Y-81227000D01*
X119480000Y-81229000D01*
X119479000Y-81231000D01*
X119477000Y-81233000D01*
X119475000Y-81235000D01*
X119473000Y-81237000D01*
X119471000Y-81239000D01*
X119469000Y-81240000D01*
X119467000Y-81242000D01*
X119465000Y-81243000D01*
X119463000Y-81245000D01*
X119460000Y-81246000D01*
X119458000Y-81247000D01*
X119455000Y-81248000D01*
X119453000Y-81248000D01*
X119450000Y-81249000D01*
X119448000Y-81249000D01*
X119445000Y-81250000D01*
X119443000Y-81250000D01*
X119440000Y-81250000D01*
X119260000Y-81250000D01*
X119257000Y-81250000D01*
X119255000Y-81250000D01*
X119252000Y-81249000D01*
X119250000Y-81249000D01*
X119247000Y-81248000D01*
X119245000Y-81248000D01*
X119242000Y-81247000D01*
X119240000Y-81246000D01*
X119237000Y-81245000D01*
X119235000Y-81243000D01*
X119233000Y-81242000D01*
X119231000Y-81240000D01*
X119229000Y-81239000D01*
X119227000Y-81237000D01*
X119225000Y-81235000D01*
X119223000Y-81233000D01*
X119221000Y-81231000D01*
X119220000Y-81229000D01*
X119218000Y-81227000D01*
X119217000Y-81225000D01*
X119215000Y-81223000D01*
X119214000Y-81220000D01*
X119213000Y-81218000D01*
X119212000Y-81215000D01*
X119212000Y-81213000D01*
X119211000Y-81210000D01*
X119211000Y-81208000D01*
X119210000Y-81205000D01*
X119210000Y-81203000D01*
X119210000Y-81200000D01*
X119210000Y-80240000D01*
X119210000Y-80237000D01*
X119210000Y-80235000D01*
X119211000Y-80232000D01*
X119211000Y-80230000D01*
X119212000Y-80227000D01*
X119212000Y-80225000D01*
X119213000Y-80222000D01*
X119214000Y-80220000D01*
X119215000Y-80217000D01*
X119217000Y-80215000D01*
X119218000Y-80213000D01*
X119220000Y-80211000D01*
X119221000Y-80209000D01*
X119223000Y-80207000D01*
X119225000Y-80205000D01*
X119227000Y-80203000D01*
X119229000Y-80201000D01*
X119231000Y-80200000D01*
X119233000Y-80198000D01*
X119235000Y-80197000D01*
X119237000Y-80195000D01*
X119240000Y-80194000D01*
X119242000Y-80193000D01*
X119245000Y-80192000D01*
X119247000Y-80192000D01*
X119250000Y-80191000D01*
X119252000Y-80191000D01*
X119255000Y-80190000D01*
X119257000Y-80190000D01*
X119260000Y-80190000D01*
X119440000Y-80190000D01*
X119443000Y-80190000D01*
X119445000Y-80190000D01*
X119448000Y-80191000D01*
G37*
X119490000Y-82460000D02*
X119490000Y-81500000D01*
X119490000Y-81497000D01*
X119490000Y-81495000D01*
X119489000Y-81492000D01*
X119489000Y-81490000D01*
X119488000Y-81487000D01*
X119488000Y-81485000D01*
X119487000Y-81482000D01*
X119486000Y-81480000D01*
X119485000Y-81477000D01*
X119483000Y-81475000D01*
X119482000Y-81473000D01*
X119480000Y-81471000D01*
X119479000Y-81469000D01*
X119477000Y-81467000D01*
X119475000Y-81465000D01*
X119473000Y-81463000D01*
X119471000Y-81461000D01*
X119469000Y-81460000D01*
X119467000Y-81458000D01*
X119465000Y-81457000D01*
X119463000Y-81455000D01*
X119460000Y-81454000D01*
X119458000Y-81453000D01*
X119455000Y-81452000D01*
X119453000Y-81452000D01*
X119450000Y-81451000D01*
X119448000Y-81451000D01*
X119445000Y-81450000D01*
X119443000Y-81450000D01*
X119440000Y-81450000D01*
X119260000Y-81450000D01*
X119257000Y-81450000D01*
X119255000Y-81450000D01*
X119252000Y-81451000D01*
X119250000Y-81451000D01*
X119247000Y-81452000D01*
X119245000Y-81452000D01*
X119242000Y-81453000D01*
X119240000Y-81454000D01*
X119237000Y-81455000D01*
X119235000Y-81457000D01*
X119233000Y-81458000D01*
X119231000Y-81460000D01*
X119229000Y-81461000D01*
X119227000Y-81463000D01*
X119225000Y-81465000D01*
X119223000Y-81467000D01*
X119221000Y-81469000D01*
X119220000Y-81471000D01*
X119218000Y-81473000D01*
X119217000Y-81475000D01*
X119215000Y-81477000D01*
X119214000Y-81480000D01*
X119213000Y-81482000D01*
X119212000Y-81485000D01*
X119212000Y-81487000D01*
X119211000Y-81490000D01*
X119211000Y-81492000D01*
X119210000Y-81495000D01*
X119210000Y-81497000D01*
X119210000Y-81500000D01*
X119210000Y-82460000D01*
X119210000Y-82463000D01*
X119210000Y-82465000D01*
X119211000Y-82468000D01*
X119211000Y-82470000D01*
X119212000Y-82473000D01*
X119212000Y-82475000D01*
X119213000Y-82478000D01*
X119214000Y-82480000D01*
X119215000Y-82483000D01*
X119217000Y-82485000D01*
X119218000Y-82487000D01*
X119220000Y-82489000D01*
X119221000Y-82491000D01*
X119223000Y-82493000D01*
X119225000Y-82495000D01*
X119227000Y-82497000D01*
X119229000Y-82499000D01*
X119231000Y-82500000D01*
X119233000Y-82502000D01*
X119235000Y-82503000D01*
X119237000Y-82505000D01*
X119240000Y-82506000D01*
X119242000Y-82507000D01*
X119245000Y-82508000D01*
X119247000Y-82508000D01*
X119250000Y-82509000D01*
X119252000Y-82509000D01*
X119255000Y-82510000D01*
X119257000Y-82510000D01*
X119260000Y-82510000D01*
X119440000Y-82510000D01*
X119443000Y-82510000D01*
X119445000Y-82510000D01*
X119448000Y-82509000D01*
X119450000Y-82509000D01*
X119453000Y-82508000D01*
X119455000Y-82508000D01*
X119458000Y-82507000D01*
X119460000Y-82506000D01*
X119463000Y-82505000D01*
X119465000Y-82503000D01*
X119467000Y-82502000D01*
X119469000Y-82500000D01*
X119471000Y-82499000D01*
X119473000Y-82497000D01*
X119475000Y-82495000D01*
X119477000Y-82493000D01*
X119479000Y-82491000D01*
X119480000Y-82489000D01*
X119482000Y-82487000D01*
X119483000Y-82485000D01*
X119485000Y-82483000D01*
X119486000Y-82480000D01*
X119487000Y-82478000D01*
X119488000Y-82475000D01*
X119488000Y-82473000D01*
X119489000Y-82470000D01*
X119489000Y-82468000D01*
X119490000Y-82465000D01*
X119490000Y-82463000D01*
X119490000Y-82460000D01*
G36*
X119448000Y-81451000D02*
G01*
X119450000Y-81451000D01*
X119453000Y-81452000D01*
X119455000Y-81452000D01*
X119458000Y-81453000D01*
X119460000Y-81454000D01*
X119463000Y-81455000D01*
X119465000Y-81457000D01*
X119467000Y-81458000D01*
X119469000Y-81460000D01*
X119471000Y-81461000D01*
X119473000Y-81463000D01*
X119475000Y-81465000D01*
X119477000Y-81467000D01*
X119479000Y-81469000D01*
X119480000Y-81471000D01*
X119482000Y-81473000D01*
X119483000Y-81475000D01*
X119485000Y-81477000D01*
X119486000Y-81480000D01*
X119487000Y-81482000D01*
X119488000Y-81485000D01*
X119488000Y-81487000D01*
X119489000Y-81490000D01*
X119489000Y-81492000D01*
X119490000Y-81495000D01*
X119490000Y-81497000D01*
X119490000Y-81500000D01*
X119490000Y-82460000D01*
X119490000Y-82463000D01*
X119490000Y-82465000D01*
X119489000Y-82468000D01*
X119489000Y-82470000D01*
X119488000Y-82473000D01*
X119488000Y-82475000D01*
X119487000Y-82478000D01*
X119486000Y-82480000D01*
X119485000Y-82483000D01*
X119483000Y-82485000D01*
X119482000Y-82487000D01*
X119480000Y-82489000D01*
X119479000Y-82491000D01*
X119477000Y-82493000D01*
X119475000Y-82495000D01*
X119473000Y-82497000D01*
X119471000Y-82499000D01*
X119469000Y-82500000D01*
X119467000Y-82502000D01*
X119465000Y-82503000D01*
X119463000Y-82505000D01*
X119460000Y-82506000D01*
X119458000Y-82507000D01*
X119455000Y-82508000D01*
X119453000Y-82508000D01*
X119450000Y-82509000D01*
X119448000Y-82509000D01*
X119445000Y-82510000D01*
X119443000Y-82510000D01*
X119440000Y-82510000D01*
X119260000Y-82510000D01*
X119257000Y-82510000D01*
X119255000Y-82510000D01*
X119252000Y-82509000D01*
X119250000Y-82509000D01*
X119247000Y-82508000D01*
X119245000Y-82508000D01*
X119242000Y-82507000D01*
X119240000Y-82506000D01*
X119237000Y-82505000D01*
X119235000Y-82503000D01*
X119233000Y-82502000D01*
X119231000Y-82500000D01*
X119229000Y-82499000D01*
X119227000Y-82497000D01*
X119225000Y-82495000D01*
X119223000Y-82493000D01*
X119221000Y-82491000D01*
X119220000Y-82489000D01*
X119218000Y-82487000D01*
X119217000Y-82485000D01*
X119215000Y-82483000D01*
X119214000Y-82480000D01*
X119213000Y-82478000D01*
X119212000Y-82475000D01*
X119212000Y-82473000D01*
X119211000Y-82470000D01*
X119211000Y-82468000D01*
X119210000Y-82465000D01*
X119210000Y-82463000D01*
X119210000Y-82460000D01*
X119210000Y-81500000D01*
X119210000Y-81497000D01*
X119210000Y-81495000D01*
X119211000Y-81492000D01*
X119211000Y-81490000D01*
X119212000Y-81487000D01*
X119212000Y-81485000D01*
X119213000Y-81482000D01*
X119214000Y-81480000D01*
X119215000Y-81477000D01*
X119217000Y-81475000D01*
X119218000Y-81473000D01*
X119220000Y-81471000D01*
X119221000Y-81469000D01*
X119223000Y-81467000D01*
X119225000Y-81465000D01*
X119227000Y-81463000D01*
X119229000Y-81461000D01*
X119231000Y-81460000D01*
X119233000Y-81458000D01*
X119235000Y-81457000D01*
X119237000Y-81455000D01*
X119240000Y-81454000D01*
X119242000Y-81453000D01*
X119245000Y-81452000D01*
X119247000Y-81452000D01*
X119250000Y-81451000D01*
X119252000Y-81451000D01*
X119255000Y-81450000D01*
X119257000Y-81450000D01*
X119260000Y-81450000D01*
X119440000Y-81450000D01*
X119443000Y-81450000D01*
X119445000Y-81450000D01*
X119448000Y-81451000D01*
G37*
X119990000Y-80240000D02*
X119990000Y-81200000D01*
X119990000Y-81203000D01*
X119990000Y-81205000D01*
X119989000Y-81208000D01*
X119989000Y-81210000D01*
X119988000Y-81213000D01*
X119988000Y-81215000D01*
X119987000Y-81218000D01*
X119986000Y-81220000D01*
X119985000Y-81223000D01*
X119983000Y-81225000D01*
X119982000Y-81227000D01*
X119980000Y-81229000D01*
X119979000Y-81231000D01*
X119977000Y-81233000D01*
X119975000Y-81235000D01*
X119973000Y-81237000D01*
X119971000Y-81239000D01*
X119969000Y-81240000D01*
X119967000Y-81242000D01*
X119965000Y-81243000D01*
X119963000Y-81245000D01*
X119960000Y-81246000D01*
X119958000Y-81247000D01*
X119955000Y-81248000D01*
X119953000Y-81248000D01*
X119950000Y-81249000D01*
X119948000Y-81249000D01*
X119945000Y-81250000D01*
X119943000Y-81250000D01*
X119940000Y-81250000D01*
X119760000Y-81250000D01*
X119757000Y-81250000D01*
X119755000Y-81250000D01*
X119752000Y-81249000D01*
X119750000Y-81249000D01*
X119747000Y-81248000D01*
X119745000Y-81248000D01*
X119742000Y-81247000D01*
X119740000Y-81246000D01*
X119737000Y-81245000D01*
X119735000Y-81243000D01*
X119733000Y-81242000D01*
X119731000Y-81240000D01*
X119729000Y-81239000D01*
X119727000Y-81237000D01*
X119725000Y-81235000D01*
X119723000Y-81233000D01*
X119721000Y-81231000D01*
X119720000Y-81229000D01*
X119718000Y-81227000D01*
X119717000Y-81225000D01*
X119715000Y-81223000D01*
X119714000Y-81220000D01*
X119713000Y-81218000D01*
X119712000Y-81215000D01*
X119712000Y-81213000D01*
X119711000Y-81210000D01*
X119711000Y-81208000D01*
X119710000Y-81205000D01*
X119710000Y-81203000D01*
X119710000Y-81200000D01*
X119710000Y-80240000D01*
X119710000Y-80237000D01*
X119710000Y-80235000D01*
X119711000Y-80232000D01*
X119711000Y-80230000D01*
X119712000Y-80227000D01*
X119712000Y-80225000D01*
X119713000Y-80222000D01*
X119714000Y-80220000D01*
X119715000Y-80217000D01*
X119717000Y-80215000D01*
X119718000Y-80213000D01*
X119720000Y-80211000D01*
X119721000Y-80209000D01*
X119723000Y-80207000D01*
X119725000Y-80205000D01*
X119727000Y-80203000D01*
X119729000Y-80201000D01*
X119731000Y-80200000D01*
X119733000Y-80198000D01*
X119735000Y-80197000D01*
X119737000Y-80195000D01*
X119740000Y-80194000D01*
X119742000Y-80193000D01*
X119745000Y-80192000D01*
X119747000Y-80192000D01*
X119750000Y-80191000D01*
X119752000Y-80191000D01*
X119755000Y-80190000D01*
X119757000Y-80190000D01*
X119760000Y-80190000D01*
X119940000Y-80190000D01*
X119943000Y-80190000D01*
X119945000Y-80190000D01*
X119948000Y-80191000D01*
X119950000Y-80191000D01*
X119953000Y-80192000D01*
X119955000Y-80192000D01*
X119958000Y-80193000D01*
X119960000Y-80194000D01*
X119963000Y-80195000D01*
X119965000Y-80197000D01*
X119967000Y-80198000D01*
X119969000Y-80200000D01*
X119971000Y-80201000D01*
X119973000Y-80203000D01*
X119975000Y-80205000D01*
X119977000Y-80207000D01*
X119979000Y-80209000D01*
X119980000Y-80211000D01*
X119982000Y-80213000D01*
X119983000Y-80215000D01*
X119985000Y-80217000D01*
X119986000Y-80220000D01*
X119987000Y-80222000D01*
X119988000Y-80225000D01*
X119988000Y-80227000D01*
X119989000Y-80230000D01*
X119989000Y-80232000D01*
X119990000Y-80235000D01*
X119990000Y-80237000D01*
X119990000Y-80240000D01*
G36*
X119948000Y-80191000D02*
G01*
X119950000Y-80191000D01*
X119953000Y-80192000D01*
X119955000Y-80192000D01*
X119958000Y-80193000D01*
X119960000Y-80194000D01*
X119963000Y-80195000D01*
X119965000Y-80197000D01*
X119967000Y-80198000D01*
X119969000Y-80200000D01*
X119971000Y-80201000D01*
X119973000Y-80203000D01*
X119975000Y-80205000D01*
X119977000Y-80207000D01*
X119979000Y-80209000D01*
X119980000Y-80211000D01*
X119982000Y-80213000D01*
X119983000Y-80215000D01*
X119985000Y-80217000D01*
X119986000Y-80220000D01*
X119987000Y-80222000D01*
X119988000Y-80225000D01*
X119988000Y-80227000D01*
X119989000Y-80230000D01*
X119989000Y-80232000D01*
X119990000Y-80235000D01*
X119990000Y-80237000D01*
X119990000Y-80240000D01*
X119990000Y-81200000D01*
X119990000Y-81203000D01*
X119990000Y-81205000D01*
X119989000Y-81208000D01*
X119989000Y-81210000D01*
X119988000Y-81213000D01*
X119988000Y-81215000D01*
X119987000Y-81218000D01*
X119986000Y-81220000D01*
X119985000Y-81223000D01*
X119983000Y-81225000D01*
X119982000Y-81227000D01*
X119980000Y-81229000D01*
X119979000Y-81231000D01*
X119977000Y-81233000D01*
X119975000Y-81235000D01*
X119973000Y-81237000D01*
X119971000Y-81239000D01*
X119969000Y-81240000D01*
X119967000Y-81242000D01*
X119965000Y-81243000D01*
X119963000Y-81245000D01*
X119960000Y-81246000D01*
X119958000Y-81247000D01*
X119955000Y-81248000D01*
X119953000Y-81248000D01*
X119950000Y-81249000D01*
X119948000Y-81249000D01*
X119945000Y-81250000D01*
X119943000Y-81250000D01*
X119940000Y-81250000D01*
X119760000Y-81250000D01*
X119757000Y-81250000D01*
X119755000Y-81250000D01*
X119752000Y-81249000D01*
X119750000Y-81249000D01*
X119747000Y-81248000D01*
X119745000Y-81248000D01*
X119742000Y-81247000D01*
X119740000Y-81246000D01*
X119737000Y-81245000D01*
X119735000Y-81243000D01*
X119733000Y-81242000D01*
X119731000Y-81240000D01*
X119729000Y-81239000D01*
X119727000Y-81237000D01*
X119725000Y-81235000D01*
X119723000Y-81233000D01*
X119721000Y-81231000D01*
X119720000Y-81229000D01*
X119718000Y-81227000D01*
X119717000Y-81225000D01*
X119715000Y-81223000D01*
X119714000Y-81220000D01*
X119713000Y-81218000D01*
X119712000Y-81215000D01*
X119712000Y-81213000D01*
X119711000Y-81210000D01*
X119711000Y-81208000D01*
X119710000Y-81205000D01*
X119710000Y-81203000D01*
X119710000Y-81200000D01*
X119710000Y-80240000D01*
X119710000Y-80237000D01*
X119710000Y-80235000D01*
X119711000Y-80232000D01*
X119711000Y-80230000D01*
X119712000Y-80227000D01*
X119712000Y-80225000D01*
X119713000Y-80222000D01*
X119714000Y-80220000D01*
X119715000Y-80217000D01*
X119717000Y-80215000D01*
X119718000Y-80213000D01*
X119720000Y-80211000D01*
X119721000Y-80209000D01*
X119723000Y-80207000D01*
X119725000Y-80205000D01*
X119727000Y-80203000D01*
X119729000Y-80201000D01*
X119731000Y-80200000D01*
X119733000Y-80198000D01*
X119735000Y-80197000D01*
X119737000Y-80195000D01*
X119740000Y-80194000D01*
X119742000Y-80193000D01*
X119745000Y-80192000D01*
X119747000Y-80192000D01*
X119750000Y-80191000D01*
X119752000Y-80191000D01*
X119755000Y-80190000D01*
X119757000Y-80190000D01*
X119760000Y-80190000D01*
X119940000Y-80190000D01*
X119943000Y-80190000D01*
X119945000Y-80190000D01*
X119948000Y-80191000D01*
G37*
X119990000Y-81500000D02*
X119990000Y-82460000D01*
X119990000Y-82463000D01*
X119990000Y-82465000D01*
X119989000Y-82468000D01*
X119989000Y-82470000D01*
X119988000Y-82473000D01*
X119988000Y-82475000D01*
X119987000Y-82478000D01*
X119986000Y-82480000D01*
X119985000Y-82483000D01*
X119983000Y-82485000D01*
X119982000Y-82487000D01*
X119980000Y-82489000D01*
X119979000Y-82491000D01*
X119977000Y-82493000D01*
X119975000Y-82495000D01*
X119973000Y-82497000D01*
X119971000Y-82499000D01*
X119969000Y-82500000D01*
X119967000Y-82502000D01*
X119965000Y-82503000D01*
X119963000Y-82505000D01*
X119960000Y-82506000D01*
X119958000Y-82507000D01*
X119955000Y-82508000D01*
X119953000Y-82508000D01*
X119950000Y-82509000D01*
X119948000Y-82509000D01*
X119945000Y-82510000D01*
X119943000Y-82510000D01*
X119940000Y-82510000D01*
X119760000Y-82510000D01*
X119757000Y-82510000D01*
X119755000Y-82510000D01*
X119752000Y-82509000D01*
X119750000Y-82509000D01*
X119747000Y-82508000D01*
X119745000Y-82508000D01*
X119742000Y-82507000D01*
X119740000Y-82506000D01*
X119737000Y-82505000D01*
X119735000Y-82503000D01*
X119733000Y-82502000D01*
X119731000Y-82500000D01*
X119729000Y-82499000D01*
X119727000Y-82497000D01*
X119725000Y-82495000D01*
X119723000Y-82493000D01*
X119721000Y-82491000D01*
X119720000Y-82489000D01*
X119718000Y-82487000D01*
X119717000Y-82485000D01*
X119715000Y-82483000D01*
X119714000Y-82480000D01*
X119713000Y-82478000D01*
X119712000Y-82475000D01*
X119712000Y-82473000D01*
X119711000Y-82470000D01*
X119711000Y-82468000D01*
X119710000Y-82465000D01*
X119710000Y-82463000D01*
X119710000Y-82460000D01*
X119710000Y-81500000D01*
X119710000Y-81497000D01*
X119710000Y-81495000D01*
X119711000Y-81492000D01*
X119711000Y-81490000D01*
X119712000Y-81487000D01*
X119712000Y-81485000D01*
X119713000Y-81482000D01*
X119714000Y-81480000D01*
X119715000Y-81477000D01*
X119717000Y-81475000D01*
X119718000Y-81473000D01*
X119720000Y-81471000D01*
X119721000Y-81469000D01*
X119723000Y-81467000D01*
X119725000Y-81465000D01*
X119727000Y-81463000D01*
X119729000Y-81461000D01*
X119731000Y-81460000D01*
X119733000Y-81458000D01*
X119735000Y-81457000D01*
X119737000Y-81455000D01*
X119740000Y-81454000D01*
X119742000Y-81453000D01*
X119745000Y-81452000D01*
X119747000Y-81452000D01*
X119750000Y-81451000D01*
X119752000Y-81451000D01*
X119755000Y-81450000D01*
X119757000Y-81450000D01*
X119760000Y-81450000D01*
X119940000Y-81450000D01*
X119943000Y-81450000D01*
X119945000Y-81450000D01*
X119948000Y-81451000D01*
X119950000Y-81451000D01*
X119953000Y-81452000D01*
X119955000Y-81452000D01*
X119958000Y-81453000D01*
X119960000Y-81454000D01*
X119963000Y-81455000D01*
X119965000Y-81457000D01*
X119967000Y-81458000D01*
X119969000Y-81460000D01*
X119971000Y-81461000D01*
X119973000Y-81463000D01*
X119975000Y-81465000D01*
X119977000Y-81467000D01*
X119979000Y-81469000D01*
X119980000Y-81471000D01*
X119982000Y-81473000D01*
X119983000Y-81475000D01*
X119985000Y-81477000D01*
X119986000Y-81480000D01*
X119987000Y-81482000D01*
X119988000Y-81485000D01*
X119988000Y-81487000D01*
X119989000Y-81490000D01*
X119989000Y-81492000D01*
X119990000Y-81495000D01*
X119990000Y-81497000D01*
X119990000Y-81500000D01*
G36*
X119948000Y-81451000D02*
G01*
X119950000Y-81451000D01*
X119953000Y-81452000D01*
X119955000Y-81452000D01*
X119958000Y-81453000D01*
X119960000Y-81454000D01*
X119963000Y-81455000D01*
X119965000Y-81457000D01*
X119967000Y-81458000D01*
X119969000Y-81460000D01*
X119971000Y-81461000D01*
X119973000Y-81463000D01*
X119975000Y-81465000D01*
X119977000Y-81467000D01*
X119979000Y-81469000D01*
X119980000Y-81471000D01*
X119982000Y-81473000D01*
X119983000Y-81475000D01*
X119985000Y-81477000D01*
X119986000Y-81480000D01*
X119987000Y-81482000D01*
X119988000Y-81485000D01*
X119988000Y-81487000D01*
X119989000Y-81490000D01*
X119989000Y-81492000D01*
X119990000Y-81495000D01*
X119990000Y-81497000D01*
X119990000Y-81500000D01*
X119990000Y-82460000D01*
X119990000Y-82463000D01*
X119990000Y-82465000D01*
X119989000Y-82468000D01*
X119989000Y-82470000D01*
X119988000Y-82473000D01*
X119988000Y-82475000D01*
X119987000Y-82478000D01*
X119986000Y-82480000D01*
X119985000Y-82483000D01*
X119983000Y-82485000D01*
X119982000Y-82487000D01*
X119980000Y-82489000D01*
X119979000Y-82491000D01*
X119977000Y-82493000D01*
X119975000Y-82495000D01*
X119973000Y-82497000D01*
X119971000Y-82499000D01*
X119969000Y-82500000D01*
X119967000Y-82502000D01*
X119965000Y-82503000D01*
X119963000Y-82505000D01*
X119960000Y-82506000D01*
X119958000Y-82507000D01*
X119955000Y-82508000D01*
X119953000Y-82508000D01*
X119950000Y-82509000D01*
X119948000Y-82509000D01*
X119945000Y-82510000D01*
X119943000Y-82510000D01*
X119940000Y-82510000D01*
X119760000Y-82510000D01*
X119757000Y-82510000D01*
X119755000Y-82510000D01*
X119752000Y-82509000D01*
X119750000Y-82509000D01*
X119747000Y-82508000D01*
X119745000Y-82508000D01*
X119742000Y-82507000D01*
X119740000Y-82506000D01*
X119737000Y-82505000D01*
X119735000Y-82503000D01*
X119733000Y-82502000D01*
X119731000Y-82500000D01*
X119729000Y-82499000D01*
X119727000Y-82497000D01*
X119725000Y-82495000D01*
X119723000Y-82493000D01*
X119721000Y-82491000D01*
X119720000Y-82489000D01*
X119718000Y-82487000D01*
X119717000Y-82485000D01*
X119715000Y-82483000D01*
X119714000Y-82480000D01*
X119713000Y-82478000D01*
X119712000Y-82475000D01*
X119712000Y-82473000D01*
X119711000Y-82470000D01*
X119711000Y-82468000D01*
X119710000Y-82465000D01*
X119710000Y-82463000D01*
X119710000Y-82460000D01*
X119710000Y-81500000D01*
X119710000Y-81497000D01*
X119710000Y-81495000D01*
X119711000Y-81492000D01*
X119711000Y-81490000D01*
X119712000Y-81487000D01*
X119712000Y-81485000D01*
X119713000Y-81482000D01*
X119714000Y-81480000D01*
X119715000Y-81477000D01*
X119717000Y-81475000D01*
X119718000Y-81473000D01*
X119720000Y-81471000D01*
X119721000Y-81469000D01*
X119723000Y-81467000D01*
X119725000Y-81465000D01*
X119727000Y-81463000D01*
X119729000Y-81461000D01*
X119731000Y-81460000D01*
X119733000Y-81458000D01*
X119735000Y-81457000D01*
X119737000Y-81455000D01*
X119740000Y-81454000D01*
X119742000Y-81453000D01*
X119745000Y-81452000D01*
X119747000Y-81452000D01*
X119750000Y-81451000D01*
X119752000Y-81451000D01*
X119755000Y-81450000D01*
X119757000Y-81450000D01*
X119760000Y-81450000D01*
X119940000Y-81450000D01*
X119943000Y-81450000D01*
X119945000Y-81450000D01*
X119948000Y-81451000D01*
G37*
X119000000Y-80200000D02*
X119000000Y-80750000D01*
X119000000Y-80753000D01*
X119000000Y-80755000D01*
X118999000Y-80758000D01*
X118999000Y-80760000D01*
X118998000Y-80763000D01*
X118998000Y-80765000D01*
X118997000Y-80768000D01*
X118996000Y-80770000D01*
X118995000Y-80773000D01*
X118993000Y-80775000D01*
X118992000Y-80777000D01*
X118990000Y-80779000D01*
X118989000Y-80781000D01*
X118987000Y-80783000D01*
X118985000Y-80785000D01*
X118983000Y-80787000D01*
X118981000Y-80789000D01*
X118979000Y-80790000D01*
X118977000Y-80792000D01*
X118975000Y-80793000D01*
X118973000Y-80795000D01*
X118970000Y-80796000D01*
X118968000Y-80797000D01*
X118965000Y-80798000D01*
X118963000Y-80798000D01*
X118960000Y-80799000D01*
X118958000Y-80799000D01*
X118955000Y-80800000D01*
X118953000Y-80800000D01*
X118950000Y-80800000D01*
X118450000Y-80800000D01*
X118447000Y-80800000D01*
X118445000Y-80800000D01*
X118442000Y-80799000D01*
X118440000Y-80799000D01*
X118437000Y-80798000D01*
X118435000Y-80798000D01*
X118432000Y-80797000D01*
X118430000Y-80796000D01*
X118427000Y-80795000D01*
X118425000Y-80793000D01*
X118423000Y-80792000D01*
X118421000Y-80790000D01*
X118419000Y-80789000D01*
X118417000Y-80787000D01*
X118415000Y-80785000D01*
X118413000Y-80783000D01*
X118411000Y-80781000D01*
X118410000Y-80779000D01*
X118408000Y-80777000D01*
X118407000Y-80775000D01*
X118405000Y-80773000D01*
X118404000Y-80770000D01*
X118403000Y-80768000D01*
X118402000Y-80765000D01*
X118402000Y-80763000D01*
X118401000Y-80760000D01*
X118401000Y-80758000D01*
X118400000Y-80755000D01*
X118400000Y-80753000D01*
X118400000Y-80750000D01*
X118400000Y-80575000D01*
X118400000Y-80572000D01*
X118400000Y-80570000D01*
X118401000Y-80567000D01*
X118401000Y-80565000D01*
X118402000Y-80562000D01*
X118402000Y-80560000D01*
X118403000Y-80557000D01*
X118404000Y-80555000D01*
X118405000Y-80552000D01*
X118407000Y-80550000D01*
X118408000Y-80548000D01*
X118410000Y-80546000D01*
X118411000Y-80544000D01*
X118413000Y-80542000D01*
X118415000Y-80540000D01*
X118417000Y-80538000D01*
X118419000Y-80536000D01*
X118421000Y-80535000D01*
X118423000Y-80533000D01*
X118425000Y-80532000D01*
X118427000Y-80530000D01*
X118430000Y-80529000D01*
X118432000Y-80528000D01*
X118435000Y-80527000D01*
X118437000Y-80527000D01*
X118440000Y-80526000D01*
X118442000Y-80526000D01*
X118445000Y-80525000D01*
X118447000Y-80525000D01*
X118450000Y-80525000D01*
X118725000Y-80525000D01*
X118728000Y-80525000D01*
X118730000Y-80525000D01*
X118733000Y-80524000D01*
X118735000Y-80524000D01*
X118738000Y-80523000D01*
X118740000Y-80523000D01*
X118743000Y-80522000D01*
X118745000Y-80521000D01*
X118748000Y-80520000D01*
X118750000Y-80518000D01*
X118752000Y-80517000D01*
X118754000Y-80515000D01*
X118756000Y-80514000D01*
X118758000Y-80512000D01*
X118760000Y-80510000D01*
X118762000Y-80508000D01*
X118764000Y-80506000D01*
X118765000Y-80504000D01*
X118767000Y-80502000D01*
X118768000Y-80500000D01*
X118770000Y-80498000D01*
X118771000Y-80495000D01*
X118772000Y-80493000D01*
X118773000Y-80490000D01*
X118773000Y-80488000D01*
X118774000Y-80485000D01*
X118774000Y-80483000D01*
X118775000Y-80480000D01*
X118775000Y-80478000D01*
X118775000Y-80475000D01*
X118775000Y-80200000D01*
X118775000Y-80197000D01*
X118775000Y-80195000D01*
X118776000Y-80192000D01*
X118776000Y-80190000D01*
X118777000Y-80187000D01*
X118777000Y-80185000D01*
X118778000Y-80182000D01*
X118779000Y-80180000D01*
X118780000Y-80177000D01*
X118782000Y-80175000D01*
X118783000Y-80173000D01*
X118785000Y-80171000D01*
X118786000Y-80169000D01*
X118788000Y-80167000D01*
X118790000Y-80165000D01*
X118792000Y-80163000D01*
X118794000Y-80161000D01*
X118796000Y-80160000D01*
X118798000Y-80158000D01*
X118800000Y-80157000D01*
X118802000Y-80155000D01*
X118805000Y-80154000D01*
X118807000Y-80153000D01*
X118810000Y-80152000D01*
X118812000Y-80152000D01*
X118815000Y-80151000D01*
X118817000Y-80151000D01*
X118820000Y-80150000D01*
X118822000Y-80150000D01*
X118825000Y-80150000D01*
X118950000Y-80150000D01*
X118953000Y-80150000D01*
X118955000Y-80150000D01*
X118958000Y-80151000D01*
X118960000Y-80151000D01*
X118963000Y-80152000D01*
X118965000Y-80152000D01*
X118968000Y-80153000D01*
X118970000Y-80154000D01*
X118973000Y-80155000D01*
X118975000Y-80157000D01*
X118977000Y-80158000D01*
X118979000Y-80160000D01*
X118981000Y-80161000D01*
X118983000Y-80163000D01*
X118985000Y-80165000D01*
X118987000Y-80167000D01*
X118989000Y-80169000D01*
X118990000Y-80171000D01*
X118992000Y-80173000D01*
X118993000Y-80175000D01*
X118995000Y-80177000D01*
X118996000Y-80180000D01*
X118997000Y-80182000D01*
X118998000Y-80185000D01*
X118998000Y-80187000D01*
X118999000Y-80190000D01*
X118999000Y-80192000D01*
X119000000Y-80195000D01*
X119000000Y-80197000D01*
X119000000Y-80200000D01*
G36*
X118958000Y-80151000D02*
G01*
X118960000Y-80151000D01*
X118963000Y-80152000D01*
X118965000Y-80152000D01*
X118968000Y-80153000D01*
X118970000Y-80154000D01*
X118973000Y-80155000D01*
X118975000Y-80157000D01*
X118977000Y-80158000D01*
X118979000Y-80160000D01*
X118981000Y-80161000D01*
X118983000Y-80163000D01*
X118985000Y-80165000D01*
X118987000Y-80167000D01*
X118989000Y-80169000D01*
X118990000Y-80171000D01*
X118992000Y-80173000D01*
X118993000Y-80175000D01*
X118995000Y-80177000D01*
X118996000Y-80180000D01*
X118997000Y-80182000D01*
X118998000Y-80185000D01*
X118998000Y-80187000D01*
X118999000Y-80190000D01*
X118999000Y-80192000D01*
X119000000Y-80195000D01*
X119000000Y-80197000D01*
X119000000Y-80200000D01*
X119000000Y-80750000D01*
X119000000Y-80753000D01*
X119000000Y-80755000D01*
X118999000Y-80758000D01*
X118999000Y-80760000D01*
X118998000Y-80763000D01*
X118998000Y-80765000D01*
X118997000Y-80768000D01*
X118996000Y-80770000D01*
X118995000Y-80773000D01*
X118993000Y-80775000D01*
X118992000Y-80777000D01*
X118990000Y-80779000D01*
X118989000Y-80781000D01*
X118987000Y-80783000D01*
X118985000Y-80785000D01*
X118983000Y-80787000D01*
X118981000Y-80789000D01*
X118979000Y-80790000D01*
X118977000Y-80792000D01*
X118975000Y-80793000D01*
X118973000Y-80795000D01*
X118970000Y-80796000D01*
X118968000Y-80797000D01*
X118965000Y-80798000D01*
X118963000Y-80798000D01*
X118960000Y-80799000D01*
X118958000Y-80799000D01*
X118955000Y-80800000D01*
X118953000Y-80800000D01*
X118950000Y-80800000D01*
X118450000Y-80800000D01*
X118447000Y-80800000D01*
X118445000Y-80800000D01*
X118442000Y-80799000D01*
X118440000Y-80799000D01*
X118437000Y-80798000D01*
X118435000Y-80798000D01*
X118432000Y-80797000D01*
X118430000Y-80796000D01*
X118427000Y-80795000D01*
X118425000Y-80793000D01*
X118423000Y-80792000D01*
X118421000Y-80790000D01*
X118419000Y-80789000D01*
X118417000Y-80787000D01*
X118415000Y-80785000D01*
X118413000Y-80783000D01*
X118411000Y-80781000D01*
X118410000Y-80779000D01*
X118408000Y-80777000D01*
X118407000Y-80775000D01*
X118405000Y-80773000D01*
X118404000Y-80770000D01*
X118403000Y-80768000D01*
X118402000Y-80765000D01*
X118402000Y-80763000D01*
X118401000Y-80760000D01*
X118401000Y-80758000D01*
X118400000Y-80755000D01*
X118400000Y-80753000D01*
X118400000Y-80750000D01*
X118400000Y-80575000D01*
X118400000Y-80572000D01*
X118400000Y-80570000D01*
X118401000Y-80567000D01*
X118401000Y-80565000D01*
X118402000Y-80562000D01*
X118402000Y-80560000D01*
X118403000Y-80557000D01*
X118404000Y-80555000D01*
X118405000Y-80552000D01*
X118407000Y-80550000D01*
X118408000Y-80548000D01*
X118410000Y-80546000D01*
X118411000Y-80544000D01*
X118413000Y-80542000D01*
X118415000Y-80540000D01*
X118417000Y-80538000D01*
X118419000Y-80536000D01*
X118421000Y-80535000D01*
X118423000Y-80533000D01*
X118425000Y-80532000D01*
X118427000Y-80530000D01*
X118430000Y-80529000D01*
X118432000Y-80528000D01*
X118435000Y-80527000D01*
X118437000Y-80527000D01*
X118440000Y-80526000D01*
X118442000Y-80526000D01*
X118445000Y-80525000D01*
X118447000Y-80525000D01*
X118450000Y-80525000D01*
X118725000Y-80525000D01*
X118728000Y-80525000D01*
X118730000Y-80525000D01*
X118733000Y-80524000D01*
X118735000Y-80524000D01*
X118738000Y-80523000D01*
X118740000Y-80523000D01*
X118743000Y-80522000D01*
X118745000Y-80521000D01*
X118748000Y-80520000D01*
X118750000Y-80518000D01*
X118752000Y-80517000D01*
X118754000Y-80515000D01*
X118756000Y-80514000D01*
X118758000Y-80512000D01*
X118760000Y-80510000D01*
X118762000Y-80508000D01*
X118764000Y-80506000D01*
X118765000Y-80504000D01*
X118767000Y-80502000D01*
X118768000Y-80500000D01*
X118770000Y-80498000D01*
X118771000Y-80495000D01*
X118772000Y-80493000D01*
X118773000Y-80490000D01*
X118773000Y-80488000D01*
X118774000Y-80485000D01*
X118774000Y-80483000D01*
X118775000Y-80480000D01*
X118775000Y-80478000D01*
X118775000Y-80475000D01*
X118775000Y-80200000D01*
X118775000Y-80197000D01*
X118775000Y-80195000D01*
X118776000Y-80192000D01*
X118776000Y-80190000D01*
X118777000Y-80187000D01*
X118777000Y-80185000D01*
X118778000Y-80182000D01*
X118779000Y-80180000D01*
X118780000Y-80177000D01*
X118782000Y-80175000D01*
X118783000Y-80173000D01*
X118785000Y-80171000D01*
X118786000Y-80169000D01*
X118788000Y-80167000D01*
X118790000Y-80165000D01*
X118792000Y-80163000D01*
X118794000Y-80161000D01*
X118796000Y-80160000D01*
X118798000Y-80158000D01*
X118800000Y-80157000D01*
X118802000Y-80155000D01*
X118805000Y-80154000D01*
X118807000Y-80153000D01*
X118810000Y-80152000D01*
X118812000Y-80152000D01*
X118815000Y-80151000D01*
X118817000Y-80151000D01*
X118820000Y-80150000D01*
X118822000Y-80150000D01*
X118825000Y-80150000D01*
X118950000Y-80150000D01*
X118953000Y-80150000D01*
X118955000Y-80150000D01*
X118958000Y-80151000D01*
G37*
X119000000Y-81950000D02*
X119000000Y-82500000D01*
X119000000Y-82503000D01*
X119000000Y-82505000D01*
X118999000Y-82508000D01*
X118999000Y-82510000D01*
X118998000Y-82513000D01*
X118998000Y-82515000D01*
X118997000Y-82518000D01*
X118996000Y-82520000D01*
X118995000Y-82523000D01*
X118993000Y-82525000D01*
X118992000Y-82527000D01*
X118990000Y-82529000D01*
X118989000Y-82531000D01*
X118987000Y-82533000D01*
X118985000Y-82535000D01*
X118983000Y-82537000D01*
X118981000Y-82539000D01*
X118979000Y-82540000D01*
X118977000Y-82542000D01*
X118975000Y-82543000D01*
X118973000Y-82545000D01*
X118970000Y-82546000D01*
X118968000Y-82547000D01*
X118965000Y-82548000D01*
X118963000Y-82548000D01*
X118960000Y-82549000D01*
X118958000Y-82549000D01*
X118955000Y-82550000D01*
X118953000Y-82550000D01*
X118950000Y-82550000D01*
X118825000Y-82550000D01*
X118822000Y-82550000D01*
X118820000Y-82550000D01*
X118817000Y-82549000D01*
X118815000Y-82549000D01*
X118812000Y-82548000D01*
X118810000Y-82548000D01*
X118807000Y-82547000D01*
X118805000Y-82546000D01*
X118802000Y-82545000D01*
X118800000Y-82543000D01*
X118798000Y-82542000D01*
X118796000Y-82540000D01*
X118794000Y-82539000D01*
X118792000Y-82537000D01*
X118790000Y-82535000D01*
X118788000Y-82533000D01*
X118786000Y-82531000D01*
X118785000Y-82529000D01*
X118783000Y-82527000D01*
X118782000Y-82525000D01*
X118780000Y-82523000D01*
X118779000Y-82520000D01*
X118778000Y-82518000D01*
X118777000Y-82515000D01*
X118777000Y-82513000D01*
X118776000Y-82510000D01*
X118776000Y-82508000D01*
X118775000Y-82505000D01*
X118775000Y-82503000D01*
X118775000Y-82500000D01*
X118775000Y-82225000D01*
X118775000Y-82222000D01*
X118775000Y-82220000D01*
X118774000Y-82217000D01*
X118774000Y-82215000D01*
X118773000Y-82212000D01*
X118773000Y-82210000D01*
X118772000Y-82207000D01*
X118771000Y-82205000D01*
X118770000Y-82202000D01*
X118768000Y-82200000D01*
X118767000Y-82198000D01*
X118765000Y-82196000D01*
X118764000Y-82194000D01*
X118762000Y-82192000D01*
X118760000Y-82190000D01*
X118758000Y-82188000D01*
X118756000Y-82186000D01*
X118754000Y-82185000D01*
X118752000Y-82183000D01*
X118750000Y-82182000D01*
X118748000Y-82180000D01*
X118745000Y-82179000D01*
X118743000Y-82178000D01*
X118740000Y-82177000D01*
X118738000Y-82177000D01*
X118735000Y-82176000D01*
X118733000Y-82176000D01*
X118730000Y-82175000D01*
X118728000Y-82175000D01*
X118725000Y-82175000D01*
X118450000Y-82175000D01*
X118447000Y-82175000D01*
X118445000Y-82175000D01*
X118442000Y-82174000D01*
X118440000Y-82174000D01*
X118437000Y-82173000D01*
X118435000Y-82173000D01*
X118432000Y-82172000D01*
X118430000Y-82171000D01*
X118427000Y-82170000D01*
X118425000Y-82168000D01*
X118423000Y-82167000D01*
X118421000Y-82165000D01*
X118419000Y-82164000D01*
X118417000Y-82162000D01*
X118415000Y-82160000D01*
X118413000Y-82158000D01*
X118411000Y-82156000D01*
X118410000Y-82154000D01*
X118408000Y-82152000D01*
X118407000Y-82150000D01*
X118405000Y-82148000D01*
X118404000Y-82145000D01*
X118403000Y-82143000D01*
X118402000Y-82140000D01*
X118402000Y-82138000D01*
X118401000Y-82135000D01*
X118401000Y-82133000D01*
X118400000Y-82130000D01*
X118400000Y-82128000D01*
X118400000Y-82125000D01*
X118400000Y-81950000D01*
X118400000Y-81947000D01*
X118400000Y-81945000D01*
X118401000Y-81942000D01*
X118401000Y-81940000D01*
X118402000Y-81937000D01*
X118402000Y-81935000D01*
X118403000Y-81932000D01*
X118404000Y-81930000D01*
X118405000Y-81927000D01*
X118407000Y-81925000D01*
X118408000Y-81923000D01*
X118410000Y-81921000D01*
X118411000Y-81919000D01*
X118413000Y-81917000D01*
X118415000Y-81915000D01*
X118417000Y-81913000D01*
X118419000Y-81911000D01*
X118421000Y-81910000D01*
X118423000Y-81908000D01*
X118425000Y-81907000D01*
X118427000Y-81905000D01*
X118430000Y-81904000D01*
X118432000Y-81903000D01*
X118435000Y-81902000D01*
X118437000Y-81902000D01*
X118440000Y-81901000D01*
X118442000Y-81901000D01*
X118445000Y-81900000D01*
X118447000Y-81900000D01*
X118450000Y-81900000D01*
X118950000Y-81900000D01*
X118953000Y-81900000D01*
X118955000Y-81900000D01*
X118958000Y-81901000D01*
X118960000Y-81901000D01*
X118963000Y-81902000D01*
X118965000Y-81902000D01*
X118968000Y-81903000D01*
X118970000Y-81904000D01*
X118973000Y-81905000D01*
X118975000Y-81907000D01*
X118977000Y-81908000D01*
X118979000Y-81910000D01*
X118981000Y-81911000D01*
X118983000Y-81913000D01*
X118985000Y-81915000D01*
X118987000Y-81917000D01*
X118989000Y-81919000D01*
X118990000Y-81921000D01*
X118992000Y-81923000D01*
X118993000Y-81925000D01*
X118995000Y-81927000D01*
X118996000Y-81930000D01*
X118997000Y-81932000D01*
X118998000Y-81935000D01*
X118998000Y-81937000D01*
X118999000Y-81940000D01*
X118999000Y-81942000D01*
X119000000Y-81945000D01*
X119000000Y-81947000D01*
X119000000Y-81950000D01*
G36*
X118958000Y-81901000D02*
G01*
X118960000Y-81901000D01*
X118963000Y-81902000D01*
X118965000Y-81902000D01*
X118968000Y-81903000D01*
X118970000Y-81904000D01*
X118973000Y-81905000D01*
X118975000Y-81907000D01*
X118977000Y-81908000D01*
X118979000Y-81910000D01*
X118981000Y-81911000D01*
X118983000Y-81913000D01*
X118985000Y-81915000D01*
X118987000Y-81917000D01*
X118989000Y-81919000D01*
X118990000Y-81921000D01*
X118992000Y-81923000D01*
X118993000Y-81925000D01*
X118995000Y-81927000D01*
X118996000Y-81930000D01*
X118997000Y-81932000D01*
X118998000Y-81935000D01*
X118998000Y-81937000D01*
X118999000Y-81940000D01*
X118999000Y-81942000D01*
X119000000Y-81945000D01*
X119000000Y-81947000D01*
X119000000Y-81950000D01*
X119000000Y-82500000D01*
X119000000Y-82503000D01*
X119000000Y-82505000D01*
X118999000Y-82508000D01*
X118999000Y-82510000D01*
X118998000Y-82513000D01*
X118998000Y-82515000D01*
X118997000Y-82518000D01*
X118996000Y-82520000D01*
X118995000Y-82523000D01*
X118993000Y-82525000D01*
X118992000Y-82527000D01*
X118990000Y-82529000D01*
X118989000Y-82531000D01*
X118987000Y-82533000D01*
X118985000Y-82535000D01*
X118983000Y-82537000D01*
X118981000Y-82539000D01*
X118979000Y-82540000D01*
X118977000Y-82542000D01*
X118975000Y-82543000D01*
X118973000Y-82545000D01*
X118970000Y-82546000D01*
X118968000Y-82547000D01*
X118965000Y-82548000D01*
X118963000Y-82548000D01*
X118960000Y-82549000D01*
X118958000Y-82549000D01*
X118955000Y-82550000D01*
X118953000Y-82550000D01*
X118950000Y-82550000D01*
X118825000Y-82550000D01*
X118822000Y-82550000D01*
X118820000Y-82550000D01*
X118817000Y-82549000D01*
X118815000Y-82549000D01*
X118812000Y-82548000D01*
X118810000Y-82548000D01*
X118807000Y-82547000D01*
X118805000Y-82546000D01*
X118802000Y-82545000D01*
X118800000Y-82543000D01*
X118798000Y-82542000D01*
X118796000Y-82540000D01*
X118794000Y-82539000D01*
X118792000Y-82537000D01*
X118790000Y-82535000D01*
X118788000Y-82533000D01*
X118786000Y-82531000D01*
X118785000Y-82529000D01*
X118783000Y-82527000D01*
X118782000Y-82525000D01*
X118780000Y-82523000D01*
X118779000Y-82520000D01*
X118778000Y-82518000D01*
X118777000Y-82515000D01*
X118777000Y-82513000D01*
X118776000Y-82510000D01*
X118776000Y-82508000D01*
X118775000Y-82505000D01*
X118775000Y-82503000D01*
X118775000Y-82500000D01*
X118775000Y-82225000D01*
X118775000Y-82222000D01*
X118775000Y-82220000D01*
X118774000Y-82217000D01*
X118774000Y-82215000D01*
X118773000Y-82212000D01*
X118773000Y-82210000D01*
X118772000Y-82207000D01*
X118771000Y-82205000D01*
X118770000Y-82202000D01*
X118768000Y-82200000D01*
X118767000Y-82198000D01*
X118765000Y-82196000D01*
X118764000Y-82194000D01*
X118762000Y-82192000D01*
X118760000Y-82190000D01*
X118758000Y-82188000D01*
X118756000Y-82186000D01*
X118754000Y-82185000D01*
X118752000Y-82183000D01*
X118750000Y-82182000D01*
X118748000Y-82180000D01*
X118745000Y-82179000D01*
X118743000Y-82178000D01*
X118740000Y-82177000D01*
X118738000Y-82177000D01*
X118735000Y-82176000D01*
X118733000Y-82176000D01*
X118730000Y-82175000D01*
X118728000Y-82175000D01*
X118725000Y-82175000D01*
X118450000Y-82175000D01*
X118447000Y-82175000D01*
X118445000Y-82175000D01*
X118442000Y-82174000D01*
X118440000Y-82174000D01*
X118437000Y-82173000D01*
X118435000Y-82173000D01*
X118432000Y-82172000D01*
X118430000Y-82171000D01*
X118427000Y-82170000D01*
X118425000Y-82168000D01*
X118423000Y-82167000D01*
X118421000Y-82165000D01*
X118419000Y-82164000D01*
X118417000Y-82162000D01*
X118415000Y-82160000D01*
X118413000Y-82158000D01*
X118411000Y-82156000D01*
X118410000Y-82154000D01*
X118408000Y-82152000D01*
X118407000Y-82150000D01*
X118405000Y-82148000D01*
X118404000Y-82145000D01*
X118403000Y-82143000D01*
X118402000Y-82140000D01*
X118402000Y-82138000D01*
X118401000Y-82135000D01*
X118401000Y-82133000D01*
X118400000Y-82130000D01*
X118400000Y-82128000D01*
X118400000Y-82125000D01*
X118400000Y-81950000D01*
X118400000Y-81947000D01*
X118400000Y-81945000D01*
X118401000Y-81942000D01*
X118401000Y-81940000D01*
X118402000Y-81937000D01*
X118402000Y-81935000D01*
X118403000Y-81932000D01*
X118404000Y-81930000D01*
X118405000Y-81927000D01*
X118407000Y-81925000D01*
X118408000Y-81923000D01*
X118410000Y-81921000D01*
X118411000Y-81919000D01*
X118413000Y-81917000D01*
X118415000Y-81915000D01*
X118417000Y-81913000D01*
X118419000Y-81911000D01*
X118421000Y-81910000D01*
X118423000Y-81908000D01*
X118425000Y-81907000D01*
X118427000Y-81905000D01*
X118430000Y-81904000D01*
X118432000Y-81903000D01*
X118435000Y-81902000D01*
X118437000Y-81902000D01*
X118440000Y-81901000D01*
X118442000Y-81901000D01*
X118445000Y-81900000D01*
X118447000Y-81900000D01*
X118450000Y-81900000D01*
X118950000Y-81900000D01*
X118953000Y-81900000D01*
X118955000Y-81900000D01*
X118958000Y-81901000D01*
G37*
X120800000Y-80750000D02*
X120800000Y-80575000D01*
X120800000Y-80572000D01*
X120800000Y-80570000D01*
X120799000Y-80567000D01*
X120799000Y-80565000D01*
X120798000Y-80562000D01*
X120798000Y-80560000D01*
X120797000Y-80557000D01*
X120796000Y-80555000D01*
X120795000Y-80552000D01*
X120793000Y-80550000D01*
X120792000Y-80548000D01*
X120790000Y-80546000D01*
X120789000Y-80544000D01*
X120787000Y-80542000D01*
X120785000Y-80540000D01*
X120783000Y-80538000D01*
X120781000Y-80536000D01*
X120779000Y-80535000D01*
X120777000Y-80533000D01*
X120775000Y-80532000D01*
X120773000Y-80530000D01*
X120770000Y-80529000D01*
X120768000Y-80528000D01*
X120765000Y-80527000D01*
X120763000Y-80527000D01*
X120760000Y-80526000D01*
X120758000Y-80526000D01*
X120755000Y-80525000D01*
X120753000Y-80525000D01*
X120750000Y-80525000D01*
X120475000Y-80525000D01*
X120472000Y-80525000D01*
X120470000Y-80525000D01*
X120467000Y-80524000D01*
X120465000Y-80524000D01*
X120462000Y-80523000D01*
X120460000Y-80523000D01*
X120457000Y-80522000D01*
X120455000Y-80521000D01*
X120452000Y-80520000D01*
X120450000Y-80518000D01*
X120448000Y-80517000D01*
X120446000Y-80515000D01*
X120444000Y-80514000D01*
X120442000Y-80512000D01*
X120440000Y-80510000D01*
X120438000Y-80508000D01*
X120436000Y-80506000D01*
X120435000Y-80504000D01*
X120433000Y-80502000D01*
X120432000Y-80500000D01*
X120430000Y-80498000D01*
X120429000Y-80495000D01*
X120428000Y-80493000D01*
X120427000Y-80490000D01*
X120427000Y-80488000D01*
X120426000Y-80485000D01*
X120426000Y-80483000D01*
X120425000Y-80480000D01*
X120425000Y-80478000D01*
X120425000Y-80475000D01*
X120425000Y-80200000D01*
X120425000Y-80197000D01*
X120425000Y-80195000D01*
X120424000Y-80192000D01*
X120424000Y-80190000D01*
X120423000Y-80187000D01*
X120423000Y-80185000D01*
X120422000Y-80182000D01*
X120421000Y-80180000D01*
X120420000Y-80177000D01*
X120418000Y-80175000D01*
X120417000Y-80173000D01*
X120415000Y-80171000D01*
X120414000Y-80169000D01*
X120412000Y-80167000D01*
X120410000Y-80165000D01*
X120408000Y-80163000D01*
X120406000Y-80161000D01*
X120404000Y-80160000D01*
X120402000Y-80158000D01*
X120400000Y-80157000D01*
X120398000Y-80155000D01*
X120395000Y-80154000D01*
X120393000Y-80153000D01*
X120390000Y-80152000D01*
X120388000Y-80152000D01*
X120385000Y-80151000D01*
X120383000Y-80151000D01*
X120380000Y-80150000D01*
X120378000Y-80150000D01*
X120375000Y-80150000D01*
X120250000Y-80150000D01*
X120247000Y-80150000D01*
X120245000Y-80150000D01*
X120242000Y-80151000D01*
X120240000Y-80151000D01*
X120237000Y-80152000D01*
X120235000Y-80152000D01*
X120232000Y-80153000D01*
X120230000Y-80154000D01*
X120227000Y-80155000D01*
X120225000Y-80157000D01*
X120223000Y-80158000D01*
X120221000Y-80160000D01*
X120219000Y-80161000D01*
X120217000Y-80163000D01*
X120215000Y-80165000D01*
X120213000Y-80167000D01*
X120211000Y-80169000D01*
X120210000Y-80171000D01*
X120208000Y-80173000D01*
X120207000Y-80175000D01*
X120205000Y-80177000D01*
X120204000Y-80180000D01*
X120203000Y-80182000D01*
X120202000Y-80185000D01*
X120202000Y-80187000D01*
X120201000Y-80190000D01*
X120201000Y-80192000D01*
X120200000Y-80195000D01*
X120200000Y-80197000D01*
X120200000Y-80200000D01*
X120200000Y-80750000D01*
X120200000Y-80753000D01*
X120200000Y-80755000D01*
X120201000Y-80758000D01*
X120201000Y-80760000D01*
X120202000Y-80763000D01*
X120202000Y-80765000D01*
X120203000Y-80768000D01*
X120204000Y-80770000D01*
X120205000Y-80773000D01*
X120207000Y-80775000D01*
X120208000Y-80777000D01*
X120210000Y-80779000D01*
X120211000Y-80781000D01*
X120213000Y-80783000D01*
X120215000Y-80785000D01*
X120217000Y-80787000D01*
X120219000Y-80789000D01*
X120221000Y-80790000D01*
X120223000Y-80792000D01*
X120225000Y-80793000D01*
X120227000Y-80795000D01*
X120230000Y-80796000D01*
X120232000Y-80797000D01*
X120235000Y-80798000D01*
X120237000Y-80798000D01*
X120240000Y-80799000D01*
X120242000Y-80799000D01*
X120245000Y-80800000D01*
X120247000Y-80800000D01*
X120250000Y-80800000D01*
X120750000Y-80800000D01*
X120753000Y-80800000D01*
X120755000Y-80800000D01*
X120758000Y-80799000D01*
X120760000Y-80799000D01*
X120763000Y-80798000D01*
X120765000Y-80798000D01*
X120768000Y-80797000D01*
X120770000Y-80796000D01*
X120773000Y-80795000D01*
X120775000Y-80793000D01*
X120777000Y-80792000D01*
X120779000Y-80790000D01*
X120781000Y-80789000D01*
X120783000Y-80787000D01*
X120785000Y-80785000D01*
X120787000Y-80783000D01*
X120789000Y-80781000D01*
X120790000Y-80779000D01*
X120792000Y-80777000D01*
X120793000Y-80775000D01*
X120795000Y-80773000D01*
X120796000Y-80770000D01*
X120797000Y-80768000D01*
X120798000Y-80765000D01*
X120798000Y-80763000D01*
X120799000Y-80760000D01*
X120799000Y-80758000D01*
X120800000Y-80755000D01*
X120800000Y-80753000D01*
X120800000Y-80750000D01*
G36*
X120383000Y-80151000D02*
G01*
X120385000Y-80151000D01*
X120388000Y-80152000D01*
X120390000Y-80152000D01*
X120393000Y-80153000D01*
X120395000Y-80154000D01*
X120398000Y-80155000D01*
X120400000Y-80157000D01*
X120402000Y-80158000D01*
X120404000Y-80160000D01*
X120406000Y-80161000D01*
X120408000Y-80163000D01*
X120410000Y-80165000D01*
X120412000Y-80167000D01*
X120414000Y-80169000D01*
X120415000Y-80171000D01*
X120417000Y-80173000D01*
X120418000Y-80175000D01*
X120420000Y-80177000D01*
X120421000Y-80180000D01*
X120422000Y-80182000D01*
X120423000Y-80185000D01*
X120423000Y-80187000D01*
X120424000Y-80190000D01*
X120424000Y-80192000D01*
X120425000Y-80195000D01*
X120425000Y-80197000D01*
X120425000Y-80200000D01*
X120425000Y-80475000D01*
X120425000Y-80478000D01*
X120425000Y-80480000D01*
X120426000Y-80483000D01*
X120426000Y-80485000D01*
X120427000Y-80488000D01*
X120427000Y-80490000D01*
X120428000Y-80493000D01*
X120429000Y-80495000D01*
X120430000Y-80498000D01*
X120432000Y-80500000D01*
X120433000Y-80502000D01*
X120435000Y-80504000D01*
X120436000Y-80506000D01*
X120438000Y-80508000D01*
X120440000Y-80510000D01*
X120442000Y-80512000D01*
X120444000Y-80514000D01*
X120446000Y-80515000D01*
X120448000Y-80517000D01*
X120450000Y-80518000D01*
X120452000Y-80520000D01*
X120455000Y-80521000D01*
X120457000Y-80522000D01*
X120460000Y-80523000D01*
X120462000Y-80523000D01*
X120465000Y-80524000D01*
X120467000Y-80524000D01*
X120470000Y-80525000D01*
X120472000Y-80525000D01*
X120475000Y-80525000D01*
X120750000Y-80525000D01*
X120753000Y-80525000D01*
X120755000Y-80525000D01*
X120758000Y-80526000D01*
X120760000Y-80526000D01*
X120763000Y-80527000D01*
X120765000Y-80527000D01*
X120768000Y-80528000D01*
X120770000Y-80529000D01*
X120773000Y-80530000D01*
X120775000Y-80532000D01*
X120777000Y-80533000D01*
X120779000Y-80535000D01*
X120781000Y-80536000D01*
X120783000Y-80538000D01*
X120785000Y-80540000D01*
X120787000Y-80542000D01*
X120789000Y-80544000D01*
X120790000Y-80546000D01*
X120792000Y-80548000D01*
X120793000Y-80550000D01*
X120795000Y-80552000D01*
X120796000Y-80555000D01*
X120797000Y-80557000D01*
X120798000Y-80560000D01*
X120798000Y-80562000D01*
X120799000Y-80565000D01*
X120799000Y-80567000D01*
X120800000Y-80570000D01*
X120800000Y-80572000D01*
X120800000Y-80575000D01*
X120800000Y-80750000D01*
X120800000Y-80753000D01*
X120800000Y-80755000D01*
X120799000Y-80758000D01*
X120799000Y-80760000D01*
X120798000Y-80763000D01*
X120798000Y-80765000D01*
X120797000Y-80768000D01*
X120796000Y-80770000D01*
X120795000Y-80773000D01*
X120793000Y-80775000D01*
X120792000Y-80777000D01*
X120790000Y-80779000D01*
X120789000Y-80781000D01*
X120787000Y-80783000D01*
X120785000Y-80785000D01*
X120783000Y-80787000D01*
X120781000Y-80789000D01*
X120779000Y-80790000D01*
X120777000Y-80792000D01*
X120775000Y-80793000D01*
X120773000Y-80795000D01*
X120770000Y-80796000D01*
X120768000Y-80797000D01*
X120765000Y-80798000D01*
X120763000Y-80798000D01*
X120760000Y-80799000D01*
X120758000Y-80799000D01*
X120755000Y-80800000D01*
X120753000Y-80800000D01*
X120750000Y-80800000D01*
X120250000Y-80800000D01*
X120247000Y-80800000D01*
X120245000Y-80800000D01*
X120242000Y-80799000D01*
X120240000Y-80799000D01*
X120237000Y-80798000D01*
X120235000Y-80798000D01*
X120232000Y-80797000D01*
X120230000Y-80796000D01*
X120227000Y-80795000D01*
X120225000Y-80793000D01*
X120223000Y-80792000D01*
X120221000Y-80790000D01*
X120219000Y-80789000D01*
X120217000Y-80787000D01*
X120215000Y-80785000D01*
X120213000Y-80783000D01*
X120211000Y-80781000D01*
X120210000Y-80779000D01*
X120208000Y-80777000D01*
X120207000Y-80775000D01*
X120205000Y-80773000D01*
X120204000Y-80770000D01*
X120203000Y-80768000D01*
X120202000Y-80765000D01*
X120202000Y-80763000D01*
X120201000Y-80760000D01*
X120201000Y-80758000D01*
X120200000Y-80755000D01*
X120200000Y-80753000D01*
X120200000Y-80750000D01*
X120200000Y-80200000D01*
X120200000Y-80197000D01*
X120200000Y-80195000D01*
X120201000Y-80192000D01*
X120201000Y-80190000D01*
X120202000Y-80187000D01*
X120202000Y-80185000D01*
X120203000Y-80182000D01*
X120204000Y-80180000D01*
X120205000Y-80177000D01*
X120207000Y-80175000D01*
X120208000Y-80173000D01*
X120210000Y-80171000D01*
X120211000Y-80169000D01*
X120213000Y-80167000D01*
X120215000Y-80165000D01*
X120217000Y-80163000D01*
X120219000Y-80161000D01*
X120221000Y-80160000D01*
X120223000Y-80158000D01*
X120225000Y-80157000D01*
X120227000Y-80155000D01*
X120230000Y-80154000D01*
X120232000Y-80153000D01*
X120235000Y-80152000D01*
X120237000Y-80152000D01*
X120240000Y-80151000D01*
X120242000Y-80151000D01*
X120245000Y-80150000D01*
X120247000Y-80150000D01*
X120250000Y-80150000D01*
X120375000Y-80150000D01*
X120378000Y-80150000D01*
X120380000Y-80150000D01*
X120383000Y-80151000D01*
G37*
X120800000Y-82125000D02*
X120800000Y-81950000D01*
X120800000Y-81947000D01*
X120800000Y-81945000D01*
X120799000Y-81942000D01*
X120799000Y-81940000D01*
X120798000Y-81937000D01*
X120798000Y-81935000D01*
X120797000Y-81932000D01*
X120796000Y-81930000D01*
X120795000Y-81927000D01*
X120793000Y-81925000D01*
X120792000Y-81923000D01*
X120790000Y-81921000D01*
X120789000Y-81919000D01*
X120787000Y-81917000D01*
X120785000Y-81915000D01*
X120783000Y-81913000D01*
X120781000Y-81911000D01*
X120779000Y-81910000D01*
X120777000Y-81908000D01*
X120775000Y-81907000D01*
X120773000Y-81905000D01*
X120770000Y-81904000D01*
X120768000Y-81903000D01*
X120765000Y-81902000D01*
X120763000Y-81902000D01*
X120760000Y-81901000D01*
X120758000Y-81901000D01*
X120755000Y-81900000D01*
X120753000Y-81900000D01*
X120750000Y-81900000D01*
X120250000Y-81900000D01*
X120247000Y-81900000D01*
X120245000Y-81900000D01*
X120242000Y-81901000D01*
X120240000Y-81901000D01*
X120237000Y-81902000D01*
X120235000Y-81902000D01*
X120232000Y-81903000D01*
X120230000Y-81904000D01*
X120227000Y-81905000D01*
X120225000Y-81907000D01*
X120223000Y-81908000D01*
X120221000Y-81910000D01*
X120219000Y-81911000D01*
X120217000Y-81913000D01*
X120215000Y-81915000D01*
X120213000Y-81917000D01*
X120211000Y-81919000D01*
X120210000Y-81921000D01*
X120208000Y-81923000D01*
X120207000Y-81925000D01*
X120205000Y-81927000D01*
X120204000Y-81930000D01*
X120203000Y-81932000D01*
X120202000Y-81935000D01*
X120202000Y-81937000D01*
X120201000Y-81940000D01*
X120201000Y-81942000D01*
X120200000Y-81945000D01*
X120200000Y-81947000D01*
X120200000Y-81950000D01*
X120200000Y-82500000D01*
X120200000Y-82503000D01*
X120200000Y-82505000D01*
X120201000Y-82508000D01*
X120201000Y-82510000D01*
X120202000Y-82513000D01*
X120202000Y-82515000D01*
X120203000Y-82518000D01*
X120204000Y-82520000D01*
X120205000Y-82523000D01*
X120207000Y-82525000D01*
X120208000Y-82527000D01*
X120210000Y-82529000D01*
X120211000Y-82531000D01*
X120213000Y-82533000D01*
X120215000Y-82535000D01*
X120217000Y-82537000D01*
X120219000Y-82539000D01*
X120221000Y-82540000D01*
X120223000Y-82542000D01*
X120225000Y-82543000D01*
X120227000Y-82545000D01*
X120230000Y-82546000D01*
X120232000Y-82547000D01*
X120235000Y-82548000D01*
X120237000Y-82548000D01*
X120240000Y-82549000D01*
X120242000Y-82549000D01*
X120245000Y-82550000D01*
X120247000Y-82550000D01*
X120250000Y-82550000D01*
X120375000Y-82550000D01*
X120378000Y-82550000D01*
X120380000Y-82550000D01*
X120383000Y-82549000D01*
X120385000Y-82549000D01*
X120388000Y-82548000D01*
X120390000Y-82548000D01*
X120393000Y-82547000D01*
X120395000Y-82546000D01*
X120398000Y-82545000D01*
X120400000Y-82543000D01*
X120402000Y-82542000D01*
X120404000Y-82540000D01*
X120406000Y-82539000D01*
X120408000Y-82537000D01*
X120410000Y-82535000D01*
X120412000Y-82533000D01*
X120414000Y-82531000D01*
X120415000Y-82529000D01*
X120417000Y-82527000D01*
X120418000Y-82525000D01*
X120420000Y-82523000D01*
X120421000Y-82520000D01*
X120422000Y-82518000D01*
X120423000Y-82515000D01*
X120423000Y-82513000D01*
X120424000Y-82510000D01*
X120424000Y-82508000D01*
X120425000Y-82505000D01*
X120425000Y-82503000D01*
X120425000Y-82500000D01*
X120425000Y-82225000D01*
X120425000Y-82222000D01*
X120425000Y-82220000D01*
X120426000Y-82217000D01*
X120426000Y-82215000D01*
X120427000Y-82212000D01*
X120427000Y-82210000D01*
X120428000Y-82207000D01*
X120429000Y-82205000D01*
X120430000Y-82202000D01*
X120432000Y-82200000D01*
X120433000Y-82198000D01*
X120435000Y-82196000D01*
X120436000Y-82194000D01*
X120438000Y-82192000D01*
X120440000Y-82190000D01*
X120442000Y-82188000D01*
X120444000Y-82186000D01*
X120446000Y-82185000D01*
X120448000Y-82183000D01*
X120450000Y-82182000D01*
X120452000Y-82180000D01*
X120455000Y-82179000D01*
X120457000Y-82178000D01*
X120460000Y-82177000D01*
X120462000Y-82177000D01*
X120465000Y-82176000D01*
X120467000Y-82176000D01*
X120470000Y-82175000D01*
X120472000Y-82175000D01*
X120475000Y-82175000D01*
X120750000Y-82175000D01*
X120753000Y-82175000D01*
X120755000Y-82175000D01*
X120758000Y-82174000D01*
X120760000Y-82174000D01*
X120763000Y-82173000D01*
X120765000Y-82173000D01*
X120768000Y-82172000D01*
X120770000Y-82171000D01*
X120773000Y-82170000D01*
X120775000Y-82168000D01*
X120777000Y-82167000D01*
X120779000Y-82165000D01*
X120781000Y-82164000D01*
X120783000Y-82162000D01*
X120785000Y-82160000D01*
X120787000Y-82158000D01*
X120789000Y-82156000D01*
X120790000Y-82154000D01*
X120792000Y-82152000D01*
X120793000Y-82150000D01*
X120795000Y-82148000D01*
X120796000Y-82145000D01*
X120797000Y-82143000D01*
X120798000Y-82140000D01*
X120798000Y-82138000D01*
X120799000Y-82135000D01*
X120799000Y-82133000D01*
X120800000Y-82130000D01*
X120800000Y-82128000D01*
X120800000Y-82125000D01*
G36*
X120758000Y-81901000D02*
G01*
X120760000Y-81901000D01*
X120763000Y-81902000D01*
X120765000Y-81902000D01*
X120768000Y-81903000D01*
X120770000Y-81904000D01*
X120773000Y-81905000D01*
X120775000Y-81907000D01*
X120777000Y-81908000D01*
X120779000Y-81910000D01*
X120781000Y-81911000D01*
X120783000Y-81913000D01*
X120785000Y-81915000D01*
X120787000Y-81917000D01*
X120789000Y-81919000D01*
X120790000Y-81921000D01*
X120792000Y-81923000D01*
X120793000Y-81925000D01*
X120795000Y-81927000D01*
X120796000Y-81930000D01*
X120797000Y-81932000D01*
X120798000Y-81935000D01*
X120798000Y-81937000D01*
X120799000Y-81940000D01*
X120799000Y-81942000D01*
X120800000Y-81945000D01*
X120800000Y-81947000D01*
X120800000Y-81950000D01*
X120800000Y-82125000D01*
X120800000Y-82128000D01*
X120800000Y-82130000D01*
X120799000Y-82133000D01*
X120799000Y-82135000D01*
X120798000Y-82138000D01*
X120798000Y-82140000D01*
X120797000Y-82143000D01*
X120796000Y-82145000D01*
X120795000Y-82148000D01*
X120793000Y-82150000D01*
X120792000Y-82152000D01*
X120790000Y-82154000D01*
X120789000Y-82156000D01*
X120787000Y-82158000D01*
X120785000Y-82160000D01*
X120783000Y-82162000D01*
X120781000Y-82164000D01*
X120779000Y-82165000D01*
X120777000Y-82167000D01*
X120775000Y-82168000D01*
X120773000Y-82170000D01*
X120770000Y-82171000D01*
X120768000Y-82172000D01*
X120765000Y-82173000D01*
X120763000Y-82173000D01*
X120760000Y-82174000D01*
X120758000Y-82174000D01*
X120755000Y-82175000D01*
X120753000Y-82175000D01*
X120750000Y-82175000D01*
X120475000Y-82175000D01*
X120472000Y-82175000D01*
X120470000Y-82175000D01*
X120467000Y-82176000D01*
X120465000Y-82176000D01*
X120462000Y-82177000D01*
X120460000Y-82177000D01*
X120457000Y-82178000D01*
X120455000Y-82179000D01*
X120452000Y-82180000D01*
X120450000Y-82182000D01*
X120448000Y-82183000D01*
X120446000Y-82185000D01*
X120444000Y-82186000D01*
X120442000Y-82188000D01*
X120440000Y-82190000D01*
X120438000Y-82192000D01*
X120436000Y-82194000D01*
X120435000Y-82196000D01*
X120433000Y-82198000D01*
X120432000Y-82200000D01*
X120430000Y-82202000D01*
X120429000Y-82205000D01*
X120428000Y-82207000D01*
X120427000Y-82210000D01*
X120427000Y-82212000D01*
X120426000Y-82215000D01*
X120426000Y-82217000D01*
X120425000Y-82220000D01*
X120425000Y-82222000D01*
X120425000Y-82225000D01*
X120425000Y-82500000D01*
X120425000Y-82503000D01*
X120425000Y-82505000D01*
X120424000Y-82508000D01*
X120424000Y-82510000D01*
X120423000Y-82513000D01*
X120423000Y-82515000D01*
X120422000Y-82518000D01*
X120421000Y-82520000D01*
X120420000Y-82523000D01*
X120418000Y-82525000D01*
X120417000Y-82527000D01*
X120415000Y-82529000D01*
X120414000Y-82531000D01*
X120412000Y-82533000D01*
X120410000Y-82535000D01*
X120408000Y-82537000D01*
X120406000Y-82539000D01*
X120404000Y-82540000D01*
X120402000Y-82542000D01*
X120400000Y-82543000D01*
X120398000Y-82545000D01*
X120395000Y-82546000D01*
X120393000Y-82547000D01*
X120390000Y-82548000D01*
X120388000Y-82548000D01*
X120385000Y-82549000D01*
X120383000Y-82549000D01*
X120380000Y-82550000D01*
X120378000Y-82550000D01*
X120375000Y-82550000D01*
X120250000Y-82550000D01*
X120247000Y-82550000D01*
X120245000Y-82550000D01*
X120242000Y-82549000D01*
X120240000Y-82549000D01*
X120237000Y-82548000D01*
X120235000Y-82548000D01*
X120232000Y-82547000D01*
X120230000Y-82546000D01*
X120227000Y-82545000D01*
X120225000Y-82543000D01*
X120223000Y-82542000D01*
X120221000Y-82540000D01*
X120219000Y-82539000D01*
X120217000Y-82537000D01*
X120215000Y-82535000D01*
X120213000Y-82533000D01*
X120211000Y-82531000D01*
X120210000Y-82529000D01*
X120208000Y-82527000D01*
X120207000Y-82525000D01*
X120205000Y-82523000D01*
X120204000Y-82520000D01*
X120203000Y-82518000D01*
X120202000Y-82515000D01*
X120202000Y-82513000D01*
X120201000Y-82510000D01*
X120201000Y-82508000D01*
X120200000Y-82505000D01*
X120200000Y-82503000D01*
X120200000Y-82500000D01*
X120200000Y-81950000D01*
X120200000Y-81947000D01*
X120200000Y-81945000D01*
X120201000Y-81942000D01*
X120201000Y-81940000D01*
X120202000Y-81937000D01*
X120202000Y-81935000D01*
X120203000Y-81932000D01*
X120204000Y-81930000D01*
X120205000Y-81927000D01*
X120207000Y-81925000D01*
X120208000Y-81923000D01*
X120210000Y-81921000D01*
X120211000Y-81919000D01*
X120213000Y-81917000D01*
X120215000Y-81915000D01*
X120217000Y-81913000D01*
X120219000Y-81911000D01*
X120221000Y-81910000D01*
X120223000Y-81908000D01*
X120225000Y-81907000D01*
X120227000Y-81905000D01*
X120230000Y-81904000D01*
X120232000Y-81903000D01*
X120235000Y-81902000D01*
X120237000Y-81902000D01*
X120240000Y-81901000D01*
X120242000Y-81901000D01*
X120245000Y-81900000D01*
X120247000Y-81900000D01*
X120250000Y-81900000D01*
X120750000Y-81900000D01*
X120753000Y-81900000D01*
X120755000Y-81900000D01*
X120758000Y-81901000D01*
G37*
%TD*%
D11*
%TO.C,R44*%
X128950000Y-96687500D03*
X128950000Y-98512500D03*
%TD*%
D12*
%TO.C,C60*%
X143525000Y-87125000D03*
X146475000Y-87125000D03*
%TD*%
D13*
%TO.C,U3*%
X137250000Y-80450001D03*
X137250000Y-79500000D03*
X137250000Y-78549999D03*
X139850000Y-78549999D03*
X139850000Y-80450001D03*
%TD*%
D14*
%TO.C,SMPS2*%
X126988000Y-101237000D03*
X126988000Y-101737000D03*
X126988000Y-102237000D03*
D15*
X126700000Y-102950000D03*
X126200000Y-102950000D03*
D16*
X125700000Y-102800000D03*
D15*
X125200000Y-102950000D03*
D14*
X124912000Y-102237000D03*
D17*
X125213000Y-101737000D03*
D14*
X124912000Y-101237000D03*
D15*
X125200000Y-100524000D03*
D16*
X125700000Y-100674000D03*
D15*
X126200000Y-100524000D03*
X126700000Y-100524000D03*
%TD*%
D18*
%TO.C,C50*%
X141075000Y-103025000D03*
X139525000Y-103025000D03*
%TD*%
D19*
%TO.C,R36*%
X119825000Y-91550000D03*
X118175000Y-91550000D03*
%TD*%
D20*
%TO.C,EF1*%
X118500000Y-93115000D03*
X119000000Y-93115000D03*
X119500000Y-93115000D03*
X120000000Y-93115000D03*
X120000000Y-95085000D03*
X119500000Y-95085000D03*
X119000000Y-95085000D03*
X118500000Y-95085000D03*
%TD*%
D21*
%TO.C,C25*%
X131775000Y-94400000D03*
X128825000Y-94400000D03*
%TD*%
D22*
%TO.C,R47*%
X125062500Y-93550000D03*
X123237500Y-93550000D03*
%TD*%
D23*
%TO.C,C52*%
X158100000Y-97875000D03*
X158100000Y-94925000D03*
%TD*%
D24*
%TO.C,R14*%
X170200000Y-80875000D03*
X170200000Y-82525000D03*
%TD*%
D25*
%TO.C,C92*%
X181625000Y-85250000D03*
X183175000Y-85250000D03*
%TD*%
D26*
%TO.C,C69*%
X154200000Y-94725000D03*
X154200000Y-96275000D03*
%TD*%
D27*
%TO.C,C61*%
X147650000Y-99400000D03*
X147650000Y-97850000D03*
%TD*%
D28*
%TO.C,R5*%
X137175000Y-117700000D03*
X138825000Y-117700000D03*
%TD*%
D29*
%TO.C,R35*%
X118737500Y-88000000D03*
X120562500Y-88000000D03*
%TD*%
D18*
%TO.C,C28*%
X138875000Y-76150000D03*
X137325000Y-76150000D03*
%TD*%
D26*
%TO.C,C56*%
X149000000Y-104525000D03*
X149000000Y-106075000D03*
%TD*%
D30*
%TO.C,U15*%
X154475000Y-82000000D03*
X154475000Y-81050000D03*
X154475000Y-80100000D03*
X156750000Y-80100000D03*
X156750000Y-82000000D03*
%TD*%
D31*
%TO.C,C14*%
X120600000Y-85750000D03*
X118700000Y-85750000D03*
%TD*%
D29*
%TO.C,R45*%
X128750000Y-100650000D03*
X130575000Y-100650000D03*
%TD*%
D19*
%TO.C,R16*%
X187725000Y-79550000D03*
X186075000Y-79550000D03*
%TD*%
D25*
%TO.C,C53*%
X154225000Y-100800000D03*
X155775000Y-100800000D03*
%TD*%
D32*
%TO.C,R30*%
X118500000Y-109112500D03*
X118500000Y-107287500D03*
%TD*%
D33*
%TO.C,ID1*%
X120500000Y-81125000D03*
X120500000Y-81575000D03*
X118700000Y-81575000D03*
X118700000Y-81125000D03*
%TD*%
D28*
%TO.C,R15*%
X120925000Y-78650000D03*
X122575000Y-78650000D03*
%TD*%
D26*
%TO.C,C71*%
X157250000Y-107125000D03*
X157250000Y-108675000D03*
%TD*%
D18*
%TO.C,C67*%
X146575000Y-90900000D03*
X145025000Y-90900000D03*
%TD*%
D27*
%TO.C,C23*%
X131000000Y-98375000D03*
X131000000Y-96825000D03*
%TD*%
%TO.C,C57*%
X153450000Y-106700000D03*
X153450000Y-105150000D03*
%TD*%
D26*
%TO.C,C2*%
X130900000Y-105025000D03*
X130900000Y-106575000D03*
%TD*%
D25*
%TO.C,C93*%
X181625000Y-87050000D03*
X183175000Y-87050000D03*
%TD*%
D34*
%TO.C,C90*%
X178600000Y-95650000D03*
X178600000Y-97550000D03*
%TD*%
D32*
%TO.C,R7*%
X158862500Y-81962500D03*
X158862500Y-80137500D03*
%TD*%
D18*
%TO.C,C3*%
X174975000Y-87900000D03*
X173425000Y-87900000D03*
%TD*%
D35*
%TO.C,D4*%
X118000000Y-76100000D03*
X118000000Y-73200000D03*
%TD*%
D25*
%TO.C,C15*%
X115525000Y-82600000D03*
X117075000Y-82600000D03*
%TD*%
D36*
%TO.C,L1*%
X125700000Y-105625000D03*
X125700000Y-107775000D03*
%TD*%
D32*
%TO.C,R31*%
X112550000Y-109112500D03*
X112550000Y-107287500D03*
%TD*%
D28*
%TO.C,R39*%
X115425000Y-98350000D03*
X117075000Y-98350000D03*
%TD*%
%TO.C,R37*%
X182425000Y-79550000D03*
X184075000Y-79550000D03*
%TD*%
D34*
%TO.C,C13*%
X120600000Y-74100000D03*
X120600000Y-76000000D03*
%TD*%
D12*
%TO.C,C54*%
X155925000Y-104400000D03*
X158875000Y-104400000D03*
%TD*%
D32*
%TO.C,R10*%
X128900000Y-106812500D03*
X128900000Y-104987500D03*
%TD*%
D27*
%TO.C,C64*%
X150000000Y-90950000D03*
X150000000Y-89400000D03*
%TD*%
D18*
%TO.C,C68*%
X147175000Y-102500000D03*
X145625000Y-102500000D03*
%TD*%
D37*
%TO.C,R25*%
X124250000Y-78725000D03*
X124250000Y-77075000D03*
%TD*%
D21*
%TO.C,C22*%
X130150000Y-112800000D03*
X127200000Y-112800000D03*
%TD*%
D18*
%TO.C,C11*%
X142175000Y-98325000D03*
X140625000Y-98325000D03*
%TD*%
D38*
%TO.C,DI2*%
X114587500Y-107262500D03*
X116487500Y-107262500D03*
X115537500Y-109137500D03*
%TD*%
D27*
%TO.C,C16*%
X116950000Y-94875000D03*
X116950000Y-93325000D03*
%TD*%
D19*
%TO.C,R40*%
X117075000Y-96600000D03*
X115425000Y-96600000D03*
%TD*%
D39*
%TO.C,C66*%
X145450000Y-95675000D03*
X147350000Y-95675000D03*
%TD*%
D19*
%TO.C,R32*%
X117125000Y-80650000D03*
X115475000Y-80650000D03*
%TD*%
D27*
%TO.C,C49*%
X151400000Y-99675000D03*
X151400000Y-98125000D03*
%TD*%
D40*
%TO.C,C62*%
X145700000Y-99675000D03*
X145700000Y-97775000D03*
%TD*%
D18*
%TO.C,C55*%
X141075000Y-104800000D03*
X139525000Y-104800000D03*
%TD*%
D31*
%TO.C,C73*%
X141100000Y-106800000D03*
X139200000Y-106800000D03*
%TD*%
D28*
%TO.C,R33*%
X118825000Y-83800000D03*
X120475000Y-83800000D03*
%TD*%
D27*
%TO.C,C74*%
X154200000Y-93075000D03*
X154200000Y-91525000D03*
%TD*%
D28*
%TO.C,R24*%
X122675000Y-80350000D03*
X124325000Y-80350000D03*
%TD*%
D19*
%TO.C,R38*%
X116575000Y-91550000D03*
X114925000Y-91550000D03*
%TD*%
D31*
%TO.C,C10*%
X142250000Y-100275000D03*
X140350000Y-100275000D03*
%TD*%
D18*
%TO.C,C58*%
X147175000Y-104200000D03*
X145625000Y-104200000D03*
%TD*%
D22*
%TO.C,R46*%
X125262500Y-109850000D03*
X123437500Y-109850000D03*
%TD*%
D27*
%TO.C,C59*%
X149650000Y-99700000D03*
X149650000Y-98150000D03*
%TD*%
D18*
%TO.C,C41*%
X148200000Y-117800000D03*
X146650000Y-117800000D03*
%TD*%
D25*
%TO.C,C70*%
X143400000Y-89275000D03*
X144950000Y-89275000D03*
%TD*%
D21*
%TO.C,C21*%
X130150000Y-110050000D03*
X127200000Y-110050000D03*
%TD*%
%TO.C,C24*%
X131775000Y-91700000D03*
X128825000Y-91700000D03*
%TD*%
D37*
%TO.C,R23*%
X177300000Y-83625000D03*
X177300000Y-81975000D03*
%TD*%
D24*
%TO.C,R28*%
X152100000Y-116475000D03*
X152100000Y-118125000D03*
%TD*%
D29*
%TO.C,R43*%
X128737500Y-102900000D03*
X130562500Y-102900000D03*
%TD*%
D41*
%TO.C,C26*%
X122800000Y-97350000D03*
X122800000Y-100300000D03*
%TD*%
D42*
%TO.C,L2*%
X125700000Y-97825000D03*
X125700000Y-95675000D03*
%TD*%
D34*
%TO.C,C31*%
X142000000Y-78562500D03*
X142000000Y-80462500D03*
%TD*%
D27*
%TO.C,C51*%
X155900000Y-97975000D03*
X155900000Y-96425000D03*
%TD*%
D18*
%TO.C,C72*%
X151425000Y-96425000D03*
X149875000Y-96425000D03*
%TD*%
D26*
%TO.C,C17*%
X141150000Y-72975000D03*
X141150000Y-74525000D03*
%TD*%
D28*
%TO.C,R34*%
X122125000Y-83800000D03*
X123775000Y-83800000D03*
%TD*%
D24*
%TO.C,R1*%
X141600000Y-86625000D03*
X141600000Y-88275000D03*
%TD*%
D18*
%TO.C,C12*%
X142175000Y-96575000D03*
X140625000Y-96575000D03*
%TD*%
D34*
%TO.C,C18*%
X135150000Y-78549998D03*
X135150000Y-80449998D03*
%TD*%
D23*
%TO.C,C63*%
X152100000Y-90800000D03*
X152100000Y-87850000D03*
%TD*%
D27*
%TO.C,C8*%
X141350000Y-93925000D03*
X141350000Y-92375000D03*
%TD*%
D23*
%TO.C,C27*%
X122800000Y-106150000D03*
X122800000Y-103200000D03*
%TD*%
D12*
%TO.C,C91*%
X181725000Y-83050000D03*
X184675000Y-83050000D03*
%TD*%
D25*
%TO.C,C65*%
X145425000Y-93725000D03*
X146975000Y-93725000D03*
%TD*%
D26*
%TO.C,C9*%
X149150000Y-73625000D03*
X149150000Y-75175000D03*
%TD*%
M02*
