G04 #@! TF.GenerationSoftware,KiCad,Pcbnew,8.0.6*
G04 #@! TF.CreationDate,2026-05-22T12:08:13-07:00*
G04 #@! TF.ProjectId,ESP32P4C5_Board,45535033-3250-4344-9335-5f426f617264,rev?*
G04 #@! TF.SameCoordinates,Original*
G04 #@! TF.FileFunction,Paste,Top*
G04 #@! TF.FilePolarity,Positive*
%FSLAX46Y46*%
G04 Gerber Fmt 4.6, Leading zero omitted, Abs format (unit mm)*
G04 Created by KiCad (PCBNEW 8.0.6) date 2026-05-22 12:08:13*
%MOMM*%
%LPD*%
G01*
G04 APERTURE LIST*
G04 Aperture macros list*
%AMRoundRect*
0 Rectangle with rounded corners*
0 $1 Rounding radius*
0 $2 $3 $4 $5 $6 $7 $8 $9 X,Y pos of 4 corners*
0 Add a 4 corners polygon primitive as box body*
4,1,4,$2,$3,$4,$5,$6,$7,$8,$9,$2,$3,0*
0 Add four circle primitives for the rounded corners*
1,1,$1+$1,$2,$3*
1,1,$1+$1,$4,$5*
1,1,$1+$1,$6,$7*
1,1,$1+$1,$8,$9*
0 Add four rect primitives between the rounded corners*
20,1,$1+$1,$2,$3,$4,$5,0*
20,1,$1+$1,$4,$5,$6,$7,0*
20,1,$1+$1,$6,$7,$8,$9,0*
20,1,$1+$1,$8,$9,$2,$3,0*%
G04 Aperture macros list end*
%ADD10C,0.010000*%
%ADD11RoundRect,0.250000X-0.615000X0.435000X-0.615000X-0.435000X0.615000X-0.435000X0.615000X0.435000X0*%
%ADD12RoundRect,0.125000X-0.125000X0.200000X-0.125000X-0.200000X0.125000X-0.200000X0.125000X0.200000X0*%
%ADD13R,4.300000X1.450000*%
%ADD14R,4.300000X1.300000*%
%ADD15R,1.397000X0.558800*%
%ADD16RoundRect,0.225000X-0.250000X0.225000X-0.250000X-0.225000X0.250000X-0.225000X0.250000X0.225000X0*%
%ADD17RoundRect,0.150000X-0.825000X-0.150000X0.825000X-0.150000X0.825000X0.150000X-0.825000X0.150000X0*%
%ADD18O,0.180000X0.650000*%
%ADD19O,0.650000X0.180000*%
%ADD20RoundRect,0.225000X0.250000X-0.225000X0.250000X0.225000X-0.250000X0.225000X-0.250000X-0.225000X0*%
%ADD21R,0.500000X0.400000*%
%ADD22R,0.500000X0.300000*%
%ADD23RoundRect,0.225000X-0.225000X-0.250000X0.225000X-0.250000X0.225000X0.250000X-0.225000X0.250000X0*%
%ADD24RoundRect,0.150000X0.512500X0.150000X-0.512500X0.150000X-0.512500X-0.150000X0.512500X-0.150000X0*%
%ADD25RoundRect,0.200000X0.275000X-0.200000X0.275000X0.200000X-0.275000X0.200000X-0.275000X-0.200000X0*%
%ADD26R,1.450000X0.600000*%
%ADD27R,1.450000X0.300000*%
%ADD28RoundRect,0.250000X-0.475000X0.337500X-0.475000X-0.337500X0.475000X-0.337500X0.475000X0.337500X0*%
%ADD29RoundRect,0.150000X-0.650000X-0.150000X0.650000X-0.150000X0.650000X0.150000X-0.650000X0.150000X0*%
%ADD30RoundRect,0.200000X-0.200000X-0.275000X0.200000X-0.275000X0.200000X0.275000X-0.200000X0.275000X0*%
%ADD31RoundRect,0.225000X-0.475000X-0.225000X0.475000X-0.225000X0.475000X0.225000X-0.475000X0.225000X0*%
%ADD32R,0.736600X0.609600*%
%ADD33RoundRect,0.150000X-0.512500X-0.150000X0.512500X-0.150000X0.512500X0.150000X-0.512500X0.150000X0*%
%ADD34RoundRect,0.225000X0.225000X0.250000X-0.225000X0.250000X-0.225000X-0.250000X0.225000X-0.250000X0*%
%ADD35RoundRect,0.250000X-0.262500X-0.450000X0.262500X-0.450000X0.262500X0.450000X-0.262500X0.450000X0*%
%ADD36RoundRect,0.250000X-0.450000X0.262500X-0.450000X-0.262500X0.450000X-0.262500X0.450000X0.262500X0*%
%ADD37RoundRect,0.225000X-0.225000X0.475000X-0.225000X-0.475000X0.225000X-0.475000X0.225000X0.475000X0*%
%ADD38R,2.500000X1.500000*%
%ADD39R,1.500000X0.350000*%
%ADD40RoundRect,0.250000X0.450000X-0.262500X0.450000X0.262500X-0.450000X0.262500X-0.450000X-0.262500X0*%
%ADD41R,0.300000X0.800000*%
%ADD42R,0.950000X1.000000*%
%ADD43R,0.400000X0.500000*%
%ADD44R,0.300000X0.500000*%
%ADD45RoundRect,0.200000X-0.275000X0.200000X-0.275000X-0.200000X0.275000X-0.200000X0.275000X0.200000X0*%
%ADD46R,0.889000X0.330200*%
%ADD47RoundRect,0.150000X-0.587500X-0.150000X0.587500X-0.150000X0.587500X0.150000X-0.587500X0.150000X0*%
%ADD48R,1.400000X1.200000*%
%ADD49R,0.304800X1.000000*%
%ADD50R,0.965200X1.016000*%
%ADD51RoundRect,0.218750X0.256250X-0.218750X0.256250X0.218750X-0.256250X0.218750X-0.256250X-0.218750X0*%
%ADD52RoundRect,0.250000X-0.650000X1.000000X-0.650000X-1.000000X0.650000X-1.000000X0.650000X1.000000X0*%
%ADD53R,0.200000X0.800000*%
%ADD54R,0.800000X0.200000*%
%ADD55R,4.750000X4.750000*%
%ADD56RoundRect,0.218750X0.218750X0.256250X-0.218750X0.256250X-0.218750X-0.256250X0.218750X-0.256250X0*%
%ADD57R,0.800000X0.300000*%
%ADD58R,1.000000X0.950000*%
%ADD59RoundRect,0.250000X-0.650000X0.325000X-0.650000X-0.325000X0.650000X-0.325000X0.650000X0.325000X0*%
%ADD60RoundRect,0.250000X1.000000X0.650000X-1.000000X0.650000X-1.000000X-0.650000X1.000000X-0.650000X0*%
%ADD61RoundRect,0.250000X0.650000X-0.325000X0.650000X0.325000X-0.650000X0.325000X-0.650000X-0.325000X0*%
%ADD62R,1.300000X1.600000*%
%ADD63R,1.500000X0.650000*%
%ADD64R,1.295400X3.149600*%
G04 APERTURE END LIST*
D10*
X148115000Y-92365000D02*
X146535000Y-92365000D01*
X146535000Y-90785000D01*
X148115000Y-90785000D01*
X148115000Y-92365000D01*
G36*
X148115000Y-92365000D02*
G01*
X146535000Y-92365000D01*
X146535000Y-90785000D01*
X148115000Y-90785000D01*
X148115000Y-92365000D01*
G37*
X148115000Y-94865000D02*
X146535000Y-94865000D01*
X146535000Y-93285000D01*
X148115000Y-93285000D01*
X148115000Y-94865000D01*
G36*
X148115000Y-94865000D02*
G01*
X146535000Y-94865000D01*
X146535000Y-93285000D01*
X148115000Y-93285000D01*
X148115000Y-94865000D01*
G37*
X148115000Y-97365000D02*
X146535000Y-97365000D01*
X146535000Y-95785000D01*
X148115000Y-95785000D01*
X148115000Y-97365000D01*
G36*
X148115000Y-97365000D02*
G01*
X146535000Y-97365000D01*
X146535000Y-95785000D01*
X148115000Y-95785000D01*
X148115000Y-97365000D01*
G37*
X150615000Y-92365000D02*
X149035000Y-92365000D01*
X149035000Y-90785000D01*
X150615000Y-90785000D01*
X150615000Y-92365000D01*
G36*
X150615000Y-92365000D02*
G01*
X149035000Y-92365000D01*
X149035000Y-90785000D01*
X150615000Y-90785000D01*
X150615000Y-92365000D01*
G37*
X150615000Y-94865000D02*
X149035000Y-94865000D01*
X149035000Y-93285000D01*
X150615000Y-93285000D01*
X150615000Y-94865000D01*
G36*
X150615000Y-94865000D02*
G01*
X149035000Y-94865000D01*
X149035000Y-93285000D01*
X150615000Y-93285000D01*
X150615000Y-94865000D01*
G37*
X150615000Y-97365000D02*
X149035000Y-97365000D01*
X149035000Y-95785000D01*
X150615000Y-95785000D01*
X150615000Y-97365000D01*
G36*
X150615000Y-97365000D02*
G01*
X149035000Y-97365000D01*
X149035000Y-95785000D01*
X150615000Y-95785000D01*
X150615000Y-97365000D01*
G37*
X153115000Y-92365000D02*
X151535000Y-92365000D01*
X151535000Y-90785000D01*
X153115000Y-90785000D01*
X153115000Y-92365000D01*
G36*
X153115000Y-92365000D02*
G01*
X151535000Y-92365000D01*
X151535000Y-90785000D01*
X153115000Y-90785000D01*
X153115000Y-92365000D01*
G37*
X153115000Y-97365000D02*
X151535000Y-97365000D01*
X151535000Y-95785000D01*
X153115000Y-95785000D01*
X153115000Y-97365000D01*
G36*
X153115000Y-97365000D02*
G01*
X151535000Y-97365000D01*
X151535000Y-95785000D01*
X153115000Y-95785000D01*
X153115000Y-97365000D01*
G37*
X153155000Y-94865000D02*
X151575000Y-94865000D01*
X151575000Y-93285000D01*
X153155000Y-93285000D01*
X153155000Y-94865000D01*
G36*
X153155000Y-94865000D02*
G01*
X151575000Y-94865000D01*
X151575000Y-93285000D01*
X153155000Y-93285000D01*
X153155000Y-94865000D01*
G37*
D11*
X140350000Y-89700000D03*
X138200000Y-89700000D03*
X140350000Y-91400000D03*
X138200000Y-91400000D03*
D12*
X141180000Y-86800000D03*
X139910000Y-86800000D03*
X138640000Y-86800000D03*
X137370000Y-86800000D03*
X137370000Y-94300000D03*
X138640000Y-94300000D03*
X139910000Y-94300000D03*
X141180000Y-94300000D03*
D13*
X197350000Y-86975000D03*
X197400800Y-92625000D03*
D14*
X197350000Y-89800000D03*
D15*
X141204300Y-75955000D03*
X141204300Y-74685000D03*
X141204300Y-73415000D03*
X141204300Y-72145000D03*
X135895700Y-72145000D03*
X135895700Y-73415000D03*
X135895700Y-74685000D03*
X135895700Y-75955000D03*
D16*
X189550000Y-101450000D03*
X189550000Y-103000000D03*
D17*
X215700000Y-114490000D03*
X215700000Y-115760000D03*
X215700000Y-117030000D03*
X215700000Y-118300000D03*
X220650000Y-118300000D03*
X220650000Y-117030000D03*
X220650000Y-115760000D03*
X220650000Y-114490000D03*
D18*
X154200000Y-89150000D03*
X153850000Y-89150000D03*
X153500000Y-89150000D03*
X153150000Y-89150000D03*
X152800000Y-89150000D03*
X152450000Y-89150000D03*
X152100000Y-89150000D03*
X151750000Y-89150000D03*
X151400000Y-89150000D03*
X151050000Y-89150000D03*
X150700000Y-89150000D03*
X150350000Y-89150000D03*
X150000000Y-89150000D03*
X149650000Y-89150000D03*
X149300000Y-89150000D03*
X148950000Y-89150000D03*
X148600000Y-89150000D03*
X148250000Y-89150000D03*
X147900000Y-89150000D03*
X147550000Y-89150000D03*
X147200000Y-89150000D03*
X146850000Y-89150000D03*
X146500000Y-89150000D03*
X146150000Y-89150000D03*
X145800000Y-89150000D03*
X145450000Y-89150000D03*
D19*
X144900000Y-89700000D03*
X144900000Y-90050000D03*
X144900000Y-90400000D03*
X144900000Y-90750000D03*
X144900000Y-91100000D03*
X144900000Y-91450000D03*
X144900000Y-91800000D03*
X144900000Y-92150000D03*
X144900000Y-92500000D03*
X144900000Y-92850000D03*
X144900000Y-93200000D03*
X144900000Y-93550000D03*
X144900000Y-93900000D03*
X144900000Y-94250000D03*
X144900000Y-94600000D03*
X144900000Y-94950000D03*
X144900000Y-95300000D03*
X144900000Y-95650000D03*
X144900000Y-96000000D03*
X144900000Y-96350000D03*
X144900000Y-96700000D03*
X144900000Y-97050000D03*
X144900000Y-97400000D03*
X144900000Y-97750000D03*
X144900000Y-98100000D03*
X144900000Y-98450000D03*
D18*
X145450000Y-99000000D03*
X145800000Y-99000000D03*
X146150000Y-99000000D03*
X146500000Y-99000000D03*
X146850000Y-99000000D03*
X147200000Y-99000000D03*
X147550000Y-99000000D03*
X147900000Y-99000000D03*
X148250000Y-99000000D03*
X148600000Y-99000000D03*
X148950000Y-99000000D03*
X149300000Y-99000000D03*
X149650000Y-99000000D03*
X150000000Y-99000000D03*
X150350000Y-99000000D03*
X150700000Y-99000000D03*
X151050000Y-99000000D03*
X151400000Y-99000000D03*
X151750000Y-99000000D03*
X152100000Y-99000000D03*
X152450000Y-99000000D03*
X152800000Y-99000000D03*
X153150000Y-99000000D03*
X153500000Y-99000000D03*
X153850000Y-99000000D03*
X154200000Y-99000000D03*
D19*
X154750000Y-98450000D03*
X154750000Y-98100000D03*
X154750000Y-97750000D03*
X154750000Y-97400000D03*
X154750000Y-97050000D03*
X154750000Y-96700000D03*
X154750000Y-96350000D03*
X154750000Y-96000000D03*
X154750000Y-95650000D03*
X154750000Y-95300000D03*
X154750000Y-94950000D03*
X154750000Y-94600000D03*
X154750000Y-94250000D03*
X154750000Y-93900000D03*
X154750000Y-93550000D03*
X154750000Y-93200000D03*
X154750000Y-92850000D03*
X154750000Y-92500000D03*
X154750000Y-92150000D03*
X154750000Y-91800000D03*
X154750000Y-91450000D03*
X154750000Y-91100000D03*
X154750000Y-90750000D03*
X154750000Y-90400000D03*
X154750000Y-90050000D03*
X154750000Y-89700000D03*
D20*
X185500000Y-87115000D03*
X185500000Y-85565000D03*
D21*
X161000000Y-101600000D03*
D22*
X161000000Y-102100000D03*
X161000000Y-102600000D03*
D21*
X161000000Y-103100000D03*
X162000000Y-103100000D03*
D22*
X162000000Y-102600000D03*
X162000000Y-102100000D03*
D21*
X162000000Y-101600000D03*
D16*
X185650000Y-97575000D03*
X185650000Y-99125000D03*
D23*
X191975000Y-110600000D03*
X193525000Y-110600000D03*
D24*
X113725000Y-85250000D03*
X113725000Y-84300000D03*
X113725000Y-83350000D03*
X111450000Y-83350000D03*
X111450000Y-84300000D03*
X111450000Y-85250000D03*
D25*
X143200000Y-102475000D03*
X143200000Y-100825000D03*
D26*
X107695000Y-81070000D03*
X107695000Y-81870000D03*
D27*
X107695000Y-83070000D03*
X107695000Y-84070000D03*
X107695000Y-84570000D03*
X107695000Y-85570000D03*
D26*
X107695000Y-86770000D03*
X107695000Y-87570000D03*
X107695000Y-87570000D03*
X107695000Y-86770000D03*
D27*
X107695000Y-86070000D03*
X107695000Y-85070000D03*
X107695000Y-83570000D03*
X107695000Y-82570000D03*
D26*
X107695000Y-81870000D03*
X107695000Y-81070000D03*
D23*
X185450000Y-90900000D03*
X187000000Y-90900000D03*
D28*
X187800000Y-97562500D03*
X187800000Y-99637500D03*
D29*
X170800000Y-98417598D03*
X170800000Y-99687598D03*
X170800000Y-100957598D03*
X170800000Y-102227598D03*
X178000000Y-102227598D03*
X178000000Y-100957598D03*
X178000000Y-99687598D03*
X178000000Y-98417598D03*
D30*
X157275000Y-92800000D03*
X158925000Y-92800000D03*
D31*
X200660000Y-135250000D03*
X197060000Y-135250000D03*
X200660000Y-136550000D03*
X197060000Y-136550000D03*
D32*
X172589900Y-95100000D03*
X172589900Y-93830000D03*
X172589900Y-92560000D03*
X172589900Y-91290000D03*
X172589900Y-90020000D03*
X169110100Y-90020000D03*
X169110100Y-91290000D03*
X169110100Y-92560000D03*
X169110100Y-93830000D03*
X169110100Y-95100000D03*
D33*
X122262500Y-82450000D03*
X122262500Y-83400000D03*
X122262500Y-84350000D03*
X124537500Y-84350000D03*
X124537500Y-82450000D03*
D34*
X139875000Y-77775000D03*
X138325000Y-77775000D03*
D35*
X215242500Y-108615000D03*
X217067500Y-108615000D03*
X111987500Y-108700000D03*
X113812500Y-108700000D03*
D25*
X168600000Y-102497598D03*
X168600000Y-100847598D03*
D36*
X174262500Y-78287500D03*
X174262500Y-80112500D03*
D16*
X190500000Y-87075000D03*
X190500000Y-88625000D03*
D37*
X197300000Y-110650000D03*
X197300000Y-107050000D03*
X196000000Y-110650000D03*
X196000000Y-107050000D03*
D20*
X155550000Y-87675000D03*
X155550000Y-86125000D03*
D36*
X126650000Y-82487500D03*
X126650000Y-84312500D03*
D38*
X125099999Y-101950000D03*
X125099999Y-88050000D03*
D39*
X128200000Y-100250000D03*
X128200000Y-99750000D03*
X128200000Y-99250000D03*
X128200000Y-98750000D03*
X128200000Y-98250000D03*
X128200000Y-97750000D03*
X128200000Y-97250001D03*
X128200000Y-96750000D03*
X128200000Y-96250000D03*
X128200000Y-95750000D03*
X128200000Y-95250000D03*
X128200000Y-94750001D03*
X128200000Y-94250000D03*
X128200000Y-93750000D03*
X128200000Y-93250000D03*
X128200000Y-92750000D03*
X128200000Y-92250001D03*
X128200000Y-91750000D03*
X128200000Y-91250000D03*
X128200000Y-90750000D03*
X128200000Y-90250000D03*
X128200000Y-89750001D03*
D20*
X178400000Y-83225000D03*
X178400000Y-81675000D03*
D35*
X112037500Y-87300000D03*
X113862500Y-87300000D03*
D23*
X184175000Y-100850000D03*
X185725000Y-100850000D03*
D20*
X146100000Y-124875000D03*
X146100000Y-123325000D03*
D35*
X203275000Y-65600000D03*
X205100000Y-65600000D03*
D40*
X108900000Y-77700000D03*
X108900000Y-75875000D03*
D35*
X215242500Y-111565000D03*
X217067500Y-111565000D03*
D41*
X175750000Y-114750000D03*
X176250000Y-114750000D03*
X176750000Y-114750000D03*
X177250000Y-114750000D03*
X177750000Y-114750000D03*
X178250000Y-114750000D03*
X178750000Y-114750000D03*
X179250000Y-114750000D03*
X179750000Y-114750000D03*
X180250000Y-114750000D03*
X180750000Y-114750000D03*
X181250000Y-114750000D03*
X181750000Y-114750000D03*
X182250000Y-114750000D03*
X182750000Y-114750000D03*
X183250000Y-114750000D03*
X183750000Y-114750000D03*
X184250000Y-114750000D03*
X184750000Y-114750000D03*
X185250000Y-114750000D03*
X185750000Y-114750000D03*
X186250000Y-114750000D03*
X186750000Y-114750000D03*
X187250000Y-114750000D03*
X187750000Y-114750000D03*
X188250000Y-114750000D03*
X188750000Y-114750000D03*
X189250000Y-114750000D03*
X189750000Y-114750000D03*
X190250000Y-114750000D03*
D42*
X174525000Y-117450000D03*
X191475000Y-117450000D03*
D43*
X145900000Y-105650000D03*
D44*
X146400000Y-105650000D03*
X146900000Y-105650000D03*
D43*
X147400000Y-105650000D03*
X147400000Y-104650000D03*
D44*
X146900000Y-104650000D03*
X146400000Y-104650000D03*
D43*
X145900000Y-104650000D03*
D45*
X134950000Y-112550000D03*
X134950000Y-114200000D03*
D30*
X157275000Y-91100000D03*
X158925000Y-91100000D03*
D43*
X152150000Y-84150000D03*
D44*
X151650000Y-84150000D03*
X151150000Y-84150000D03*
D43*
X150650000Y-84150000D03*
X150650000Y-85150000D03*
D44*
X151150000Y-85150000D03*
X151650000Y-85150000D03*
D43*
X152150000Y-85150000D03*
D20*
X190450000Y-92625000D03*
X190450000Y-91075000D03*
D21*
X162000000Y-105950000D03*
D22*
X162000000Y-105450000D03*
X162000000Y-104950000D03*
D21*
X162000000Y-104450000D03*
X161000000Y-104450000D03*
D22*
X161000000Y-104950000D03*
X161000000Y-105450000D03*
D21*
X161000000Y-105950000D03*
D46*
X194030001Y-90449999D03*
X194030001Y-89800000D03*
X194030001Y-89150001D03*
X192369999Y-89150001D03*
X192369999Y-89800000D03*
X192369999Y-90449999D03*
D23*
X201250000Y-139700000D03*
X202800000Y-139700000D03*
D20*
X188750000Y-90925000D03*
X188750000Y-89375000D03*
D47*
X215457500Y-121070000D03*
X215457500Y-122970000D03*
X217332500Y-122020000D03*
D16*
X153600000Y-101825000D03*
X153600000Y-103375000D03*
D25*
X138450000Y-101375000D03*
X138450000Y-99725000D03*
D48*
X137650000Y-81375000D03*
X139850000Y-81375000D03*
X139850000Y-79675000D03*
X137650000Y-79675000D03*
D35*
X111987500Y-102700000D03*
X113812500Y-102700000D03*
D49*
X140349999Y-114898200D03*
X140850001Y-114898200D03*
X141350000Y-114898200D03*
X141849999Y-114898200D03*
X142350000Y-114898200D03*
X142850000Y-114898200D03*
X143350001Y-114898200D03*
X143850000Y-114898200D03*
X144349999Y-114898200D03*
X144850001Y-114898200D03*
D50*
X146549700Y-117590600D03*
X138650300Y-117590600D03*
D33*
X169775000Y-78200000D03*
X169775000Y-79150000D03*
X169775000Y-80100000D03*
X172050000Y-80100000D03*
X172050000Y-78200000D03*
D25*
X133950000Y-74875000D03*
X133950000Y-73225000D03*
D16*
X184600000Y-81675000D03*
X184600000Y-83225000D03*
D51*
X180400000Y-86837500D03*
X180400000Y-85262500D03*
D52*
X111300000Y-95500000D03*
X111300000Y-99500000D03*
D25*
X152000000Y-60900000D03*
X152000000Y-59250000D03*
D53*
X182000000Y-89450000D03*
X181600000Y-89450000D03*
X181200000Y-89450000D03*
X180800000Y-89450000D03*
X180400000Y-89450000D03*
X180000000Y-89450000D03*
X179600000Y-89450000D03*
X179200000Y-89450000D03*
X178800000Y-89450000D03*
X178400000Y-89450000D03*
X178000000Y-89450000D03*
X177600000Y-89450000D03*
D54*
X176850000Y-90200000D03*
X176850000Y-90600000D03*
X176850000Y-91000000D03*
X176850000Y-91400000D03*
X176850000Y-91800000D03*
X176850000Y-92200000D03*
X176850000Y-92600000D03*
X176850000Y-93000000D03*
X176850000Y-93400000D03*
X176850000Y-93800000D03*
X176850000Y-94200000D03*
X176850000Y-94600000D03*
D53*
X177600000Y-95350000D03*
X178000000Y-95350000D03*
X178400000Y-95350000D03*
X178800000Y-95350000D03*
X179200000Y-95350000D03*
X179600000Y-95350000D03*
X180000000Y-95350000D03*
X180400000Y-95350000D03*
X180800000Y-95350000D03*
X181200000Y-95350000D03*
X181600000Y-95350000D03*
X182000000Y-95350000D03*
D54*
X182750000Y-94600000D03*
X182750000Y-94200000D03*
X182750000Y-93800000D03*
X182750000Y-93400000D03*
X182750000Y-93000000D03*
X182750000Y-92600000D03*
X182750000Y-92200000D03*
X182750000Y-91800000D03*
X182750000Y-91400000D03*
X182750000Y-91000000D03*
X182750000Y-90600000D03*
X182750000Y-90200000D03*
D55*
X179800000Y-92400000D03*
D16*
X185450000Y-92600000D03*
X185450000Y-94150000D03*
D31*
X144000000Y-122950000D03*
X140400000Y-122950000D03*
X144000000Y-124250000D03*
X140400000Y-124250000D03*
D23*
X161025000Y-86850000D03*
X162575000Y-86850000D03*
D56*
X188712500Y-92600000D03*
X187137500Y-92600000D03*
X188787500Y-87100000D03*
X187212500Y-87100000D03*
D26*
X107695000Y-102460000D03*
X107695000Y-103260000D03*
D27*
X107695000Y-104460000D03*
X107695000Y-105460000D03*
X107695000Y-105960000D03*
X107695000Y-106960000D03*
D26*
X107695000Y-108160000D03*
X107695000Y-108960000D03*
X107695000Y-108960000D03*
X107695000Y-108160000D03*
D27*
X107695000Y-107460000D03*
X107695000Y-106460000D03*
X107695000Y-104960000D03*
X107695000Y-103960000D03*
D26*
X107695000Y-103260000D03*
X107695000Y-102460000D03*
D16*
X187800000Y-101450000D03*
X187800000Y-103000000D03*
D57*
X158350000Y-53900000D03*
X158350000Y-53400000D03*
X158350000Y-52900000D03*
X158350000Y-52400000D03*
X158350000Y-51900000D03*
X158350000Y-51400000D03*
X158350000Y-50900000D03*
X158350000Y-50400000D03*
X158350000Y-49900000D03*
X158350000Y-49400000D03*
X158350000Y-48900000D03*
X158350000Y-48400000D03*
X158350000Y-47900000D03*
X158350000Y-47400000D03*
X158350000Y-46900000D03*
X158350000Y-46400000D03*
X158350000Y-45900000D03*
X158350000Y-45400000D03*
X158350000Y-44900000D03*
X158350000Y-44400000D03*
X158350000Y-43900000D03*
X158350000Y-43400000D03*
X158350000Y-42900000D03*
X158350000Y-42400000D03*
X158350000Y-41900000D03*
X158350000Y-41400000D03*
X158350000Y-40900000D03*
X158350000Y-40400000D03*
X158350000Y-39900000D03*
X158350000Y-39400000D03*
D58*
X161050000Y-55125000D03*
X161050000Y-38175000D03*
D59*
X191700000Y-101475000D03*
X191700000Y-104425000D03*
D60*
X115100000Y-90700000D03*
X111100000Y-90700000D03*
D20*
X164850000Y-92325000D03*
X164850000Y-90775000D03*
D23*
X157325000Y-89400000D03*
X158875000Y-89400000D03*
D49*
X152749999Y-114898200D03*
X153250001Y-114898200D03*
X153750000Y-114898200D03*
X154249999Y-114898200D03*
X154750000Y-114898200D03*
X155250000Y-114898200D03*
X155750001Y-114898200D03*
X156250000Y-114898200D03*
X156749999Y-114898200D03*
X157250001Y-114898200D03*
D50*
X158949700Y-117590600D03*
X151050300Y-117590600D03*
D35*
X203275000Y-68550000D03*
X205100000Y-68550000D03*
D61*
X158400000Y-87575000D03*
X158400000Y-84625000D03*
D45*
X194250000Y-103075000D03*
X194250000Y-104725000D03*
D62*
X160900000Y-89050000D03*
X160900000Y-92350000D03*
X162900000Y-92350000D03*
X162900000Y-89050000D03*
D24*
X113725000Y-106650000D03*
X113725000Y-105700000D03*
X113725000Y-104750000D03*
X111450000Y-104750000D03*
X111450000Y-105700000D03*
X111450000Y-106650000D03*
D45*
X196100000Y-103075000D03*
X196100000Y-104725000D03*
D63*
X143650000Y-73540000D03*
X143650000Y-74810000D03*
X143650000Y-76080000D03*
X143650000Y-77350000D03*
X143650000Y-78620000D03*
X143650000Y-79890000D03*
X143650000Y-81160000D03*
X149050000Y-81160000D03*
X149050000Y-79890000D03*
X149050000Y-78620000D03*
X149050000Y-77350000D03*
X149050000Y-76080000D03*
X149050000Y-74810000D03*
X149050000Y-73540000D03*
D20*
X178450000Y-86450000D03*
X178450000Y-84900000D03*
D43*
X148750000Y-105650000D03*
D44*
X149250000Y-105650000D03*
X149750000Y-105650000D03*
D43*
X150250000Y-105650000D03*
X150250000Y-104650000D03*
D44*
X149750000Y-104650000D03*
X149250000Y-104650000D03*
D43*
X148750000Y-104650000D03*
D25*
X144950000Y-102475000D03*
X144950000Y-100825000D03*
D64*
X132554500Y-113300000D03*
X124045500Y-113300000D03*
D49*
X165049999Y-114898200D03*
X165550001Y-114898200D03*
X166050000Y-114898200D03*
X166549999Y-114898200D03*
X167050000Y-114898200D03*
X167550000Y-114898200D03*
X168050001Y-114898200D03*
X168550000Y-114898200D03*
X169049999Y-114898200D03*
X169550001Y-114898200D03*
D50*
X171249700Y-117590600D03*
X163350300Y-117590600D03*
D20*
X176650000Y-86425000D03*
X176650000Y-84875000D03*
D35*
X196902500Y-139920000D03*
X198727500Y-139920000D03*
D48*
X180400000Y-83450000D03*
X182600000Y-83450000D03*
X182600000Y-81850000D03*
X180400000Y-81850000D03*
D23*
X185475000Y-88800000D03*
X187025000Y-88800000D03*
D20*
X135650000Y-81400000D03*
X135650000Y-79850000D03*
X151100000Y-73375000D03*
X151100000Y-71825000D03*
M02*
