G04 #@! TF.GenerationSoftware,KiCad,Pcbnew,8.0.6*
G04 #@! TF.CreationDate,2026-05-12T15:56:38-07:00*
G04 #@! TF.ProjectId,ESP32P4C5_Board,45535033-3250-4344-9335-5f426f617264,rev?*
G04 #@! TF.SameCoordinates,Original*
G04 #@! TF.FileFunction,Copper,L3,Inr*
G04 #@! TF.FilePolarity,Positive*
%FSLAX46Y46*%
G04 Gerber Fmt 4.6, Leading zero omitted, Abs format (unit mm)*
G04 Created by KiCad (PCBNEW 8.0.6) date 2026-05-12 15:56:38*
%MOMM*%
%LPD*%
G01*
G04 APERTURE LIST*
G04 #@! TA.AperFunction,ComponentPad*
%ADD10C,6.400000*%
G04 #@! TD*
G04 #@! TA.AperFunction,ComponentPad*
%ADD11O,2.100000X1.000000*%
G04 #@! TD*
G04 #@! TA.AperFunction,ComponentPad*
%ADD12O,1.600000X1.000000*%
G04 #@! TD*
G04 #@! TA.AperFunction,ComponentPad*
%ADD13R,1.700000X1.700000*%
G04 #@! TD*
G04 #@! TA.AperFunction,ComponentPad*
%ADD14O,1.700000X1.700000*%
G04 #@! TD*
G04 #@! TA.AperFunction,ComponentPad*
%ADD15R,1.650000X1.650000*%
G04 #@! TD*
G04 #@! TA.AperFunction,ComponentPad*
%ADD16C,1.650000*%
G04 #@! TD*
G04 #@! TA.AperFunction,ComponentPad*
%ADD17C,0.400000*%
G04 #@! TD*
G04 #@! TA.AperFunction,ViaPad*
%ADD18C,0.450000*%
G04 #@! TD*
G04 #@! TA.AperFunction,ViaPad*
%ADD19C,0.500000*%
G04 #@! TD*
G04 #@! TA.AperFunction,ViaPad*
%ADD20C,0.700000*%
G04 #@! TD*
G04 APERTURE END LIST*
D10*
X104000000Y-74000000D03*
D11*
X106780000Y-80000000D03*
D12*
X102600000Y-80000000D03*
D11*
X106780000Y-88640000D03*
D12*
X102600000Y-88640000D03*
D13*
X226350000Y-37925000D03*
D14*
X228890000Y-37925000D03*
X226350000Y-40465000D03*
X228890000Y-40465000D03*
X226350000Y-43005000D03*
X228890000Y-43005000D03*
X226350000Y-45545000D03*
X228890000Y-45545000D03*
X226350000Y-48085000D03*
X228890000Y-48085000D03*
D13*
X132000000Y-126100000D03*
D14*
X132000000Y-128640000D03*
X129460000Y-126100000D03*
X129460000Y-128640000D03*
X126920000Y-126100000D03*
X126920000Y-128640000D03*
D13*
X174640000Y-77040000D03*
D14*
X174640000Y-74500000D03*
X177180000Y-77040000D03*
X177180000Y-74500000D03*
X179720000Y-77040000D03*
X179720000Y-74500000D03*
X182260000Y-77040000D03*
X182260000Y-74500000D03*
X184800000Y-77040000D03*
X184800000Y-74500000D03*
X187340000Y-77040000D03*
X187340000Y-74500000D03*
X189880000Y-77040000D03*
X189880000Y-74500000D03*
D10*
X196000000Y-74000000D03*
D15*
X118000000Y-78450000D03*
D16*
X115500000Y-78450000D03*
X113000000Y-78450000D03*
D13*
X139850000Y-77150000D03*
D14*
X139850000Y-74610000D03*
X142390000Y-77150000D03*
X142390000Y-74610000D03*
X144930000Y-77150000D03*
X144930000Y-74610000D03*
D10*
X196000000Y-116000000D03*
D11*
X106780000Y-101390000D03*
D12*
X102600000Y-101390000D03*
D11*
X106780000Y-110030000D03*
D12*
X102600000Y-110030000D03*
D13*
X118100000Y-112300000D03*
D14*
X118100000Y-114840000D03*
X115560000Y-112300000D03*
X115560000Y-114840000D03*
X113020000Y-112300000D03*
X113020000Y-114840000D03*
D10*
X104000000Y-116000000D03*
D13*
X152125000Y-77100000D03*
D14*
X152125000Y-74560000D03*
X154665000Y-77100000D03*
X154665000Y-74560000D03*
X157205000Y-77100000D03*
X157205000Y-74560000D03*
X159745000Y-77100000D03*
X159745000Y-74560000D03*
X162285000Y-77100000D03*
X162285000Y-74560000D03*
X164825000Y-77100000D03*
X164825000Y-74560000D03*
X167365000Y-77100000D03*
X167365000Y-74560000D03*
D17*
X118700000Y-94100000D03*
X119800000Y-94100000D03*
D18*
X199400000Y-91100000D03*
X196370000Y-91100000D03*
X197500000Y-91100000D03*
X195310000Y-91120000D03*
X198600000Y-91100000D03*
X199400000Y-88500000D03*
X193000000Y-89800000D03*
D19*
X191950000Y-94350000D03*
X191950000Y-93100000D03*
X195600000Y-95750000D03*
D18*
X186850000Y-85900000D03*
D19*
X189400000Y-96050000D03*
D20*
X172550000Y-102272598D03*
D18*
X151050000Y-98300000D03*
X184300000Y-93250000D03*
D19*
X199000000Y-94500000D03*
X188150000Y-93900000D03*
D18*
X191350000Y-89800000D03*
X193750000Y-88600000D03*
D19*
X194300000Y-94300000D03*
X194300000Y-91800000D03*
D18*
X193050000Y-93100000D03*
X189800000Y-89800000D03*
D19*
X197850000Y-95750000D03*
D18*
X198600000Y-88500000D03*
X179350000Y-81850000D03*
X154000000Y-97200000D03*
D19*
X194250000Y-83950000D03*
X194250000Y-87700000D03*
D20*
X178100000Y-94100000D03*
D18*
X174350000Y-86400000D03*
X184300000Y-86750000D03*
D19*
X193050000Y-91850000D03*
X182850000Y-89200000D03*
D18*
X149350000Y-98250000D03*
X195450000Y-83900000D03*
X174050000Y-93950000D03*
X154050000Y-91600000D03*
X145700000Y-89900000D03*
X154450000Y-100650000D03*
X171250000Y-84200000D03*
D20*
X181500000Y-94100000D03*
D19*
X188000000Y-84800000D03*
X198850000Y-85150000D03*
X191950000Y-95600000D03*
D18*
X172250000Y-84950000D03*
D19*
X193100000Y-86450000D03*
D18*
X182450000Y-88250000D03*
D19*
X192000000Y-85200000D03*
X184300000Y-85600000D03*
D18*
X189600000Y-88600000D03*
D19*
X188150000Y-95000000D03*
X197700000Y-83900000D03*
D18*
X192000000Y-86450000D03*
X189400000Y-95000000D03*
X150600000Y-89900000D03*
X144900000Y-88600000D03*
X152200000Y-89900000D03*
D19*
X194250000Y-85200000D03*
D18*
X188150000Y-96050000D03*
D19*
X194250000Y-86450000D03*
X198850000Y-83900000D03*
D18*
X193700000Y-90950000D03*
X177300000Y-96100000D03*
X192000000Y-83950000D03*
D19*
X197850000Y-94500000D03*
D18*
X191700000Y-88050000D03*
X173150000Y-86050000D03*
X195600000Y-94500000D03*
X187850000Y-90900000D03*
X185550000Y-83200000D03*
X187900000Y-88550000D03*
D19*
X188000000Y-85900000D03*
X185500000Y-84400000D03*
X194300000Y-93050000D03*
D18*
X187050000Y-87950000D03*
D19*
X193100000Y-83950000D03*
X190600000Y-84800000D03*
X190650000Y-95000000D03*
X193050000Y-94350000D03*
X196550000Y-85150000D03*
X195450000Y-85150000D03*
D18*
X159800000Y-91950000D03*
X193050000Y-95600000D03*
D20*
X181500000Y-92400000D03*
D18*
X154000000Y-93400000D03*
D19*
X189350000Y-84800000D03*
X186850000Y-84800000D03*
X199000000Y-95750000D03*
X193100000Y-87700000D03*
X186900000Y-93900000D03*
D18*
X191650000Y-91700000D03*
X185350000Y-89750000D03*
D19*
X193100000Y-85200000D03*
D18*
X143600000Y-85500000D03*
X145650000Y-97200000D03*
X143750000Y-83550000D03*
D20*
X179800000Y-90700000D03*
X179700000Y-94100000D03*
D18*
X145650000Y-91650000D03*
X170000000Y-85850000D03*
D19*
X196550000Y-83900000D03*
X196700000Y-94500000D03*
X196700000Y-95750000D03*
D18*
X195310000Y-88520000D03*
D19*
X190650000Y-93900000D03*
D20*
X178100000Y-92400000D03*
D19*
X186900000Y-96050000D03*
X197700000Y-85150000D03*
D18*
X143650000Y-90450000D03*
X197500000Y-88500000D03*
X145600000Y-95500000D03*
X196370000Y-88500000D03*
D19*
X194300000Y-95550000D03*
D18*
X189350000Y-85900000D03*
X149200000Y-89900000D03*
X146550000Y-89900000D03*
X184500000Y-84650000D03*
D19*
X189400000Y-93900000D03*
D18*
X186900000Y-95000000D03*
X185650000Y-96050000D03*
D20*
X181500000Y-90700000D03*
D19*
X190600000Y-85900000D03*
D18*
X189600000Y-90950000D03*
D20*
X178100000Y-90700000D03*
D18*
X179068199Y-87631801D03*
X156050000Y-86950000D03*
X154050000Y-92500000D03*
X181575000Y-88325000D03*
X188750000Y-88600000D03*
X148600000Y-98250000D03*
X176600000Y-95650000D03*
X176100000Y-85750000D03*
X151400000Y-89850000D03*
X147250000Y-89850000D03*
X142500000Y-99050000D03*
X186200000Y-89200000D03*
X177850000Y-85750000D03*
X153850000Y-98250000D03*
X154050000Y-90750000D03*
X184750000Y-101750000D03*
D20*
X109450000Y-81550000D03*
X109375000Y-86975000D03*
D18*
X154050000Y-96350000D03*
X145600000Y-94600000D03*
X150350000Y-98250000D03*
X147550000Y-98250000D03*
X151900000Y-99950000D03*
X154050000Y-94250000D03*
X153900000Y-100050000D03*
X145500000Y-87950000D03*
X142925000Y-90050000D03*
X151750000Y-98250000D03*
X145650000Y-90750000D03*
X170650000Y-86357107D03*
X173750000Y-85500000D03*
X174200000Y-93200000D03*
X171600000Y-85350000D03*
X164250000Y-101050000D03*
X164250000Y-96750000D03*
X172450000Y-86400000D03*
X163050000Y-101001050D03*
X163300000Y-97100000D03*
X175085704Y-93985704D03*
X143050000Y-85000000D03*
X144350000Y-84150000D03*
X193250000Y-103950000D03*
X186000000Y-103950000D03*
X185950000Y-103000000D03*
X197550000Y-103500000D03*
X170000000Y-106050000D03*
X149800000Y-81800000D03*
X165350000Y-102400000D03*
X153350000Y-82050000D03*
X167250000Y-105200000D03*
X151000000Y-81450000D03*
X166250000Y-103600000D03*
X152200000Y-81650000D03*
G04 #@! TA.AperFunction,Conductor*
G36*
X115094075Y-114647007D02*
G01*
X115060000Y-114774174D01*
X115060000Y-114905826D01*
X115094075Y-115032993D01*
X115126988Y-115090000D01*
X113453012Y-115090000D01*
X113485925Y-115032993D01*
X113520000Y-114905826D01*
X113520000Y-114774174D01*
X113485925Y-114647007D01*
X113453012Y-114590000D01*
X115126988Y-114590000D01*
X115094075Y-114647007D01*
G37*
G04 #@! TD.AperFunction*
G04 #@! TA.AperFunction,Conductor*
G36*
X117634075Y-114647007D02*
G01*
X117600000Y-114774174D01*
X117600000Y-114905826D01*
X117634075Y-115032993D01*
X117666988Y-115090000D01*
X115993012Y-115090000D01*
X116025925Y-115032993D01*
X116060000Y-114905826D01*
X116060000Y-114774174D01*
X116025925Y-114647007D01*
X115993012Y-114590000D01*
X117666988Y-114590000D01*
X117634075Y-114647007D01*
G37*
G04 #@! TD.AperFunction*
G04 #@! TA.AperFunction,Conductor*
G36*
X115810000Y-114406988D02*
G01*
X115752993Y-114374075D01*
X115625826Y-114340000D01*
X115494174Y-114340000D01*
X115367007Y-114374075D01*
X115310000Y-114406988D01*
X115310000Y-112733012D01*
X115367007Y-112765925D01*
X115494174Y-112800000D01*
X115625826Y-112800000D01*
X115752993Y-112765925D01*
X115810000Y-112733012D01*
X115810000Y-114406988D01*
G37*
G04 #@! TD.AperFunction*
G04 #@! TA.AperFunction,Conductor*
G36*
X140100000Y-76716988D02*
G01*
X140042993Y-76684075D01*
X139915826Y-76650000D01*
X139784174Y-76650000D01*
X139657007Y-76684075D01*
X139600000Y-76716988D01*
X139600000Y-75043012D01*
X139657007Y-75075925D01*
X139784174Y-75110000D01*
X139915826Y-75110000D01*
X140042993Y-75075925D01*
X140100000Y-75043012D01*
X140100000Y-76716988D01*
G37*
G04 #@! TD.AperFunction*
G04 #@! TA.AperFunction,Conductor*
G36*
X145180000Y-76716988D02*
G01*
X145122993Y-76684075D01*
X144995826Y-76650000D01*
X144864174Y-76650000D01*
X144737007Y-76684075D01*
X144680000Y-76716988D01*
X144680000Y-75043012D01*
X144737007Y-75075925D01*
X144864174Y-75110000D01*
X144995826Y-75110000D01*
X145122993Y-75075925D01*
X145180000Y-75043012D01*
X145180000Y-76716988D01*
G37*
G04 #@! TD.AperFunction*
G04 #@! TA.AperFunction,Conductor*
G36*
X141924075Y-74417007D02*
G01*
X141890000Y-74544174D01*
X141890000Y-74675826D01*
X141924075Y-74802993D01*
X141956988Y-74860000D01*
X140283012Y-74860000D01*
X140315925Y-74802993D01*
X140350000Y-74675826D01*
X140350000Y-74544174D01*
X140315925Y-74417007D01*
X140283012Y-74360000D01*
X141956988Y-74360000D01*
X141924075Y-74417007D01*
G37*
G04 #@! TD.AperFunction*
G04 #@! TA.AperFunction,Conductor*
G36*
X144464075Y-74417007D02*
G01*
X144430000Y-74544174D01*
X144430000Y-74675826D01*
X144464075Y-74802993D01*
X144496988Y-74860000D01*
X142823012Y-74860000D01*
X142855925Y-74802993D01*
X142890000Y-74675826D01*
X142890000Y-74544174D01*
X142855925Y-74417007D01*
X142823012Y-74360000D01*
X144496988Y-74360000D01*
X144464075Y-74417007D01*
G37*
G04 #@! TD.AperFunction*
G04 #@! TA.AperFunction,Conductor*
G36*
X154199075Y-76907007D02*
G01*
X154165000Y-77034174D01*
X154165000Y-77165826D01*
X154199075Y-77292993D01*
X154231988Y-77350000D01*
X152558012Y-77350000D01*
X152590925Y-77292993D01*
X152625000Y-77165826D01*
X152625000Y-77034174D01*
X152590925Y-76907007D01*
X152558012Y-76850000D01*
X154231988Y-76850000D01*
X154199075Y-76907007D01*
G37*
G04 #@! TD.AperFunction*
G04 #@! TA.AperFunction,Conductor*
G36*
X156739075Y-76907007D02*
G01*
X156705000Y-77034174D01*
X156705000Y-77165826D01*
X156739075Y-77292993D01*
X156771988Y-77350000D01*
X155098012Y-77350000D01*
X155130925Y-77292993D01*
X155165000Y-77165826D01*
X155165000Y-77034174D01*
X155130925Y-76907007D01*
X155098012Y-76850000D01*
X156771988Y-76850000D01*
X156739075Y-76907007D01*
G37*
G04 #@! TD.AperFunction*
G04 #@! TA.AperFunction,Conductor*
G36*
X159279075Y-76907007D02*
G01*
X159245000Y-77034174D01*
X159245000Y-77165826D01*
X159279075Y-77292993D01*
X159311988Y-77350000D01*
X157638012Y-77350000D01*
X157670925Y-77292993D01*
X157705000Y-77165826D01*
X157705000Y-77034174D01*
X157670925Y-76907007D01*
X157638012Y-76850000D01*
X159311988Y-76850000D01*
X159279075Y-76907007D01*
G37*
G04 #@! TD.AperFunction*
G04 #@! TA.AperFunction,Conductor*
G36*
X161819075Y-76907007D02*
G01*
X161785000Y-77034174D01*
X161785000Y-77165826D01*
X161819075Y-77292993D01*
X161851988Y-77350000D01*
X160178012Y-77350000D01*
X160210925Y-77292993D01*
X160245000Y-77165826D01*
X160245000Y-77034174D01*
X160210925Y-76907007D01*
X160178012Y-76850000D01*
X161851988Y-76850000D01*
X161819075Y-76907007D01*
G37*
G04 #@! TD.AperFunction*
G04 #@! TA.AperFunction,Conductor*
G36*
X176714075Y-76847007D02*
G01*
X176680000Y-76974174D01*
X176680000Y-77105826D01*
X176714075Y-77232993D01*
X176746988Y-77290000D01*
X175073012Y-77290000D01*
X175105925Y-77232993D01*
X175140000Y-77105826D01*
X175140000Y-76974174D01*
X175105925Y-76847007D01*
X175073012Y-76790000D01*
X176746988Y-76790000D01*
X176714075Y-76847007D01*
G37*
G04 #@! TD.AperFunction*
G04 #@! TA.AperFunction,Conductor*
G36*
X179254075Y-76847007D02*
G01*
X179220000Y-76974174D01*
X179220000Y-77105826D01*
X179254075Y-77232993D01*
X179286988Y-77290000D01*
X177613012Y-77290000D01*
X177645925Y-77232993D01*
X177680000Y-77105826D01*
X177680000Y-76974174D01*
X177645925Y-76847007D01*
X177613012Y-76790000D01*
X179286988Y-76790000D01*
X179254075Y-76847007D01*
G37*
G04 #@! TD.AperFunction*
G04 #@! TA.AperFunction,Conductor*
G36*
X181794075Y-76847007D02*
G01*
X181760000Y-76974174D01*
X181760000Y-77105826D01*
X181794075Y-77232993D01*
X181826988Y-77290000D01*
X180153012Y-77290000D01*
X180185925Y-77232993D01*
X180220000Y-77105826D01*
X180220000Y-76974174D01*
X180185925Y-76847007D01*
X180153012Y-76790000D01*
X181826988Y-76790000D01*
X181794075Y-76847007D01*
G37*
G04 #@! TD.AperFunction*
G04 #@! TA.AperFunction,Conductor*
G36*
X184334075Y-76847007D02*
G01*
X184300000Y-76974174D01*
X184300000Y-77105826D01*
X184334075Y-77232993D01*
X184366988Y-77290000D01*
X182693012Y-77290000D01*
X182725925Y-77232993D01*
X182760000Y-77105826D01*
X182760000Y-76974174D01*
X182725925Y-76847007D01*
X182693012Y-76790000D01*
X184366988Y-76790000D01*
X184334075Y-76847007D01*
G37*
G04 #@! TD.AperFunction*
G04 #@! TA.AperFunction,Conductor*
G36*
X194710937Y-70320185D02*
G01*
X194756692Y-70372989D01*
X194766636Y-70442147D01*
X194737611Y-70505703D01*
X194688336Y-70540264D01*
X194493005Y-70615244D01*
X194147456Y-70791310D01*
X193822206Y-71002531D01*
X193564648Y-71211095D01*
X193564648Y-71211096D01*
X195059301Y-72705748D01*
X194957670Y-72779588D01*
X194779588Y-72957670D01*
X194705748Y-73059300D01*
X193211096Y-71564648D01*
X193211095Y-71564648D01*
X193002531Y-71822206D01*
X192791310Y-72147456D01*
X192615244Y-72493005D01*
X192476262Y-72855063D01*
X192375887Y-73229669D01*
X192375886Y-73229676D01*
X192315219Y-73612712D01*
X192294922Y-73999999D01*
X192294922Y-74000000D01*
X192315219Y-74387287D01*
X192375886Y-74770323D01*
X192375887Y-74770330D01*
X192476262Y-75144936D01*
X192615244Y-75506994D01*
X192791310Y-75852543D01*
X193002531Y-76177793D01*
X193211095Y-76435350D01*
X193211096Y-76435350D01*
X194705748Y-74940698D01*
X194779588Y-75042330D01*
X194957670Y-75220412D01*
X195059300Y-75294251D01*
X193564648Y-76788903D01*
X193564649Y-76788904D01*
X193822206Y-76997468D01*
X194147456Y-77208689D01*
X194493005Y-77384755D01*
X194855063Y-77523737D01*
X195229669Y-77624112D01*
X195229676Y-77624113D01*
X195612712Y-77684780D01*
X195999999Y-77705078D01*
X196000001Y-77705078D01*
X196387287Y-77684780D01*
X196770323Y-77624113D01*
X196770330Y-77624112D01*
X197144936Y-77523737D01*
X197506994Y-77384755D01*
X197852543Y-77208689D01*
X198177783Y-76997476D01*
X198177785Y-76997475D01*
X198435349Y-76788902D01*
X196940698Y-75294251D01*
X197042330Y-75220412D01*
X197220412Y-75042330D01*
X197294251Y-74940698D01*
X198788902Y-76435349D01*
X198997475Y-76177785D01*
X198997476Y-76177783D01*
X199208689Y-75852543D01*
X199384755Y-75506994D01*
X199459736Y-75311664D01*
X199502138Y-75256132D01*
X199567832Y-75232339D01*
X199635960Y-75247841D01*
X199684893Y-75297714D01*
X199699500Y-75356102D01*
X199699500Y-114643897D01*
X199679815Y-114710936D01*
X199627011Y-114756691D01*
X199557853Y-114766635D01*
X199494297Y-114737610D01*
X199459736Y-114688335D01*
X199384755Y-114493005D01*
X199208689Y-114147456D01*
X198997468Y-113822206D01*
X198788904Y-113564649D01*
X198788903Y-113564648D01*
X197294251Y-115059300D01*
X197220412Y-114957670D01*
X197042330Y-114779588D01*
X196940698Y-114705748D01*
X198435350Y-113211096D01*
X198435350Y-113211095D01*
X198177793Y-113002531D01*
X197852543Y-112791310D01*
X197506994Y-112615244D01*
X197144936Y-112476262D01*
X196770330Y-112375887D01*
X196770323Y-112375886D01*
X196387287Y-112315219D01*
X196000001Y-112294922D01*
X195999999Y-112294922D01*
X195612712Y-112315219D01*
X195229676Y-112375886D01*
X195229669Y-112375887D01*
X194855063Y-112476262D01*
X194493005Y-112615244D01*
X194147456Y-112791310D01*
X193822206Y-113002531D01*
X193564648Y-113211095D01*
X193564648Y-113211096D01*
X195059301Y-114705748D01*
X194957670Y-114779588D01*
X194779588Y-114957670D01*
X194705748Y-115059300D01*
X193211096Y-113564648D01*
X193211095Y-113564648D01*
X193002531Y-113822206D01*
X192791310Y-114147456D01*
X192615244Y-114493005D01*
X192476262Y-114855063D01*
X192375887Y-115229669D01*
X192375886Y-115229676D01*
X192315219Y-115612712D01*
X192294922Y-115999999D01*
X192294922Y-116000000D01*
X192315219Y-116387287D01*
X192375886Y-116770323D01*
X192375887Y-116770330D01*
X192476262Y-117144936D01*
X192615244Y-117506994D01*
X192791310Y-117852543D01*
X193002531Y-118177793D01*
X193211095Y-118435350D01*
X193211096Y-118435350D01*
X194705748Y-116940698D01*
X194779588Y-117042330D01*
X194957670Y-117220412D01*
X195059300Y-117294251D01*
X193564648Y-118788903D01*
X193564649Y-118788904D01*
X193822206Y-118997468D01*
X194147456Y-119208689D01*
X194493005Y-119384755D01*
X194688336Y-119459736D01*
X194743868Y-119502138D01*
X194767661Y-119567832D01*
X194752159Y-119635960D01*
X194702286Y-119684893D01*
X194643898Y-119699500D01*
X105356102Y-119699500D01*
X105289063Y-119679815D01*
X105243308Y-119627011D01*
X105233364Y-119557853D01*
X105262389Y-119494297D01*
X105311664Y-119459736D01*
X105506994Y-119384755D01*
X105852543Y-119208689D01*
X106177783Y-118997476D01*
X106177785Y-118997475D01*
X106435349Y-118788902D01*
X104940698Y-117294251D01*
X105042330Y-117220412D01*
X105220412Y-117042330D01*
X105294251Y-116940698D01*
X106788902Y-118435349D01*
X106997475Y-118177785D01*
X106997476Y-118177783D01*
X107208689Y-117852543D01*
X107384755Y-117506994D01*
X107523737Y-117144936D01*
X107624112Y-116770330D01*
X107624113Y-116770323D01*
X107684780Y-116387287D01*
X107705078Y-116000000D01*
X107705078Y-115999999D01*
X107684780Y-115612712D01*
X107624113Y-115229676D01*
X107624112Y-115229669D01*
X107523737Y-114855063D01*
X107421988Y-114589999D01*
X111689364Y-114589999D01*
X111689364Y-114590000D01*
X112586988Y-114590000D01*
X112554075Y-114647007D01*
X112520000Y-114774174D01*
X112520000Y-114905826D01*
X112554075Y-115032993D01*
X112586988Y-115090000D01*
X111689364Y-115090000D01*
X111746567Y-115303486D01*
X111746570Y-115303492D01*
X111846399Y-115517578D01*
X111981894Y-115711082D01*
X112148917Y-115878105D01*
X112342421Y-116013600D01*
X112556507Y-116113429D01*
X112556516Y-116113433D01*
X112770000Y-116170634D01*
X112770000Y-115273012D01*
X112827007Y-115305925D01*
X112954174Y-115340000D01*
X113085826Y-115340000D01*
X113212993Y-115305925D01*
X113270000Y-115273012D01*
X113270000Y-116170633D01*
X113483483Y-116113433D01*
X113483492Y-116113429D01*
X113697578Y-116013600D01*
X113891082Y-115878105D01*
X114058105Y-115711082D01*
X114188425Y-115524968D01*
X114243002Y-115481344D01*
X114312501Y-115474151D01*
X114374855Y-115505673D01*
X114391575Y-115524968D01*
X114521894Y-115711082D01*
X114688917Y-115878105D01*
X114882421Y-116013600D01*
X115096507Y-116113429D01*
X115096516Y-116113433D01*
X115310000Y-116170634D01*
X115310000Y-115273012D01*
X115367007Y-115305925D01*
X115494174Y-115340000D01*
X115625826Y-115340000D01*
X115752993Y-115305925D01*
X115810000Y-115273012D01*
X115810000Y-116170633D01*
X116023483Y-116113433D01*
X116023492Y-116113429D01*
X116237578Y-116013600D01*
X116431082Y-115878105D01*
X116598105Y-115711082D01*
X116728425Y-115524968D01*
X116783002Y-115481344D01*
X116852501Y-115474151D01*
X116914855Y-115505673D01*
X116931575Y-115524968D01*
X117061894Y-115711082D01*
X117228917Y-115878105D01*
X117422421Y-116013600D01*
X117636507Y-116113429D01*
X117636516Y-116113433D01*
X117850000Y-116170634D01*
X117850000Y-115273012D01*
X117907007Y-115305925D01*
X118034174Y-115340000D01*
X118165826Y-115340000D01*
X118292993Y-115305925D01*
X118350000Y-115273012D01*
X118350000Y-116170633D01*
X118563483Y-116113433D01*
X118563492Y-116113429D01*
X118777578Y-116013600D01*
X118971082Y-115878105D01*
X119138105Y-115711082D01*
X119273600Y-115517578D01*
X119373429Y-115303492D01*
X119373432Y-115303486D01*
X119430636Y-115090000D01*
X118533012Y-115090000D01*
X118565925Y-115032993D01*
X118600000Y-114905826D01*
X118600000Y-114774174D01*
X118565925Y-114647007D01*
X118533012Y-114590000D01*
X119430636Y-114590000D01*
X119430635Y-114589999D01*
X119373432Y-114376513D01*
X119373429Y-114376507D01*
X119273600Y-114162422D01*
X119273599Y-114162420D01*
X119138113Y-113968926D01*
X119138108Y-113968920D01*
X118971082Y-113801894D01*
X118777578Y-113666399D01*
X118714277Y-113636882D01*
X118661838Y-113590710D01*
X118642686Y-113523516D01*
X118662902Y-113456635D01*
X118716067Y-113411300D01*
X118766682Y-113400500D01*
X118974676Y-113400500D01*
X118974677Y-113400499D01*
X119047740Y-113385966D01*
X119130601Y-113330601D01*
X119185966Y-113247740D01*
X119200500Y-113174674D01*
X119200500Y-111425326D01*
X119200500Y-111425323D01*
X119200499Y-111425321D01*
X119185967Y-111352264D01*
X119185966Y-111352260D01*
X119130601Y-111269399D01*
X119047740Y-111214034D01*
X119047739Y-111214033D01*
X119047735Y-111214032D01*
X118974677Y-111199500D01*
X118974674Y-111199500D01*
X117225326Y-111199500D01*
X117225323Y-111199500D01*
X117152264Y-111214032D01*
X117152260Y-111214033D01*
X117069399Y-111269399D01*
X117014033Y-111352260D01*
X117014032Y-111352264D01*
X116999500Y-111425321D01*
X116999500Y-111633318D01*
X116979815Y-111700357D01*
X116927011Y-111746112D01*
X116857853Y-111756056D01*
X116794297Y-111727031D01*
X116763118Y-111685723D01*
X116733600Y-111622422D01*
X116733599Y-111622420D01*
X116598113Y-111428926D01*
X116598108Y-111428920D01*
X116431082Y-111261894D01*
X116237578Y-111126399D01*
X116023492Y-111026570D01*
X116023486Y-111026567D01*
X115810000Y-110969364D01*
X115810000Y-111866988D01*
X115752993Y-111834075D01*
X115625826Y-111800000D01*
X115494174Y-111800000D01*
X115367007Y-111834075D01*
X115310000Y-111866988D01*
X115310000Y-110969364D01*
X115309999Y-110969364D01*
X115096513Y-111026567D01*
X115096507Y-111026570D01*
X114882422Y-111126399D01*
X114882420Y-111126400D01*
X114688926Y-111261886D01*
X114688920Y-111261891D01*
X114521891Y-111428920D01*
X114521886Y-111428926D01*
X114386400Y-111622420D01*
X114386399Y-111622422D01*
X114286570Y-111836507D01*
X114286568Y-111836511D01*
X114277592Y-111870011D01*
X114241226Y-111929671D01*
X114178379Y-111960199D01*
X114109003Y-111951904D01*
X114055126Y-111907418D01*
X114046817Y-111893188D01*
X113973582Y-111746112D01*
X113959673Y-111718179D01*
X113836764Y-111555421D01*
X113836762Y-111555418D01*
X113686041Y-111418019D01*
X113686039Y-111418017D01*
X113512642Y-111310655D01*
X113512635Y-111310651D01*
X113386769Y-111261891D01*
X113322456Y-111236976D01*
X113121976Y-111199500D01*
X112918024Y-111199500D01*
X112717544Y-111236976D01*
X112717541Y-111236976D01*
X112717541Y-111236977D01*
X112527364Y-111310651D01*
X112527357Y-111310655D01*
X112353960Y-111418017D01*
X112353958Y-111418019D01*
X112203237Y-111555418D01*
X112080327Y-111718178D01*
X111989422Y-111900739D01*
X111989417Y-111900752D01*
X111933602Y-112096917D01*
X111914785Y-112299999D01*
X111914785Y-112300000D01*
X111933602Y-112503082D01*
X111989417Y-112699247D01*
X111989422Y-112699260D01*
X112080327Y-112881821D01*
X112203237Y-113044581D01*
X112353958Y-113181980D01*
X112353960Y-113181982D01*
X112400981Y-113211096D01*
X112527363Y-113289348D01*
X112608283Y-113320696D01*
X112663685Y-113363269D01*
X112687276Y-113429035D01*
X112671565Y-113497116D01*
X112621542Y-113545895D01*
X112595586Y-113556097D01*
X112556519Y-113566565D01*
X112556507Y-113566570D01*
X112342422Y-113666399D01*
X112342420Y-113666400D01*
X112148926Y-113801886D01*
X112148920Y-113801891D01*
X111981891Y-113968920D01*
X111981886Y-113968926D01*
X111846400Y-114162420D01*
X111846399Y-114162422D01*
X111746570Y-114376507D01*
X111746567Y-114376513D01*
X111689364Y-114589999D01*
X107421988Y-114589999D01*
X107384755Y-114493005D01*
X107208689Y-114147456D01*
X106997468Y-113822206D01*
X106788904Y-113564649D01*
X106788903Y-113564648D01*
X105294251Y-115059300D01*
X105220412Y-114957670D01*
X105042330Y-114779588D01*
X104940698Y-114705748D01*
X106435350Y-113211096D01*
X106435350Y-113211095D01*
X106177793Y-113002531D01*
X105852543Y-112791310D01*
X105506994Y-112615244D01*
X105144936Y-112476262D01*
X104770330Y-112375887D01*
X104770323Y-112375886D01*
X104387287Y-112315219D01*
X104000001Y-112294922D01*
X103999999Y-112294922D01*
X103612712Y-112315219D01*
X103229676Y-112375886D01*
X103229669Y-112375887D01*
X102855063Y-112476262D01*
X102493005Y-112615244D01*
X102147456Y-112791310D01*
X101822206Y-113002531D01*
X101564648Y-113211095D01*
X101564648Y-113211096D01*
X103059301Y-114705748D01*
X102957670Y-114779588D01*
X102779588Y-114957670D01*
X102705748Y-115059300D01*
X101211096Y-113564648D01*
X101211095Y-113564648D01*
X101002531Y-113822206D01*
X100791310Y-114147456D01*
X100615244Y-114493005D01*
X100540264Y-114688335D01*
X100497862Y-114743867D01*
X100432168Y-114767660D01*
X100364039Y-114752158D01*
X100315107Y-114702285D01*
X100300500Y-114643897D01*
X100300500Y-109780000D01*
X101330138Y-109780000D01*
X102133012Y-109780000D01*
X102115795Y-109789940D01*
X102059940Y-109845795D01*
X102020444Y-109914204D01*
X102000000Y-109990504D01*
X102000000Y-110069496D01*
X102020444Y-110145796D01*
X102059940Y-110214205D01*
X102115795Y-110270060D01*
X102133012Y-110280000D01*
X101330138Y-110280000D01*
X101338430Y-110321690D01*
X101338430Y-110321692D01*
X101413807Y-110503671D01*
X101413814Y-110503684D01*
X101523248Y-110667462D01*
X101523251Y-110667466D01*
X101662533Y-110806748D01*
X101662537Y-110806751D01*
X101826315Y-110916185D01*
X101826328Y-110916192D01*
X102008306Y-110991569D01*
X102008318Y-110991572D01*
X102201504Y-111029999D01*
X102201508Y-111030000D01*
X102350000Y-111030000D01*
X102350000Y-110330000D01*
X102850000Y-110330000D01*
X102850000Y-111030000D01*
X102998492Y-111030000D01*
X102998495Y-111029999D01*
X103191681Y-110991572D01*
X103191693Y-110991569D01*
X103373671Y-110916192D01*
X103373684Y-110916185D01*
X103537462Y-110806751D01*
X103537466Y-110806748D01*
X103676748Y-110667466D01*
X103676751Y-110667462D01*
X103786185Y-110503684D01*
X103786192Y-110503671D01*
X103861569Y-110321692D01*
X103861569Y-110321690D01*
X103869862Y-110280000D01*
X103066988Y-110280000D01*
X103084205Y-110270060D01*
X103140060Y-110214205D01*
X103179556Y-110145796D01*
X103200000Y-110069496D01*
X103200000Y-109990504D01*
X103179556Y-109914204D01*
X103140060Y-109845795D01*
X103084205Y-109789940D01*
X103066988Y-109780000D01*
X103869862Y-109780000D01*
X105260138Y-109780000D01*
X106063012Y-109780000D01*
X106045795Y-109789940D01*
X105989940Y-109845795D01*
X105950444Y-109914204D01*
X105930000Y-109990504D01*
X105930000Y-110069496D01*
X105950444Y-110145796D01*
X105989940Y-110214205D01*
X106045795Y-110270060D01*
X106063012Y-110280000D01*
X105260138Y-110280000D01*
X105268430Y-110321690D01*
X105268430Y-110321692D01*
X105343807Y-110503671D01*
X105343814Y-110503684D01*
X105453248Y-110667462D01*
X105453251Y-110667466D01*
X105592533Y-110806748D01*
X105592537Y-110806751D01*
X105756315Y-110916185D01*
X105756328Y-110916192D01*
X105938306Y-110991569D01*
X105938318Y-110991572D01*
X106131504Y-111029999D01*
X106131508Y-111030000D01*
X106530000Y-111030000D01*
X106530000Y-110330000D01*
X107030000Y-110330000D01*
X107030000Y-111030000D01*
X107428492Y-111030000D01*
X107428495Y-111029999D01*
X107621681Y-110991572D01*
X107621693Y-110991569D01*
X107803671Y-110916192D01*
X107803684Y-110916185D01*
X107967462Y-110806751D01*
X107967466Y-110806748D01*
X108106748Y-110667466D01*
X108106751Y-110667462D01*
X108216185Y-110503684D01*
X108216192Y-110503671D01*
X108291569Y-110321692D01*
X108291569Y-110321690D01*
X108299862Y-110280000D01*
X107496988Y-110280000D01*
X107514205Y-110270060D01*
X107570060Y-110214205D01*
X107609556Y-110145796D01*
X107630000Y-110069496D01*
X107630000Y-109990504D01*
X107609556Y-109914204D01*
X107570060Y-109845795D01*
X107514205Y-109789940D01*
X107496988Y-109780000D01*
X108299862Y-109780000D01*
X108291569Y-109738309D01*
X108291569Y-109738307D01*
X108216192Y-109556328D01*
X108216185Y-109556315D01*
X108106751Y-109392537D01*
X108106748Y-109392533D01*
X107967466Y-109253251D01*
X107967462Y-109253248D01*
X107803684Y-109143814D01*
X107803671Y-109143807D01*
X107621693Y-109068430D01*
X107621681Y-109068427D01*
X107428495Y-109030000D01*
X107030000Y-109030000D01*
X107030000Y-109730000D01*
X106530000Y-109730000D01*
X106530000Y-109114392D01*
X106549685Y-109047353D01*
X106568059Y-109027393D01*
X106566918Y-109026252D01*
X106605465Y-108987705D01*
X106670505Y-108922665D01*
X106739688Y-108802836D01*
X106775500Y-108669183D01*
X106775500Y-108530817D01*
X106739688Y-108397164D01*
X106670505Y-108277335D01*
X106572665Y-108179495D01*
X106572664Y-108179494D01*
X106572661Y-108179492D01*
X106452838Y-108110313D01*
X106452837Y-108110312D01*
X106452836Y-108110312D01*
X106319183Y-108074500D01*
X106180817Y-108074500D01*
X106047164Y-108110312D01*
X106047161Y-108110313D01*
X105927338Y-108179492D01*
X105927333Y-108179496D01*
X105829496Y-108277333D01*
X105829492Y-108277338D01*
X105760313Y-108397161D01*
X105760312Y-108397164D01*
X105724500Y-108530817D01*
X105724500Y-108669182D01*
X105760312Y-108802835D01*
X105760313Y-108802838D01*
X105829492Y-108922661D01*
X105829496Y-108922666D01*
X105833212Y-108926382D01*
X105866697Y-108987705D01*
X105861713Y-109057397D01*
X105819841Y-109113330D01*
X105792986Y-109128623D01*
X105756327Y-109143808D01*
X105756315Y-109143814D01*
X105592537Y-109253248D01*
X105592533Y-109253251D01*
X105453251Y-109392533D01*
X105453248Y-109392537D01*
X105343814Y-109556315D01*
X105343807Y-109556328D01*
X105268430Y-109738307D01*
X105268430Y-109738309D01*
X105260138Y-109780000D01*
X103869862Y-109780000D01*
X103861569Y-109738309D01*
X103861569Y-109738307D01*
X103786192Y-109556328D01*
X103786185Y-109556315D01*
X103676751Y-109392537D01*
X103676748Y-109392533D01*
X103537466Y-109253251D01*
X103537462Y-109253248D01*
X103373684Y-109143814D01*
X103373671Y-109143807D01*
X103191693Y-109068430D01*
X103191681Y-109068427D01*
X102998495Y-109030000D01*
X102850000Y-109030000D01*
X102850000Y-109730000D01*
X102350000Y-109730000D01*
X102350000Y-109030000D01*
X102201504Y-109030000D01*
X102008318Y-109068427D01*
X102008306Y-109068430D01*
X101826328Y-109143807D01*
X101826315Y-109143814D01*
X101662537Y-109253248D01*
X101662533Y-109253251D01*
X101523251Y-109392533D01*
X101523248Y-109392537D01*
X101413814Y-109556315D01*
X101413807Y-109556328D01*
X101338430Y-109738307D01*
X101338430Y-109738309D01*
X101330138Y-109780000D01*
X100300500Y-109780000D01*
X100300500Y-106050000D01*
X169519610Y-106050000D01*
X169539068Y-106185337D01*
X169539070Y-106185345D01*
X169595867Y-106309714D01*
X169595872Y-106309721D01*
X169685409Y-106413053D01*
X169685413Y-106413057D01*
X169745979Y-106451979D01*
X169800439Y-106486978D01*
X169866036Y-106506239D01*
X169931632Y-106525500D01*
X169931633Y-106525500D01*
X170068367Y-106525500D01*
X170199561Y-106486978D01*
X170314589Y-106413055D01*
X170404130Y-106309718D01*
X170460931Y-106185342D01*
X170480390Y-106050000D01*
X170460931Y-105914658D01*
X170448677Y-105887827D01*
X170404132Y-105790285D01*
X170404127Y-105790278D01*
X170314590Y-105686946D01*
X170314586Y-105686942D01*
X170199559Y-105613021D01*
X170068368Y-105574500D01*
X170068367Y-105574500D01*
X169931633Y-105574500D01*
X169931632Y-105574500D01*
X169800440Y-105613021D01*
X169685413Y-105686942D01*
X169685409Y-105686946D01*
X169595872Y-105790278D01*
X169595867Y-105790285D01*
X169539070Y-105914654D01*
X169539068Y-105914662D01*
X169519610Y-106050000D01*
X100300500Y-106050000D01*
X100300500Y-105200000D01*
X166769610Y-105200000D01*
X166789068Y-105335337D01*
X166789070Y-105335345D01*
X166845867Y-105459714D01*
X166845872Y-105459721D01*
X166935409Y-105563053D01*
X166935413Y-105563057D01*
X166995979Y-105601979D01*
X167050439Y-105636978D01*
X167116036Y-105656239D01*
X167181632Y-105675500D01*
X167181633Y-105675500D01*
X167318367Y-105675500D01*
X167449561Y-105636978D01*
X167564589Y-105563055D01*
X167654130Y-105459718D01*
X167710931Y-105335342D01*
X167730390Y-105200000D01*
X167710931Y-105064658D01*
X167698677Y-105037827D01*
X167654132Y-104940285D01*
X167654127Y-104940278D01*
X167564590Y-104836946D01*
X167564586Y-104836942D01*
X167449559Y-104763021D01*
X167318368Y-104724500D01*
X167318367Y-104724500D01*
X167181633Y-104724500D01*
X167181632Y-104724500D01*
X167050440Y-104763021D01*
X166935413Y-104836942D01*
X166935409Y-104836946D01*
X166845872Y-104940278D01*
X166845867Y-104940285D01*
X166789070Y-105064654D01*
X166789068Y-105064662D01*
X166769610Y-105200000D01*
X100300500Y-105200000D01*
X100300500Y-103600000D01*
X165769610Y-103600000D01*
X165789068Y-103735337D01*
X165789070Y-103735345D01*
X165845867Y-103859714D01*
X165845872Y-103859721D01*
X165935409Y-103963053D01*
X165935413Y-103963057D01*
X165995979Y-104001979D01*
X166050439Y-104036978D01*
X166116036Y-104056239D01*
X166181632Y-104075500D01*
X166181633Y-104075500D01*
X166318367Y-104075500D01*
X166449561Y-104036978D01*
X166564589Y-103963055D01*
X166654130Y-103859718D01*
X166710931Y-103735342D01*
X166730390Y-103600000D01*
X166710931Y-103464658D01*
X166670986Y-103377191D01*
X166654132Y-103340285D01*
X166654127Y-103340278D01*
X166564590Y-103236946D01*
X166564586Y-103236942D01*
X166449559Y-103163021D01*
X166318368Y-103124500D01*
X166318367Y-103124500D01*
X166181633Y-103124500D01*
X166181632Y-103124500D01*
X166050440Y-103163021D01*
X165935413Y-103236942D01*
X165935409Y-103236946D01*
X165845872Y-103340278D01*
X165845867Y-103340285D01*
X165789070Y-103464654D01*
X165789068Y-103464662D01*
X165769610Y-103600000D01*
X100300500Y-103600000D01*
X100300500Y-101140000D01*
X101330138Y-101140000D01*
X102133012Y-101140000D01*
X102115795Y-101149940D01*
X102059940Y-101205795D01*
X102020444Y-101274204D01*
X102000000Y-101350504D01*
X102000000Y-101429496D01*
X102020444Y-101505796D01*
X102059940Y-101574205D01*
X102115795Y-101630060D01*
X102133012Y-101640000D01*
X101330138Y-101640000D01*
X101338430Y-101681690D01*
X101338430Y-101681692D01*
X101413807Y-101863671D01*
X101413814Y-101863684D01*
X101523248Y-102027462D01*
X101523251Y-102027466D01*
X101662533Y-102166748D01*
X101662537Y-102166751D01*
X101826315Y-102276185D01*
X101826328Y-102276192D01*
X102008306Y-102351569D01*
X102008318Y-102351572D01*
X102201504Y-102389999D01*
X102201508Y-102390000D01*
X102350000Y-102390000D01*
X102350000Y-101690000D01*
X102850000Y-101690000D01*
X102850000Y-102390000D01*
X102998492Y-102390000D01*
X102998495Y-102389999D01*
X103191681Y-102351572D01*
X103191693Y-102351569D01*
X103373671Y-102276192D01*
X103373684Y-102276185D01*
X103537462Y-102166751D01*
X103537466Y-102166748D01*
X103676748Y-102027466D01*
X103676751Y-102027462D01*
X103786185Y-101863684D01*
X103786192Y-101863671D01*
X103861569Y-101681692D01*
X103861569Y-101681690D01*
X103869862Y-101640000D01*
X103066988Y-101640000D01*
X103084205Y-101630060D01*
X103140060Y-101574205D01*
X103179556Y-101505796D01*
X103200000Y-101429496D01*
X103200000Y-101350504D01*
X103179556Y-101274204D01*
X103140060Y-101205795D01*
X103084205Y-101149940D01*
X103066988Y-101140000D01*
X103869862Y-101140000D01*
X105260138Y-101140000D01*
X106063012Y-101140000D01*
X106045795Y-101149940D01*
X105989940Y-101205795D01*
X105950444Y-101274204D01*
X105930000Y-101350504D01*
X105930000Y-101429496D01*
X105950444Y-101505796D01*
X105989940Y-101574205D01*
X106045795Y-101630060D01*
X106063012Y-101640000D01*
X105260138Y-101640000D01*
X105268430Y-101681690D01*
X105268430Y-101681692D01*
X105343807Y-101863671D01*
X105343814Y-101863684D01*
X105453248Y-102027462D01*
X105453251Y-102027466D01*
X105592533Y-102166748D01*
X105592537Y-102166751D01*
X105756315Y-102276185D01*
X105756324Y-102276190D01*
X105792984Y-102291375D01*
X105847387Y-102335216D01*
X105869452Y-102401510D01*
X105852173Y-102469209D01*
X105833217Y-102493613D01*
X105829492Y-102497338D01*
X105760313Y-102617161D01*
X105760312Y-102617164D01*
X105724500Y-102750817D01*
X105724500Y-102889182D01*
X105760312Y-103022835D01*
X105760313Y-103022838D01*
X105829492Y-103142661D01*
X105829494Y-103142664D01*
X105829495Y-103142665D01*
X105927335Y-103240505D01*
X106047164Y-103309688D01*
X106180817Y-103345500D01*
X106180819Y-103345500D01*
X106319181Y-103345500D01*
X106319183Y-103345500D01*
X106452836Y-103309688D01*
X106572665Y-103240505D01*
X106670505Y-103142665D01*
X106739688Y-103022836D01*
X106745807Y-103000000D01*
X185469610Y-103000000D01*
X185489068Y-103135337D01*
X185489070Y-103135345D01*
X185545867Y-103259714D01*
X185545872Y-103259721D01*
X185635409Y-103363053D01*
X185635411Y-103363055D01*
X185673122Y-103387290D01*
X185718878Y-103440093D01*
X185728822Y-103509251D01*
X185699798Y-103572807D01*
X185687294Y-103585313D01*
X185685410Y-103586945D01*
X185595872Y-103690278D01*
X185595867Y-103690285D01*
X185539070Y-103814654D01*
X185539068Y-103814662D01*
X185519610Y-103950000D01*
X185539068Y-104085337D01*
X185539070Y-104085345D01*
X185595867Y-104209714D01*
X185595872Y-104209721D01*
X185685409Y-104313053D01*
X185685413Y-104313057D01*
X185745979Y-104351979D01*
X185800439Y-104386978D01*
X185866036Y-104406239D01*
X185931632Y-104425500D01*
X185931633Y-104425500D01*
X186068367Y-104425500D01*
X186199561Y-104386978D01*
X186314589Y-104313055D01*
X186404130Y-104209718D01*
X186460931Y-104085342D01*
X186480390Y-103950000D01*
X192769610Y-103950000D01*
X192789068Y-104085337D01*
X192789070Y-104085345D01*
X192845867Y-104209714D01*
X192845872Y-104209721D01*
X192935409Y-104313053D01*
X192935413Y-104313057D01*
X192995979Y-104351979D01*
X193050439Y-104386978D01*
X193116036Y-104406239D01*
X193181632Y-104425500D01*
X193181633Y-104425500D01*
X193318367Y-104425500D01*
X193449561Y-104386978D01*
X193564589Y-104313055D01*
X193654130Y-104209718D01*
X193710931Y-104085342D01*
X193730390Y-103950000D01*
X193710931Y-103814658D01*
X193674710Y-103735345D01*
X193654132Y-103690285D01*
X193654127Y-103690278D01*
X193564590Y-103586946D01*
X193564586Y-103586942D01*
X193449559Y-103513021D01*
X193405213Y-103500000D01*
X197069610Y-103500000D01*
X197089068Y-103635337D01*
X197089070Y-103635345D01*
X197145867Y-103759714D01*
X197145872Y-103759721D01*
X197235409Y-103863053D01*
X197235413Y-103863057D01*
X197295979Y-103901979D01*
X197350439Y-103936978D01*
X197394788Y-103950000D01*
X197481632Y-103975500D01*
X197481633Y-103975500D01*
X197618367Y-103975500D01*
X197749561Y-103936978D01*
X197864589Y-103863055D01*
X197954130Y-103759718D01*
X198010931Y-103635342D01*
X198030390Y-103500000D01*
X198010931Y-103364658D01*
X197985827Y-103309688D01*
X197954132Y-103240285D01*
X197954127Y-103240278D01*
X197864590Y-103136946D01*
X197864586Y-103136942D01*
X197749559Y-103063021D01*
X197618368Y-103024500D01*
X197618367Y-103024500D01*
X197481633Y-103024500D01*
X197481632Y-103024500D01*
X197350440Y-103063021D01*
X197235413Y-103136942D01*
X197235409Y-103136946D01*
X197145872Y-103240278D01*
X197145867Y-103240285D01*
X197089070Y-103364654D01*
X197089068Y-103364662D01*
X197069610Y-103500000D01*
X193405213Y-103500000D01*
X193318368Y-103474500D01*
X193318367Y-103474500D01*
X193181633Y-103474500D01*
X193181632Y-103474500D01*
X193050440Y-103513021D01*
X192935413Y-103586942D01*
X192935409Y-103586946D01*
X192845872Y-103690278D01*
X192845867Y-103690285D01*
X192789070Y-103814654D01*
X192789068Y-103814662D01*
X192769610Y-103950000D01*
X186480390Y-103950000D01*
X186460931Y-103814658D01*
X186424710Y-103735345D01*
X186404132Y-103690285D01*
X186404127Y-103690278D01*
X186314590Y-103586946D01*
X186314589Y-103586945D01*
X186314584Y-103586942D01*
X186276875Y-103562708D01*
X186231121Y-103509905D01*
X186221177Y-103440747D01*
X186250201Y-103377191D01*
X186262717Y-103364676D01*
X186264578Y-103363061D01*
X186264589Y-103363055D01*
X186354130Y-103259718D01*
X186410931Y-103135342D01*
X186430390Y-103000000D01*
X186410931Y-102864658D01*
X186398290Y-102836978D01*
X186354132Y-102740285D01*
X186354127Y-102740278D01*
X186264590Y-102636946D01*
X186264586Y-102636942D01*
X186149559Y-102563021D01*
X186018368Y-102524500D01*
X186018367Y-102524500D01*
X185881633Y-102524500D01*
X185881632Y-102524500D01*
X185750440Y-102563021D01*
X185635413Y-102636942D01*
X185635409Y-102636946D01*
X185545872Y-102740278D01*
X185545867Y-102740285D01*
X185489070Y-102864654D01*
X185489068Y-102864662D01*
X185469610Y-103000000D01*
X106745807Y-103000000D01*
X106775500Y-102889183D01*
X106775500Y-102750817D01*
X106739688Y-102617164D01*
X106670505Y-102497335D01*
X106573170Y-102400000D01*
X164869610Y-102400000D01*
X164889068Y-102535337D01*
X164889070Y-102535345D01*
X164945867Y-102659714D01*
X164945872Y-102659721D01*
X165035409Y-102763053D01*
X165035413Y-102763057D01*
X165095979Y-102801979D01*
X165150439Y-102836978D01*
X165216036Y-102856239D01*
X165281632Y-102875500D01*
X165281633Y-102875500D01*
X165418367Y-102875500D01*
X165549561Y-102836978D01*
X165664589Y-102763055D01*
X165754130Y-102659718D01*
X165810931Y-102535342D01*
X165830390Y-102400000D01*
X165810931Y-102264658D01*
X165793048Y-102225500D01*
X165754132Y-102140285D01*
X165754127Y-102140278D01*
X165664590Y-102036946D01*
X165664586Y-102036942D01*
X165549559Y-101963021D01*
X165418368Y-101924500D01*
X165418367Y-101924500D01*
X165281633Y-101924500D01*
X165281632Y-101924500D01*
X165150440Y-101963021D01*
X165035413Y-102036942D01*
X165035409Y-102036946D01*
X164945872Y-102140278D01*
X164945867Y-102140285D01*
X164889070Y-102264654D01*
X164889068Y-102264662D01*
X164869610Y-102400000D01*
X106573170Y-102400000D01*
X106572665Y-102399495D01*
X106566918Y-102393748D01*
X106569295Y-102391370D01*
X106537294Y-102347509D01*
X106530000Y-102305607D01*
X106530000Y-101690000D01*
X107030000Y-101690000D01*
X107030000Y-102390000D01*
X107428492Y-102390000D01*
X107428495Y-102389999D01*
X107621681Y-102351572D01*
X107621693Y-102351569D01*
X107803671Y-102276192D01*
X107803684Y-102276185D01*
X107967462Y-102166751D01*
X107967466Y-102166748D01*
X108106748Y-102027466D01*
X108106751Y-102027462D01*
X108216185Y-101863684D01*
X108216192Y-101863671D01*
X108263275Y-101750000D01*
X184269610Y-101750000D01*
X184289068Y-101885337D01*
X184289070Y-101885345D01*
X184345867Y-102009714D01*
X184345872Y-102009721D01*
X184435409Y-102113053D01*
X184435413Y-102113057D01*
X184477782Y-102140285D01*
X184550439Y-102186978D01*
X184616036Y-102206239D01*
X184681632Y-102225500D01*
X184681633Y-102225500D01*
X184818367Y-102225500D01*
X184949561Y-102186978D01*
X185064589Y-102113055D01*
X185154130Y-102009718D01*
X185210931Y-101885342D01*
X185230390Y-101750000D01*
X185210931Y-101614658D01*
X185170214Y-101525500D01*
X185154132Y-101490285D01*
X185154127Y-101490278D01*
X185064590Y-101386946D01*
X185064586Y-101386942D01*
X184949559Y-101313021D01*
X184818368Y-101274500D01*
X184818367Y-101274500D01*
X184681633Y-101274500D01*
X184681632Y-101274500D01*
X184550440Y-101313021D01*
X184435413Y-101386942D01*
X184435409Y-101386946D01*
X184345872Y-101490278D01*
X184345867Y-101490285D01*
X184289070Y-101614654D01*
X184289068Y-101614662D01*
X184269610Y-101750000D01*
X108263275Y-101750000D01*
X108291569Y-101681692D01*
X108291569Y-101681690D01*
X108299862Y-101640000D01*
X107496988Y-101640000D01*
X107514205Y-101630060D01*
X107570060Y-101574205D01*
X107609556Y-101505796D01*
X107630000Y-101429496D01*
X107630000Y-101350504D01*
X107609556Y-101274204D01*
X107570060Y-101205795D01*
X107514205Y-101149940D01*
X107496988Y-101140000D01*
X108299862Y-101140000D01*
X108291569Y-101098309D01*
X108291569Y-101098307D01*
X108251284Y-101001050D01*
X162569610Y-101001050D01*
X162589068Y-101136387D01*
X162589070Y-101136395D01*
X162645867Y-101260764D01*
X162645872Y-101260771D01*
X162735409Y-101364103D01*
X162735413Y-101364107D01*
X162795979Y-101403029D01*
X162850439Y-101438028D01*
X162916036Y-101457289D01*
X162981632Y-101476550D01*
X162981633Y-101476550D01*
X163118367Y-101476550D01*
X163249561Y-101438028D01*
X163364589Y-101364105D01*
X163454130Y-101260768D01*
X163510931Y-101136392D01*
X163523743Y-101047280D01*
X163530160Y-101033228D01*
X163762802Y-101033228D01*
X163769219Y-101047279D01*
X163769219Y-101047280D01*
X163789068Y-101185337D01*
X163789070Y-101185345D01*
X163845867Y-101309714D01*
X163845872Y-101309721D01*
X163935409Y-101413053D01*
X163935413Y-101413057D01*
X163974270Y-101438028D01*
X164050439Y-101486978D01*
X164061702Y-101490285D01*
X164181632Y-101525500D01*
X164181633Y-101525500D01*
X164318367Y-101525500D01*
X164449561Y-101486978D01*
X164564589Y-101413055D01*
X164654130Y-101309718D01*
X164710931Y-101185342D01*
X164730390Y-101050000D01*
X164710931Y-100914658D01*
X164698677Y-100887827D01*
X164654132Y-100790285D01*
X164654127Y-100790278D01*
X164564590Y-100686946D01*
X164564586Y-100686942D01*
X164449917Y-100613251D01*
X164449561Y-100613022D01*
X164449560Y-100613021D01*
X164449559Y-100613021D01*
X164318368Y-100574500D01*
X164318367Y-100574500D01*
X164181633Y-100574500D01*
X164181632Y-100574500D01*
X164050440Y-100613021D01*
X163935413Y-100686942D01*
X163935409Y-100686946D01*
X163845872Y-100790278D01*
X163845867Y-100790285D01*
X163789070Y-100914654D01*
X163789068Y-100914662D01*
X163776256Y-101003770D01*
X163762802Y-101033228D01*
X163530160Y-101033228D01*
X163537197Y-101017820D01*
X163530780Y-101003768D01*
X163530389Y-101001052D01*
X163530390Y-101001050D01*
X163510931Y-100865708D01*
X163498677Y-100838877D01*
X163454132Y-100741335D01*
X163454127Y-100741328D01*
X163364590Y-100637996D01*
X163364586Y-100637992D01*
X163273736Y-100579608D01*
X163249561Y-100564072D01*
X163249560Y-100564071D01*
X163249559Y-100564071D01*
X163118368Y-100525550D01*
X163118367Y-100525550D01*
X162981633Y-100525550D01*
X162981632Y-100525550D01*
X162850440Y-100564071D01*
X162735413Y-100637992D01*
X162735409Y-100637996D01*
X162645872Y-100741328D01*
X162645867Y-100741335D01*
X162589070Y-100865704D01*
X162589068Y-100865712D01*
X162569610Y-101001050D01*
X108251284Y-101001050D01*
X108216192Y-100916328D01*
X108216185Y-100916315D01*
X108106751Y-100752537D01*
X108106748Y-100752533D01*
X107967466Y-100613251D01*
X107967462Y-100613248D01*
X107803684Y-100503814D01*
X107803671Y-100503807D01*
X107621693Y-100428430D01*
X107621681Y-100428427D01*
X107428495Y-100390000D01*
X107030000Y-100390000D01*
X107030000Y-101090000D01*
X106530000Y-101090000D01*
X106530000Y-100390000D01*
X106131504Y-100390000D01*
X105938318Y-100428427D01*
X105938306Y-100428430D01*
X105756328Y-100503807D01*
X105756315Y-100503814D01*
X105592537Y-100613248D01*
X105592533Y-100613251D01*
X105453251Y-100752533D01*
X105453248Y-100752537D01*
X105343814Y-100916315D01*
X105343807Y-100916328D01*
X105268430Y-101098307D01*
X105268430Y-101098309D01*
X105260138Y-101140000D01*
X103869862Y-101140000D01*
X103861569Y-101098309D01*
X103861569Y-101098307D01*
X103786192Y-100916328D01*
X103786185Y-100916315D01*
X103676751Y-100752537D01*
X103676748Y-100752533D01*
X103537466Y-100613251D01*
X103537462Y-100613248D01*
X103373684Y-100503814D01*
X103373671Y-100503807D01*
X103191693Y-100428430D01*
X103191681Y-100428427D01*
X102998495Y-100390000D01*
X102850000Y-100390000D01*
X102850000Y-101090000D01*
X102350000Y-101090000D01*
X102350000Y-100390000D01*
X102201504Y-100390000D01*
X102008318Y-100428427D01*
X102008306Y-100428430D01*
X101826328Y-100503807D01*
X101826315Y-100503814D01*
X101662537Y-100613248D01*
X101662533Y-100613251D01*
X101523251Y-100752533D01*
X101523248Y-100752537D01*
X101413814Y-100916315D01*
X101413807Y-100916328D01*
X101338430Y-101098307D01*
X101338430Y-101098309D01*
X101330138Y-101140000D01*
X100300500Y-101140000D01*
X100300500Y-99950000D01*
X151419610Y-99950000D01*
X151439068Y-100085337D01*
X151439070Y-100085345D01*
X151495867Y-100209714D01*
X151495872Y-100209721D01*
X151585409Y-100313053D01*
X151585413Y-100313057D01*
X151645979Y-100351979D01*
X151700439Y-100386978D01*
X151766036Y-100406239D01*
X151831632Y-100425500D01*
X151831633Y-100425500D01*
X151968367Y-100425500D01*
X152099561Y-100386978D01*
X152214589Y-100313055D01*
X152304130Y-100209718D01*
X152360931Y-100085342D01*
X152366012Y-100050000D01*
X153419610Y-100050000D01*
X153439068Y-100185337D01*
X153439070Y-100185345D01*
X153495867Y-100309714D01*
X153495872Y-100309721D01*
X153585409Y-100413053D01*
X153585413Y-100413057D01*
X153609335Y-100428430D01*
X153700439Y-100486978D01*
X153757753Y-100503807D01*
X153831632Y-100525500D01*
X153831633Y-100525500D01*
X153968367Y-100525500D01*
X154099561Y-100486978D01*
X154214589Y-100413055D01*
X154304130Y-100309718D01*
X154360931Y-100185342D01*
X154380390Y-100050000D01*
X154360931Y-99914658D01*
X154348677Y-99887827D01*
X154304132Y-99790285D01*
X154304127Y-99790278D01*
X154214590Y-99686946D01*
X154214586Y-99686942D01*
X154099559Y-99613021D01*
X153968368Y-99574500D01*
X153968367Y-99574500D01*
X153831633Y-99574500D01*
X153831632Y-99574500D01*
X153700440Y-99613021D01*
X153585413Y-99686942D01*
X153585409Y-99686946D01*
X153495872Y-99790278D01*
X153495867Y-99790285D01*
X153439070Y-99914654D01*
X153439068Y-99914662D01*
X153419610Y-100050000D01*
X152366012Y-100050000D01*
X152380390Y-99950000D01*
X152360931Y-99814658D01*
X152348677Y-99787827D01*
X152304132Y-99690285D01*
X152304127Y-99690278D01*
X152214590Y-99586946D01*
X152214586Y-99586942D01*
X152099559Y-99513021D01*
X151968368Y-99474500D01*
X151968367Y-99474500D01*
X151831633Y-99474500D01*
X151831632Y-99474500D01*
X151700440Y-99513021D01*
X151585413Y-99586942D01*
X151585409Y-99586946D01*
X151495872Y-99690278D01*
X151495867Y-99690285D01*
X151439070Y-99814654D01*
X151439068Y-99814662D01*
X151419610Y-99950000D01*
X100300500Y-99950000D01*
X100300500Y-99050000D01*
X142019610Y-99050000D01*
X142039068Y-99185337D01*
X142039070Y-99185345D01*
X142095867Y-99309714D01*
X142095872Y-99309721D01*
X142185409Y-99413053D01*
X142185413Y-99413057D01*
X142245979Y-99451979D01*
X142300439Y-99486978D01*
X142366036Y-99506239D01*
X142431632Y-99525500D01*
X142431633Y-99525500D01*
X142568367Y-99525500D01*
X142699561Y-99486978D01*
X142814589Y-99413055D01*
X142904130Y-99309718D01*
X142960931Y-99185342D01*
X142980390Y-99050000D01*
X142960931Y-98914658D01*
X142948677Y-98887827D01*
X142904132Y-98790285D01*
X142904127Y-98790278D01*
X142814590Y-98686946D01*
X142814586Y-98686942D01*
X142699559Y-98613021D01*
X142568368Y-98574500D01*
X142568367Y-98574500D01*
X142431633Y-98574500D01*
X142431632Y-98574500D01*
X142300440Y-98613021D01*
X142185413Y-98686942D01*
X142185409Y-98686946D01*
X142095872Y-98790278D01*
X142095867Y-98790285D01*
X142039070Y-98914654D01*
X142039068Y-98914662D01*
X142019610Y-99050000D01*
X100300500Y-99050000D01*
X100300500Y-98250000D01*
X147069610Y-98250000D01*
X147089068Y-98385337D01*
X147089070Y-98385345D01*
X147145867Y-98509714D01*
X147145872Y-98509721D01*
X147235409Y-98613053D01*
X147235413Y-98613057D01*
X147295979Y-98651979D01*
X147350439Y-98686978D01*
X147416036Y-98706239D01*
X147481632Y-98725500D01*
X147481633Y-98725500D01*
X147618367Y-98725500D01*
X147749561Y-98686978D01*
X147864589Y-98613055D01*
X147954130Y-98509718D01*
X147962206Y-98492033D01*
X148007960Y-98439231D01*
X148075000Y-98419546D01*
X148142039Y-98439230D01*
X148187793Y-98492033D01*
X148195870Y-98509718D01*
X148195871Y-98509719D01*
X148195872Y-98509721D01*
X148285409Y-98613053D01*
X148285413Y-98613057D01*
X148345979Y-98651979D01*
X148400439Y-98686978D01*
X148466036Y-98706239D01*
X148531632Y-98725500D01*
X148531633Y-98725500D01*
X148668367Y-98725500D01*
X148799561Y-98686978D01*
X148914589Y-98613055D01*
X149004130Y-98509718D01*
X149060931Y-98385342D01*
X149080390Y-98250000D01*
X149869610Y-98250000D01*
X149889068Y-98385337D01*
X149889070Y-98385345D01*
X149945867Y-98509714D01*
X149945872Y-98509721D01*
X150035409Y-98613053D01*
X150035413Y-98613057D01*
X150095979Y-98651979D01*
X150150439Y-98686978D01*
X150216036Y-98706239D01*
X150281632Y-98725500D01*
X150281633Y-98725500D01*
X150418367Y-98725500D01*
X150549561Y-98686978D01*
X150664589Y-98613055D01*
X150754130Y-98509718D01*
X150810931Y-98385342D01*
X150830390Y-98250000D01*
X151269610Y-98250000D01*
X151289068Y-98385337D01*
X151289070Y-98385345D01*
X151345867Y-98509714D01*
X151345872Y-98509721D01*
X151435409Y-98613053D01*
X151435413Y-98613057D01*
X151495979Y-98651979D01*
X151550439Y-98686978D01*
X151616036Y-98706239D01*
X151681632Y-98725500D01*
X151681633Y-98725500D01*
X151818367Y-98725500D01*
X151949561Y-98686978D01*
X152064589Y-98613055D01*
X152154130Y-98509718D01*
X152210931Y-98385342D01*
X152230390Y-98250000D01*
X153369610Y-98250000D01*
X153389068Y-98385337D01*
X153389070Y-98385345D01*
X153445867Y-98509714D01*
X153445872Y-98509721D01*
X153535409Y-98613053D01*
X153535413Y-98613057D01*
X153595979Y-98651979D01*
X153650439Y-98686978D01*
X153716036Y-98706239D01*
X153781632Y-98725500D01*
X153781633Y-98725500D01*
X153918367Y-98725500D01*
X154049561Y-98686978D01*
X154164589Y-98613055D01*
X154254130Y-98509718D01*
X154310931Y-98385342D01*
X154330390Y-98250000D01*
X154310931Y-98114658D01*
X154286320Y-98060768D01*
X154254132Y-97990285D01*
X154254127Y-97990278D01*
X154164590Y-97886946D01*
X154164586Y-97886942D01*
X154049559Y-97813021D01*
X153918368Y-97774500D01*
X153918367Y-97774500D01*
X153781633Y-97774500D01*
X153781632Y-97774500D01*
X153650440Y-97813021D01*
X153535413Y-97886942D01*
X153535409Y-97886946D01*
X153445872Y-97990278D01*
X153445867Y-97990285D01*
X153389070Y-98114654D01*
X153389068Y-98114662D01*
X153369610Y-98250000D01*
X152230390Y-98250000D01*
X152210931Y-98114658D01*
X152186320Y-98060768D01*
X152154132Y-97990285D01*
X152154127Y-97990278D01*
X152064590Y-97886946D01*
X152064586Y-97886942D01*
X151949559Y-97813021D01*
X151818368Y-97774500D01*
X151818367Y-97774500D01*
X151681633Y-97774500D01*
X151681632Y-97774500D01*
X151550440Y-97813021D01*
X151435413Y-97886942D01*
X151435409Y-97886946D01*
X151345872Y-97990278D01*
X151345867Y-97990285D01*
X151289070Y-98114654D01*
X151289068Y-98114662D01*
X151269610Y-98250000D01*
X150830390Y-98250000D01*
X150810931Y-98114658D01*
X150786320Y-98060768D01*
X150754132Y-97990285D01*
X150754127Y-97990278D01*
X150664590Y-97886946D01*
X150664586Y-97886942D01*
X150549559Y-97813021D01*
X150418368Y-97774500D01*
X150418367Y-97774500D01*
X150281633Y-97774500D01*
X150281632Y-97774500D01*
X150150440Y-97813021D01*
X150035413Y-97886942D01*
X150035409Y-97886946D01*
X149945872Y-97990278D01*
X149945867Y-97990285D01*
X149889070Y-98114654D01*
X149889068Y-98114662D01*
X149869610Y-98250000D01*
X149080390Y-98250000D01*
X149060931Y-98114658D01*
X149036320Y-98060768D01*
X149004132Y-97990285D01*
X149004127Y-97990278D01*
X148914590Y-97886946D01*
X148914586Y-97886942D01*
X148799559Y-97813021D01*
X148668368Y-97774500D01*
X148668367Y-97774500D01*
X148531633Y-97774500D01*
X148531632Y-97774500D01*
X148400440Y-97813021D01*
X148285413Y-97886942D01*
X148285409Y-97886946D01*
X148195872Y-97990278D01*
X148195870Y-97990281D01*
X148187794Y-98007966D01*
X148142038Y-98060769D01*
X148074999Y-98080453D01*
X148007959Y-98060768D01*
X147962206Y-98007966D01*
X147954131Y-97990285D01*
X147954130Y-97990282D01*
X147864589Y-97886945D01*
X147864586Y-97886942D01*
X147749559Y-97813021D01*
X147618368Y-97774500D01*
X147618367Y-97774500D01*
X147481633Y-97774500D01*
X147481632Y-97774500D01*
X147350440Y-97813021D01*
X147235413Y-97886942D01*
X147235409Y-97886946D01*
X147145872Y-97990278D01*
X147145867Y-97990285D01*
X147089070Y-98114654D01*
X147089068Y-98114662D01*
X147069610Y-98250000D01*
X100300500Y-98250000D01*
X100300500Y-97100000D01*
X162819610Y-97100000D01*
X162839068Y-97235337D01*
X162839070Y-97235345D01*
X162895867Y-97359714D01*
X162895872Y-97359721D01*
X162985409Y-97463053D01*
X162985413Y-97463057D01*
X163045979Y-97501979D01*
X163100439Y-97536978D01*
X163166036Y-97556239D01*
X163231632Y-97575500D01*
X163231633Y-97575500D01*
X163368367Y-97575500D01*
X163499561Y-97536978D01*
X163614589Y-97463055D01*
X163704130Y-97359718D01*
X163760931Y-97235342D01*
X163764325Y-97211736D01*
X163793349Y-97148180D01*
X163852127Y-97110405D01*
X163921997Y-97110405D01*
X163954097Y-97125064D01*
X164050439Y-97186978D01*
X164050441Y-97186978D01*
X164050442Y-97186979D01*
X164181632Y-97225500D01*
X164181633Y-97225500D01*
X164318367Y-97225500D01*
X164449561Y-97186978D01*
X164564589Y-97113055D01*
X164654130Y-97009718D01*
X164710931Y-96885342D01*
X164730390Y-96750000D01*
X164710931Y-96614658D01*
X164698677Y-96587827D01*
X164654132Y-96490285D01*
X164654127Y-96490278D01*
X164564590Y-96386946D01*
X164564586Y-96386942D01*
X164449559Y-96313021D01*
X164318368Y-96274500D01*
X164318367Y-96274500D01*
X164181633Y-96274500D01*
X164181632Y-96274500D01*
X164050440Y-96313021D01*
X163935413Y-96386942D01*
X163935409Y-96386946D01*
X163845872Y-96490278D01*
X163845867Y-96490285D01*
X163789070Y-96614654D01*
X163789066Y-96614668D01*
X163785673Y-96638267D01*
X163756647Y-96701822D01*
X163697868Y-96739595D01*
X163627998Y-96739593D01*
X163595899Y-96724934D01*
X163499561Y-96663022D01*
X163499559Y-96663021D01*
X163499557Y-96663020D01*
X163368368Y-96624500D01*
X163368367Y-96624500D01*
X163231633Y-96624500D01*
X163231632Y-96624500D01*
X163100440Y-96663021D01*
X162985413Y-96736942D01*
X162985409Y-96736946D01*
X162895872Y-96840278D01*
X162895867Y-96840285D01*
X162839070Y-96964654D01*
X162839068Y-96964662D01*
X162819610Y-97100000D01*
X100300500Y-97100000D01*
X100300500Y-96350000D01*
X153569610Y-96350000D01*
X153589068Y-96485337D01*
X153589070Y-96485345D01*
X153645867Y-96609714D01*
X153645872Y-96609721D01*
X153735409Y-96713053D01*
X153735413Y-96713057D01*
X153792899Y-96750000D01*
X153850439Y-96786978D01*
X153916036Y-96806239D01*
X153981632Y-96825500D01*
X153981633Y-96825500D01*
X154118367Y-96825500D01*
X154249561Y-96786978D01*
X154364589Y-96713055D01*
X154454130Y-96609718D01*
X154510931Y-96485342D01*
X154530390Y-96350000D01*
X154510931Y-96214658D01*
X154470214Y-96125500D01*
X154454132Y-96090285D01*
X154454127Y-96090278D01*
X154364590Y-95986946D01*
X154364586Y-95986942D01*
X154249559Y-95913021D01*
X154118368Y-95874500D01*
X154118367Y-95874500D01*
X153981633Y-95874500D01*
X153981632Y-95874500D01*
X153850440Y-95913021D01*
X153735413Y-95986942D01*
X153735409Y-95986946D01*
X153645872Y-96090278D01*
X153645867Y-96090285D01*
X153589070Y-96214654D01*
X153589068Y-96214662D01*
X153569610Y-96350000D01*
X100300500Y-96350000D01*
X100300500Y-95650000D01*
X176119610Y-95650000D01*
X176139068Y-95785337D01*
X176139070Y-95785345D01*
X176195867Y-95909714D01*
X176195872Y-95909721D01*
X176285409Y-96013053D01*
X176285413Y-96013057D01*
X176345979Y-96051979D01*
X176400439Y-96086978D01*
X176411702Y-96090285D01*
X176531632Y-96125500D01*
X176531633Y-96125500D01*
X176668367Y-96125500D01*
X176799561Y-96086978D01*
X176914589Y-96013055D01*
X177004130Y-95909718D01*
X177060931Y-95785342D01*
X177080390Y-95650000D01*
X177060931Y-95514658D01*
X177048677Y-95487827D01*
X177004132Y-95390285D01*
X177004127Y-95390278D01*
X176914590Y-95286946D01*
X176914586Y-95286942D01*
X176799559Y-95213021D01*
X176668368Y-95174500D01*
X176668367Y-95174500D01*
X176531633Y-95174500D01*
X176531632Y-95174500D01*
X176400440Y-95213021D01*
X176285413Y-95286942D01*
X176285409Y-95286946D01*
X176195872Y-95390278D01*
X176195867Y-95390285D01*
X176139070Y-95514654D01*
X176139068Y-95514662D01*
X176119610Y-95650000D01*
X100300500Y-95650000D01*
X100300500Y-94600000D01*
X145119610Y-94600000D01*
X145139068Y-94735337D01*
X145139070Y-94735345D01*
X145195867Y-94859714D01*
X145195872Y-94859721D01*
X145285409Y-94963053D01*
X145285413Y-94963057D01*
X145345979Y-95001979D01*
X145400439Y-95036978D01*
X145466036Y-95056239D01*
X145531632Y-95075500D01*
X145531633Y-95075500D01*
X145668367Y-95075500D01*
X145799561Y-95036978D01*
X145914589Y-94963055D01*
X146004130Y-94859718D01*
X146060931Y-94735342D01*
X146080390Y-94600000D01*
X146060931Y-94464658D01*
X146024710Y-94385345D01*
X146004132Y-94340285D01*
X146004127Y-94340278D01*
X145925901Y-94250000D01*
X153569610Y-94250000D01*
X153589068Y-94385337D01*
X153589070Y-94385345D01*
X153645867Y-94509714D01*
X153645872Y-94509721D01*
X153735409Y-94613053D01*
X153735413Y-94613057D01*
X153795979Y-94651979D01*
X153850439Y-94686978D01*
X153916036Y-94706239D01*
X153981632Y-94725500D01*
X153981633Y-94725500D01*
X154118367Y-94725500D01*
X154249561Y-94686978D01*
X154364589Y-94613055D01*
X154454130Y-94509718D01*
X154510931Y-94385342D01*
X154530390Y-94250000D01*
X154510931Y-94114658D01*
X154479291Y-94045376D01*
X154454132Y-93990285D01*
X154454127Y-93990278D01*
X154450164Y-93985704D01*
X174605314Y-93985704D01*
X174624772Y-94121041D01*
X174624774Y-94121049D01*
X174681571Y-94245418D01*
X174681576Y-94245425D01*
X174771113Y-94348757D01*
X174771117Y-94348761D01*
X174828032Y-94385337D01*
X174886143Y-94422682D01*
X174951740Y-94441943D01*
X175017336Y-94461204D01*
X175017337Y-94461204D01*
X175154071Y-94461204D01*
X175285265Y-94422682D01*
X175400293Y-94348759D01*
X175489834Y-94245422D01*
X175546635Y-94121046D01*
X175566094Y-93985704D01*
X175546635Y-93850362D01*
X175511990Y-93774500D01*
X175489836Y-93725989D01*
X175489831Y-93725982D01*
X175400294Y-93622650D01*
X175400290Y-93622646D01*
X175285263Y-93548725D01*
X175154072Y-93510204D01*
X175154071Y-93510204D01*
X175017337Y-93510204D01*
X175017336Y-93510204D01*
X174886144Y-93548725D01*
X174784707Y-93613913D01*
X174717667Y-93633597D01*
X174678718Y-93622159D01*
X174680829Y-93624595D01*
X174690772Y-93693753D01*
X174680829Y-93727617D01*
X174624772Y-93850364D01*
X174624772Y-93850366D01*
X174605314Y-93985704D01*
X154450164Y-93985704D01*
X154364590Y-93886946D01*
X154364586Y-93886942D01*
X154249559Y-93813021D01*
X154118368Y-93774500D01*
X154118367Y-93774500D01*
X153981633Y-93774500D01*
X153981632Y-93774500D01*
X153850440Y-93813021D01*
X153735413Y-93886942D01*
X153735409Y-93886946D01*
X153645872Y-93990278D01*
X153645867Y-93990285D01*
X153589070Y-94114654D01*
X153589068Y-94114662D01*
X153569610Y-94250000D01*
X145925901Y-94250000D01*
X145914590Y-94236946D01*
X145914586Y-94236942D01*
X145823736Y-94178558D01*
X145799561Y-94163022D01*
X145799560Y-94163021D01*
X145799559Y-94163021D01*
X145668368Y-94124500D01*
X145668367Y-94124500D01*
X145531633Y-94124500D01*
X145531632Y-94124500D01*
X145400440Y-94163021D01*
X145285413Y-94236942D01*
X145285409Y-94236946D01*
X145195872Y-94340278D01*
X145195867Y-94340285D01*
X145139070Y-94464654D01*
X145139068Y-94464662D01*
X145119610Y-94600000D01*
X100300500Y-94600000D01*
X100300500Y-94100000D01*
X118244867Y-94100000D01*
X118263302Y-94228225D01*
X118273247Y-94250000D01*
X118317118Y-94346063D01*
X118401951Y-94443967D01*
X118510931Y-94514004D01*
X118635225Y-94550499D01*
X118635227Y-94550500D01*
X118635228Y-94550500D01*
X118764773Y-94550500D01*
X118764773Y-94550499D01*
X118889069Y-94514004D01*
X118998049Y-94443967D01*
X119082882Y-94346063D01*
X119136697Y-94228226D01*
X119136697Y-94228225D01*
X119137206Y-94227111D01*
X119182961Y-94174307D01*
X119250000Y-94154623D01*
X119317040Y-94174308D01*
X119362794Y-94227111D01*
X119363302Y-94228225D01*
X119363303Y-94228226D01*
X119417118Y-94346063D01*
X119501951Y-94443967D01*
X119610931Y-94514004D01*
X119735225Y-94550499D01*
X119735227Y-94550500D01*
X119735228Y-94550500D01*
X119864773Y-94550500D01*
X119864773Y-94550499D01*
X119989069Y-94514004D01*
X120098049Y-94443967D01*
X120182882Y-94346063D01*
X120236697Y-94228226D01*
X120255133Y-94100000D01*
X120236697Y-93971774D01*
X120182882Y-93853937D01*
X120098049Y-93756033D01*
X119989069Y-93685996D01*
X119989065Y-93685994D01*
X119989064Y-93685994D01*
X119864774Y-93649500D01*
X119864772Y-93649500D01*
X119735228Y-93649500D01*
X119735226Y-93649500D01*
X119610935Y-93685994D01*
X119610932Y-93685995D01*
X119610931Y-93685996D01*
X119559677Y-93718934D01*
X119501950Y-93756033D01*
X119417118Y-93853937D01*
X119417117Y-93853938D01*
X119362794Y-93972888D01*
X119317039Y-94025692D01*
X119249999Y-94045376D01*
X119182960Y-94025691D01*
X119137206Y-93972888D01*
X119082882Y-93853938D01*
X119082882Y-93853937D01*
X118998049Y-93756033D01*
X118889069Y-93685996D01*
X118889065Y-93685994D01*
X118889064Y-93685994D01*
X118764774Y-93649500D01*
X118764772Y-93649500D01*
X118635228Y-93649500D01*
X118635226Y-93649500D01*
X118510935Y-93685994D01*
X118510932Y-93685995D01*
X118510931Y-93685996D01*
X118459677Y-93718934D01*
X118401950Y-93756033D01*
X118317118Y-93853937D01*
X118317117Y-93853938D01*
X118263302Y-93971774D01*
X118244867Y-94100000D01*
X100300500Y-94100000D01*
X100300500Y-93200000D01*
X173719610Y-93200000D01*
X173739068Y-93335337D01*
X173739070Y-93335345D01*
X173795867Y-93459714D01*
X173795872Y-93459721D01*
X173885409Y-93563053D01*
X173885413Y-93563057D01*
X173945979Y-93601979D01*
X174000439Y-93636978D01*
X174043085Y-93649500D01*
X174131632Y-93675500D01*
X174131633Y-93675500D01*
X174268367Y-93675500D01*
X174399561Y-93636978D01*
X174500998Y-93571788D01*
X174568034Y-93552106D01*
X174606984Y-93563543D01*
X174604874Y-93561107D01*
X174594931Y-93491948D01*
X174604873Y-93458089D01*
X174660931Y-93335342D01*
X174680390Y-93200000D01*
X174660931Y-93064658D01*
X174620214Y-92975500D01*
X174604132Y-92940285D01*
X174604127Y-92940278D01*
X174514590Y-92836946D01*
X174514586Y-92836942D01*
X174399559Y-92763021D01*
X174268368Y-92724500D01*
X174268367Y-92724500D01*
X174131633Y-92724500D01*
X174131632Y-92724500D01*
X174000440Y-92763021D01*
X173885413Y-92836942D01*
X173885409Y-92836946D01*
X173795872Y-92940278D01*
X173795867Y-92940285D01*
X173739070Y-93064654D01*
X173739068Y-93064662D01*
X173719610Y-93200000D01*
X100300500Y-93200000D01*
X100300500Y-92500000D01*
X153569610Y-92500000D01*
X153589068Y-92635337D01*
X153589070Y-92635345D01*
X153645867Y-92759714D01*
X153645872Y-92759721D01*
X153735409Y-92863053D01*
X153735413Y-92863057D01*
X153795979Y-92901979D01*
X153850439Y-92936978D01*
X153861702Y-92940285D01*
X153981632Y-92975500D01*
X153981633Y-92975500D01*
X154118367Y-92975500D01*
X154249561Y-92936978D01*
X154364589Y-92863055D01*
X154454130Y-92759718D01*
X154510931Y-92635342D01*
X154530390Y-92500000D01*
X154510931Y-92364658D01*
X154498677Y-92337827D01*
X154454132Y-92240285D01*
X154454127Y-92240278D01*
X154364590Y-92136946D01*
X154364586Y-92136942D01*
X154249559Y-92063021D01*
X154118368Y-92024500D01*
X154118367Y-92024500D01*
X153981633Y-92024500D01*
X153981632Y-92024500D01*
X153850440Y-92063021D01*
X153735413Y-92136942D01*
X153735409Y-92136946D01*
X153645872Y-92240278D01*
X153645867Y-92240285D01*
X153589070Y-92364654D01*
X153589068Y-92364662D01*
X153569610Y-92500000D01*
X100300500Y-92500000D01*
X100300500Y-90750000D01*
X145169610Y-90750000D01*
X145189068Y-90885337D01*
X145189070Y-90885345D01*
X145245867Y-91009714D01*
X145245872Y-91009721D01*
X145335409Y-91113053D01*
X145335413Y-91113057D01*
X145395979Y-91151979D01*
X145450439Y-91186978D01*
X145516036Y-91206239D01*
X145581632Y-91225500D01*
X145581633Y-91225500D01*
X145718367Y-91225500D01*
X145849561Y-91186978D01*
X145964589Y-91113055D01*
X146054130Y-91009718D01*
X146110931Y-90885342D01*
X146130390Y-90750000D01*
X153569610Y-90750000D01*
X153589068Y-90885337D01*
X153589070Y-90885345D01*
X153645867Y-91009714D01*
X153645872Y-91009721D01*
X153735409Y-91113053D01*
X153735413Y-91113057D01*
X153795979Y-91151979D01*
X153850439Y-91186978D01*
X153916036Y-91206239D01*
X153981632Y-91225500D01*
X153981633Y-91225500D01*
X154118367Y-91225500D01*
X154249561Y-91186978D01*
X154364589Y-91113055D01*
X154454130Y-91009718D01*
X154510931Y-90885342D01*
X154530390Y-90750000D01*
X154510931Y-90614658D01*
X154470214Y-90525500D01*
X154454132Y-90490285D01*
X154454127Y-90490278D01*
X154364590Y-90386946D01*
X154364586Y-90386942D01*
X154249559Y-90313021D01*
X154118368Y-90274500D01*
X154118367Y-90274500D01*
X153981633Y-90274500D01*
X153981632Y-90274500D01*
X153850440Y-90313021D01*
X153735413Y-90386942D01*
X153735409Y-90386946D01*
X153645872Y-90490278D01*
X153645867Y-90490285D01*
X153589070Y-90614654D01*
X153589068Y-90614662D01*
X153569610Y-90750000D01*
X146130390Y-90750000D01*
X146110931Y-90614658D01*
X146070214Y-90525500D01*
X146054132Y-90490285D01*
X146054127Y-90490278D01*
X145964590Y-90386946D01*
X145964586Y-90386942D01*
X145849559Y-90313021D01*
X145718368Y-90274500D01*
X145718367Y-90274500D01*
X145581633Y-90274500D01*
X145581632Y-90274500D01*
X145450440Y-90313021D01*
X145335413Y-90386942D01*
X145335409Y-90386946D01*
X145245872Y-90490278D01*
X145245867Y-90490285D01*
X145189070Y-90614654D01*
X145189068Y-90614662D01*
X145169610Y-90750000D01*
X100300500Y-90750000D01*
X100300500Y-90050000D01*
X142444610Y-90050000D01*
X142464068Y-90185337D01*
X142464070Y-90185345D01*
X142520867Y-90309714D01*
X142520872Y-90309721D01*
X142610409Y-90413053D01*
X142610413Y-90413057D01*
X142670979Y-90451979D01*
X142725439Y-90486978D01*
X142736702Y-90490285D01*
X142856632Y-90525500D01*
X142856633Y-90525500D01*
X142993367Y-90525500D01*
X143124561Y-90486978D01*
X143239589Y-90413055D01*
X143329130Y-90309718D01*
X143385931Y-90185342D01*
X143405390Y-90050000D01*
X143385931Y-89914658D01*
X143373677Y-89887827D01*
X143356402Y-89850000D01*
X146769610Y-89850000D01*
X146789068Y-89985337D01*
X146789070Y-89985345D01*
X146845867Y-90109714D01*
X146845872Y-90109721D01*
X146935409Y-90213053D01*
X146935413Y-90213057D01*
X146995979Y-90251979D01*
X147050439Y-90286978D01*
X147116036Y-90306239D01*
X147181632Y-90325500D01*
X147181633Y-90325500D01*
X147318367Y-90325500D01*
X147449561Y-90286978D01*
X147564589Y-90213055D01*
X147654130Y-90109718D01*
X147710931Y-89985342D01*
X147730390Y-89850000D01*
X150919610Y-89850000D01*
X150939068Y-89985337D01*
X150939070Y-89985345D01*
X150995867Y-90109714D01*
X150995872Y-90109721D01*
X151085409Y-90213053D01*
X151085413Y-90213057D01*
X151145979Y-90251979D01*
X151200439Y-90286978D01*
X151266036Y-90306239D01*
X151331632Y-90325500D01*
X151331633Y-90325500D01*
X151468367Y-90325500D01*
X151599561Y-90286978D01*
X151714589Y-90213055D01*
X151804130Y-90109718D01*
X151860931Y-89985342D01*
X151880390Y-89850000D01*
X151860931Y-89714658D01*
X151826835Y-89639999D01*
X151804132Y-89590285D01*
X151804127Y-89590278D01*
X151714590Y-89486946D01*
X151714586Y-89486942D01*
X151623736Y-89428558D01*
X151599561Y-89413022D01*
X151599560Y-89413021D01*
X151599559Y-89413021D01*
X151468368Y-89374500D01*
X151468367Y-89374500D01*
X151331633Y-89374500D01*
X151331632Y-89374500D01*
X151200440Y-89413021D01*
X151085413Y-89486942D01*
X151085409Y-89486946D01*
X150995872Y-89590278D01*
X150995867Y-89590285D01*
X150939070Y-89714654D01*
X150939068Y-89714662D01*
X150919610Y-89850000D01*
X147730390Y-89850000D01*
X147710931Y-89714658D01*
X147676835Y-89639999D01*
X147654132Y-89590285D01*
X147654127Y-89590278D01*
X147564590Y-89486946D01*
X147564586Y-89486942D01*
X147473736Y-89428558D01*
X147449561Y-89413022D01*
X147449560Y-89413021D01*
X147449559Y-89413021D01*
X147318368Y-89374500D01*
X147318367Y-89374500D01*
X147181633Y-89374500D01*
X147181632Y-89374500D01*
X147050440Y-89413021D01*
X146935413Y-89486942D01*
X146935409Y-89486946D01*
X146845872Y-89590278D01*
X146845867Y-89590285D01*
X146789070Y-89714654D01*
X146789068Y-89714662D01*
X146769610Y-89850000D01*
X143356402Y-89850000D01*
X143329132Y-89790285D01*
X143329127Y-89790278D01*
X143239590Y-89686946D01*
X143239586Y-89686942D01*
X143124559Y-89613021D01*
X142993368Y-89574500D01*
X142993367Y-89574500D01*
X142856633Y-89574500D01*
X142856632Y-89574500D01*
X142725440Y-89613021D01*
X142610413Y-89686942D01*
X142610409Y-89686946D01*
X142520872Y-89790278D01*
X142520867Y-89790285D01*
X142464070Y-89914654D01*
X142464068Y-89914662D01*
X142444610Y-90050000D01*
X100300500Y-90050000D01*
X100300500Y-88390000D01*
X101330138Y-88390000D01*
X102133012Y-88390000D01*
X102115795Y-88399940D01*
X102059940Y-88455795D01*
X102020444Y-88524204D01*
X102000000Y-88600504D01*
X102000000Y-88679496D01*
X102020444Y-88755796D01*
X102059940Y-88824205D01*
X102115795Y-88880060D01*
X102133012Y-88890000D01*
X101330138Y-88890000D01*
X101338430Y-88931690D01*
X101338430Y-88931692D01*
X101413807Y-89113671D01*
X101413814Y-89113684D01*
X101523248Y-89277462D01*
X101523251Y-89277466D01*
X101662533Y-89416748D01*
X101662537Y-89416751D01*
X101826315Y-89526185D01*
X101826328Y-89526192D01*
X102008306Y-89601569D01*
X102008318Y-89601572D01*
X102201504Y-89639999D01*
X102201508Y-89640000D01*
X102350000Y-89640000D01*
X102350000Y-88940000D01*
X102850000Y-88940000D01*
X102850000Y-89640000D01*
X102998492Y-89640000D01*
X102998495Y-89639999D01*
X103191681Y-89601572D01*
X103191693Y-89601569D01*
X103373671Y-89526192D01*
X103373684Y-89526185D01*
X103537462Y-89416751D01*
X103537466Y-89416748D01*
X103676748Y-89277466D01*
X103676751Y-89277462D01*
X103786185Y-89113684D01*
X103786192Y-89113671D01*
X103861569Y-88931692D01*
X103861569Y-88931690D01*
X103869862Y-88890000D01*
X103066988Y-88890000D01*
X103084205Y-88880060D01*
X103140060Y-88824205D01*
X103179556Y-88755796D01*
X103200000Y-88679496D01*
X103200000Y-88600504D01*
X103179556Y-88524204D01*
X103140060Y-88455795D01*
X103084205Y-88399940D01*
X103066988Y-88390000D01*
X103869862Y-88390000D01*
X105260138Y-88390000D01*
X106063012Y-88390000D01*
X106045795Y-88399940D01*
X105989940Y-88455795D01*
X105950444Y-88524204D01*
X105930000Y-88600504D01*
X105930000Y-88679496D01*
X105950444Y-88755796D01*
X105989940Y-88824205D01*
X106045795Y-88880060D01*
X106063012Y-88890000D01*
X105260138Y-88890000D01*
X105268430Y-88931690D01*
X105268430Y-88931692D01*
X105343807Y-89113671D01*
X105343814Y-89113684D01*
X105453248Y-89277462D01*
X105453251Y-89277466D01*
X105592533Y-89416748D01*
X105592537Y-89416751D01*
X105756315Y-89526185D01*
X105756328Y-89526192D01*
X105938306Y-89601569D01*
X105938318Y-89601572D01*
X106131504Y-89639999D01*
X106131508Y-89640000D01*
X106530000Y-89640000D01*
X106530000Y-88940000D01*
X107030000Y-88940000D01*
X107030000Y-89640000D01*
X107428492Y-89640000D01*
X107428495Y-89639999D01*
X107621681Y-89601572D01*
X107621693Y-89601569D01*
X107803671Y-89526192D01*
X107803684Y-89526185D01*
X107967462Y-89416751D01*
X107967466Y-89416748D01*
X108106748Y-89277466D01*
X108106751Y-89277462D01*
X108158510Y-89200000D01*
X185719610Y-89200000D01*
X185739068Y-89335337D01*
X185739070Y-89335345D01*
X185795867Y-89459714D01*
X185795872Y-89459721D01*
X185885409Y-89563053D01*
X185885413Y-89563057D01*
X185927782Y-89590285D01*
X186000439Y-89636978D01*
X186066036Y-89656239D01*
X186131632Y-89675500D01*
X186131633Y-89675500D01*
X186268367Y-89675500D01*
X186399561Y-89636978D01*
X186514589Y-89563055D01*
X186604130Y-89459718D01*
X186660931Y-89335342D01*
X186680390Y-89200000D01*
X186660931Y-89064658D01*
X186648290Y-89036978D01*
X186604132Y-88940285D01*
X186604127Y-88940278D01*
X186514590Y-88836946D01*
X186514586Y-88836942D01*
X186399559Y-88763021D01*
X186268368Y-88724500D01*
X186268367Y-88724500D01*
X186131633Y-88724500D01*
X186131632Y-88724500D01*
X186000440Y-88763021D01*
X185885413Y-88836942D01*
X185885409Y-88836946D01*
X185795872Y-88940278D01*
X185795867Y-88940285D01*
X185739070Y-89064654D01*
X185739068Y-89064662D01*
X185719610Y-89200000D01*
X108158510Y-89200000D01*
X108216185Y-89113684D01*
X108216192Y-89113671D01*
X108291569Y-88931692D01*
X108291569Y-88931690D01*
X108299862Y-88890000D01*
X107496988Y-88890000D01*
X107514205Y-88880060D01*
X107570060Y-88824205D01*
X107609556Y-88755796D01*
X107630000Y-88679496D01*
X107630000Y-88600504D01*
X107609556Y-88524204D01*
X107570060Y-88455795D01*
X107514205Y-88399940D01*
X107496988Y-88390000D01*
X108299862Y-88390000D01*
X108291569Y-88348309D01*
X108291569Y-88348307D01*
X108216192Y-88166328D01*
X108216185Y-88166315D01*
X108106751Y-88002537D01*
X108106748Y-88002533D01*
X108054215Y-87950000D01*
X145019610Y-87950000D01*
X145039068Y-88085337D01*
X145039070Y-88085345D01*
X145095867Y-88209714D01*
X145095872Y-88209721D01*
X145185409Y-88313053D01*
X145185413Y-88313057D01*
X145227782Y-88340285D01*
X145300439Y-88386978D01*
X145344584Y-88399940D01*
X145431632Y-88425500D01*
X145431633Y-88425500D01*
X145568367Y-88425500D01*
X145699561Y-88386978D01*
X145796002Y-88325000D01*
X181094610Y-88325000D01*
X181114068Y-88460337D01*
X181114070Y-88460345D01*
X181170867Y-88584714D01*
X181170872Y-88584721D01*
X181260409Y-88688053D01*
X181260413Y-88688057D01*
X181317121Y-88724500D01*
X181375439Y-88761978D01*
X181378995Y-88763022D01*
X181506632Y-88800500D01*
X181506633Y-88800500D01*
X181643367Y-88800500D01*
X181774561Y-88761978D01*
X181889589Y-88688055D01*
X181965888Y-88600000D01*
X188269610Y-88600000D01*
X188289068Y-88735337D01*
X188289070Y-88735345D01*
X188345867Y-88859714D01*
X188345872Y-88859721D01*
X188435409Y-88963053D01*
X188435413Y-88963057D01*
X188495979Y-89001979D01*
X188550439Y-89036978D01*
X188616036Y-89056239D01*
X188681632Y-89075500D01*
X188681633Y-89075500D01*
X188818367Y-89075500D01*
X188949561Y-89036978D01*
X189064589Y-88963055D01*
X189154130Y-88859718D01*
X189210931Y-88735342D01*
X189230390Y-88600000D01*
X189210931Y-88464658D01*
X189176836Y-88390000D01*
X189154132Y-88340285D01*
X189154127Y-88340278D01*
X189064590Y-88236946D01*
X189064586Y-88236942D01*
X188949559Y-88163021D01*
X188818368Y-88124500D01*
X188818367Y-88124500D01*
X188681633Y-88124500D01*
X188681632Y-88124500D01*
X188550440Y-88163021D01*
X188435413Y-88236942D01*
X188435409Y-88236946D01*
X188345872Y-88340278D01*
X188345867Y-88340285D01*
X188289070Y-88464654D01*
X188289068Y-88464662D01*
X188269610Y-88600000D01*
X181965888Y-88600000D01*
X181979130Y-88584718D01*
X182035931Y-88460342D01*
X182055390Y-88325000D01*
X182035931Y-88189658D01*
X181988293Y-88085345D01*
X181979132Y-88065285D01*
X181979127Y-88065278D01*
X181889590Y-87961946D01*
X181889586Y-87961942D01*
X181780007Y-87891522D01*
X181774561Y-87888022D01*
X181774560Y-87888021D01*
X181774559Y-87888021D01*
X181643368Y-87849500D01*
X181643367Y-87849500D01*
X181506633Y-87849500D01*
X181506632Y-87849500D01*
X181375440Y-87888021D01*
X181260413Y-87961942D01*
X181260409Y-87961946D01*
X181170872Y-88065278D01*
X181170867Y-88065285D01*
X181114070Y-88189654D01*
X181114068Y-88189662D01*
X181094610Y-88325000D01*
X145796002Y-88325000D01*
X145814589Y-88313055D01*
X145904130Y-88209718D01*
X145960931Y-88085342D01*
X145980390Y-87950000D01*
X145960931Y-87814658D01*
X145939233Y-87767146D01*
X145904132Y-87690285D01*
X145904127Y-87690278D01*
X145853457Y-87631801D01*
X178587809Y-87631801D01*
X178607267Y-87767138D01*
X178607269Y-87767146D01*
X178664066Y-87891515D01*
X178664071Y-87891522D01*
X178753608Y-87994854D01*
X178753612Y-87994858D01*
X178814178Y-88033780D01*
X178868638Y-88068779D01*
X178925057Y-88085345D01*
X178999831Y-88107301D01*
X178999832Y-88107301D01*
X179136566Y-88107301D01*
X179267760Y-88068779D01*
X179382788Y-87994856D01*
X179472329Y-87891519D01*
X179473927Y-87888021D01*
X179485240Y-87863248D01*
X179529130Y-87767143D01*
X179548589Y-87631801D01*
X179529130Y-87496459D01*
X179496724Y-87425500D01*
X179472331Y-87372086D01*
X179472326Y-87372079D01*
X179382789Y-87268747D01*
X179382785Y-87268743D01*
X179267758Y-87194822D01*
X179136567Y-87156301D01*
X179136566Y-87156301D01*
X178999832Y-87156301D01*
X178999831Y-87156301D01*
X178868639Y-87194822D01*
X178753612Y-87268743D01*
X178753608Y-87268747D01*
X178664071Y-87372079D01*
X178664066Y-87372086D01*
X178607269Y-87496455D01*
X178607267Y-87496463D01*
X178587809Y-87631801D01*
X145853457Y-87631801D01*
X145814590Y-87586946D01*
X145814586Y-87586942D01*
X145699559Y-87513021D01*
X145568368Y-87474500D01*
X145568367Y-87474500D01*
X145431633Y-87474500D01*
X145431632Y-87474500D01*
X145300440Y-87513021D01*
X145185413Y-87586942D01*
X145185409Y-87586946D01*
X145095872Y-87690278D01*
X145095867Y-87690285D01*
X145039070Y-87814654D01*
X145039068Y-87814662D01*
X145019610Y-87950000D01*
X108054215Y-87950000D01*
X107967466Y-87863251D01*
X107967462Y-87863248D01*
X107803684Y-87753814D01*
X107803671Y-87753807D01*
X107621693Y-87678430D01*
X107621681Y-87678427D01*
X107428495Y-87640000D01*
X107030000Y-87640000D01*
X107030000Y-88340000D01*
X106530000Y-88340000D01*
X106530000Y-87724392D01*
X106549685Y-87657353D01*
X106568059Y-87637393D01*
X106566918Y-87636252D01*
X106616228Y-87586942D01*
X106670505Y-87532665D01*
X106739688Y-87412836D01*
X106775500Y-87279183D01*
X106775500Y-87140817D01*
X106739688Y-87007164D01*
X106721117Y-86974998D01*
X108769318Y-86974998D01*
X108769318Y-86975001D01*
X108789955Y-87131760D01*
X108789956Y-87131762D01*
X108850464Y-87277841D01*
X108946718Y-87403282D01*
X109072159Y-87499536D01*
X109218238Y-87560044D01*
X109296619Y-87570363D01*
X109374999Y-87580682D01*
X109375000Y-87580682D01*
X109375001Y-87580682D01*
X109427254Y-87573802D01*
X109531762Y-87560044D01*
X109677841Y-87499536D01*
X109803282Y-87403282D01*
X109899536Y-87277841D01*
X109960044Y-87131762D01*
X109980682Y-86975000D01*
X109977391Y-86950000D01*
X155569610Y-86950000D01*
X155589068Y-87085337D01*
X155589070Y-87085345D01*
X155645867Y-87209714D01*
X155645872Y-87209721D01*
X155735409Y-87313053D01*
X155735413Y-87313057D01*
X155795979Y-87351979D01*
X155850439Y-87386978D01*
X155916036Y-87406239D01*
X155981632Y-87425500D01*
X155981633Y-87425500D01*
X156118367Y-87425500D01*
X156249561Y-87386978D01*
X156364589Y-87313055D01*
X156454130Y-87209718D01*
X156510931Y-87085342D01*
X156530390Y-86950000D01*
X156510931Y-86814658D01*
X156498677Y-86787827D01*
X156454132Y-86690285D01*
X156454127Y-86690278D01*
X156364590Y-86586946D01*
X156364586Y-86586942D01*
X156249559Y-86513021D01*
X156118368Y-86474500D01*
X156118367Y-86474500D01*
X155981633Y-86474500D01*
X155981632Y-86474500D01*
X155850440Y-86513021D01*
X155735413Y-86586942D01*
X155735409Y-86586946D01*
X155645872Y-86690278D01*
X155645867Y-86690285D01*
X155589070Y-86814654D01*
X155589068Y-86814662D01*
X155569610Y-86950000D01*
X109977391Y-86950000D01*
X109969140Y-86887333D01*
X109960044Y-86818239D01*
X109960044Y-86818238D01*
X109899536Y-86672159D01*
X109803282Y-86546718D01*
X109677841Y-86450464D01*
X109531762Y-86389956D01*
X109531760Y-86389955D01*
X109375001Y-86369318D01*
X109374999Y-86369318D01*
X109218239Y-86389955D01*
X109218237Y-86389956D01*
X109072160Y-86450463D01*
X108946718Y-86546718D01*
X108850463Y-86672160D01*
X108789956Y-86818237D01*
X108789955Y-86818239D01*
X108769318Y-86974998D01*
X106721117Y-86974998D01*
X106670505Y-86887335D01*
X106572665Y-86789495D01*
X106572664Y-86789494D01*
X106572661Y-86789492D01*
X106452838Y-86720313D01*
X106452837Y-86720312D01*
X106452836Y-86720312D01*
X106319183Y-86684500D01*
X106180817Y-86684500D01*
X106047164Y-86720312D01*
X106047161Y-86720313D01*
X105927338Y-86789492D01*
X105927333Y-86789496D01*
X105829496Y-86887333D01*
X105829492Y-86887338D01*
X105760313Y-87007161D01*
X105760312Y-87007164D01*
X105724500Y-87140817D01*
X105724500Y-87279183D01*
X105753384Y-87386978D01*
X105760312Y-87412835D01*
X105760313Y-87412838D01*
X105829492Y-87532661D01*
X105829496Y-87532666D01*
X105833212Y-87536382D01*
X105866697Y-87597705D01*
X105861713Y-87667397D01*
X105819841Y-87723330D01*
X105792986Y-87738623D01*
X105756327Y-87753808D01*
X105756315Y-87753814D01*
X105592537Y-87863248D01*
X105592533Y-87863251D01*
X105453251Y-88002533D01*
X105453248Y-88002537D01*
X105343814Y-88166315D01*
X105343807Y-88166328D01*
X105268430Y-88348307D01*
X105268430Y-88348309D01*
X105260138Y-88390000D01*
X103869862Y-88390000D01*
X103861569Y-88348309D01*
X103861569Y-88348307D01*
X103786192Y-88166328D01*
X103786185Y-88166315D01*
X103676751Y-88002537D01*
X103676748Y-88002533D01*
X103537466Y-87863251D01*
X103537462Y-87863248D01*
X103373684Y-87753814D01*
X103373671Y-87753807D01*
X103191693Y-87678430D01*
X103191681Y-87678427D01*
X102998495Y-87640000D01*
X102850000Y-87640000D01*
X102850000Y-88340000D01*
X102350000Y-88340000D01*
X102350000Y-87640000D01*
X102201504Y-87640000D01*
X102008318Y-87678427D01*
X102008306Y-87678430D01*
X101826328Y-87753807D01*
X101826315Y-87753814D01*
X101662537Y-87863248D01*
X101662533Y-87863251D01*
X101523251Y-88002533D01*
X101523248Y-88002537D01*
X101413814Y-88166315D01*
X101413807Y-88166328D01*
X101338430Y-88348307D01*
X101338430Y-88348309D01*
X101330138Y-88390000D01*
X100300500Y-88390000D01*
X100300500Y-86357107D01*
X170169610Y-86357107D01*
X170189068Y-86492444D01*
X170189070Y-86492452D01*
X170245867Y-86616821D01*
X170245872Y-86616828D01*
X170335409Y-86720160D01*
X170335413Y-86720164D01*
X170395979Y-86759086D01*
X170450439Y-86794085D01*
X170516036Y-86813346D01*
X170581632Y-86832607D01*
X170581633Y-86832607D01*
X170718367Y-86832607D01*
X170849561Y-86794085D01*
X170964589Y-86720162D01*
X171054130Y-86616825D01*
X171110931Y-86492449D01*
X171124223Y-86400000D01*
X171969610Y-86400000D01*
X171989068Y-86535337D01*
X171989070Y-86535345D01*
X172045867Y-86659714D01*
X172045872Y-86659721D01*
X172135409Y-86763053D01*
X172135413Y-86763057D01*
X172183695Y-86794085D01*
X172250439Y-86836978D01*
X172316036Y-86856239D01*
X172381632Y-86875500D01*
X172381633Y-86875500D01*
X172518367Y-86875500D01*
X172649561Y-86836978D01*
X172764589Y-86763055D01*
X172854130Y-86659718D01*
X172910931Y-86535342D01*
X172930390Y-86400000D01*
X172910931Y-86264658D01*
X172891342Y-86221765D01*
X172854132Y-86140285D01*
X172854127Y-86140278D01*
X172764590Y-86036946D01*
X172764586Y-86036942D01*
X172649559Y-85963021D01*
X172518368Y-85924500D01*
X172518367Y-85924500D01*
X172381633Y-85924500D01*
X172381632Y-85924500D01*
X172250440Y-85963021D01*
X172135413Y-86036942D01*
X172135409Y-86036946D01*
X172045872Y-86140278D01*
X172045867Y-86140285D01*
X171989070Y-86264654D01*
X171989068Y-86264662D01*
X171969610Y-86400000D01*
X171124223Y-86400000D01*
X171130390Y-86357107D01*
X171110931Y-86221765D01*
X171073717Y-86140278D01*
X171054132Y-86097392D01*
X171054127Y-86097385D01*
X170964590Y-85994053D01*
X170964586Y-85994049D01*
X170873736Y-85935665D01*
X170849561Y-85920129D01*
X170849560Y-85920128D01*
X170849559Y-85920128D01*
X170718368Y-85881607D01*
X170718367Y-85881607D01*
X170581633Y-85881607D01*
X170581632Y-85881607D01*
X170450440Y-85920128D01*
X170335413Y-85994049D01*
X170335409Y-85994053D01*
X170245872Y-86097385D01*
X170245867Y-86097392D01*
X170189070Y-86221761D01*
X170189068Y-86221769D01*
X170169610Y-86357107D01*
X100300500Y-86357107D01*
X100300500Y-85000000D01*
X142569610Y-85000000D01*
X142589068Y-85135337D01*
X142589070Y-85135345D01*
X142645867Y-85259714D01*
X142645872Y-85259721D01*
X142735409Y-85363053D01*
X142735413Y-85363057D01*
X142795979Y-85401979D01*
X142850439Y-85436978D01*
X142916036Y-85456239D01*
X142981632Y-85475500D01*
X142981633Y-85475500D01*
X143118367Y-85475500D01*
X143249561Y-85436978D01*
X143364589Y-85363055D01*
X143375901Y-85350000D01*
X171119610Y-85350000D01*
X171139068Y-85485337D01*
X171139070Y-85485345D01*
X171195867Y-85609714D01*
X171195872Y-85609721D01*
X171285409Y-85713053D01*
X171285413Y-85713057D01*
X171342899Y-85750000D01*
X171400439Y-85786978D01*
X171466036Y-85806239D01*
X171531632Y-85825500D01*
X171531633Y-85825500D01*
X171668367Y-85825500D01*
X171799561Y-85786978D01*
X171914589Y-85713055D01*
X172004130Y-85609718D01*
X172054237Y-85500000D01*
X173269610Y-85500000D01*
X173289068Y-85635337D01*
X173289070Y-85635345D01*
X173345867Y-85759714D01*
X173345872Y-85759721D01*
X173435409Y-85863053D01*
X173435413Y-85863057D01*
X173470095Y-85885345D01*
X173550439Y-85936978D01*
X173616036Y-85956239D01*
X173681632Y-85975500D01*
X173681633Y-85975500D01*
X173818367Y-85975500D01*
X173949561Y-85936978D01*
X174064589Y-85863055D01*
X174154130Y-85759718D01*
X174158568Y-85750000D01*
X175619610Y-85750000D01*
X175639068Y-85885337D01*
X175639070Y-85885345D01*
X175695867Y-86009714D01*
X175695872Y-86009721D01*
X175785409Y-86113053D01*
X175785413Y-86113057D01*
X175827782Y-86140285D01*
X175900439Y-86186978D01*
X175966036Y-86206239D01*
X176031632Y-86225500D01*
X176031633Y-86225500D01*
X176168367Y-86225500D01*
X176299561Y-86186978D01*
X176414589Y-86113055D01*
X176504130Y-86009718D01*
X176511285Y-85994052D01*
X176545044Y-85920129D01*
X176560931Y-85885342D01*
X176580390Y-85750000D01*
X177369610Y-85750000D01*
X177389068Y-85885337D01*
X177389070Y-85885345D01*
X177445867Y-86009714D01*
X177445872Y-86009721D01*
X177535409Y-86113053D01*
X177535413Y-86113057D01*
X177577782Y-86140285D01*
X177650439Y-86186978D01*
X177716036Y-86206239D01*
X177781632Y-86225500D01*
X177781633Y-86225500D01*
X177918367Y-86225500D01*
X178049561Y-86186978D01*
X178164589Y-86113055D01*
X178254130Y-86009718D01*
X178261285Y-85994052D01*
X178295044Y-85920129D01*
X178310931Y-85885342D01*
X178330390Y-85750000D01*
X178310931Y-85614658D01*
X178298677Y-85587827D01*
X178254132Y-85490285D01*
X178254127Y-85490278D01*
X178164590Y-85386946D01*
X178164586Y-85386942D01*
X178049559Y-85313021D01*
X177918368Y-85274500D01*
X177918367Y-85274500D01*
X177781633Y-85274500D01*
X177781632Y-85274500D01*
X177650440Y-85313021D01*
X177535413Y-85386942D01*
X177535409Y-85386946D01*
X177445872Y-85490278D01*
X177445867Y-85490285D01*
X177389070Y-85614654D01*
X177389068Y-85614662D01*
X177369610Y-85750000D01*
X176580390Y-85750000D01*
X176560931Y-85614658D01*
X176548677Y-85587827D01*
X176504132Y-85490285D01*
X176504127Y-85490278D01*
X176414590Y-85386946D01*
X176414586Y-85386942D01*
X176299559Y-85313021D01*
X176168368Y-85274500D01*
X176168367Y-85274500D01*
X176031633Y-85274500D01*
X176031632Y-85274500D01*
X175900440Y-85313021D01*
X175785413Y-85386942D01*
X175785409Y-85386946D01*
X175695872Y-85490278D01*
X175695867Y-85490285D01*
X175639070Y-85614654D01*
X175639068Y-85614662D01*
X175619610Y-85750000D01*
X174158568Y-85750000D01*
X174210931Y-85635342D01*
X174230390Y-85500000D01*
X174210931Y-85364658D01*
X174198677Y-85337827D01*
X174154132Y-85240285D01*
X174154127Y-85240278D01*
X174064590Y-85136946D01*
X174064586Y-85136942D01*
X173949559Y-85063021D01*
X173818368Y-85024500D01*
X173818367Y-85024500D01*
X173681633Y-85024500D01*
X173681632Y-85024500D01*
X173550440Y-85063021D01*
X173435413Y-85136942D01*
X173435409Y-85136946D01*
X173345872Y-85240278D01*
X173345867Y-85240285D01*
X173289070Y-85364654D01*
X173289068Y-85364662D01*
X173269610Y-85500000D01*
X172054237Y-85500000D01*
X172060931Y-85485342D01*
X172080390Y-85350000D01*
X172060931Y-85214658D01*
X172025441Y-85136946D01*
X172004132Y-85090285D01*
X172004127Y-85090278D01*
X171914590Y-84986946D01*
X171914586Y-84986942D01*
X171799559Y-84913021D01*
X171668368Y-84874500D01*
X171668367Y-84874500D01*
X171531633Y-84874500D01*
X171531632Y-84874500D01*
X171400440Y-84913021D01*
X171285413Y-84986942D01*
X171285409Y-84986946D01*
X171195872Y-85090278D01*
X171195867Y-85090285D01*
X171139070Y-85214654D01*
X171139068Y-85214662D01*
X171119610Y-85350000D01*
X143375901Y-85350000D01*
X143454130Y-85259718D01*
X143510931Y-85135342D01*
X143530390Y-85000000D01*
X143510931Y-84864658D01*
X143498677Y-84837827D01*
X143454132Y-84740285D01*
X143454127Y-84740278D01*
X143364590Y-84636946D01*
X143364586Y-84636942D01*
X143249559Y-84563021D01*
X143118368Y-84524500D01*
X143118367Y-84524500D01*
X142981633Y-84524500D01*
X142981632Y-84524500D01*
X142850440Y-84563021D01*
X142735413Y-84636942D01*
X142735409Y-84636946D01*
X142645872Y-84740278D01*
X142645867Y-84740285D01*
X142589070Y-84864654D01*
X142589068Y-84864662D01*
X142569610Y-85000000D01*
X100300500Y-85000000D01*
X100300500Y-84150000D01*
X143869610Y-84150000D01*
X143889068Y-84285337D01*
X143889070Y-84285345D01*
X143945867Y-84409714D01*
X143945872Y-84409721D01*
X144035409Y-84513053D01*
X144035413Y-84513057D01*
X144095979Y-84551979D01*
X144150439Y-84586978D01*
X144216036Y-84606239D01*
X144281632Y-84625500D01*
X144281633Y-84625500D01*
X144418367Y-84625500D01*
X144549561Y-84586978D01*
X144664589Y-84513055D01*
X144754130Y-84409718D01*
X144810931Y-84285342D01*
X144830390Y-84150000D01*
X144810931Y-84014658D01*
X144798677Y-83987827D01*
X144754132Y-83890285D01*
X144754127Y-83890278D01*
X144664590Y-83786946D01*
X144664586Y-83786942D01*
X144549559Y-83713021D01*
X144418368Y-83674500D01*
X144418367Y-83674500D01*
X144281633Y-83674500D01*
X144281632Y-83674500D01*
X144150440Y-83713021D01*
X144035413Y-83786942D01*
X144035409Y-83786946D01*
X143945872Y-83890278D01*
X143945867Y-83890285D01*
X143889070Y-84014654D01*
X143889068Y-84014662D01*
X143869610Y-84150000D01*
X100300500Y-84150000D01*
X100300500Y-79750000D01*
X101330138Y-79750000D01*
X102133012Y-79750000D01*
X102115795Y-79759940D01*
X102059940Y-79815795D01*
X102020444Y-79884204D01*
X102000000Y-79960504D01*
X102000000Y-80039496D01*
X102020444Y-80115796D01*
X102059940Y-80184205D01*
X102115795Y-80240060D01*
X102133012Y-80250000D01*
X101330138Y-80250000D01*
X101338430Y-80291690D01*
X101338430Y-80291692D01*
X101413807Y-80473671D01*
X101413814Y-80473684D01*
X101523248Y-80637462D01*
X101523251Y-80637466D01*
X101662533Y-80776748D01*
X101662537Y-80776751D01*
X101826315Y-80886185D01*
X101826328Y-80886192D01*
X102008306Y-80961569D01*
X102008318Y-80961572D01*
X102201504Y-80999999D01*
X102201508Y-81000000D01*
X102350000Y-81000000D01*
X102350000Y-80300000D01*
X102850000Y-80300000D01*
X102850000Y-81000000D01*
X102998492Y-81000000D01*
X102998495Y-80999999D01*
X103191681Y-80961572D01*
X103191693Y-80961569D01*
X103373671Y-80886192D01*
X103373684Y-80886185D01*
X103537462Y-80776751D01*
X103537466Y-80776748D01*
X103676748Y-80637466D01*
X103676751Y-80637462D01*
X103786185Y-80473684D01*
X103786192Y-80473671D01*
X103861569Y-80291692D01*
X103861569Y-80291690D01*
X103869862Y-80250000D01*
X103066988Y-80250000D01*
X103084205Y-80240060D01*
X103140060Y-80184205D01*
X103179556Y-80115796D01*
X103200000Y-80039496D01*
X103200000Y-79960504D01*
X103179556Y-79884204D01*
X103140060Y-79815795D01*
X103084205Y-79759940D01*
X103066988Y-79750000D01*
X103869862Y-79750000D01*
X105260138Y-79750000D01*
X106063012Y-79750000D01*
X106045795Y-79759940D01*
X105989940Y-79815795D01*
X105950444Y-79884204D01*
X105930000Y-79960504D01*
X105930000Y-80039496D01*
X105950444Y-80115796D01*
X105989940Y-80184205D01*
X106045795Y-80240060D01*
X106063012Y-80250000D01*
X105260138Y-80250000D01*
X105268430Y-80291690D01*
X105268430Y-80291692D01*
X105343807Y-80473671D01*
X105343814Y-80473684D01*
X105453248Y-80637462D01*
X105453251Y-80637466D01*
X105592533Y-80776748D01*
X105592537Y-80776751D01*
X105756315Y-80886185D01*
X105756324Y-80886190D01*
X105792984Y-80901375D01*
X105847387Y-80945216D01*
X105869452Y-81011510D01*
X105852173Y-81079209D01*
X105833217Y-81103613D01*
X105829492Y-81107338D01*
X105760313Y-81227161D01*
X105760312Y-81227164D01*
X105724500Y-81360817D01*
X105724500Y-81499183D01*
X105738117Y-81550000D01*
X105760312Y-81632835D01*
X105760313Y-81632838D01*
X105829492Y-81752661D01*
X105829494Y-81752664D01*
X105829495Y-81752665D01*
X105927335Y-81850505D01*
X105927336Y-81850506D01*
X105927338Y-81850507D01*
X105931381Y-81852841D01*
X106047164Y-81919688D01*
X106180817Y-81955500D01*
X106180819Y-81955500D01*
X106319181Y-81955500D01*
X106319183Y-81955500D01*
X106452836Y-81919688D01*
X106572665Y-81850505D01*
X106670505Y-81752665D01*
X106739688Y-81632836D01*
X106761884Y-81549998D01*
X108844318Y-81549998D01*
X108844318Y-81550001D01*
X108864955Y-81706760D01*
X108864956Y-81706762D01*
X108924495Y-81850503D01*
X108925464Y-81852841D01*
X109021718Y-81978282D01*
X109147159Y-82074536D01*
X109293238Y-82135044D01*
X109371619Y-82145363D01*
X109449999Y-82155682D01*
X109450000Y-82155682D01*
X109450001Y-82155682D01*
X109502254Y-82148802D01*
X109606762Y-82135044D01*
X109752841Y-82074536D01*
X109878282Y-81978282D01*
X109974536Y-81852841D01*
X109996423Y-81800000D01*
X149319610Y-81800000D01*
X149339068Y-81935337D01*
X149339070Y-81935345D01*
X149395867Y-82059714D01*
X149395872Y-82059721D01*
X149485409Y-82163053D01*
X149485413Y-82163057D01*
X149520095Y-82185345D01*
X149600439Y-82236978D01*
X149666036Y-82256239D01*
X149731632Y-82275500D01*
X149731633Y-82275500D01*
X149868367Y-82275500D01*
X149999561Y-82236978D01*
X150114589Y-82163055D01*
X150204130Y-82059718D01*
X150260931Y-81935342D01*
X150280390Y-81800000D01*
X150260931Y-81664658D01*
X150246398Y-81632835D01*
X150204132Y-81540285D01*
X150204127Y-81540278D01*
X150125901Y-81450000D01*
X150519610Y-81450000D01*
X150539068Y-81585337D01*
X150539070Y-81585345D01*
X150595867Y-81709714D01*
X150595872Y-81709721D01*
X150685409Y-81813053D01*
X150685413Y-81813057D01*
X150743682Y-81850503D01*
X150800439Y-81886978D01*
X150866036Y-81906239D01*
X150931632Y-81925500D01*
X150931633Y-81925500D01*
X151068367Y-81925500D01*
X151199561Y-81886978D01*
X151314589Y-81813055D01*
X151404130Y-81709718D01*
X151431402Y-81650000D01*
X151719610Y-81650000D01*
X151739068Y-81785337D01*
X151739070Y-81785345D01*
X151795867Y-81909714D01*
X151795872Y-81909721D01*
X151885409Y-82013053D01*
X151885413Y-82013057D01*
X151942899Y-82050000D01*
X152000439Y-82086978D01*
X152066036Y-82106239D01*
X152131632Y-82125500D01*
X152131633Y-82125500D01*
X152268367Y-82125500D01*
X152399561Y-82086978D01*
X152457101Y-82050000D01*
X152869610Y-82050000D01*
X152889068Y-82185337D01*
X152889070Y-82185345D01*
X152945867Y-82309714D01*
X152945872Y-82309721D01*
X153035409Y-82413053D01*
X153035413Y-82413057D01*
X153095979Y-82451979D01*
X153150439Y-82486978D01*
X153216036Y-82506239D01*
X153281632Y-82525500D01*
X153281633Y-82525500D01*
X153418367Y-82525500D01*
X153549561Y-82486978D01*
X153664589Y-82413055D01*
X153754130Y-82309718D01*
X153810931Y-82185342D01*
X153830390Y-82050000D01*
X153810931Y-81914658D01*
X153781632Y-81850503D01*
X153754132Y-81790285D01*
X153754127Y-81790278D01*
X153664590Y-81686946D01*
X153664586Y-81686942D01*
X153549559Y-81613021D01*
X153418368Y-81574500D01*
X153418367Y-81574500D01*
X153281633Y-81574500D01*
X153281632Y-81574500D01*
X153150440Y-81613021D01*
X153035413Y-81686942D01*
X153035409Y-81686946D01*
X152945872Y-81790278D01*
X152945867Y-81790285D01*
X152889070Y-81914654D01*
X152889068Y-81914662D01*
X152869610Y-82050000D01*
X152457101Y-82050000D01*
X152514589Y-82013055D01*
X152604130Y-81909718D01*
X152660931Y-81785342D01*
X152680390Y-81650000D01*
X152660931Y-81514658D01*
X152648677Y-81487827D01*
X152604132Y-81390285D01*
X152604127Y-81390278D01*
X152514590Y-81286946D01*
X152514586Y-81286942D01*
X152399559Y-81213021D01*
X152268368Y-81174500D01*
X152268367Y-81174500D01*
X152131633Y-81174500D01*
X152131632Y-81174500D01*
X152000440Y-81213021D01*
X151885413Y-81286942D01*
X151885409Y-81286946D01*
X151795872Y-81390278D01*
X151795867Y-81390285D01*
X151739070Y-81514654D01*
X151739068Y-81514662D01*
X151719610Y-81650000D01*
X151431402Y-81650000D01*
X151460931Y-81585342D01*
X151480390Y-81450000D01*
X151460931Y-81314658D01*
X151448273Y-81286942D01*
X151404132Y-81190285D01*
X151404127Y-81190278D01*
X151314590Y-81086946D01*
X151314586Y-81086942D01*
X151199559Y-81013021D01*
X151068368Y-80974500D01*
X151068367Y-80974500D01*
X150931633Y-80974500D01*
X150931632Y-80974500D01*
X150800440Y-81013021D01*
X150685413Y-81086942D01*
X150685409Y-81086946D01*
X150595872Y-81190278D01*
X150595867Y-81190285D01*
X150539070Y-81314654D01*
X150539068Y-81314662D01*
X150519610Y-81450000D01*
X150125901Y-81450000D01*
X150114590Y-81436946D01*
X150114586Y-81436942D01*
X149999559Y-81363021D01*
X149868368Y-81324500D01*
X149868367Y-81324500D01*
X149731633Y-81324500D01*
X149731632Y-81324500D01*
X149600440Y-81363021D01*
X149485413Y-81436942D01*
X149485409Y-81436946D01*
X149395872Y-81540278D01*
X149395867Y-81540285D01*
X149339070Y-81664654D01*
X149339068Y-81664662D01*
X149319610Y-81800000D01*
X109996423Y-81800000D01*
X110035044Y-81706762D01*
X110055682Y-81550000D01*
X110035044Y-81393238D01*
X109974536Y-81247159D01*
X109878282Y-81121718D01*
X109752841Y-81025464D01*
X109722803Y-81013022D01*
X109606762Y-80964956D01*
X109606760Y-80964955D01*
X109450001Y-80944318D01*
X109449999Y-80944318D01*
X109293239Y-80964955D01*
X109293237Y-80964956D01*
X109147160Y-81025463D01*
X109021718Y-81121718D01*
X108925463Y-81247160D01*
X108864956Y-81393237D01*
X108864955Y-81393239D01*
X108844318Y-81549998D01*
X106761884Y-81549998D01*
X106775500Y-81499183D01*
X106775500Y-81360817D01*
X106739688Y-81227164D01*
X106670505Y-81107335D01*
X106572665Y-81009495D01*
X106566918Y-81003748D01*
X106569295Y-81001370D01*
X106537294Y-80957509D01*
X106530000Y-80915607D01*
X106530000Y-80300000D01*
X107030000Y-80300000D01*
X107030000Y-81000000D01*
X107428492Y-81000000D01*
X107428495Y-80999999D01*
X107621681Y-80961572D01*
X107621693Y-80961569D01*
X107803671Y-80886192D01*
X107803684Y-80886185D01*
X107967462Y-80776751D01*
X107967466Y-80776748D01*
X108106748Y-80637466D01*
X108106751Y-80637462D01*
X108216185Y-80473684D01*
X108216192Y-80473671D01*
X108291569Y-80291692D01*
X108291569Y-80291690D01*
X108299862Y-80250000D01*
X107496988Y-80250000D01*
X107514205Y-80240060D01*
X107570060Y-80184205D01*
X107609556Y-80115796D01*
X107630000Y-80039496D01*
X107630000Y-79960504D01*
X107609556Y-79884204D01*
X107570060Y-79815795D01*
X107514205Y-79759940D01*
X107496988Y-79750000D01*
X108299862Y-79750000D01*
X108291569Y-79708309D01*
X108291569Y-79708307D01*
X108216192Y-79526328D01*
X108216185Y-79526315D01*
X108106751Y-79362537D01*
X108106748Y-79362533D01*
X107967466Y-79223251D01*
X107967462Y-79223248D01*
X107803684Y-79113814D01*
X107803671Y-79113807D01*
X107621693Y-79038430D01*
X107621681Y-79038427D01*
X107428495Y-79000000D01*
X107030000Y-79000000D01*
X107030000Y-79700000D01*
X106530000Y-79700000D01*
X106530000Y-79000000D01*
X106131504Y-79000000D01*
X105938318Y-79038427D01*
X105938306Y-79038430D01*
X105756328Y-79113807D01*
X105756315Y-79113814D01*
X105592537Y-79223248D01*
X105592533Y-79223251D01*
X105453251Y-79362533D01*
X105453248Y-79362537D01*
X105343814Y-79526315D01*
X105343807Y-79526328D01*
X105268430Y-79708307D01*
X105268430Y-79708309D01*
X105260138Y-79750000D01*
X103869862Y-79750000D01*
X103861569Y-79708309D01*
X103861569Y-79708307D01*
X103786192Y-79526328D01*
X103786185Y-79526315D01*
X103676751Y-79362537D01*
X103676748Y-79362533D01*
X103537466Y-79223251D01*
X103537462Y-79223248D01*
X103373684Y-79113814D01*
X103373671Y-79113807D01*
X103191693Y-79038430D01*
X103191681Y-79038427D01*
X102998495Y-79000000D01*
X102850000Y-79000000D01*
X102850000Y-79700000D01*
X102350000Y-79700000D01*
X102350000Y-79000000D01*
X102201504Y-79000000D01*
X102008318Y-79038427D01*
X102008306Y-79038430D01*
X101826328Y-79113807D01*
X101826315Y-79113814D01*
X101662537Y-79223248D01*
X101662533Y-79223251D01*
X101523251Y-79362533D01*
X101523248Y-79362537D01*
X101413814Y-79526315D01*
X101413807Y-79526328D01*
X101338430Y-79708307D01*
X101338430Y-79708309D01*
X101330138Y-79750000D01*
X100300500Y-79750000D01*
X100300500Y-78449999D01*
X111919892Y-78449999D01*
X111919892Y-78450000D01*
X111938282Y-78648464D01*
X111992830Y-78840183D01*
X112081670Y-79018598D01*
X112081675Y-79018606D01*
X112201792Y-79177666D01*
X112251797Y-79223251D01*
X112349090Y-79311945D01*
X112518554Y-79416873D01*
X112704414Y-79488876D01*
X112900340Y-79525500D01*
X112900342Y-79525500D01*
X113099658Y-79525500D01*
X113099660Y-79525500D01*
X113295586Y-79488876D01*
X113481446Y-79416873D01*
X113650910Y-79311945D01*
X113798209Y-79177664D01*
X113918326Y-79018604D01*
X114007171Y-78840180D01*
X114007868Y-78838781D01*
X114055371Y-78787544D01*
X114123034Y-78770123D01*
X114189374Y-78792049D01*
X114233329Y-78846360D01*
X114238643Y-78861960D01*
X114250148Y-78904900D01*
X114250152Y-78904909D01*
X114348133Y-79115030D01*
X114403023Y-79193422D01*
X114976212Y-78620233D01*
X114987482Y-78662292D01*
X115059890Y-78787708D01*
X115162292Y-78890110D01*
X115287708Y-78962518D01*
X115329765Y-78973787D01*
X114756576Y-79546975D01*
X114834969Y-79601867D01*
X115045090Y-79699847D01*
X115045099Y-79699851D01*
X115269031Y-79759852D01*
X115269041Y-79759854D01*
X115499999Y-79780061D01*
X115500001Y-79780061D01*
X115730958Y-79759854D01*
X115730968Y-79759852D01*
X115954900Y-79699851D01*
X115954909Y-79699847D01*
X116165030Y-79601867D01*
X116165034Y-79601865D01*
X116243422Y-79546976D01*
X116243422Y-79546975D01*
X115670235Y-78973787D01*
X115712292Y-78962518D01*
X115837708Y-78890110D01*
X115940110Y-78787708D01*
X116012518Y-78662292D01*
X116023787Y-78620234D01*
X116596975Y-79193422D01*
X116596976Y-79193422D01*
X116651865Y-79115034D01*
X116651869Y-79115026D01*
X116688118Y-79037291D01*
X116734290Y-78984851D01*
X116801483Y-78965699D01*
X116868365Y-78985914D01*
X116913699Y-79039080D01*
X116924500Y-79089695D01*
X116924500Y-79299678D01*
X116939032Y-79372735D01*
X116939033Y-79372739D01*
X116939034Y-79372740D01*
X116994399Y-79455601D01*
X117077260Y-79510966D01*
X117077264Y-79510967D01*
X117150321Y-79525499D01*
X117150324Y-79525500D01*
X117150326Y-79525500D01*
X118849676Y-79525500D01*
X118849677Y-79525499D01*
X118922740Y-79510966D01*
X119005601Y-79455601D01*
X119060966Y-79372740D01*
X119075500Y-79299674D01*
X119075500Y-77600326D01*
X119075500Y-77600323D01*
X119075499Y-77600321D01*
X119060967Y-77527264D01*
X119060966Y-77527260D01*
X119052366Y-77514389D01*
X119005601Y-77444399D01*
X118939152Y-77400000D01*
X118922739Y-77389033D01*
X118922735Y-77389032D01*
X118849677Y-77374500D01*
X118849674Y-77374500D01*
X117150326Y-77374500D01*
X117150323Y-77374500D01*
X117077264Y-77389032D01*
X117077260Y-77389033D01*
X116994399Y-77444399D01*
X116939033Y-77527260D01*
X116939032Y-77527264D01*
X116924500Y-77600321D01*
X116924500Y-77810305D01*
X116904815Y-77877344D01*
X116852011Y-77923099D01*
X116782853Y-77933043D01*
X116719297Y-77904018D01*
X116688118Y-77862710D01*
X116651867Y-77784971D01*
X116651865Y-77784968D01*
X116596975Y-77706577D01*
X116596975Y-77706576D01*
X116023787Y-78279764D01*
X116012518Y-78237708D01*
X115940110Y-78112292D01*
X115837708Y-78009890D01*
X115712292Y-77937482D01*
X115670234Y-77926212D01*
X116243422Y-77353023D01*
X116165030Y-77298133D01*
X115954909Y-77200152D01*
X115954900Y-77200148D01*
X115730968Y-77140147D01*
X115730958Y-77140145D01*
X115500001Y-77119939D01*
X115499999Y-77119939D01*
X115269041Y-77140145D01*
X115269031Y-77140147D01*
X115045099Y-77200148D01*
X115045090Y-77200152D01*
X114834967Y-77298134D01*
X114756576Y-77353022D01*
X115329766Y-77926212D01*
X115287708Y-77937482D01*
X115162292Y-78009890D01*
X115059890Y-78112292D01*
X114987482Y-78237708D01*
X114976212Y-78279766D01*
X114403022Y-77706576D01*
X114348134Y-77784967D01*
X114250152Y-77995090D01*
X114250149Y-77995096D01*
X114238643Y-78038040D01*
X114202278Y-78097700D01*
X114139431Y-78128229D01*
X114070055Y-78119934D01*
X114016177Y-78075449D01*
X114007868Y-78061218D01*
X113918329Y-77881401D01*
X113918324Y-77881393D01*
X113798207Y-77722333D01*
X113650911Y-77588056D01*
X113650910Y-77588055D01*
X113573299Y-77540000D01*
X113481447Y-77483127D01*
X113481445Y-77483126D01*
X113381478Y-77444399D01*
X113295586Y-77411124D01*
X113295582Y-77411123D01*
X113212404Y-77395575D01*
X113099660Y-77374500D01*
X112900340Y-77374500D01*
X112822588Y-77389034D01*
X112704417Y-77411123D01*
X112704415Y-77411123D01*
X112704414Y-77411124D01*
X112652517Y-77431229D01*
X112518554Y-77483126D01*
X112518552Y-77483127D01*
X112349088Y-77588056D01*
X112201792Y-77722333D01*
X112081675Y-77881393D01*
X112081670Y-77881401D01*
X111992830Y-78059816D01*
X111975725Y-78119934D01*
X111952803Y-78200500D01*
X111938282Y-78251535D01*
X111919892Y-78449999D01*
X100300500Y-78449999D01*
X100300500Y-75356102D01*
X100320185Y-75289063D01*
X100372989Y-75243308D01*
X100442147Y-75233364D01*
X100505703Y-75262389D01*
X100540264Y-75311664D01*
X100615244Y-75506994D01*
X100791310Y-75852543D01*
X101002531Y-76177793D01*
X101211095Y-76435350D01*
X101211096Y-76435350D01*
X102705748Y-74940698D01*
X102779588Y-75042330D01*
X102957670Y-75220412D01*
X103059300Y-75294251D01*
X101564648Y-76788903D01*
X101564649Y-76788904D01*
X101822206Y-76997468D01*
X102147456Y-77208689D01*
X102493005Y-77384755D01*
X102855063Y-77523737D01*
X103229669Y-77624112D01*
X103229676Y-77624113D01*
X103612712Y-77684780D01*
X103999999Y-77705078D01*
X104000001Y-77705078D01*
X104387287Y-77684780D01*
X104770323Y-77624113D01*
X104770330Y-77624112D01*
X105144936Y-77523737D01*
X105506994Y-77384755D01*
X105852543Y-77208689D01*
X106177783Y-76997476D01*
X106177785Y-76997475D01*
X106435349Y-76788902D01*
X104940698Y-75294251D01*
X105042330Y-75220412D01*
X105220412Y-75042330D01*
X105294251Y-74940698D01*
X106788902Y-76435349D01*
X106937251Y-76252155D01*
X138500000Y-76252155D01*
X138500000Y-76900000D01*
X139416988Y-76900000D01*
X139384075Y-76957007D01*
X139350000Y-77084174D01*
X139350000Y-77215826D01*
X139384075Y-77342993D01*
X139416988Y-77400000D01*
X138500000Y-77400000D01*
X138500000Y-78047844D01*
X138506401Y-78107372D01*
X138506403Y-78107379D01*
X138556645Y-78242086D01*
X138556649Y-78242093D01*
X138642809Y-78357187D01*
X138642812Y-78357190D01*
X138757906Y-78443350D01*
X138757913Y-78443354D01*
X138892620Y-78493596D01*
X138892627Y-78493598D01*
X138952155Y-78499999D01*
X138952172Y-78500000D01*
X139600000Y-78500000D01*
X139600000Y-77583012D01*
X139657007Y-77615925D01*
X139784174Y-77650000D01*
X139915826Y-77650000D01*
X140042993Y-77615925D01*
X140100000Y-77583012D01*
X140100000Y-78500000D01*
X140747828Y-78500000D01*
X140747844Y-78499999D01*
X140807372Y-78493598D01*
X140807379Y-78493596D01*
X140942086Y-78443354D01*
X140942093Y-78443350D01*
X141057187Y-78357190D01*
X141057190Y-78357187D01*
X141143350Y-78242093D01*
X141143354Y-78242086D01*
X141193596Y-78107379D01*
X141193598Y-78107372D01*
X141199999Y-78047844D01*
X141200000Y-78047827D01*
X141200000Y-77756312D01*
X141219685Y-77689273D01*
X141272489Y-77643518D01*
X141341647Y-77633574D01*
X141405203Y-77662599D01*
X141435000Y-77701041D01*
X141450325Y-77731819D01*
X141573237Y-77894581D01*
X141723958Y-78031980D01*
X141723960Y-78031982D01*
X141769232Y-78060013D01*
X141897363Y-78139348D01*
X142087544Y-78213024D01*
X142288024Y-78250500D01*
X142288026Y-78250500D01*
X142491974Y-78250500D01*
X142491976Y-78250500D01*
X142692456Y-78213024D01*
X142882637Y-78139348D01*
X143056041Y-78031981D01*
X143196410Y-77904018D01*
X143206762Y-77894581D01*
X143206764Y-77894579D01*
X143329673Y-77731821D01*
X143413044Y-77564389D01*
X143416817Y-77556812D01*
X143464319Y-77505575D01*
X143531982Y-77488153D01*
X143598323Y-77510078D01*
X143642278Y-77564389D01*
X143647592Y-77579989D01*
X143656567Y-77613485D01*
X143656570Y-77613492D01*
X143756399Y-77827578D01*
X143891894Y-78021082D01*
X144058917Y-78188105D01*
X144252421Y-78323600D01*
X144466507Y-78423429D01*
X144466516Y-78423433D01*
X144680000Y-78480634D01*
X144680000Y-77583012D01*
X144737007Y-77615925D01*
X144864174Y-77650000D01*
X144995826Y-77650000D01*
X145122993Y-77615925D01*
X145180000Y-77583012D01*
X145180000Y-78480633D01*
X145393483Y-78423433D01*
X145393492Y-78423429D01*
X145607578Y-78323600D01*
X145801082Y-78188105D01*
X145968105Y-78021082D01*
X146103600Y-77827578D01*
X146203429Y-77613492D01*
X146203432Y-77613486D01*
X146260636Y-77400000D01*
X145363012Y-77400000D01*
X145395925Y-77342993D01*
X145430000Y-77215826D01*
X145430000Y-77084174D01*
X145395925Y-76957007D01*
X145363012Y-76900000D01*
X146260636Y-76900000D01*
X146260635Y-76899999D01*
X146203432Y-76686513D01*
X146203429Y-76686507D01*
X146103600Y-76472422D01*
X146103599Y-76472420D01*
X145968113Y-76278926D01*
X145968108Y-76278920D01*
X145891343Y-76202155D01*
X150775000Y-76202155D01*
X150775000Y-76850000D01*
X151691988Y-76850000D01*
X151659075Y-76907007D01*
X151625000Y-77034174D01*
X151625000Y-77165826D01*
X151659075Y-77292993D01*
X151691988Y-77350000D01*
X150775000Y-77350000D01*
X150775000Y-77997844D01*
X150781401Y-78057372D01*
X150781403Y-78057379D01*
X150831645Y-78192086D01*
X150831649Y-78192093D01*
X150917809Y-78307187D01*
X150917812Y-78307190D01*
X151032906Y-78393350D01*
X151032913Y-78393354D01*
X151167620Y-78443596D01*
X151167627Y-78443598D01*
X151227155Y-78449999D01*
X151227172Y-78450000D01*
X151875000Y-78450000D01*
X151875000Y-77533012D01*
X151932007Y-77565925D01*
X152059174Y-77600000D01*
X152190826Y-77600000D01*
X152317993Y-77565925D01*
X152375000Y-77533012D01*
X152375000Y-78450000D01*
X153022828Y-78450000D01*
X153022844Y-78449999D01*
X153082372Y-78443598D01*
X153082379Y-78443596D01*
X153217086Y-78393354D01*
X153217093Y-78393350D01*
X153332187Y-78307190D01*
X153332190Y-78307187D01*
X153418350Y-78192093D01*
X153418354Y-78192086D01*
X153467614Y-78060013D01*
X153509485Y-78004079D01*
X153574949Y-77979662D01*
X153643222Y-77994513D01*
X153671477Y-78015665D01*
X153793917Y-78138105D01*
X153987421Y-78273600D01*
X154201507Y-78373429D01*
X154201516Y-78373433D01*
X154415000Y-78430634D01*
X154415000Y-77533012D01*
X154472007Y-77565925D01*
X154599174Y-77600000D01*
X154730826Y-77600000D01*
X154857993Y-77565925D01*
X154915000Y-77533012D01*
X154915000Y-78430633D01*
X155128483Y-78373433D01*
X155128492Y-78373429D01*
X155342578Y-78273600D01*
X155536082Y-78138105D01*
X155703105Y-77971082D01*
X155833425Y-77784968D01*
X155888002Y-77741344D01*
X155957501Y-77734151D01*
X156019855Y-77765673D01*
X156036575Y-77784968D01*
X156166894Y-77971082D01*
X156333917Y-78138105D01*
X156527421Y-78273600D01*
X156741507Y-78373429D01*
X156741516Y-78373433D01*
X156955000Y-78430634D01*
X156955000Y-77533012D01*
X157012007Y-77565925D01*
X157139174Y-77600000D01*
X157270826Y-77600000D01*
X157397993Y-77565925D01*
X157455000Y-77533012D01*
X157455000Y-78430633D01*
X157668483Y-78373433D01*
X157668492Y-78373429D01*
X157882578Y-78273600D01*
X158076082Y-78138105D01*
X158243105Y-77971082D01*
X158373425Y-77784968D01*
X158428002Y-77741344D01*
X158497501Y-77734151D01*
X158559855Y-77765673D01*
X158576575Y-77784968D01*
X158706894Y-77971082D01*
X158873917Y-78138105D01*
X159067421Y-78273600D01*
X159281507Y-78373429D01*
X159281516Y-78373433D01*
X159495000Y-78430634D01*
X159495000Y-77533012D01*
X159552007Y-77565925D01*
X159679174Y-77600000D01*
X159810826Y-77600000D01*
X159937993Y-77565925D01*
X159995000Y-77533012D01*
X159995000Y-78430633D01*
X160208483Y-78373433D01*
X160208492Y-78373429D01*
X160422578Y-78273600D01*
X160616082Y-78138105D01*
X160783105Y-77971082D01*
X160913425Y-77784968D01*
X160968002Y-77741344D01*
X161037501Y-77734151D01*
X161099855Y-77765673D01*
X161116575Y-77784968D01*
X161246894Y-77971082D01*
X161413917Y-78138105D01*
X161607421Y-78273600D01*
X161821507Y-78373429D01*
X161821516Y-78373433D01*
X162035000Y-78430634D01*
X162035000Y-77533012D01*
X162092007Y-77565925D01*
X162219174Y-77600000D01*
X162350826Y-77600000D01*
X162477993Y-77565925D01*
X162535000Y-77533012D01*
X162535000Y-78430633D01*
X162748483Y-78373433D01*
X162748492Y-78373429D01*
X162962578Y-78273600D01*
X163156082Y-78138105D01*
X163323105Y-77971082D01*
X163458600Y-77777578D01*
X163558429Y-77563492D01*
X163558431Y-77563489D01*
X163567406Y-77529992D01*
X163603770Y-77470331D01*
X163666616Y-77439800D01*
X163735992Y-77448094D01*
X163789871Y-77492578D01*
X163798182Y-77506811D01*
X163885327Y-77681821D01*
X164008237Y-77844581D01*
X164158958Y-77981980D01*
X164158960Y-77981982D01*
X164249498Y-78038040D01*
X164332363Y-78089348D01*
X164522544Y-78163024D01*
X164723024Y-78200500D01*
X164723026Y-78200500D01*
X164926974Y-78200500D01*
X164926976Y-78200500D01*
X165127456Y-78163024D01*
X165317637Y-78089348D01*
X165491041Y-77981981D01*
X165641764Y-77844579D01*
X165764673Y-77681821D01*
X165835291Y-77540000D01*
X165851817Y-77506812D01*
X165899319Y-77455575D01*
X165966982Y-77438153D01*
X166033323Y-77460078D01*
X166077278Y-77514389D01*
X166082592Y-77529989D01*
X166091567Y-77563485D01*
X166091570Y-77563492D01*
X166191399Y-77777578D01*
X166326894Y-77971082D01*
X166493917Y-78138105D01*
X166687421Y-78273600D01*
X166901507Y-78373429D01*
X166901516Y-78373433D01*
X167115000Y-78430634D01*
X167115000Y-77533012D01*
X167172007Y-77565925D01*
X167299174Y-77600000D01*
X167430826Y-77600000D01*
X167557993Y-77565925D01*
X167615000Y-77533012D01*
X167615000Y-78430633D01*
X167828483Y-78373433D01*
X167828492Y-78373429D01*
X168042578Y-78273600D01*
X168236082Y-78138105D01*
X168403105Y-77971082D01*
X168538600Y-77777578D01*
X168638429Y-77563492D01*
X168638432Y-77563486D01*
X168695636Y-77350000D01*
X167798012Y-77350000D01*
X167830925Y-77292993D01*
X167865000Y-77165826D01*
X167865000Y-77034174D01*
X167830925Y-76907007D01*
X167798012Y-76850000D01*
X168695636Y-76850000D01*
X168695635Y-76849999D01*
X168638432Y-76636513D01*
X168638429Y-76636507D01*
X168538600Y-76422422D01*
X168538599Y-76422420D01*
X168403113Y-76228926D01*
X168403108Y-76228920D01*
X168316343Y-76142155D01*
X173290000Y-76142155D01*
X173290000Y-76790000D01*
X174206988Y-76790000D01*
X174174075Y-76847007D01*
X174140000Y-76974174D01*
X174140000Y-77105826D01*
X174174075Y-77232993D01*
X174206988Y-77290000D01*
X173290000Y-77290000D01*
X173290000Y-77937844D01*
X173296401Y-77997372D01*
X173296403Y-77997379D01*
X173346645Y-78132086D01*
X173346649Y-78132093D01*
X173432809Y-78247187D01*
X173432812Y-78247190D01*
X173547906Y-78333350D01*
X173547913Y-78333354D01*
X173682620Y-78383596D01*
X173682627Y-78383598D01*
X173742155Y-78389999D01*
X173742172Y-78390000D01*
X174390000Y-78390000D01*
X174390000Y-77473012D01*
X174447007Y-77505925D01*
X174574174Y-77540000D01*
X174705826Y-77540000D01*
X174832993Y-77505925D01*
X174890000Y-77473012D01*
X174890000Y-78390000D01*
X175537828Y-78390000D01*
X175537844Y-78389999D01*
X175597372Y-78383598D01*
X175597379Y-78383596D01*
X175732086Y-78333354D01*
X175732093Y-78333350D01*
X175847187Y-78247190D01*
X175847190Y-78247187D01*
X175933350Y-78132093D01*
X175933354Y-78132086D01*
X175982614Y-78000013D01*
X176024485Y-77944079D01*
X176089949Y-77919662D01*
X176158222Y-77934513D01*
X176186477Y-77955665D01*
X176308917Y-78078105D01*
X176502421Y-78213600D01*
X176716507Y-78313429D01*
X176716516Y-78313433D01*
X176930000Y-78370634D01*
X176930000Y-77473012D01*
X176987007Y-77505925D01*
X177114174Y-77540000D01*
X177245826Y-77540000D01*
X177372993Y-77505925D01*
X177430000Y-77473012D01*
X177430000Y-78370633D01*
X177643483Y-78313433D01*
X177643492Y-78313429D01*
X177857578Y-78213600D01*
X178051082Y-78078105D01*
X178218105Y-77911082D01*
X178348425Y-77724968D01*
X178403002Y-77681344D01*
X178472501Y-77674151D01*
X178534855Y-77705673D01*
X178551575Y-77724968D01*
X178681894Y-77911082D01*
X178848917Y-78078105D01*
X179042421Y-78213600D01*
X179256507Y-78313429D01*
X179256516Y-78313433D01*
X179470000Y-78370634D01*
X179470000Y-77473012D01*
X179527007Y-77505925D01*
X179654174Y-77540000D01*
X179785826Y-77540000D01*
X179912993Y-77505925D01*
X179970000Y-77473012D01*
X179970000Y-78370633D01*
X180183483Y-78313433D01*
X180183492Y-78313429D01*
X180397578Y-78213600D01*
X180591082Y-78078105D01*
X180758105Y-77911082D01*
X180888425Y-77724968D01*
X180943002Y-77681344D01*
X181012501Y-77674151D01*
X181074855Y-77705673D01*
X181091575Y-77724968D01*
X181221894Y-77911082D01*
X181388917Y-78078105D01*
X181582421Y-78213600D01*
X181796507Y-78313429D01*
X181796516Y-78313433D01*
X182010000Y-78370634D01*
X182010000Y-77473012D01*
X182067007Y-77505925D01*
X182194174Y-77540000D01*
X182325826Y-77540000D01*
X182452993Y-77505925D01*
X182510000Y-77473012D01*
X182510000Y-78370633D01*
X182723483Y-78313433D01*
X182723492Y-78313429D01*
X182937578Y-78213600D01*
X183131082Y-78078105D01*
X183298105Y-77911082D01*
X183428425Y-77724968D01*
X183483002Y-77681344D01*
X183552501Y-77674151D01*
X183614855Y-77705673D01*
X183631575Y-77724968D01*
X183761894Y-77911082D01*
X183928917Y-78078105D01*
X184122421Y-78213600D01*
X184336507Y-78313429D01*
X184336516Y-78313433D01*
X184550000Y-78370634D01*
X184550000Y-77473012D01*
X184607007Y-77505925D01*
X184734174Y-77540000D01*
X184865826Y-77540000D01*
X184992993Y-77505925D01*
X185050000Y-77473012D01*
X185050000Y-78370633D01*
X185263483Y-78313433D01*
X185263492Y-78313429D01*
X185477578Y-78213600D01*
X185671082Y-78078105D01*
X185838105Y-77911082D01*
X185973600Y-77717578D01*
X186073429Y-77503492D01*
X186073431Y-77503489D01*
X186082406Y-77469992D01*
X186118770Y-77410331D01*
X186181616Y-77379800D01*
X186250992Y-77388094D01*
X186304871Y-77432578D01*
X186313182Y-77446811D01*
X186400327Y-77621821D01*
X186523237Y-77784581D01*
X186673958Y-77921980D01*
X186673960Y-77921982D01*
X186753260Y-77971082D01*
X186847363Y-78029348D01*
X187037544Y-78103024D01*
X187238024Y-78140500D01*
X187238026Y-78140500D01*
X187441974Y-78140500D01*
X187441976Y-78140500D01*
X187642456Y-78103024D01*
X187832637Y-78029348D01*
X188006041Y-77921981D01*
X188156337Y-77784968D01*
X188156762Y-77784581D01*
X188156764Y-77784579D01*
X188279673Y-77621821D01*
X188348734Y-77483127D01*
X188366817Y-77446812D01*
X188414319Y-77395575D01*
X188481982Y-77378153D01*
X188548323Y-77400078D01*
X188592278Y-77454389D01*
X188597592Y-77469989D01*
X188606567Y-77503485D01*
X188606570Y-77503492D01*
X188706399Y-77717578D01*
X188841894Y-77911082D01*
X189008917Y-78078105D01*
X189202421Y-78213600D01*
X189416507Y-78313429D01*
X189416516Y-78313433D01*
X189630000Y-78370634D01*
X189630000Y-77473012D01*
X189687007Y-77505925D01*
X189814174Y-77540000D01*
X189945826Y-77540000D01*
X190072993Y-77505925D01*
X190130000Y-77473012D01*
X190130000Y-78370633D01*
X190343483Y-78313433D01*
X190343492Y-78313429D01*
X190557578Y-78213600D01*
X190751082Y-78078105D01*
X190918105Y-77911082D01*
X191053600Y-77717578D01*
X191153429Y-77503492D01*
X191153432Y-77503486D01*
X191210636Y-77290000D01*
X190313012Y-77290000D01*
X190345925Y-77232993D01*
X190380000Y-77105826D01*
X190380000Y-76974174D01*
X190345925Y-76847007D01*
X190313012Y-76790000D01*
X191210636Y-76790000D01*
X191210635Y-76789999D01*
X191153432Y-76576513D01*
X191153429Y-76576507D01*
X191053600Y-76362422D01*
X191053599Y-76362420D01*
X190918113Y-76168926D01*
X190918108Y-76168920D01*
X190751082Y-76001894D01*
X190557578Y-75866399D01*
X190343492Y-75766570D01*
X190343477Y-75766564D01*
X190304414Y-75756097D01*
X190244754Y-75719732D01*
X190214226Y-75656885D01*
X190222521Y-75587509D01*
X190267007Y-75533632D01*
X190291710Y-75520698D01*
X190372637Y-75489348D01*
X190546041Y-75381981D01*
X190696764Y-75244579D01*
X190819673Y-75081821D01*
X190910582Y-74899250D01*
X190966397Y-74703083D01*
X190985215Y-74500000D01*
X190966397Y-74296917D01*
X190910582Y-74100750D01*
X190819673Y-73918179D01*
X190696764Y-73755421D01*
X190696762Y-73755418D01*
X190546041Y-73618019D01*
X190546039Y-73618017D01*
X190372642Y-73510655D01*
X190372635Y-73510651D01*
X190277546Y-73473814D01*
X190182456Y-73436976D01*
X189981976Y-73399500D01*
X189778024Y-73399500D01*
X189577544Y-73436976D01*
X189577541Y-73436976D01*
X189577541Y-73436977D01*
X189387364Y-73510651D01*
X189387357Y-73510655D01*
X189213960Y-73618017D01*
X189213958Y-73618019D01*
X189063237Y-73755418D01*
X188940327Y-73918178D01*
X188849422Y-74100739D01*
X188849417Y-74100752D01*
X188793602Y-74296917D01*
X188774785Y-74499999D01*
X188774785Y-74500000D01*
X188793602Y-74703082D01*
X188849417Y-74899247D01*
X188849422Y-74899260D01*
X188940327Y-75081821D01*
X189063237Y-75244581D01*
X189213958Y-75381980D01*
X189213960Y-75381982D01*
X189310861Y-75441980D01*
X189387363Y-75489348D01*
X189468283Y-75520696D01*
X189523685Y-75563269D01*
X189547276Y-75629035D01*
X189531565Y-75697116D01*
X189481542Y-75745895D01*
X189455586Y-75756097D01*
X189416519Y-75766565D01*
X189416507Y-75766570D01*
X189202422Y-75866399D01*
X189202420Y-75866400D01*
X189008926Y-76001886D01*
X189008920Y-76001891D01*
X188841891Y-76168920D01*
X188841886Y-76168926D01*
X188706400Y-76362420D01*
X188706399Y-76362422D01*
X188606570Y-76576507D01*
X188606568Y-76576511D01*
X188597592Y-76610011D01*
X188561226Y-76669671D01*
X188498379Y-76700199D01*
X188429003Y-76691904D01*
X188375126Y-76647418D01*
X188366817Y-76633188D01*
X188286764Y-76472420D01*
X188279673Y-76458179D01*
X188156764Y-76295421D01*
X188156762Y-76295418D01*
X188006041Y-76158019D01*
X188006039Y-76158017D01*
X187832642Y-76050655D01*
X187832635Y-76050651D01*
X187706769Y-76001891D01*
X187642456Y-75976976D01*
X187441976Y-75939500D01*
X187238024Y-75939500D01*
X187037544Y-75976976D01*
X187037541Y-75976976D01*
X187037541Y-75976977D01*
X186847364Y-76050651D01*
X186847357Y-76050655D01*
X186673960Y-76158017D01*
X186673958Y-76158019D01*
X186523237Y-76295418D01*
X186400327Y-76458178D01*
X186313182Y-76633188D01*
X186265679Y-76684425D01*
X186198016Y-76701846D01*
X186131676Y-76679920D01*
X186087721Y-76625609D01*
X186082407Y-76610008D01*
X186073434Y-76576518D01*
X186073429Y-76576507D01*
X185973600Y-76362422D01*
X185973599Y-76362420D01*
X185838113Y-76168926D01*
X185838108Y-76168920D01*
X185671082Y-76001894D01*
X185477578Y-75866399D01*
X185263492Y-75766570D01*
X185263477Y-75766564D01*
X185224414Y-75756097D01*
X185164754Y-75719732D01*
X185134226Y-75656885D01*
X185142521Y-75587509D01*
X185187007Y-75533632D01*
X185211710Y-75520698D01*
X185292637Y-75489348D01*
X185466041Y-75381981D01*
X185616764Y-75244579D01*
X185739673Y-75081821D01*
X185830582Y-74899250D01*
X185886397Y-74703083D01*
X185905215Y-74500000D01*
X185905215Y-74499999D01*
X186234785Y-74499999D01*
X186234785Y-74500000D01*
X186253602Y-74703082D01*
X186309417Y-74899247D01*
X186309422Y-74899260D01*
X186400327Y-75081821D01*
X186523237Y-75244581D01*
X186673958Y-75381980D01*
X186673960Y-75381982D01*
X186770861Y-75441980D01*
X186847363Y-75489348D01*
X187037544Y-75563024D01*
X187238024Y-75600500D01*
X187238026Y-75600500D01*
X187441974Y-75600500D01*
X187441976Y-75600500D01*
X187642456Y-75563024D01*
X187832637Y-75489348D01*
X188006041Y-75381981D01*
X188156764Y-75244579D01*
X188279673Y-75081821D01*
X188370582Y-74899250D01*
X188426397Y-74703083D01*
X188445215Y-74500000D01*
X188426397Y-74296917D01*
X188370582Y-74100750D01*
X188279673Y-73918179D01*
X188156764Y-73755421D01*
X188156762Y-73755418D01*
X188006041Y-73618019D01*
X188006039Y-73618017D01*
X187832642Y-73510655D01*
X187832635Y-73510651D01*
X187737546Y-73473814D01*
X187642456Y-73436976D01*
X187441976Y-73399500D01*
X187238024Y-73399500D01*
X187037544Y-73436976D01*
X187037541Y-73436976D01*
X187037541Y-73436977D01*
X186847364Y-73510651D01*
X186847357Y-73510655D01*
X186673960Y-73618017D01*
X186673958Y-73618019D01*
X186523237Y-73755418D01*
X186400327Y-73918178D01*
X186309422Y-74100739D01*
X186309417Y-74100752D01*
X186253602Y-74296917D01*
X186234785Y-74499999D01*
X185905215Y-74499999D01*
X185886397Y-74296917D01*
X185830582Y-74100750D01*
X185739673Y-73918179D01*
X185616764Y-73755421D01*
X185616762Y-73755418D01*
X185466041Y-73618019D01*
X185466039Y-73618017D01*
X185292642Y-73510655D01*
X185292635Y-73510651D01*
X185197546Y-73473814D01*
X185102456Y-73436976D01*
X184901976Y-73399500D01*
X184698024Y-73399500D01*
X184497544Y-73436976D01*
X184497541Y-73436976D01*
X184497541Y-73436977D01*
X184307364Y-73510651D01*
X184307357Y-73510655D01*
X184133960Y-73618017D01*
X184133958Y-73618019D01*
X183983237Y-73755418D01*
X183860327Y-73918178D01*
X183769422Y-74100739D01*
X183769417Y-74100752D01*
X183713602Y-74296917D01*
X183694785Y-74499999D01*
X183694785Y-74500000D01*
X183713602Y-74703082D01*
X183769417Y-74899247D01*
X183769422Y-74899260D01*
X183860327Y-75081821D01*
X183983237Y-75244581D01*
X184133958Y-75381980D01*
X184133960Y-75381982D01*
X184230861Y-75441980D01*
X184307363Y-75489348D01*
X184388283Y-75520696D01*
X184443685Y-75563269D01*
X184467276Y-75629035D01*
X184451565Y-75697116D01*
X184401542Y-75745895D01*
X184375586Y-75756097D01*
X184336519Y-75766565D01*
X184336507Y-75766570D01*
X184122422Y-75866399D01*
X184122420Y-75866400D01*
X183928926Y-76001886D01*
X183928920Y-76001891D01*
X183761891Y-76168920D01*
X183761890Y-76168922D01*
X183631575Y-76355031D01*
X183576998Y-76398655D01*
X183507499Y-76405848D01*
X183445145Y-76374326D01*
X183428425Y-76355031D01*
X183298109Y-76168922D01*
X183298108Y-76168920D01*
X183131082Y-76001894D01*
X182937578Y-75866399D01*
X182723492Y-75766570D01*
X182723477Y-75766564D01*
X182684414Y-75756097D01*
X182624754Y-75719732D01*
X182594226Y-75656885D01*
X182602521Y-75587509D01*
X182647007Y-75533632D01*
X182671710Y-75520698D01*
X182752637Y-75489348D01*
X182926041Y-75381981D01*
X183076764Y-75244579D01*
X183199673Y-75081821D01*
X183290582Y-74899250D01*
X183346397Y-74703083D01*
X183365215Y-74500000D01*
X183346397Y-74296917D01*
X183290582Y-74100750D01*
X183199673Y-73918179D01*
X183076764Y-73755421D01*
X183076762Y-73755418D01*
X182926041Y-73618019D01*
X182926039Y-73618017D01*
X182752642Y-73510655D01*
X182752635Y-73510651D01*
X182657546Y-73473814D01*
X182562456Y-73436976D01*
X182361976Y-73399500D01*
X182158024Y-73399500D01*
X181957544Y-73436976D01*
X181957541Y-73436976D01*
X181957541Y-73436977D01*
X181767364Y-73510651D01*
X181767357Y-73510655D01*
X181593960Y-73618017D01*
X181593958Y-73618019D01*
X181443237Y-73755418D01*
X181320327Y-73918178D01*
X181229422Y-74100739D01*
X181229417Y-74100752D01*
X181173602Y-74296917D01*
X181154785Y-74499999D01*
X181154785Y-74500000D01*
X181173602Y-74703082D01*
X181229417Y-74899247D01*
X181229422Y-74899260D01*
X181320327Y-75081821D01*
X181443237Y-75244581D01*
X181593958Y-75381980D01*
X181593960Y-75381982D01*
X181690861Y-75441980D01*
X181767363Y-75489348D01*
X181848283Y-75520696D01*
X181903685Y-75563269D01*
X181927276Y-75629035D01*
X181911565Y-75697116D01*
X181861542Y-75745895D01*
X181835586Y-75756097D01*
X181796519Y-75766565D01*
X181796507Y-75766570D01*
X181582422Y-75866399D01*
X181582420Y-75866400D01*
X181388926Y-76001886D01*
X181388920Y-76001891D01*
X181221891Y-76168920D01*
X181221890Y-76168922D01*
X181091575Y-76355031D01*
X181036998Y-76398655D01*
X180967499Y-76405848D01*
X180905145Y-76374326D01*
X180888425Y-76355031D01*
X180758109Y-76168922D01*
X180758108Y-76168920D01*
X180591082Y-76001894D01*
X180397578Y-75866399D01*
X180183492Y-75766570D01*
X180183477Y-75766564D01*
X180144414Y-75756097D01*
X180084754Y-75719732D01*
X180054226Y-75656885D01*
X180062521Y-75587509D01*
X180107007Y-75533632D01*
X180131710Y-75520698D01*
X180212637Y-75489348D01*
X180386041Y-75381981D01*
X180536764Y-75244579D01*
X180659673Y-75081821D01*
X180750582Y-74899250D01*
X180806397Y-74703083D01*
X180825215Y-74500000D01*
X180806397Y-74296917D01*
X180750582Y-74100750D01*
X180659673Y-73918179D01*
X180536764Y-73755421D01*
X180536762Y-73755418D01*
X180386041Y-73618019D01*
X180386039Y-73618017D01*
X180212642Y-73510655D01*
X180212635Y-73510651D01*
X180117546Y-73473814D01*
X180022456Y-73436976D01*
X179821976Y-73399500D01*
X179618024Y-73399500D01*
X179417544Y-73436976D01*
X179417541Y-73436976D01*
X179417541Y-73436977D01*
X179227364Y-73510651D01*
X179227357Y-73510655D01*
X179053960Y-73618017D01*
X179053958Y-73618019D01*
X178903237Y-73755418D01*
X178780327Y-73918178D01*
X178689422Y-74100739D01*
X178689417Y-74100752D01*
X178633602Y-74296917D01*
X178614785Y-74499999D01*
X178614785Y-74500000D01*
X178633602Y-74703082D01*
X178689417Y-74899247D01*
X178689422Y-74899260D01*
X178780327Y-75081821D01*
X178903237Y-75244581D01*
X179053958Y-75381980D01*
X179053960Y-75381982D01*
X179150861Y-75441980D01*
X179227363Y-75489348D01*
X179308283Y-75520696D01*
X179363685Y-75563269D01*
X179387276Y-75629035D01*
X179371565Y-75697116D01*
X179321542Y-75745895D01*
X179295586Y-75756097D01*
X179256519Y-75766565D01*
X179256507Y-75766570D01*
X179042422Y-75866399D01*
X179042420Y-75866400D01*
X178848926Y-76001886D01*
X178848920Y-76001891D01*
X178681891Y-76168920D01*
X178681890Y-76168922D01*
X178551575Y-76355031D01*
X178496998Y-76398655D01*
X178427499Y-76405848D01*
X178365145Y-76374326D01*
X178348425Y-76355031D01*
X178218109Y-76168922D01*
X178218108Y-76168920D01*
X178051082Y-76001894D01*
X177857578Y-75866399D01*
X177643492Y-75766570D01*
X177643477Y-75766564D01*
X177604414Y-75756097D01*
X177544754Y-75719732D01*
X177514226Y-75656885D01*
X177522521Y-75587509D01*
X177567007Y-75533632D01*
X177591710Y-75520698D01*
X177672637Y-75489348D01*
X177846041Y-75381981D01*
X177996764Y-75244579D01*
X178119673Y-75081821D01*
X178210582Y-74899250D01*
X178266397Y-74703083D01*
X178285215Y-74500000D01*
X178266397Y-74296917D01*
X178210582Y-74100750D01*
X178119673Y-73918179D01*
X177996764Y-73755421D01*
X177996762Y-73755418D01*
X177846041Y-73618019D01*
X177846039Y-73618017D01*
X177672642Y-73510655D01*
X177672635Y-73510651D01*
X177577546Y-73473814D01*
X177482456Y-73436976D01*
X177281976Y-73399500D01*
X177078024Y-73399500D01*
X176877544Y-73436976D01*
X176877541Y-73436976D01*
X176877541Y-73436977D01*
X176687364Y-73510651D01*
X176687357Y-73510655D01*
X176513960Y-73618017D01*
X176513958Y-73618019D01*
X176363237Y-73755418D01*
X176240327Y-73918178D01*
X176149422Y-74100739D01*
X176149417Y-74100752D01*
X176093602Y-74296917D01*
X176074785Y-74499999D01*
X176074785Y-74500000D01*
X176093602Y-74703082D01*
X176149417Y-74899247D01*
X176149422Y-74899260D01*
X176240327Y-75081821D01*
X176363237Y-75244581D01*
X176513958Y-75381980D01*
X176513960Y-75381982D01*
X176610861Y-75441980D01*
X176687363Y-75489348D01*
X176768283Y-75520696D01*
X176823685Y-75563269D01*
X176847276Y-75629035D01*
X176831565Y-75697116D01*
X176781542Y-75745895D01*
X176755586Y-75756097D01*
X176716519Y-75766565D01*
X176716507Y-75766570D01*
X176502422Y-75866399D01*
X176502420Y-75866400D01*
X176308926Y-76001886D01*
X176186477Y-76124335D01*
X176125154Y-76157819D01*
X176055462Y-76152835D01*
X175999529Y-76110963D01*
X175982614Y-76079986D01*
X175933354Y-75947913D01*
X175933350Y-75947906D01*
X175847190Y-75832812D01*
X175847187Y-75832809D01*
X175732093Y-75746649D01*
X175732086Y-75746645D01*
X175597379Y-75696403D01*
X175597372Y-75696401D01*
X175537844Y-75690000D01*
X175244388Y-75690000D01*
X175177349Y-75670315D01*
X175131594Y-75617511D01*
X175121650Y-75548353D01*
X175150675Y-75484797D01*
X175179111Y-75460573D01*
X175306039Y-75381982D01*
X175306038Y-75381982D01*
X175306041Y-75381981D01*
X175456764Y-75244579D01*
X175579673Y-75081821D01*
X175670582Y-74899250D01*
X175726397Y-74703083D01*
X175745215Y-74500000D01*
X175726397Y-74296917D01*
X175670582Y-74100750D01*
X175579673Y-73918179D01*
X175456764Y-73755421D01*
X175456762Y-73755418D01*
X175306041Y-73618019D01*
X175306039Y-73618017D01*
X175132642Y-73510655D01*
X175132635Y-73510651D01*
X175037546Y-73473814D01*
X174942456Y-73436976D01*
X174741976Y-73399500D01*
X174538024Y-73399500D01*
X174337544Y-73436976D01*
X174337541Y-73436976D01*
X174337541Y-73436977D01*
X174147364Y-73510651D01*
X174147357Y-73510655D01*
X173973960Y-73618017D01*
X173973958Y-73618019D01*
X173823237Y-73755418D01*
X173700327Y-73918178D01*
X173609422Y-74100739D01*
X173609417Y-74100752D01*
X173553602Y-74296917D01*
X173534785Y-74499999D01*
X173534785Y-74500000D01*
X173553602Y-74703082D01*
X173609417Y-74899247D01*
X173609422Y-74899260D01*
X173700327Y-75081821D01*
X173823237Y-75244581D01*
X173973958Y-75381980D01*
X173973960Y-75381982D01*
X174100889Y-75460573D01*
X174147525Y-75512601D01*
X174158629Y-75581583D01*
X174130676Y-75645617D01*
X174072541Y-75684373D01*
X174035612Y-75690000D01*
X173742155Y-75690000D01*
X173682627Y-75696401D01*
X173682620Y-75696403D01*
X173547913Y-75746645D01*
X173547906Y-75746649D01*
X173432812Y-75832809D01*
X173432809Y-75832812D01*
X173346649Y-75947906D01*
X173346645Y-75947913D01*
X173296403Y-76082620D01*
X173296401Y-76082627D01*
X173290000Y-76142155D01*
X168316343Y-76142155D01*
X168236082Y-76061894D01*
X168042578Y-75926399D01*
X167828492Y-75826570D01*
X167828477Y-75826564D01*
X167789414Y-75816097D01*
X167729754Y-75779732D01*
X167699226Y-75716885D01*
X167707521Y-75647509D01*
X167752007Y-75593632D01*
X167776710Y-75580698D01*
X167857637Y-75549348D01*
X168031041Y-75441981D01*
X168181764Y-75304579D01*
X168304673Y-75141821D01*
X168395582Y-74959250D01*
X168451397Y-74763083D01*
X168470215Y-74560000D01*
X168451397Y-74356917D01*
X168395582Y-74160750D01*
X168378240Y-74125923D01*
X168351272Y-74071764D01*
X168304673Y-73978179D01*
X168181764Y-73815421D01*
X168181762Y-73815418D01*
X168031041Y-73678019D01*
X168031039Y-73678017D01*
X167857642Y-73570655D01*
X167857635Y-73570651D01*
X167762546Y-73533814D01*
X167667456Y-73496976D01*
X167466976Y-73459500D01*
X167263024Y-73459500D01*
X167062544Y-73496976D01*
X167062541Y-73496976D01*
X167062541Y-73496977D01*
X166872364Y-73570651D01*
X166872357Y-73570655D01*
X166698960Y-73678017D01*
X166698958Y-73678019D01*
X166548237Y-73815418D01*
X166425327Y-73978178D01*
X166334422Y-74160739D01*
X166334417Y-74160752D01*
X166278602Y-74356917D01*
X166259785Y-74559999D01*
X166259785Y-74560000D01*
X166278602Y-74763082D01*
X166334417Y-74959247D01*
X166334422Y-74959260D01*
X166425327Y-75141821D01*
X166548237Y-75304581D01*
X166698958Y-75441980D01*
X166698960Y-75441982D01*
X166728986Y-75460573D01*
X166872363Y-75549348D01*
X166953283Y-75580696D01*
X167008685Y-75623269D01*
X167032276Y-75689035D01*
X167016565Y-75757116D01*
X166966542Y-75805895D01*
X166940586Y-75816097D01*
X166901519Y-75826565D01*
X166901507Y-75826570D01*
X166687422Y-75926399D01*
X166687420Y-75926400D01*
X166493926Y-76061886D01*
X166493920Y-76061891D01*
X166326891Y-76228920D01*
X166326886Y-76228926D01*
X166191400Y-76422420D01*
X166191399Y-76422422D01*
X166091570Y-76636507D01*
X166091568Y-76636511D01*
X166082592Y-76670011D01*
X166046226Y-76729671D01*
X165983379Y-76760199D01*
X165914003Y-76751904D01*
X165860126Y-76707418D01*
X165851817Y-76693188D01*
X165777374Y-76543687D01*
X165764673Y-76518179D01*
X165674413Y-76398655D01*
X165641762Y-76355418D01*
X165491041Y-76218019D01*
X165491039Y-76218017D01*
X165317642Y-76110655D01*
X165317635Y-76110651D01*
X165222546Y-76073814D01*
X165127456Y-76036976D01*
X164926976Y-75999500D01*
X164723024Y-75999500D01*
X164522544Y-76036976D01*
X164522541Y-76036976D01*
X164522541Y-76036977D01*
X164332364Y-76110651D01*
X164332357Y-76110655D01*
X164158960Y-76218017D01*
X164158958Y-76218019D01*
X164008237Y-76355418D01*
X163885327Y-76518178D01*
X163798182Y-76693188D01*
X163750679Y-76744425D01*
X163683016Y-76761846D01*
X163616676Y-76739920D01*
X163572721Y-76685609D01*
X163567407Y-76670008D01*
X163558434Y-76636518D01*
X163558429Y-76636507D01*
X163458600Y-76422422D01*
X163458599Y-76422420D01*
X163323113Y-76228926D01*
X163323108Y-76228920D01*
X163156082Y-76061894D01*
X162962578Y-75926399D01*
X162748492Y-75826570D01*
X162748477Y-75826564D01*
X162709414Y-75816097D01*
X162649754Y-75779732D01*
X162619226Y-75716885D01*
X162627521Y-75647509D01*
X162672007Y-75593632D01*
X162696710Y-75580698D01*
X162777637Y-75549348D01*
X162951041Y-75441981D01*
X163101764Y-75304579D01*
X163224673Y-75141821D01*
X163315582Y-74959250D01*
X163371397Y-74763083D01*
X163390215Y-74560000D01*
X163390215Y-74559999D01*
X163719785Y-74559999D01*
X163719785Y-74560000D01*
X163738602Y-74763082D01*
X163794417Y-74959247D01*
X163794422Y-74959260D01*
X163885327Y-75141821D01*
X164008237Y-75304581D01*
X164158958Y-75441980D01*
X164158960Y-75441982D01*
X164188986Y-75460573D01*
X164332363Y-75549348D01*
X164522544Y-75623024D01*
X164723024Y-75660500D01*
X164723026Y-75660500D01*
X164926974Y-75660500D01*
X164926976Y-75660500D01*
X165127456Y-75623024D01*
X165317637Y-75549348D01*
X165491041Y-75441981D01*
X165641764Y-75304579D01*
X165764673Y-75141821D01*
X165855582Y-74959250D01*
X165911397Y-74763083D01*
X165930215Y-74560000D01*
X165911397Y-74356917D01*
X165855582Y-74160750D01*
X165838240Y-74125923D01*
X165811272Y-74071764D01*
X165764673Y-73978179D01*
X165641764Y-73815421D01*
X165641762Y-73815418D01*
X165491041Y-73678019D01*
X165491039Y-73678017D01*
X165317642Y-73570655D01*
X165317635Y-73570651D01*
X165222546Y-73533814D01*
X165127456Y-73496976D01*
X164926976Y-73459500D01*
X164723024Y-73459500D01*
X164522544Y-73496976D01*
X164522541Y-73496976D01*
X164522541Y-73496977D01*
X164332364Y-73570651D01*
X164332357Y-73570655D01*
X164158960Y-73678017D01*
X164158958Y-73678019D01*
X164008237Y-73815418D01*
X163885327Y-73978178D01*
X163794422Y-74160739D01*
X163794417Y-74160752D01*
X163738602Y-74356917D01*
X163719785Y-74559999D01*
X163390215Y-74559999D01*
X163371397Y-74356917D01*
X163315582Y-74160750D01*
X163298240Y-74125923D01*
X163271272Y-74071764D01*
X163224673Y-73978179D01*
X163101764Y-73815421D01*
X163101762Y-73815418D01*
X162951041Y-73678019D01*
X162951039Y-73678017D01*
X162777642Y-73570655D01*
X162777635Y-73570651D01*
X162682546Y-73533814D01*
X162587456Y-73496976D01*
X162386976Y-73459500D01*
X162183024Y-73459500D01*
X161982544Y-73496976D01*
X161982541Y-73496976D01*
X161982541Y-73496977D01*
X161792364Y-73570651D01*
X161792357Y-73570655D01*
X161618960Y-73678017D01*
X161618958Y-73678019D01*
X161468237Y-73815418D01*
X161345327Y-73978178D01*
X161254422Y-74160739D01*
X161254417Y-74160752D01*
X161198602Y-74356917D01*
X161179785Y-74559999D01*
X161179785Y-74560000D01*
X161198602Y-74763082D01*
X161254417Y-74959247D01*
X161254422Y-74959260D01*
X161345327Y-75141821D01*
X161468237Y-75304581D01*
X161618958Y-75441980D01*
X161618960Y-75441982D01*
X161648986Y-75460573D01*
X161792363Y-75549348D01*
X161873283Y-75580696D01*
X161928685Y-75623269D01*
X161952276Y-75689035D01*
X161936565Y-75757116D01*
X161886542Y-75805895D01*
X161860586Y-75816097D01*
X161821519Y-75826565D01*
X161821507Y-75826570D01*
X161607422Y-75926399D01*
X161607420Y-75926400D01*
X161413926Y-76061886D01*
X161413920Y-76061891D01*
X161246891Y-76228920D01*
X161246890Y-76228922D01*
X161116575Y-76415031D01*
X161061998Y-76458655D01*
X160992499Y-76465848D01*
X160930145Y-76434326D01*
X160913425Y-76415031D01*
X160783109Y-76228922D01*
X160783108Y-76228920D01*
X160616082Y-76061894D01*
X160422578Y-75926399D01*
X160208492Y-75826570D01*
X160208477Y-75826564D01*
X160169414Y-75816097D01*
X160109754Y-75779732D01*
X160079226Y-75716885D01*
X160087521Y-75647509D01*
X160132007Y-75593632D01*
X160156710Y-75580698D01*
X160237637Y-75549348D01*
X160411041Y-75441981D01*
X160561764Y-75304579D01*
X160684673Y-75141821D01*
X160775582Y-74959250D01*
X160831397Y-74763083D01*
X160850215Y-74560000D01*
X160831397Y-74356917D01*
X160775582Y-74160750D01*
X160758240Y-74125923D01*
X160731272Y-74071764D01*
X160684673Y-73978179D01*
X160561764Y-73815421D01*
X160561762Y-73815418D01*
X160411041Y-73678019D01*
X160411039Y-73678017D01*
X160237642Y-73570655D01*
X160237635Y-73570651D01*
X160142546Y-73533814D01*
X160047456Y-73496976D01*
X159846976Y-73459500D01*
X159643024Y-73459500D01*
X159442544Y-73496976D01*
X159442541Y-73496976D01*
X159442541Y-73496977D01*
X159252364Y-73570651D01*
X159252357Y-73570655D01*
X159078960Y-73678017D01*
X159078958Y-73678019D01*
X158928237Y-73815418D01*
X158805327Y-73978178D01*
X158714422Y-74160739D01*
X158714417Y-74160752D01*
X158658602Y-74356917D01*
X158639785Y-74559999D01*
X158639785Y-74560000D01*
X158658602Y-74763082D01*
X158714417Y-74959247D01*
X158714422Y-74959260D01*
X158805327Y-75141821D01*
X158928237Y-75304581D01*
X159078958Y-75441980D01*
X159078960Y-75441982D01*
X159108986Y-75460573D01*
X159252363Y-75549348D01*
X159333283Y-75580696D01*
X159388685Y-75623269D01*
X159412276Y-75689035D01*
X159396565Y-75757116D01*
X159346542Y-75805895D01*
X159320586Y-75816097D01*
X159281519Y-75826565D01*
X159281507Y-75826570D01*
X159067422Y-75926399D01*
X159067420Y-75926400D01*
X158873926Y-76061886D01*
X158873920Y-76061891D01*
X158706891Y-76228920D01*
X158706890Y-76228922D01*
X158576575Y-76415031D01*
X158521998Y-76458655D01*
X158452499Y-76465848D01*
X158390145Y-76434326D01*
X158373425Y-76415031D01*
X158243109Y-76228922D01*
X158243108Y-76228920D01*
X158076082Y-76061894D01*
X157882578Y-75926399D01*
X157668492Y-75826570D01*
X157668477Y-75826564D01*
X157629414Y-75816097D01*
X157569754Y-75779732D01*
X157539226Y-75716885D01*
X157547521Y-75647509D01*
X157592007Y-75593632D01*
X157616710Y-75580698D01*
X157697637Y-75549348D01*
X157871041Y-75441981D01*
X158021764Y-75304579D01*
X158144673Y-75141821D01*
X158235582Y-74959250D01*
X158291397Y-74763083D01*
X158310215Y-74560000D01*
X158291397Y-74356917D01*
X158235582Y-74160750D01*
X158218240Y-74125923D01*
X158191272Y-74071764D01*
X158144673Y-73978179D01*
X158021764Y-73815421D01*
X158021762Y-73815418D01*
X157871041Y-73678019D01*
X157871039Y-73678017D01*
X157697642Y-73570655D01*
X157697635Y-73570651D01*
X157602546Y-73533814D01*
X157507456Y-73496976D01*
X157306976Y-73459500D01*
X157103024Y-73459500D01*
X156902544Y-73496976D01*
X156902541Y-73496976D01*
X156902541Y-73496977D01*
X156712364Y-73570651D01*
X156712357Y-73570655D01*
X156538960Y-73678017D01*
X156538958Y-73678019D01*
X156388237Y-73815418D01*
X156265327Y-73978178D01*
X156174422Y-74160739D01*
X156174417Y-74160752D01*
X156118602Y-74356917D01*
X156099785Y-74559999D01*
X156099785Y-74560000D01*
X156118602Y-74763082D01*
X156174417Y-74959247D01*
X156174422Y-74959260D01*
X156265327Y-75141821D01*
X156388237Y-75304581D01*
X156538958Y-75441980D01*
X156538960Y-75441982D01*
X156568986Y-75460573D01*
X156712363Y-75549348D01*
X156793283Y-75580696D01*
X156848685Y-75623269D01*
X156872276Y-75689035D01*
X156856565Y-75757116D01*
X156806542Y-75805895D01*
X156780586Y-75816097D01*
X156741519Y-75826565D01*
X156741507Y-75826570D01*
X156527422Y-75926399D01*
X156527420Y-75926400D01*
X156333926Y-76061886D01*
X156333920Y-76061891D01*
X156166891Y-76228920D01*
X156166890Y-76228922D01*
X156036575Y-76415031D01*
X155981998Y-76458655D01*
X155912499Y-76465848D01*
X155850145Y-76434326D01*
X155833425Y-76415031D01*
X155703109Y-76228922D01*
X155703108Y-76228920D01*
X155536082Y-76061894D01*
X155342578Y-75926399D01*
X155128492Y-75826570D01*
X155128477Y-75826564D01*
X155089414Y-75816097D01*
X155029754Y-75779732D01*
X154999226Y-75716885D01*
X155007521Y-75647509D01*
X155052007Y-75593632D01*
X155076710Y-75580698D01*
X155157637Y-75549348D01*
X155331041Y-75441981D01*
X155481764Y-75304579D01*
X155604673Y-75141821D01*
X155695582Y-74959250D01*
X155751397Y-74763083D01*
X155770215Y-74560000D01*
X155751397Y-74356917D01*
X155695582Y-74160750D01*
X155678240Y-74125923D01*
X155651272Y-74071764D01*
X155604673Y-73978179D01*
X155481764Y-73815421D01*
X155481762Y-73815418D01*
X155331041Y-73678019D01*
X155331039Y-73678017D01*
X155157642Y-73570655D01*
X155157635Y-73570651D01*
X155062546Y-73533814D01*
X154967456Y-73496976D01*
X154766976Y-73459500D01*
X154563024Y-73459500D01*
X154362544Y-73496976D01*
X154362541Y-73496976D01*
X154362541Y-73496977D01*
X154172364Y-73570651D01*
X154172357Y-73570655D01*
X153998960Y-73678017D01*
X153998958Y-73678019D01*
X153848237Y-73815418D01*
X153725327Y-73978178D01*
X153634422Y-74160739D01*
X153634417Y-74160752D01*
X153578602Y-74356917D01*
X153559785Y-74559999D01*
X153559785Y-74560000D01*
X153578602Y-74763082D01*
X153634417Y-74959247D01*
X153634422Y-74959260D01*
X153725327Y-75141821D01*
X153848237Y-75304581D01*
X153998958Y-75441980D01*
X153998960Y-75441982D01*
X154028986Y-75460573D01*
X154172363Y-75549348D01*
X154253283Y-75580696D01*
X154308685Y-75623269D01*
X154332276Y-75689035D01*
X154316565Y-75757116D01*
X154266542Y-75805895D01*
X154240586Y-75816097D01*
X154201519Y-75826565D01*
X154201507Y-75826570D01*
X153987422Y-75926399D01*
X153987420Y-75926400D01*
X153793926Y-76061886D01*
X153671477Y-76184335D01*
X153610154Y-76217819D01*
X153540462Y-76212835D01*
X153484529Y-76170963D01*
X153467614Y-76139986D01*
X153418354Y-76007913D01*
X153418350Y-76007906D01*
X153332190Y-75892812D01*
X153332187Y-75892809D01*
X153217093Y-75806649D01*
X153217086Y-75806645D01*
X153082379Y-75756403D01*
X153082372Y-75756401D01*
X153022844Y-75750000D01*
X152729388Y-75750000D01*
X152662349Y-75730315D01*
X152616594Y-75677511D01*
X152606650Y-75608353D01*
X152635675Y-75544797D01*
X152664111Y-75520573D01*
X152791039Y-75441982D01*
X152791038Y-75441982D01*
X152791041Y-75441981D01*
X152941764Y-75304579D01*
X153064673Y-75141821D01*
X153155582Y-74959250D01*
X153211397Y-74763083D01*
X153230215Y-74560000D01*
X153211397Y-74356917D01*
X153155582Y-74160750D01*
X153138240Y-74125923D01*
X153111272Y-74071764D01*
X153064673Y-73978179D01*
X152941764Y-73815421D01*
X152941762Y-73815418D01*
X152791041Y-73678019D01*
X152791039Y-73678017D01*
X152617642Y-73570655D01*
X152617635Y-73570651D01*
X152522546Y-73533814D01*
X152427456Y-73496976D01*
X152226976Y-73459500D01*
X152023024Y-73459500D01*
X151822544Y-73496976D01*
X151822541Y-73496976D01*
X151822541Y-73496977D01*
X151632364Y-73570651D01*
X151632357Y-73570655D01*
X151458960Y-73678017D01*
X151458958Y-73678019D01*
X151308237Y-73815418D01*
X151185327Y-73978178D01*
X151094422Y-74160739D01*
X151094417Y-74160752D01*
X151038602Y-74356917D01*
X151019785Y-74559999D01*
X151019785Y-74560000D01*
X151038602Y-74763082D01*
X151094417Y-74959247D01*
X151094422Y-74959260D01*
X151185327Y-75141821D01*
X151308237Y-75304581D01*
X151458958Y-75441980D01*
X151458960Y-75441982D01*
X151585889Y-75520573D01*
X151632525Y-75572601D01*
X151643629Y-75641583D01*
X151615676Y-75705617D01*
X151557541Y-75744373D01*
X151520612Y-75750000D01*
X151227155Y-75750000D01*
X151167627Y-75756401D01*
X151167620Y-75756403D01*
X151032913Y-75806645D01*
X151032906Y-75806649D01*
X150917812Y-75892809D01*
X150917809Y-75892812D01*
X150831649Y-76007906D01*
X150831645Y-76007913D01*
X150781403Y-76142620D01*
X150781401Y-76142627D01*
X150775000Y-76202155D01*
X145891343Y-76202155D01*
X145801082Y-76111894D01*
X145614968Y-75981575D01*
X145571344Y-75926998D01*
X145564151Y-75857499D01*
X145595673Y-75795145D01*
X145614968Y-75778425D01*
X145801082Y-75648105D01*
X145968105Y-75481082D01*
X146103600Y-75287578D01*
X146203429Y-75073492D01*
X146203432Y-75073486D01*
X146260636Y-74860000D01*
X145363012Y-74860000D01*
X145395925Y-74802993D01*
X145430000Y-74675826D01*
X145430000Y-74544174D01*
X145395925Y-74417007D01*
X145363012Y-74360000D01*
X146260636Y-74360000D01*
X146260635Y-74359999D01*
X146203432Y-74146513D01*
X146203429Y-74146507D01*
X146103600Y-73932422D01*
X146103599Y-73932420D01*
X145968113Y-73738926D01*
X145968108Y-73738920D01*
X145801082Y-73571894D01*
X145607578Y-73436399D01*
X145393492Y-73336570D01*
X145393486Y-73336567D01*
X145180000Y-73279364D01*
X145180000Y-74176988D01*
X145122993Y-74144075D01*
X144995826Y-74110000D01*
X144864174Y-74110000D01*
X144737007Y-74144075D01*
X144680000Y-74176988D01*
X144680000Y-73279364D01*
X144679999Y-73279364D01*
X144466513Y-73336567D01*
X144466507Y-73336570D01*
X144252422Y-73436399D01*
X144252420Y-73436400D01*
X144058926Y-73571886D01*
X144058920Y-73571891D01*
X143891891Y-73738920D01*
X143891890Y-73738922D01*
X143761575Y-73925031D01*
X143706998Y-73968655D01*
X143637499Y-73975848D01*
X143575145Y-73944326D01*
X143558425Y-73925031D01*
X143428109Y-73738922D01*
X143428108Y-73738920D01*
X143261082Y-73571894D01*
X143067578Y-73436399D01*
X142853492Y-73336570D01*
X142853486Y-73336567D01*
X142640000Y-73279364D01*
X142640000Y-74176988D01*
X142582993Y-74144075D01*
X142455826Y-74110000D01*
X142324174Y-74110000D01*
X142197007Y-74144075D01*
X142140000Y-74176988D01*
X142140000Y-73279364D01*
X142139999Y-73279364D01*
X141926513Y-73336567D01*
X141926507Y-73336570D01*
X141712422Y-73436399D01*
X141712420Y-73436400D01*
X141518926Y-73571886D01*
X141518920Y-73571891D01*
X141351891Y-73738920D01*
X141351890Y-73738922D01*
X141221575Y-73925031D01*
X141166998Y-73968655D01*
X141097499Y-73975848D01*
X141035145Y-73944326D01*
X141018425Y-73925031D01*
X140888109Y-73738922D01*
X140888108Y-73738920D01*
X140721082Y-73571894D01*
X140527578Y-73436399D01*
X140313492Y-73336570D01*
X140313486Y-73336567D01*
X140100000Y-73279364D01*
X140100000Y-74176988D01*
X140042993Y-74144075D01*
X139915826Y-74110000D01*
X139784174Y-74110000D01*
X139657007Y-74144075D01*
X139600000Y-74176988D01*
X139600000Y-73279364D01*
X139599999Y-73279364D01*
X139386513Y-73336567D01*
X139386507Y-73336570D01*
X139172422Y-73436399D01*
X139172420Y-73436400D01*
X138978926Y-73571886D01*
X138978920Y-73571891D01*
X138811891Y-73738920D01*
X138811886Y-73738926D01*
X138676400Y-73932420D01*
X138676399Y-73932422D01*
X138576570Y-74146507D01*
X138576567Y-74146513D01*
X138519364Y-74359999D01*
X138519364Y-74360000D01*
X139416988Y-74360000D01*
X139384075Y-74417007D01*
X139350000Y-74544174D01*
X139350000Y-74675826D01*
X139384075Y-74802993D01*
X139416988Y-74860000D01*
X138519364Y-74860000D01*
X138576567Y-75073486D01*
X138576570Y-75073492D01*
X138676399Y-75287578D01*
X138811894Y-75481082D01*
X138934334Y-75603522D01*
X138967819Y-75664845D01*
X138962835Y-75734537D01*
X138920963Y-75790470D01*
X138889987Y-75807385D01*
X138757911Y-75856646D01*
X138757906Y-75856649D01*
X138642812Y-75942809D01*
X138642809Y-75942812D01*
X138556649Y-76057906D01*
X138556645Y-76057913D01*
X138506403Y-76192620D01*
X138506401Y-76192627D01*
X138500000Y-76252155D01*
X106937251Y-76252155D01*
X106997475Y-76177785D01*
X106997476Y-76177783D01*
X107208689Y-75852543D01*
X107384755Y-75506994D01*
X107523737Y-75144936D01*
X107624112Y-74770330D01*
X107624113Y-74770323D01*
X107684780Y-74387287D01*
X107705078Y-74000000D01*
X107705078Y-73999999D01*
X107684780Y-73612712D01*
X107624113Y-73229676D01*
X107624112Y-73229669D01*
X107523737Y-72855063D01*
X107384755Y-72493005D01*
X107208689Y-72147456D01*
X106997468Y-71822206D01*
X106788904Y-71564649D01*
X106788903Y-71564648D01*
X105294251Y-73059300D01*
X105220412Y-72957670D01*
X105042330Y-72779588D01*
X104940698Y-72705748D01*
X106435350Y-71211096D01*
X106435350Y-71211095D01*
X106177793Y-71002531D01*
X105852543Y-70791310D01*
X105506994Y-70615244D01*
X105311664Y-70540264D01*
X105256132Y-70497862D01*
X105232339Y-70432168D01*
X105247841Y-70364040D01*
X105297714Y-70315107D01*
X105356102Y-70300500D01*
X194643898Y-70300500D01*
X194710937Y-70320185D01*
G37*
G04 #@! TD.AperFunction*
G04 #@! TA.AperFunction,Conductor*
G36*
X102779588Y-117042330D02*
G01*
X102957670Y-117220412D01*
X103059300Y-117294251D01*
X101564648Y-118788903D01*
X101564649Y-118788904D01*
X101822206Y-118997468D01*
X102147458Y-119208691D01*
X102147461Y-119208692D01*
X102350739Y-119312267D01*
X102401536Y-119360241D01*
X102418331Y-119428062D01*
X102395794Y-119494197D01*
X102341079Y-119537649D01*
X102271558Y-119544622D01*
X102260115Y-119541905D01*
X102249043Y-119538715D01*
X102235921Y-119534123D01*
X101948390Y-119415025D01*
X101935861Y-119408992D01*
X101663468Y-119258445D01*
X101651694Y-119251047D01*
X101397872Y-119070951D01*
X101387000Y-119062281D01*
X101154936Y-118854896D01*
X101145103Y-118845063D01*
X101094916Y-118788904D01*
X100937709Y-118612989D01*
X100929050Y-118602129D01*
X100748950Y-118348303D01*
X100741563Y-118336547D01*
X100591004Y-118064132D01*
X100584978Y-118051618D01*
X100465874Y-117764077D01*
X100461282Y-117750952D01*
X100458092Y-117739879D01*
X100458449Y-117670010D01*
X100496523Y-117611426D01*
X100560226Y-117582726D01*
X100629333Y-117593022D01*
X100681902Y-117639046D01*
X100687731Y-117649257D01*
X100791310Y-117852543D01*
X101002531Y-118177793D01*
X101211095Y-118435350D01*
X101211096Y-118435350D01*
X102705748Y-116940698D01*
X102779588Y-117042330D01*
G37*
G04 #@! TD.AperFunction*
G04 #@! TA.AperFunction,Conductor*
G36*
X198788902Y-118435349D02*
G01*
X198997475Y-118177785D01*
X198997476Y-118177783D01*
X199208691Y-117852541D01*
X199208692Y-117852538D01*
X199312268Y-117649258D01*
X199360242Y-117598462D01*
X199428063Y-117581666D01*
X199494198Y-117604203D01*
X199537650Y-117658918D01*
X199544623Y-117728439D01*
X199541907Y-117739879D01*
X199538717Y-117750952D01*
X199534124Y-117764078D01*
X199415024Y-118051611D01*
X199408991Y-118064139D01*
X199258442Y-118336538D01*
X199251043Y-118348312D01*
X199070954Y-118602123D01*
X199062285Y-118612995D01*
X198854896Y-118845063D01*
X198845063Y-118854896D01*
X198612995Y-119062285D01*
X198602123Y-119070954D01*
X198348312Y-119251043D01*
X198336538Y-119258442D01*
X198064139Y-119408991D01*
X198051611Y-119415024D01*
X197764078Y-119534124D01*
X197750952Y-119538717D01*
X197739879Y-119541907D01*
X197670010Y-119541550D01*
X197611426Y-119503476D01*
X197582726Y-119439773D01*
X197593022Y-119370666D01*
X197639046Y-119318097D01*
X197649258Y-119312268D01*
X197852538Y-119208692D01*
X197852541Y-119208691D01*
X198177783Y-118997476D01*
X198177785Y-118997475D01*
X198435349Y-118788902D01*
X196940698Y-117294251D01*
X197042330Y-117220412D01*
X197220412Y-117042330D01*
X197294251Y-116940698D01*
X198788902Y-118435349D01*
G37*
G04 #@! TD.AperFunction*
G04 #@! TA.AperFunction,Conductor*
G36*
X102329989Y-70458449D02*
G01*
X102388573Y-70496523D01*
X102417273Y-70560226D01*
X102406977Y-70629333D01*
X102360953Y-70681902D01*
X102350742Y-70687731D01*
X102147456Y-70791310D01*
X101822206Y-71002531D01*
X101564648Y-71211095D01*
X101564648Y-71211096D01*
X103059301Y-72705748D01*
X102957670Y-72779588D01*
X102779588Y-72957670D01*
X102705748Y-73059300D01*
X101211096Y-71564648D01*
X101211095Y-71564648D01*
X101002531Y-71822206D01*
X100791310Y-72147456D01*
X100687731Y-72350742D01*
X100639756Y-72401538D01*
X100571935Y-72418333D01*
X100505801Y-72395796D01*
X100462349Y-72341081D01*
X100455377Y-72271560D01*
X100458092Y-72260120D01*
X100461282Y-72249047D01*
X100465875Y-72235921D01*
X100584981Y-71948374D01*
X100591001Y-71935874D01*
X100741567Y-71663443D01*
X100748944Y-71651704D01*
X100929056Y-71397861D01*
X100937702Y-71387018D01*
X101145113Y-71154925D01*
X101154925Y-71145113D01*
X101387018Y-70937702D01*
X101397861Y-70929056D01*
X101651704Y-70748944D01*
X101663443Y-70741567D01*
X101935874Y-70591001D01*
X101948374Y-70584981D01*
X102235928Y-70465872D01*
X102249040Y-70461284D01*
X102260121Y-70458092D01*
X102329989Y-70458449D01*
G37*
G04 #@! TD.AperFunction*
G04 #@! TA.AperFunction,Conductor*
G36*
X197739879Y-70458092D02*
G01*
X197750952Y-70461282D01*
X197764077Y-70465874D01*
X198051618Y-70584978D01*
X198064132Y-70591004D01*
X198336547Y-70741563D01*
X198348303Y-70748950D01*
X198602129Y-70929050D01*
X198612989Y-70937709D01*
X198685525Y-71002531D01*
X198845063Y-71145103D01*
X198854896Y-71154936D01*
X199062285Y-71387004D01*
X199070954Y-71397876D01*
X199251043Y-71651687D01*
X199258442Y-71663461D01*
X199408991Y-71935860D01*
X199415024Y-71948388D01*
X199534124Y-72235921D01*
X199538717Y-72249047D01*
X199541907Y-72260120D01*
X199541550Y-72329989D01*
X199503476Y-72388573D01*
X199439773Y-72417273D01*
X199370666Y-72406977D01*
X199318097Y-72360953D01*
X199312268Y-72350741D01*
X199208692Y-72147461D01*
X199208691Y-72147458D01*
X198997468Y-71822206D01*
X198788904Y-71564649D01*
X198788903Y-71564648D01*
X197294251Y-73059300D01*
X197220412Y-72957670D01*
X197042330Y-72779588D01*
X196940698Y-72705748D01*
X198435350Y-71211096D01*
X198435350Y-71211095D01*
X198177793Y-71002531D01*
X197852543Y-70791310D01*
X197649257Y-70687731D01*
X197598461Y-70639757D01*
X197581666Y-70571936D01*
X197604203Y-70505801D01*
X197658918Y-70462349D01*
X197728439Y-70455376D01*
X197739879Y-70458092D01*
G37*
G04 #@! TD.AperFunction*
M02*
