M48
; DRILL file KiCad 10.0.3 date 2026-06-16T10:45:43
; FORMAT={-:-/ absolute / metric / decimal}
; #@! TF.CreationDate,2026-06-16T10:45:43-07:00
; #@! TF.GenerationSoftware,Kicad,Pcbnew,10.0.3
; #@! TF.FileFunction,Plated,1,4,PTH
FMAT,2
METRIC
; #@! TA.AperFunction,Plated,PTH,ComponentDrill
T1C0.200
; #@! TA.AperFunction,Plated,PTH,ViaDrill
T2C0.300
; #@! TA.AperFunction,Plated,PTH,ViaDrill
T3C0.400
; #@! TA.AperFunction,Plated,PTH,ComponentDrill
T4C0.600
; #@! TA.AperFunction,Plated,PTH,ComponentDrill
T5C1.000
; #@! TA.AperFunction,Plated,PTH,ComponentDrill
T6C1.100
; #@! TA.AperFunction,Plated,PTH,ComponentDrill
T7C3.200
%
G90
G05
T1
X118.7Y-94.1
X119.8Y-94.1
T2
X101.0Y-78.2
X101.3Y-111.8
X103.0Y-78.2
X103.3Y-111.8
X103.95Y-89.9
X104.65Y-89.5
X104.75Y-98.35
X105.8Y-97.3
X105.8Y-98.35
X106.45Y-99.1
X106.5Y-94.85
X106.55Y-96.25
X107.35Y-99.7
X107.4Y-90.8
X107.45Y-111.65
X107.5Y-113.2
X108.15Y-112.45
X108.2Y-90.25
X108.2Y-91.4
X108.2Y-99.1
X108.4Y-93.05
X108.4Y-94.55
X108.4Y-96.0
X108.4Y-97.45
X108.8Y-113.3
X108.85Y-111.7
X109.0Y-72.0
X109.0Y-73.5
X109.0Y-75.0
X109.0Y-76.5
X109.6Y-79.7
X109.6Y-88.6
X109.6Y-101.3
X109.6Y-102.5
X109.65Y-87.3
X109.7Y-81.25
X109.7Y-108.7
X109.7Y-110.0
X110.0Y-105.688
X110.1Y-113.3
X110.137Y-84.3
X111.2Y-110.0
X111.3Y-113.3
X112.65Y-97.45
X112.7Y-101.4
X113.65Y-99.85
X114.0Y-97.45
X114.6Y-100.75
X114.65Y-94.1
X114.8Y-73.1
X114.8Y-74.6
X114.8Y-76.1
X115.15Y-103.2
X115.45Y-93.15
X115.45Y-95.0
X115.45Y-103.9
X115.55Y-99.85
X115.7Y-104.7
X115.9Y-101.7
X116.0Y-88.5
X116.3Y-73.1
X116.7Y-103.6
X117.1Y-87.95
X117.1Y-89.8
X117.3Y-101.0
X117.3Y-102.2
X117.3Y-103.05
X117.4Y-99.85
X117.5Y-103.85
X118.05Y-100.4
X118.05Y-102.65
X118.85Y-99.6
X118.85Y-101.0
X119.65Y-118.25
X119.9Y-117.5
X120.384Y-117.012
X121.15Y-117.15
X121.4Y-116.35
X121.6Y-112.35
X121.95Y-110.85
X122.15Y-92.9
X122.2Y-94.9
X122.2Y-95.85
X122.25Y-101.5
X122.6Y-111.65
X122.9Y-82.6
X124.2Y-82.5
X124.35Y-89.8
X125.5Y-81.7
X125.95Y-72.4
X126.0Y-80.25
X126.3Y-99.6
X127.2Y-72.4
X127.25Y-80.25
X127.3Y-84.1
X127.45Y-82.7
X128.45Y-72.4
X128.5Y-80.25
X128.7Y-82.7
X129.7Y-72.4
X129.75Y-80.25
X129.95Y-82.7
X130.7Y-87.3
X130.8Y-88.3
X130.95Y-72.4
X131.0Y-80.25
X131.05Y-89.6
X131.2Y-82.7
X131.4Y-88.8
X132.0Y-87.7
X132.0Y-97.55
X132.1Y-88.9
X132.1Y-98.5
X132.15Y-99.55
X132.2Y-72.4
X132.25Y-76.55
X132.25Y-77.8
X132.25Y-79.05
X132.25Y-80.25
X132.25Y-101.05
X132.25Y-104.2
X132.45Y-82.7
X132.6Y-88.2
X132.8Y-99.95
X132.8Y-110.05
X132.9Y-100.75
X132.918Y-106.9
X133.0Y-102.4
X133.1Y-87.7
X133.15Y-95.55
X133.15Y-109.4
X133.2Y-106.3
X133.265Y-98.285
X133.5Y-72.1
X133.5Y-97.1
X133.55Y-99.2
X133.55Y-102.9
X133.6Y-88.9
X133.7Y-82.7
X133.7Y-107.4
X133.715Y-99.915
X133.735Y-97.815
X133.9Y-101.5
X134.0Y-76.2
X134.5Y-72.1
X134.55Y-88.15
X134.6Y-87.4
X134.7Y-101.5
X134.75Y-98.2
X135.0Y-114.9
X135.1Y-82.7
X135.3Y-88.7
X135.8Y-92.1
X135.8Y-100.8
X136.0Y-93.35
X136.2Y-115.75
X136.35Y-82.7
X136.45Y-99.718
X136.45Y-100.382
X136.55Y-94.2
X136.55Y-119.3
X136.7Y-92.95
X136.9Y-99.15
X137.25Y-94.0
X137.35Y-74.0
X137.35Y-110.45
X137.4Y-114.15
X137.45Y-115.3
X137.5Y-119.2
X137.6Y-82.7
X137.7Y-74.75
X137.7Y-105.0
X137.75Y-72.9
X137.95Y-94.25
X138.0Y-114.75
X138.0Y-115.95
X138.3Y-72.0
X138.4Y-103.3
X138.45Y-109.65
X138.55Y-114.1
X138.85Y-82.7
X139.1Y-94.05
X139.2Y-93.35
X139.2Y-114.35
X139.55Y-94.65
X139.6Y-72.0
X140.1Y-82.7
X140.15Y-94.25
X140.2Y-101.675
X140.25Y-109.95
X140.75Y-111.0
X141.1Y-101.675
X141.35Y-82.5
X141.35Y-95.2
X141.55Y-110.65
X141.6Y-89.75
X141.9Y-118.2
X142.2Y-95.1
X142.2Y-112.05
X142.2Y-112.8
X142.25Y-114.3
X142.35Y-89.45
X142.45Y-109.35
X142.55Y-90.35
X142.6Y-82.5
X142.75Y-119.25
X142.85Y-110.7
X142.95Y-113.95
X143.15Y-108.9
X143.2Y-111.8
X143.325Y-112.475
X143.4Y-90.325
X143.5Y-91.225
X143.85Y-82.5
X144.0Y-119.25
X144.2Y-97.225
X144.25Y-93.375
X144.25Y-94.275
X144.3Y-92.525
X144.3Y-98.125
X144.3Y-98.8
X145.1Y-82.5
X145.15Y-92.525
X145.25Y-119.25
X145.3Y-100.9
X145.475Y-117.8
X145.649Y-116.925
X145.75Y-72.1
X145.85Y-92.475
X146.15Y-100.875
X146.5Y-119.25
X146.6Y-92.5
X147.05Y-72.1
X147.2Y-100.875
X147.35Y-92.5
X147.75Y-119.25
X147.95Y-100.875
X148.9Y-109.1
X148.95Y-100.875
X149.0Y-92.5
X149.0Y-119.25
X149.1Y-110.4
X149.3Y-109.7
X149.3Y-117.5
X149.65Y-100.9
X149.925Y-118.125
X150.0Y-92.475
X150.25Y-119.25
X150.3Y-72.6
X150.35Y-100.875
X150.4Y-79.4
X150.4Y-117.5
X150.5Y-103.1
X150.5Y-104.0
X150.55Y-76.4
X150.6Y-73.55
X150.6Y-75.6
X150.6Y-105.0
X150.8Y-92.525
X151.0Y-80.0
X151.0Y-110.2
X151.3Y-110.95
X151.4Y-76.2
X151.4Y-100.9
X151.6Y-73.1
X151.6Y-74.1
X151.6Y-92.55
X151.75Y-110.0
X152.25Y-110.65
X152.3Y-103.95
X152.35Y-92.55
X152.45Y-100.875
X152.5Y-102.675
X152.6Y-94.225
X152.6Y-96.025
X152.6Y-97.9
X152.65Y-93.375
X152.65Y-95.125
X152.65Y-96.875
X152.65Y-98.975
X152.85Y-103.45
X153.4Y-101.6
X153.4Y-110.25
X153.7Y-78.9
X153.8Y-116.7
X153.8Y-117.6
X153.8Y-118.7
X153.9Y-87.6
X154.0Y-111.1
X154.2Y-110.2
X154.7Y-110.8
X154.8Y-87.6
X155.0Y-86.8
X155.5Y-88.3
X155.5Y-106.3
X157.3Y-101.25
X158.15Y-108.8
X158.55Y-102.1
X158.6Y-108.0
X158.7Y-102.8
X159.0Y-88.4
X159.3Y-87.0
X159.8Y-109.85
X160.3Y-85.8
X160.4Y-79.3
X160.55Y-100.6
X160.8Y-86.9
X161.2Y-107.95
X161.325Y-100.525
X161.5Y-72.5
X162.1Y-116.15
X162.25Y-97.5
X162.3Y-99.0
X162.3Y-107.75
X162.45Y-106.4
X162.5Y-95.05
X162.55Y-99.7
X162.7Y-96.95
X162.75Y-72.5
X163.15Y-96.4
X163.2Y-79.3
X163.2Y-100.75
X163.25Y-95.05
X163.25Y-98.5
X163.4Y-82.65
X163.5Y-78.3
X163.5Y-90.8
X163.6Y-95.75
X163.7Y-97.95
X163.7Y-99.1
X163.7Y-106.45
X163.75Y-94.5
X163.75Y-100.25
X163.75Y-107.25
X163.8Y-102.2
X163.9Y-83.9
X164.0Y-72.5
X164.0Y-83.2
X164.2Y-113.9
X164.35Y-103.15
X164.5Y-102.15
X164.65Y-90.75
X164.75Y-113.4
X165.05Y-83.75
X165.1Y-103.0
X165.2Y-80.7
X165.25Y-72.5
X165.25Y-82.8
X165.45Y-90.1
X165.5Y-79.2
X165.8Y-113.7
X166.1Y-113.0
X166.5Y-72.5
X166.7Y-106.4
X166.8Y-90.0
X166.9Y-83.3
X166.9Y-113.0
X166.95Y-91.1
X167.0Y-80.35
X167.3Y-82.65
X167.5Y-90.5
X167.5Y-106.3
X167.6Y-113.4
X167.75Y-72.5
X167.8Y-83.4
X167.95Y-84.2
X168.0Y-88.95
X168.1Y-89.95
X168.1Y-105.6
X168.1Y-112.9
X168.5Y-113.7
X168.6Y-76.0
X168.7Y-72.0
X168.7Y-88.5
X168.7Y-106.5
X168.9Y-84.2
X168.9Y-105.55
X169.05Y-113.2
X169.1Y-104.8
X169.3Y-71.4
X169.6Y-84.5
X169.8Y-113.8
X169.9Y-72.0
X170.1Y-106.0
X170.25Y-85.1
X170.7Y-77.9
X170.75Y-74.0
X170.75Y-75.0
X170.8Y-76.4
X170.85Y-105.65
X170.9Y-85.7
X171.0Y-84.8
X171.0Y-104.9
X171.0Y-113.5
X171.3Y-77.1
X171.35Y-88.3
X171.6Y-85.35
X171.7Y-77.9
X171.7Y-105.5
X171.75Y-73.0
X171.75Y-74.0
X171.75Y-75.0
X171.9Y-76.4
X172.1Y-104.65
X172.25Y-84.95
X172.45Y-86.4
X172.5Y-113.5
X173.0Y-114.75
X173.0Y-116.25
X173.0Y-118.0
X173.1Y-78.499
X173.1Y-104.9
X173.15Y-86.05
X173.6Y-96.0
X173.7Y-105.6
X173.75Y-85.5
X173.85Y-104.75
X174.0Y-113.5
X174.1Y-104.0
X174.15Y-97.0
X174.2Y-93.2
X174.3Y-86.05
X174.3Y-93.9
X174.65Y-83.05
X175.086Y-93.986
X175.1Y-102.55
X175.25Y-95.95
X175.6Y-83.3
X175.6Y-84.15
X175.6Y-105.1
X176.0Y-101.4
X176.1Y-85.75
X176.35Y-104.85
X176.4Y-103.7
X176.6Y-95.65
X177.1Y-104.5
X177.15Y-103.65
X177.85Y-85.75
X178.0Y-103.5
X178.1Y-92.4
X178.1Y-94.1
X178.4Y-73.2
X179.068Y-87.632
X179.15Y-103.65
X179.35Y-81.85
X179.5Y-103.0
X181.15Y-78.85
X181.25Y-72.75
X181.5Y-90.7
X181.5Y-92.4
X181.5Y-94.1
X181.575Y-88.325
X182.5Y-72.75
X182.6Y-88.3
X182.85Y-89.2
X183.75Y-72.75
X184.3Y-85.6
X184.3Y-86.75
X184.3Y-93.25
X184.5Y-84.65
X184.75Y-101.75
X185.1Y-72.75
X185.1Y-79.55
X185.35Y-89.75
X185.5Y-84.4
X185.5Y-102.45
X185.95Y-103.0
X186.2Y-89.2
X186.35Y-72.75
X186.4Y-82.65
X186.4Y-83.65
X186.5Y-102.4
X186.8Y-94.0
X187.2Y-103.7
X187.5Y-81.65
X187.5Y-82.65
X187.5Y-83.65
X187.5Y-84.65
X187.5Y-85.6
X187.6Y-72.75
X187.75Y-94.0
X187.75Y-105.5
X187.9Y-88.55
X188.5Y-106.25
X188.6Y-104.1
X188.65Y-81.65
X188.65Y-82.65
X188.65Y-83.65
X188.65Y-84.65
X188.65Y-85.6
X188.75Y-80.25
X188.75Y-88.6
X188.85Y-72.75
X188.85Y-94.0
X188.85Y-95.0
X188.85Y-96.0
X189.15Y-79.55
X189.15Y-97.0
X189.15Y-98.0
X189.25Y-107.0
X189.4Y-104.8
X189.4Y-106.1
X189.6Y-88.6
X189.6Y-90.95
X189.6Y-103.7
X189.75Y-78.95
X189.75Y-80.25
X189.8Y-81.65
X189.8Y-82.65
X189.8Y-83.65
X189.8Y-84.65
X189.8Y-85.6
X189.8Y-89.8
X190.0Y-94.0
X190.0Y-95.0
X190.0Y-96.0
X190.0Y-107.75
X190.1Y-72.75
X190.1Y-105.3
X190.2Y-97.0
X190.2Y-98.0
X190.3Y-106.9
X190.75Y-108.5
X190.8Y-106.0
X190.9Y-104.7
X191.0Y-81.65
X191.0Y-82.65
X191.0Y-83.65
X191.0Y-84.65
X191.0Y-85.6
X191.1Y-94.05
X191.1Y-95.0
X191.1Y-96.0
X191.1Y-107.7
X191.2Y-97.0
X191.2Y-98.0
X191.3Y-106.7
X191.35Y-89.8
X191.35Y-91.55
X191.35Y-111.95
X191.35Y-113.4
X191.5Y-105.4
X191.7Y-88.05
X192.1Y-80.65
X192.1Y-81.65
X192.1Y-82.65
X192.1Y-83.65
X192.1Y-84.65
X192.1Y-85.6
X192.1Y-86.65
X192.1Y-104.7
X192.2Y-93.0
X192.2Y-94.05
X192.2Y-95.0
X192.2Y-96.0
X192.2Y-97.0
X192.2Y-98.0
X192.25Y-105.8
X192.3Y-112.7
X193.0Y-89.8
X193.15Y-111.95
X193.2Y-77.75
X193.2Y-78.7
X193.2Y-79.7
X193.2Y-104.7
X193.25Y-80.65
X193.25Y-81.65
X193.25Y-82.65
X193.25Y-83.65
X193.25Y-84.65
X193.25Y-85.6
X193.25Y-103.95
X193.3Y-86.65
X193.3Y-87.65
X193.35Y-94.05
X193.35Y-95.0
X193.35Y-96.0
X193.35Y-97.0
X193.35Y-98.0
X193.4Y-92.0
X193.4Y-93.0
X193.7Y-90.95
X193.75Y-88.6
X194.1Y-101.6
X194.3Y-77.75
X194.35Y-78.7
X194.35Y-79.7
X194.4Y-80.65
X194.4Y-81.65
X194.4Y-82.65
X194.4Y-83.65
X194.4Y-84.65
X194.4Y-85.6
X194.4Y-86.65
X194.4Y-87.65
X194.5Y-92.0
X194.5Y-93.0
X194.5Y-94.05
X194.5Y-95.0
X194.5Y-96.0
X194.5Y-97.0
X194.5Y-98.0
X195.2Y-105.75
X195.55Y-78.7
X195.55Y-79.65
X195.6Y-80.65
X195.6Y-81.6
X195.6Y-82.6
X195.6Y-83.6
X195.6Y-84.6
X195.6Y-85.6
X195.6Y-88.2
X195.6Y-91.4
X195.6Y-94.0
X195.6Y-94.95
X195.6Y-95.95
X195.6Y-96.95
X195.6Y-97.95
X195.9Y-101.7
X196.65Y-78.7
X196.65Y-79.65
X196.7Y-80.65
X196.7Y-81.6
X196.7Y-82.6
X196.7Y-83.6
X196.7Y-84.6
X196.7Y-85.6
X196.7Y-88.2
X196.7Y-91.4
X196.7Y-94.0
X196.7Y-94.95
X196.7Y-95.95
X196.7Y-96.95
X196.7Y-97.95
X196.9Y-98.9
X197.55Y-103.5
X197.7Y-105.3
X197.8Y-78.7
X197.8Y-79.65
X197.85Y-80.65
X197.85Y-81.6
X197.85Y-82.6
X197.85Y-83.6
X197.85Y-84.6
X197.85Y-85.6
X197.85Y-88.2
X197.85Y-91.4
X197.85Y-94.0
X197.85Y-94.95
X197.85Y-95.95
X197.85Y-96.95
X197.85Y-97.95
X197.85Y-98.95
X197.9Y-100.0
X197.9Y-101.0
X197.9Y-102.0
X198.1Y-103.0
X198.1Y-104.2
X198.95Y-78.7
X198.95Y-79.65
X199.0Y-80.65
X199.0Y-81.6
X199.0Y-82.6
X199.0Y-83.6
X199.0Y-84.6
X199.0Y-85.6
X199.0Y-88.2
X199.0Y-91.4
X199.0Y-94.0
X199.0Y-94.95
X199.0Y-95.95
X199.0Y-96.95
X199.0Y-97.95
X199.0Y-98.95
X199.0Y-100.0
X199.0Y-101.0
X199.0Y-102.0
X199.0Y-103.0
X199.0Y-104.0
X199.0Y-105.0
X199.0Y-106.05
X199.0Y-107.05
X199.0Y-108.05
X199.0Y-109.05
X199.0Y-110.05
X199.0Y-111.0
T3
X107.3Y-119.2
X109.3Y-119.2
X111.3Y-119.2
X113.3Y-119.2
X115.3Y-119.2
X115.55Y-86.35
X116.35Y-85.45
X117.3Y-119.2
X119.3Y-119.2
X121.3Y-119.2
X123.3Y-119.2
X125.4Y-119.2
X126.15Y-89.9
X126.15Y-91.35
X127.5Y-119.2
X129.5Y-119.2
X131.5Y-119.2
X133.5Y-119.2
X134.0Y-70.7
X135.5Y-119.2
X136.0Y-70.7
X138.0Y-70.7
X139.0Y-74.6
X140.0Y-70.7
X142.0Y-70.7
X144.0Y-70.7
X146.0Y-70.7
X148.0Y-70.7
X150.0Y-70.7
X152.1Y-70.7
X154.2Y-70.7
X156.2Y-70.7
X158.2Y-70.7
X160.2Y-70.7
X162.2Y-70.7
X164.2Y-70.7
X166.2Y-70.7
X168.2Y-70.7
X170.3Y-70.7
X172.3Y-70.7
X174.3Y-70.7
X176.3Y-70.7
X178.3Y-70.7
X180.3Y-70.7
X182.3Y-70.7
X184.3Y-70.7
X186.3Y-70.7
X188.3Y-70.7
X190.3Y-70.7
X192.3Y-70.7
T5
X113.02Y-112.3
X113.02Y-114.84
X115.56Y-112.3
X115.56Y-114.84
X118.1Y-112.3
X118.1Y-114.84
X154.65Y-74.55
X154.65Y-77.09
X157.19Y-74.55
X157.19Y-77.09
X159.73Y-74.55
X159.73Y-77.09
X162.27Y-74.55
X162.27Y-77.09
X164.81Y-74.55
X164.81Y-77.09
X167.35Y-74.55
X167.35Y-77.09
X174.64Y-74.5
X174.64Y-77.04
X177.18Y-74.5
X177.18Y-77.04
X179.72Y-74.5
X179.72Y-77.04
X182.26Y-74.5
X182.26Y-77.04
X184.8Y-74.5
X184.8Y-77.04
X187.34Y-74.5
X187.34Y-77.04
X189.88Y-74.5
X189.88Y-77.04
T6
X113.0Y-78.45
X115.5Y-78.45
X118.0Y-78.45
X125.4Y-78.45
X127.9Y-78.45
X130.4Y-78.45
T7
X104.0Y-74.0
X104.0Y-116.0
X196.0Y-74.0
X196.0Y-116.0
T4
X102.9Y-80.0G85X102.3Y-80.0
G05
X102.9Y-88.64G85X102.3Y-88.64
G05
X102.9Y-101.39G85X102.3Y-101.39
G05
X102.9Y-110.03G85X102.3Y-110.03
G05
X107.33Y-80.0G85X106.23Y-80.0
G05
X107.33Y-88.64G85X106.23Y-88.64
G05
X107.33Y-101.39G85X106.23Y-101.39
G05
X107.33Y-110.03G85X106.23Y-110.03
G05
M30
