%TF.GenerationSoftware,KiCad,Pcbnew,10.0.3*%
%TF.CreationDate,2026-06-05T10:33:33-07:00*%
%TF.ProjectId,ESP32P4C5_Board,45535033-3250-4344-9335-5f426f617264,rev?*%
%TF.SameCoordinates,Original*%
%TF.FileFunction,Paste,Top*%
%TF.FilePolarity,Positive*%
%FSLAX46Y46*%
G04 Gerber Fmt 4.6, Leading zero omitted, Abs format (unit mm)*
G04 Created by KiCad (PCBNEW 10.0.3) date 2026-06-05 10:33:33*
%MOMM*%
%LPD*%
G01*
G04 APERTURE LIST*
G04 Aperture macros list*
%AMRoundRect*
0 Rectangle with rounded corners*
0 $1 Rounding radius*
0 $2 $3 $4 $5 $6 $7 $8 $9 X,Y pos of 4 corners*
0 Add a 4 corners polygon primitive as box body*
4,1,4,$2,$3,$4,$5,$6,$7,$8,$9,$2,$3,0*
0 Add four circle primitives for the rounded corners*
1,1,$1+$1,$2,$3*
1,1,$1+$1,$4,$5*
1,1,$1+$1,$6,$7*
1,1,$1+$1,$8,$9*
0 Add four rect primitives between the rounded corners*
20,1,$1+$1,$2,$3,$4,$5,0*
20,1,$1+$1,$4,$5,$6,$7,0*
20,1,$1+$1,$6,$7,$8,$9,0*
20,1,$1+$1,$8,$9,$2,$3,0*%
G04 Aperture macros list end*
%ADD10C,0.010000*%
%ADD11R,4.300000X1.450000*%
%ADD12R,4.300000X1.300000*%
%ADD13RoundRect,0.160000X0.222500X0.160000X-0.222500X0.160000X-0.222500X-0.160000X0.222500X-0.160000X0*%
%ADD14RoundRect,0.225000X-0.250000X0.225000X-0.250000X-0.225000X0.250000X-0.225000X0.250000X0.225000X0*%
%ADD15O,0.180000X0.650000*%
%ADD16O,0.650000X0.180000*%
%ADD17RoundRect,0.225000X0.250000X-0.225000X0.250000X0.225000X-0.250000X0.225000X-0.250000X-0.225000X0*%
%ADD18R,0.500000X0.400000*%
%ADD19R,0.500000X0.300000*%
%ADD20RoundRect,0.225000X-0.225000X-0.250000X0.225000X-0.250000X0.225000X0.250000X-0.225000X0.250000X0*%
%ADD21RoundRect,0.150000X0.512500X0.150000X-0.512500X0.150000X-0.512500X-0.150000X0.512500X-0.150000X0*%
%ADD22RoundRect,0.200000X0.275000X-0.200000X0.275000X0.200000X-0.275000X0.200000X-0.275000X-0.200000X0*%
%ADD23R,1.450000X0.600000*%
%ADD24R,1.450000X0.300000*%
%ADD25RoundRect,0.250000X-0.475000X0.337500X-0.475000X-0.337500X0.475000X-0.337500X0.475000X0.337500X0*%
%ADD26RoundRect,0.150000X-0.650000X-0.150000X0.650000X-0.150000X0.650000X0.150000X-0.650000X0.150000X0*%
%ADD27RoundRect,0.200000X-0.200000X-0.275000X0.200000X-0.275000X0.200000X0.275000X-0.200000X0.275000X0*%
%ADD28RoundRect,0.225000X0.225000X-0.475000X0.225000X0.475000X-0.225000X0.475000X-0.225000X-0.475000X0*%
%ADD29R,0.736600X0.609600*%
%ADD30RoundRect,0.225000X0.225000X0.250000X-0.225000X0.250000X-0.225000X-0.250000X0.225000X-0.250000X0*%
%ADD31RoundRect,0.250000X-0.262500X-0.450000X0.262500X-0.450000X0.262500X0.450000X-0.262500X0.450000X0*%
%ADD32RoundRect,0.250000X-0.450000X0.262500X-0.450000X-0.262500X0.450000X-0.262500X0.450000X0.262500X0*%
%ADD33RoundRect,0.225000X-0.225000X0.475000X-0.225000X-0.475000X0.225000X-0.475000X0.225000X0.475000X0*%
%ADD34R,1.500000X0.350000*%
%ADD35R,2.500000X1.500000*%
%ADD36R,0.300000X0.800000*%
%ADD37R,0.950000X1.000000*%
%ADD38R,0.400000X0.500000*%
%ADD39R,0.300000X0.500000*%
%ADD40RoundRect,0.200000X-0.275000X0.200000X-0.275000X-0.200000X0.275000X-0.200000X0.275000X0.200000X0*%
%ADD41RoundRect,0.150000X-0.150000X0.650000X-0.150000X-0.650000X0.150000X-0.650000X0.150000X0.650000X0*%
%ADD42R,0.889000X0.330200*%
%ADD43R,1.400000X1.200000*%
%ADD44R,1.600000X0.760000*%
%ADD45RoundRect,0.150000X-0.512500X-0.150000X0.512500X-0.150000X0.512500X0.150000X-0.512500X0.150000X0*%
%ADD46RoundRect,0.250000X-0.650000X1.000000X-0.650000X-1.000000X0.650000X-1.000000X0.650000X1.000000X0*%
%ADD47R,0.200000X0.800000*%
%ADD48R,0.800000X0.200000*%
%ADD49R,4.750000X4.750000*%
%ADD50RoundRect,0.225000X0.475000X0.225000X-0.475000X0.225000X-0.475000X-0.225000X0.475000X-0.225000X0*%
%ADD51RoundRect,0.218750X0.218750X0.256250X-0.218750X0.256250X-0.218750X-0.256250X0.218750X-0.256250X0*%
%ADD52R,0.800000X0.300000*%
%ADD53R,1.000000X0.950000*%
%ADD54RoundRect,0.250000X-0.650000X0.325000X-0.650000X-0.325000X0.650000X-0.325000X0.650000X0.325000X0*%
%ADD55RoundRect,0.250000X1.000000X0.650000X-1.000000X0.650000X-1.000000X-0.650000X1.000000X-0.650000X0*%
%ADD56RoundRect,0.250000X0.650000X-0.325000X0.650000X0.325000X-0.650000X0.325000X-0.650000X-0.325000X0*%
%ADD57R,1.397000X0.558800*%
%ADD58R,1.300000X1.600000*%
%ADD59R,1.500000X0.650000*%
%ADD60R,1.295400X3.149600*%
%ADD61R,0.304800X1.000000*%
%ADD62R,0.965200X1.016000*%
%ADD63RoundRect,0.250000X0.450000X-0.262500X0.450000X0.262500X-0.450000X0.262500X-0.450000X-0.262500X0*%
G04 APERTURE END LIST*
D10*
%TO.C,U1*%
X146715000Y-93410000D02*
X146715000Y-94990000D01*
X145135000Y-94990000D01*
X145135000Y-93410000D01*
X146715000Y-93410000D01*
G36*
X146715000Y-94990000D02*
G01*
X145135000Y-94990000D01*
X145135000Y-93410000D01*
X146715000Y-93410000D01*
X146715000Y-94990000D01*
G37*
X146715000Y-95910000D02*
X146715000Y-97490000D01*
X145135000Y-97490000D01*
X145135000Y-95910000D01*
X146715000Y-95910000D01*
G36*
X146715000Y-97490000D02*
G01*
X145135000Y-97490000D01*
X145135000Y-95910000D01*
X146715000Y-95910000D01*
X146715000Y-97490000D01*
G37*
X146715000Y-98410000D02*
X146715000Y-99990000D01*
X145135000Y-99990000D01*
X145135000Y-98410000D01*
X146715000Y-98410000D01*
G36*
X146715000Y-99990000D02*
G01*
X145135000Y-99990000D01*
X145135000Y-98410000D01*
X146715000Y-98410000D01*
X146715000Y-99990000D01*
G37*
X149215000Y-93410000D02*
X149215000Y-94990000D01*
X147635000Y-94990000D01*
X147635000Y-93410000D01*
X149215000Y-93410000D01*
G36*
X149215000Y-94990000D02*
G01*
X147635000Y-94990000D01*
X147635000Y-93410000D01*
X149215000Y-93410000D01*
X149215000Y-94990000D01*
G37*
X149215000Y-95910000D02*
X149215000Y-97490000D01*
X147635000Y-97490000D01*
X147635000Y-95910000D01*
X149215000Y-95910000D01*
G36*
X149215000Y-97490000D02*
G01*
X147635000Y-97490000D01*
X147635000Y-95910000D01*
X149215000Y-95910000D01*
X149215000Y-97490000D01*
G37*
X149215000Y-98410000D02*
X149215000Y-99990000D01*
X147635000Y-99990000D01*
X147635000Y-98410000D01*
X149215000Y-98410000D01*
G36*
X149215000Y-99990000D02*
G01*
X147635000Y-99990000D01*
X147635000Y-98410000D01*
X149215000Y-98410000D01*
X149215000Y-99990000D01*
G37*
X151715000Y-93410000D02*
X151715000Y-94990000D01*
X150135000Y-94990000D01*
X150135000Y-93410000D01*
X151715000Y-93410000D01*
G36*
X151715000Y-94990000D02*
G01*
X150135000Y-94990000D01*
X150135000Y-93410000D01*
X151715000Y-93410000D01*
X151715000Y-94990000D01*
G37*
X151715000Y-98410000D02*
X151715000Y-99990000D01*
X150135000Y-99990000D01*
X150135000Y-98410000D01*
X151715000Y-98410000D01*
G36*
X151715000Y-99990000D02*
G01*
X150135000Y-99990000D01*
X150135000Y-98410000D01*
X151715000Y-98410000D01*
X151715000Y-99990000D01*
G37*
X151755000Y-95910000D02*
X151755000Y-97490000D01*
X150175000Y-97490000D01*
X150175000Y-95910000D01*
X151755000Y-95910000D01*
G36*
X151755000Y-97490000D02*
G01*
X150175000Y-97490000D01*
X150175000Y-95910000D01*
X151755000Y-95910000D01*
X151755000Y-97490000D01*
G37*
%TD*%
D11*
%TO.C,J3*%
X197350000Y-86975000D03*
X197400800Y-92625000D03*
D12*
X197350000Y-89800000D03*
%TD*%
D13*
%TO.C,L5*%
X188572500Y-87100000D03*
X187427500Y-87100000D03*
%TD*%
D14*
%TO.C,C34*%
X189550000Y-101450000D03*
X189550000Y-103000000D03*
%TD*%
D15*
%TO.C,U1*%
X152800000Y-91775000D03*
X152450000Y-91775000D03*
X152100000Y-91775000D03*
X151750000Y-91775000D03*
X151400000Y-91775000D03*
X151050000Y-91775000D03*
X150700000Y-91775000D03*
X150350000Y-91775000D03*
X150000000Y-91775000D03*
X149650000Y-91775000D03*
X149300000Y-91775000D03*
X148950000Y-91775000D03*
X148600000Y-91775000D03*
X148250000Y-91775000D03*
X147900000Y-91775000D03*
X147550000Y-91775000D03*
X147200000Y-91775000D03*
X146850000Y-91775000D03*
X146500000Y-91775000D03*
X146150000Y-91775000D03*
X145800000Y-91775000D03*
X145450000Y-91775000D03*
X145100000Y-91775000D03*
X144750000Y-91775000D03*
X144400000Y-91775000D03*
X144050000Y-91775000D03*
D16*
X143500000Y-92325000D03*
X143500000Y-92675000D03*
X143500000Y-93025000D03*
X143500000Y-93375000D03*
X143500000Y-93725000D03*
X143500000Y-94075000D03*
X143500000Y-94425000D03*
X143500000Y-94775000D03*
X143500000Y-95125000D03*
X143500000Y-95475000D03*
X143500000Y-95825000D03*
X143500000Y-96175000D03*
X143500000Y-96525000D03*
X143500000Y-96875000D03*
X143500000Y-97225000D03*
X143500000Y-97575000D03*
X143500000Y-97925000D03*
X143500000Y-98275000D03*
X143500000Y-98625000D03*
X143500000Y-98975000D03*
X143500000Y-99325000D03*
X143500000Y-99675000D03*
X143500000Y-100025000D03*
X143500000Y-100375000D03*
X143500000Y-100725000D03*
X143500000Y-101075000D03*
D15*
X144050000Y-101625000D03*
X144400000Y-101625000D03*
X144750000Y-101625000D03*
X145100000Y-101625000D03*
X145450000Y-101625000D03*
X145800000Y-101625000D03*
X146150000Y-101625000D03*
X146500000Y-101625000D03*
X146850000Y-101625000D03*
X147200000Y-101625000D03*
X147550000Y-101625000D03*
X147900000Y-101625000D03*
X148250000Y-101625000D03*
X148600000Y-101625000D03*
X148950000Y-101625000D03*
X149300000Y-101625000D03*
X149650000Y-101625000D03*
X150000000Y-101625000D03*
X150350000Y-101625000D03*
X150700000Y-101625000D03*
X151050000Y-101625000D03*
X151400000Y-101625000D03*
X151750000Y-101625000D03*
X152100000Y-101625000D03*
X152450000Y-101625000D03*
X152800000Y-101625000D03*
D16*
X153350000Y-101075000D03*
X153350000Y-100725000D03*
X153350000Y-100375000D03*
X153350000Y-100025000D03*
X153350000Y-99675000D03*
X153350000Y-99325000D03*
X153350000Y-98975000D03*
X153350000Y-98625000D03*
X153350000Y-98275000D03*
X153350000Y-97925000D03*
X153350000Y-97575000D03*
X153350000Y-97225000D03*
X153350000Y-96875000D03*
X153350000Y-96525000D03*
X153350000Y-96175000D03*
X153350000Y-95825000D03*
X153350000Y-95475000D03*
X153350000Y-95125000D03*
X153350000Y-94775000D03*
X153350000Y-94425000D03*
X153350000Y-94075000D03*
X153350000Y-93725000D03*
X153350000Y-93375000D03*
X153350000Y-93025000D03*
X153350000Y-92675000D03*
X153350000Y-92325000D03*
%TD*%
D17*
%TO.C,C7*%
X185500000Y-87115000D03*
X185500000Y-85565000D03*
%TD*%
D18*
%TO.C,RN5*%
X159600000Y-102800000D03*
D19*
X159600000Y-103300000D03*
X159600000Y-103800000D03*
D18*
X159600000Y-104300000D03*
X160600000Y-104300000D03*
D19*
X160600000Y-103800000D03*
X160600000Y-103300000D03*
D18*
X160600000Y-102800000D03*
%TD*%
D14*
%TO.C,C30*%
X185650000Y-97575000D03*
X185650000Y-99125000D03*
%TD*%
D20*
%TO.C,C20*%
X191975000Y-110600000D03*
X193525000Y-110600000D03*
%TD*%
D21*
%TO.C,U4*%
X113725000Y-85250000D03*
X113725000Y-84300000D03*
X113725000Y-83350000D03*
X111450000Y-83350000D03*
X111450000Y-84300000D03*
X111450000Y-85250000D03*
%TD*%
D22*
%TO.C,R20*%
X141550000Y-105225000D03*
X141550000Y-103575000D03*
%TD*%
D23*
%TO.C,J6*%
X107695000Y-81070000D03*
X107695000Y-81870000D03*
D24*
X107695000Y-83070000D03*
X107695000Y-84070000D03*
X107695000Y-84570000D03*
X107695000Y-85570000D03*
D23*
X107695000Y-86770000D03*
X107695000Y-87570000D03*
X107695000Y-87570000D03*
X107695000Y-86770000D03*
D24*
X107695000Y-86070000D03*
X107695000Y-85070000D03*
X107695000Y-83570000D03*
X107695000Y-82570000D03*
D23*
X107695000Y-81870000D03*
X107695000Y-81070000D03*
%TD*%
D20*
%TO.C,C35*%
X185450000Y-90900000D03*
X187000000Y-90900000D03*
%TD*%
D25*
%TO.C,FB2*%
X187800000Y-97562500D03*
X187800000Y-99637500D03*
%TD*%
D26*
%TO.C,U5*%
X170800000Y-98417598D03*
X170800000Y-99687598D03*
X170800000Y-100957598D03*
X170800000Y-102227598D03*
X178000000Y-102227598D03*
X178000000Y-100957598D03*
X178000000Y-99687598D03*
X178000000Y-98417598D03*
%TD*%
D27*
%TO.C,R11*%
X156125000Y-94050000D03*
X157775000Y-94050000D03*
%TD*%
D28*
%TO.C,U12*%
X101962500Y-92987500D03*
X101962500Y-96587500D03*
X103262500Y-92987500D03*
X103262500Y-96587500D03*
%TD*%
D29*
%TO.C,RN1*%
X172589900Y-95100000D03*
X172589900Y-93830000D03*
X172589900Y-92560000D03*
X172589900Y-91290000D03*
X172589900Y-90020000D03*
X169110100Y-90020000D03*
X169110100Y-91290000D03*
X169110100Y-92560000D03*
X169110100Y-93830000D03*
X169110100Y-95100000D03*
%TD*%
D30*
%TO.C,C38*%
X139875000Y-77775000D03*
X138325000Y-77775000D03*
%TD*%
D31*
%TO.C,R18*%
X111987500Y-108700000D03*
X113812500Y-108700000D03*
%TD*%
D22*
%TO.C,R22*%
X168600000Y-102497598D03*
X168600000Y-100847598D03*
%TD*%
D32*
%TO.C,R6*%
X175700000Y-80037500D03*
X175700000Y-81862500D03*
%TD*%
D14*
%TO.C,C6*%
X190500000Y-87075000D03*
X190500000Y-88625000D03*
%TD*%
D33*
%TO.C,U13*%
X197300000Y-110650000D03*
X197300000Y-107050000D03*
X196000000Y-110650000D03*
X196000000Y-107050000D03*
%TD*%
D17*
%TO.C,C4*%
X154150000Y-90300000D03*
X154150000Y-88750000D03*
%TD*%
D34*
%TO.C,FPC7*%
X128200000Y-89750001D03*
X128200000Y-90250000D03*
X128200000Y-90750000D03*
X128200000Y-91250000D03*
X128200000Y-91750000D03*
X128200000Y-92250001D03*
X128200000Y-92750000D03*
X128200000Y-93250000D03*
X128200000Y-93750000D03*
X128200000Y-94250000D03*
X128200000Y-94750001D03*
X128200000Y-95250000D03*
X128200000Y-95750000D03*
X128200000Y-96250000D03*
X128200000Y-96750000D03*
X128200000Y-97250001D03*
X128200000Y-97750000D03*
X128200000Y-98250000D03*
X128200000Y-98750000D03*
X128200000Y-99250000D03*
X128200000Y-99750000D03*
X128200000Y-100250000D03*
D35*
X125099999Y-88050000D03*
X125099999Y-101950000D03*
%TD*%
D17*
%TO.C,C83*%
X178400000Y-83225000D03*
X178400000Y-81675000D03*
%TD*%
D31*
%TO.C,R13*%
X112037500Y-87300000D03*
X113862500Y-87300000D03*
%TD*%
D20*
%TO.C,C29*%
X184175000Y-100850000D03*
X185725000Y-100850000D03*
%TD*%
D17*
%TO.C,C77*%
X160900000Y-118275000D03*
X160900000Y-116725000D03*
%TD*%
D31*
%TO.C,R12*%
X116587500Y-82550000D03*
X118412500Y-82550000D03*
%TD*%
D36*
%TO.C,FPC2*%
X175750000Y-114750000D03*
X176250000Y-114750000D03*
X176750000Y-114750000D03*
X177250000Y-114750000D03*
X177750000Y-114750000D03*
X178250000Y-114750000D03*
X178750000Y-114750000D03*
X179250000Y-114750000D03*
X179750000Y-114750000D03*
X180250000Y-114750000D03*
X180750000Y-114750000D03*
X181250000Y-114750000D03*
X181750000Y-114750000D03*
X182250000Y-114750000D03*
X182750000Y-114750000D03*
X183250000Y-114750000D03*
X183750000Y-114750000D03*
X184250000Y-114750000D03*
X184750000Y-114750000D03*
X185250000Y-114750000D03*
X185750000Y-114750000D03*
X186250000Y-114750000D03*
X186750000Y-114750000D03*
X187250000Y-114750000D03*
X187750000Y-114750000D03*
X188250000Y-114750000D03*
X188750000Y-114750000D03*
X189250000Y-114750000D03*
X189750000Y-114750000D03*
X190250000Y-114750000D03*
D37*
X174525000Y-117450000D03*
X191475000Y-117450000D03*
%TD*%
D38*
%TO.C,RN3*%
X143650000Y-108300000D03*
D39*
X144150000Y-108300000D03*
X144650000Y-108300000D03*
D38*
X145150000Y-108300000D03*
X145150000Y-107300000D03*
D39*
X144650000Y-107300000D03*
X144150000Y-107300000D03*
D38*
X143650000Y-107300000D03*
%TD*%
D40*
%TO.C,R19*%
X133350000Y-113575000D03*
X133350000Y-115225000D03*
%TD*%
D27*
%TO.C,R9*%
X156125000Y-92350000D03*
X157775000Y-92350000D03*
%TD*%
D41*
%TO.C,U11*%
X139805000Y-88712500D03*
X138535000Y-88712500D03*
X137265000Y-88712500D03*
X135995000Y-88712500D03*
X135995000Y-95912500D03*
X137265000Y-95912500D03*
X138535000Y-95912500D03*
X139805000Y-95912500D03*
%TD*%
D38*
%TO.C,RN2*%
X150750000Y-86775000D03*
D39*
X150250000Y-86775000D03*
X149750000Y-86775000D03*
D38*
X149250000Y-86775000D03*
X149250000Y-87775000D03*
D39*
X149750000Y-87775000D03*
X150250000Y-87775000D03*
D38*
X150750000Y-87775000D03*
%TD*%
D17*
%TO.C,C1*%
X190450000Y-92625000D03*
X190450000Y-91075000D03*
%TD*%
D18*
%TO.C,RN14*%
X160600000Y-107200000D03*
D19*
X160600000Y-106700000D03*
X160600000Y-106200000D03*
D18*
X160600000Y-105700000D03*
X159600000Y-105700000D03*
D19*
X159600000Y-106200000D03*
X159600000Y-106700000D03*
D18*
X159600000Y-107200000D03*
%TD*%
D42*
%TO.C,DP1*%
X194030001Y-90449999D03*
X194030001Y-89800000D03*
X194030001Y-89150001D03*
X192369999Y-89150001D03*
X192369999Y-89800000D03*
X192369999Y-90449999D03*
%TD*%
D20*
%TO.C,C19*%
X101725000Y-90850000D03*
X103275000Y-90850000D03*
%TD*%
D17*
%TO.C,C36*%
X188750000Y-90925000D03*
X188750000Y-89375000D03*
%TD*%
D31*
%TO.C,R29*%
X156487500Y-110600000D03*
X158312500Y-110600000D03*
%TD*%
D27*
%TO.C,R8*%
X135775000Y-101900000D03*
X137425000Y-101900000D03*
%TD*%
D43*
%TO.C,Y1*%
X137650000Y-81375000D03*
X139850000Y-81375000D03*
X139850000Y-79675000D03*
X137650000Y-79675000D03*
%TD*%
D31*
%TO.C,R17*%
X111987500Y-102700000D03*
X113812500Y-102700000D03*
%TD*%
D44*
%TO.C,SW1*%
X144175000Y-117800000D03*
X151795000Y-117800000D03*
%TD*%
D45*
%TO.C,U14*%
X171212500Y-79950000D03*
X171212500Y-80900000D03*
X171212500Y-81850000D03*
X173487500Y-81850000D03*
X173487500Y-79950000D03*
%TD*%
D22*
%TO.C,R3*%
X133950000Y-74875000D03*
X133950000Y-73225000D03*
%TD*%
D14*
%TO.C,C96*%
X184600000Y-81675000D03*
X184600000Y-83225000D03*
%TD*%
D22*
%TO.C,R4*%
X180400000Y-86875000D03*
X180400000Y-85225000D03*
%TD*%
D46*
%TO.C,D3*%
X111300000Y-95500000D03*
X111300000Y-99500000D03*
%TD*%
D22*
%TO.C,R2*%
X152000000Y-60900000D03*
X152000000Y-59250000D03*
%TD*%
D47*
%TO.C,IC1*%
X182000000Y-89450000D03*
X181600000Y-89450000D03*
X181200000Y-89450000D03*
X180800000Y-89450000D03*
X180400000Y-89450000D03*
X180000000Y-89450000D03*
X179600000Y-89450000D03*
X179200000Y-89450000D03*
X178800000Y-89450000D03*
X178400000Y-89450000D03*
X178000000Y-89450000D03*
X177600000Y-89450000D03*
D48*
X176850000Y-90200000D03*
X176850000Y-90600000D03*
X176850000Y-91000000D03*
X176850000Y-91400000D03*
X176850000Y-91800000D03*
X176850000Y-92200000D03*
X176850000Y-92600000D03*
X176850000Y-93000000D03*
X176850000Y-93400000D03*
X176850000Y-93800000D03*
X176850000Y-94200000D03*
X176850000Y-94600000D03*
D47*
X177600000Y-95350000D03*
X178000000Y-95350000D03*
X178400000Y-95350000D03*
X178800000Y-95350000D03*
X179200000Y-95350000D03*
X179600000Y-95350000D03*
X180000000Y-95350000D03*
X180400000Y-95350000D03*
X180800000Y-95350000D03*
X181200000Y-95350000D03*
X181600000Y-95350000D03*
X182000000Y-95350000D03*
D48*
X182750000Y-94600000D03*
X182750000Y-94200000D03*
X182750000Y-93800000D03*
X182750000Y-93400000D03*
X182750000Y-93000000D03*
X182750000Y-92600000D03*
X182750000Y-92200000D03*
X182750000Y-91800000D03*
X182750000Y-91400000D03*
X182750000Y-91000000D03*
X182750000Y-90600000D03*
X182750000Y-90200000D03*
D49*
X179800000Y-92400000D03*
%TD*%
D14*
%TO.C,C5*%
X185450000Y-92600000D03*
X185450000Y-94150000D03*
%TD*%
D50*
%TO.C,U9*%
X155337500Y-117987500D03*
X158937500Y-117987500D03*
X155337500Y-116687500D03*
X158937500Y-116687500D03*
%TD*%
D20*
%TO.C,C84*%
X160425000Y-88100000D03*
X161975000Y-88100000D03*
%TD*%
D51*
%TO.C,L4*%
X188712500Y-92600000D03*
X187137500Y-92600000D03*
%TD*%
D23*
%TO.C,J9*%
X107695000Y-102460000D03*
X107695000Y-103260000D03*
D24*
X107695000Y-104460000D03*
X107695000Y-105460000D03*
X107695000Y-105960000D03*
X107695000Y-106960000D03*
D23*
X107695000Y-108160000D03*
X107695000Y-108960000D03*
X107695000Y-108960000D03*
X107695000Y-108160000D03*
D24*
X107695000Y-107460000D03*
X107695000Y-106460000D03*
X107695000Y-104960000D03*
X107695000Y-103960000D03*
D23*
X107695000Y-103260000D03*
X107695000Y-102460000D03*
%TD*%
D18*
%TO.C,RN6*%
X160600000Y-99800000D03*
D19*
X160600000Y-99300000D03*
X160600000Y-98800000D03*
D18*
X160600000Y-98300000D03*
X159600000Y-98300000D03*
D19*
X159600000Y-98800000D03*
X159600000Y-99300000D03*
D18*
X159600000Y-99800000D03*
%TD*%
D14*
%TO.C,C32*%
X187800000Y-101450000D03*
X187800000Y-103000000D03*
%TD*%
D52*
%TO.C,FPC3*%
X158350000Y-53900000D03*
X158350000Y-53400000D03*
X158350000Y-52900000D03*
X158350000Y-52400000D03*
X158350000Y-51900000D03*
X158350000Y-51400000D03*
X158350000Y-50900000D03*
X158350000Y-50400000D03*
X158350000Y-49900000D03*
X158350000Y-49400000D03*
X158350000Y-48900000D03*
X158350000Y-48400000D03*
X158350000Y-47900000D03*
X158350000Y-47400000D03*
X158350000Y-46900000D03*
X158350000Y-46400000D03*
X158350000Y-45900000D03*
X158350000Y-45400000D03*
X158350000Y-44900000D03*
X158350000Y-44400000D03*
X158350000Y-43900000D03*
X158350000Y-43400000D03*
X158350000Y-42900000D03*
X158350000Y-42400000D03*
X158350000Y-41900000D03*
X158350000Y-41400000D03*
X158350000Y-40900000D03*
X158350000Y-40400000D03*
X158350000Y-39900000D03*
X158350000Y-39400000D03*
D53*
X161050000Y-55125000D03*
X161050000Y-38175000D03*
%TD*%
D54*
%TO.C,C33*%
X191700000Y-101475000D03*
X191700000Y-104425000D03*
%TD*%
D55*
%TO.C,D2*%
X115100000Y-90700000D03*
X111100000Y-90700000D03*
%TD*%
D17*
%TO.C,C85*%
X163700000Y-93575000D03*
X163700000Y-92025000D03*
%TD*%
D20*
%TO.C,C75*%
X156175000Y-90650000D03*
X157725000Y-90650000D03*
%TD*%
D56*
%TO.C,C76*%
X157300000Y-88775000D03*
X157300000Y-85825000D03*
%TD*%
D40*
%TO.C,R27*%
X194250000Y-103075000D03*
X194250000Y-104725000D03*
%TD*%
D57*
%TO.C,IC3*%
X141204300Y-75955000D03*
X141204300Y-74685000D03*
X141204300Y-73415000D03*
X141204300Y-72145000D03*
X135895700Y-72145000D03*
X135895700Y-73415000D03*
X135895700Y-74685000D03*
X135895700Y-75955000D03*
%TD*%
D58*
%TO.C,Y2*%
X159750000Y-90300000D03*
X159750000Y-93600000D03*
X161750000Y-93600000D03*
X161750000Y-90300000D03*
%TD*%
D21*
%TO.C,U2*%
X113725000Y-106650000D03*
X113725000Y-105700000D03*
X113725000Y-104750000D03*
X111450000Y-104750000D03*
X111450000Y-105700000D03*
X111450000Y-106650000D03*
%TD*%
D40*
%TO.C,R42*%
X196100000Y-103075000D03*
X196100000Y-104725000D03*
%TD*%
D59*
%TO.C,IC2*%
X143650000Y-73540000D03*
X143650000Y-74810000D03*
X143650000Y-76080000D03*
X143650000Y-77350000D03*
X143650000Y-78620000D03*
X143650000Y-79890000D03*
X143650000Y-81160000D03*
X149050000Y-81160000D03*
X149050000Y-79890000D03*
X149050000Y-78620000D03*
X149050000Y-77350000D03*
X149050000Y-76080000D03*
X149050000Y-74810000D03*
X149050000Y-73540000D03*
%TD*%
D17*
%TO.C,C94*%
X178450000Y-86450000D03*
X178450000Y-84900000D03*
%TD*%
D38*
%TO.C,RN4*%
X146500000Y-108275000D03*
D39*
X147000000Y-108275000D03*
X147500000Y-108275000D03*
D38*
X148000000Y-108275000D03*
X148000000Y-107275000D03*
D39*
X147500000Y-107275000D03*
X147000000Y-107275000D03*
D38*
X146500000Y-107275000D03*
%TD*%
D22*
%TO.C,R21*%
X143300000Y-105225000D03*
X143300000Y-103575000D03*
%TD*%
D60*
%TO.C,SP1*%
X131550000Y-114300000D03*
X123041000Y-114300000D03*
%TD*%
D61*
%TO.C,FPC1*%
X165049999Y-114898200D03*
X165550001Y-114898200D03*
X166050000Y-114898200D03*
X166549999Y-114898200D03*
X167050000Y-114898200D03*
X167550000Y-114898200D03*
X168050001Y-114898200D03*
X168550000Y-114898200D03*
X169049999Y-114898200D03*
X169550001Y-114898200D03*
D62*
X171249700Y-117590600D03*
X163350300Y-117590600D03*
%TD*%
D17*
%TO.C,C89*%
X176650000Y-86425000D03*
X176650000Y-84875000D03*
%TD*%
D63*
%TO.C,R26*%
X105800000Y-92775000D03*
X105800000Y-90950000D03*
%TD*%
D43*
%TO.C,Y3*%
X180400000Y-83450000D03*
X182600000Y-83450000D03*
X182600000Y-81850000D03*
X180400000Y-81850000D03*
%TD*%
D20*
%TO.C,C37*%
X185475000Y-88800000D03*
X187025000Y-88800000D03*
%TD*%
D17*
%TO.C,C39*%
X135650000Y-81400000D03*
X135650000Y-79850000D03*
%TD*%
M02*
