G04 #@! TF.GenerationSoftware,KiCad,Pcbnew,8.0.6*
G04 #@! TF.CreationDate,2026-05-06T15:54:06-07:00*
G04 #@! TF.ProjectId,ESP32P4C5_Board,45535033-3250-4344-9335-5f426f617264,rev?*
G04 #@! TF.SameCoordinates,Original*
G04 #@! TF.FileFunction,Soldermask,Bot*
G04 #@! TF.FilePolarity,Negative*
%FSLAX46Y46*%
G04 Gerber Fmt 4.6, Leading zero omitted, Abs format (unit mm)*
G04 Created by KiCad (PCBNEW 8.0.6) date 2026-05-06 15:54:06*
%MOMM*%
%LPD*%
G01*
G04 APERTURE LIST*
G04 Aperture macros list*
%AMRoundRect*
0 Rectangle with rounded corners*
0 $1 Rounding radius*
0 $2 $3 $4 $5 $6 $7 $8 $9 X,Y pos of 4 corners*
0 Add a 4 corners polygon primitive as box body*
4,1,4,$2,$3,$4,$5,$6,$7,$8,$9,$2,$3,0*
0 Add four circle primitives for the rounded corners*
1,1,$1+$1,$2,$3*
1,1,$1+$1,$4,$5*
1,1,$1+$1,$6,$7*
1,1,$1+$1,$8,$9*
0 Add four rect primitives between the rounded corners*
20,1,$1+$1,$2,$3,$4,$5,0*
20,1,$1+$1,$4,$5,$6,$7,0*
20,1,$1+$1,$6,$7,$8,$9,0*
20,1,$1+$1,$8,$9,$2,$3,0*%
G04 Aperture macros list end*
%ADD10RoundRect,0.250000X0.475000X-0.250000X0.475000X0.250000X-0.475000X0.250000X-0.475000X-0.250000X0*%
%ADD11RoundRect,0.250000X-0.475000X0.250000X-0.475000X-0.250000X0.475000X-0.250000X0.475000X0.250000X0*%
%ADD12RoundRect,0.250000X-0.250000X-0.475000X0.250000X-0.475000X0.250000X0.475000X-0.250000X0.475000X0*%
%ADD13RoundRect,0.250000X0.650000X-0.325000X0.650000X0.325000X-0.650000X0.325000X-0.650000X-0.325000X0*%
%ADD14RoundRect,0.250000X-0.325000X-0.650000X0.325000X-0.650000X0.325000X0.650000X-0.325000X0.650000X0*%
%ADD15RoundRect,0.250000X0.250000X0.475000X-0.250000X0.475000X-0.250000X-0.475000X0.250000X-0.475000X0*%
%ADD16C,6.400000*%
%ADD17C,0.650000*%
%ADD18O,2.100000X1.000000*%
%ADD19O,1.600000X1.000000*%
%ADD20RoundRect,0.225000X0.250000X-0.225000X0.250000X0.225000X-0.250000X0.225000X-0.250000X-0.225000X0*%
%ADD21R,1.700000X1.700000*%
%ADD22O,1.700000X1.700000*%
%ADD23R,1.650000X1.650000*%
%ADD24C,1.650000*%
%ADD25RoundRect,0.225000X-0.250000X0.225000X-0.250000X-0.225000X0.250000X-0.225000X0.250000X0.225000X0*%
%ADD26RoundRect,0.225000X-0.225000X-0.250000X0.225000X-0.250000X0.225000X0.250000X-0.225000X0.250000X0*%
%ADD27RoundRect,0.225000X0.225000X0.250000X-0.225000X0.250000X-0.225000X-0.250000X0.225000X-0.250000X0*%
%ADD28RoundRect,0.250000X-0.262500X-0.450000X0.262500X-0.450000X0.262500X0.450000X-0.262500X0.450000X0*%
%ADD29RoundRect,0.200000X-0.200000X-0.275000X0.200000X-0.275000X0.200000X0.275000X-0.200000X0.275000X0*%
G04 APERTURE END LIST*
D10*
X146850000Y-96500000D03*
X146850000Y-94600000D03*
D11*
X138800000Y-100125000D03*
X138800000Y-102025000D03*
D12*
X146650000Y-92850000D03*
X148550000Y-92850000D03*
D13*
X153550000Y-88175000D03*
X153550000Y-85225000D03*
D14*
X145625000Y-84500000D03*
X148575000Y-84500000D03*
X157375000Y-97550000D03*
X160325000Y-97550000D03*
X155575000Y-92650000D03*
X158525000Y-92650000D03*
D15*
X143650000Y-97650000D03*
X141750000Y-97650000D03*
D14*
X181725000Y-83050000D03*
X184675000Y-83050000D03*
D15*
X175500000Y-95700000D03*
X173600000Y-95700000D03*
D16*
X104000000Y-74000000D03*
D17*
X106250000Y-81430000D03*
X106250000Y-87210000D03*
D18*
X106780000Y-80000000D03*
D19*
X102600000Y-80000000D03*
D18*
X106780000Y-88640000D03*
D19*
X102600000Y-88640000D03*
D20*
X179850000Y-86275000D03*
X179850000Y-84725000D03*
D21*
X226350000Y-37925000D03*
D22*
X228890000Y-37925000D03*
X226350000Y-40465000D03*
X228890000Y-40465000D03*
X226350000Y-43005000D03*
X228890000Y-43005000D03*
X226350000Y-45545000D03*
X228890000Y-45545000D03*
X226350000Y-48085000D03*
X228890000Y-48085000D03*
D21*
X233175000Y-91435000D03*
D22*
X235715000Y-91435000D03*
X233175000Y-93975000D03*
X235715000Y-93975000D03*
X233175000Y-96515000D03*
X235715000Y-96515000D03*
D23*
X120000000Y-77825000D03*
D24*
X117500000Y-77825000D03*
X115000000Y-77825000D03*
D21*
X174640000Y-77040000D03*
D22*
X174640000Y-74500000D03*
X177180000Y-77040000D03*
X177180000Y-74500000D03*
X179720000Y-77040000D03*
X179720000Y-74500000D03*
X182260000Y-77040000D03*
X182260000Y-74500000D03*
X184800000Y-77040000D03*
X184800000Y-74500000D03*
X187340000Y-77040000D03*
X187340000Y-74500000D03*
X189880000Y-77040000D03*
X189880000Y-74500000D03*
D21*
X116562500Y-48925000D03*
D22*
X116562500Y-51465000D03*
X116562500Y-54005000D03*
D16*
X196000000Y-74000000D03*
D21*
X233175000Y-105585000D03*
D22*
X235715000Y-105585000D03*
X233175000Y-108125000D03*
X235715000Y-108125000D03*
X233175000Y-110665000D03*
X235715000Y-110665000D03*
D16*
X196000000Y-116000000D03*
D19*
X102600000Y-110030000D03*
D18*
X106780000Y-110030000D03*
D19*
X102600000Y-101390000D03*
D18*
X106780000Y-101390000D03*
D17*
X106250000Y-108600000D03*
X106250000Y-102820000D03*
D21*
X120450000Y-112500000D03*
D22*
X120450000Y-115040000D03*
X117910000Y-112500000D03*
X117910000Y-115040000D03*
X115370000Y-112500000D03*
X115370000Y-115040000D03*
D16*
X104000000Y-116000000D03*
D21*
X152125000Y-77100000D03*
D22*
X152125000Y-74560000D03*
X154665000Y-77100000D03*
X154665000Y-74560000D03*
X157205000Y-77100000D03*
X157205000Y-74560000D03*
X159745000Y-77100000D03*
X159745000Y-74560000D03*
X162285000Y-77100000D03*
X162285000Y-74560000D03*
X164825000Y-77100000D03*
X164825000Y-74560000D03*
X167365000Y-77100000D03*
X167365000Y-74560000D03*
D25*
X142500000Y-100225000D03*
X142500000Y-101775000D03*
D26*
X181625000Y-85250000D03*
X183175000Y-85250000D03*
D27*
X152825000Y-91750000D03*
X151275000Y-91750000D03*
D20*
X148600000Y-96325000D03*
X148600000Y-94775000D03*
X152800000Y-97075000D03*
X152800000Y-95525000D03*
X155500000Y-98025000D03*
X155500000Y-96475000D03*
D26*
X155500000Y-99750000D03*
X157050000Y-99750000D03*
D20*
X148750000Y-88325000D03*
X148750000Y-86775000D03*
D27*
X157075000Y-101600000D03*
X155525000Y-101600000D03*
D26*
X181625000Y-87050000D03*
X183175000Y-87050000D03*
D20*
X151450000Y-88325000D03*
X151450000Y-86775000D03*
D27*
X149325000Y-100350000D03*
X147775000Y-100350000D03*
X143575000Y-95700000D03*
X142025000Y-95700000D03*
D28*
X159037500Y-103000000D03*
X160862500Y-103000000D03*
D25*
X140800000Y-100225000D03*
X140800000Y-101775000D03*
D26*
X155275000Y-89900000D03*
X156825000Y-89900000D03*
D25*
X151900000Y-101175000D03*
X151900000Y-102725000D03*
D20*
X151050000Y-97075000D03*
X151050000Y-95525000D03*
D26*
X145500000Y-86650000D03*
X147050000Y-86650000D03*
D28*
X158975000Y-105200000D03*
X160800000Y-105200000D03*
D26*
X155475000Y-94800000D03*
X157025000Y-94800000D03*
D27*
X152825000Y-93800000D03*
X151275000Y-93800000D03*
D29*
X140475000Y-86750000D03*
X142125000Y-86750000D03*
D27*
X143575000Y-93950000D03*
X142025000Y-93950000D03*
X142075000Y-88500000D03*
X140525000Y-88500000D03*
D26*
X146825000Y-91100000D03*
X148375000Y-91100000D03*
M02*
