G04 #@! TF.GenerationSoftware,KiCad,Pcbnew,8.0.6*
G04 #@! TF.CreationDate,2026-05-12T15:56:38-07:00*
G04 #@! TF.ProjectId,ESP32P4C5_Board,45535033-3250-4344-9335-5f426f617264,rev?*
G04 #@! TF.SameCoordinates,Original*
G04 #@! TF.FileFunction,Paste,Top*
G04 #@! TF.FilePolarity,Positive*
%FSLAX46Y46*%
G04 Gerber Fmt 4.6, Leading zero omitted, Abs format (unit mm)*
G04 Created by KiCad (PCBNEW 8.0.6) date 2026-05-12 15:56:38*
%MOMM*%
%LPD*%
G01*
G04 APERTURE LIST*
G04 Aperture macros list*
%AMRoundRect*
0 Rectangle with rounded corners*
0 $1 Rounding radius*
0 $2 $3 $4 $5 $6 $7 $8 $9 X,Y pos of 4 corners*
0 Add a 4 corners polygon primitive as box body*
4,1,4,$2,$3,$4,$5,$6,$7,$8,$9,$2,$3,0*
0 Add four circle primitives for the rounded corners*
1,1,$1+$1,$2,$3*
1,1,$1+$1,$4,$5*
1,1,$1+$1,$6,$7*
1,1,$1+$1,$8,$9*
0 Add four rect primitives between the rounded corners*
20,1,$1+$1,$2,$3,$4,$5,0*
20,1,$1+$1,$4,$5,$6,$7,0*
20,1,$1+$1,$6,$7,$8,$9,0*
20,1,$1+$1,$8,$9,$2,$3,0*%
G04 Aperture macros list end*
%ADD10C,0.010000*%
%ADD11RoundRect,0.225000X-0.250000X0.225000X-0.250000X-0.225000X0.250000X-0.225000X0.250000X0.225000X0*%
%ADD12RoundRect,0.150000X-0.825000X-0.150000X0.825000X-0.150000X0.825000X0.150000X-0.825000X0.150000X0*%
%ADD13O,0.180000X0.650000*%
%ADD14O,0.650000X0.180000*%
%ADD15RoundRect,0.225000X0.250000X-0.225000X0.250000X0.225000X-0.250000X0.225000X-0.250000X-0.225000X0*%
%ADD16R,0.500000X0.400000*%
%ADD17R,0.500000X0.300000*%
%ADD18RoundRect,0.225000X-0.225000X-0.250000X0.225000X-0.250000X0.225000X0.250000X-0.225000X0.250000X0*%
%ADD19RoundRect,0.150000X0.512500X0.150000X-0.512500X0.150000X-0.512500X-0.150000X0.512500X-0.150000X0*%
%ADD20RoundRect,0.200000X0.275000X-0.200000X0.275000X0.200000X-0.275000X0.200000X-0.275000X-0.200000X0*%
%ADD21R,1.450000X0.600000*%
%ADD22R,1.450000X0.300000*%
%ADD23RoundRect,0.250000X-0.475000X0.337500X-0.475000X-0.337500X0.475000X-0.337500X0.475000X0.337500X0*%
%ADD24RoundRect,0.150000X-0.650000X-0.150000X0.650000X-0.150000X0.650000X0.150000X-0.650000X0.150000X0*%
%ADD25RoundRect,0.200000X-0.200000X-0.275000X0.200000X-0.275000X0.200000X0.275000X-0.200000X0.275000X0*%
%ADD26RoundRect,0.250000X-0.262500X-0.450000X0.262500X-0.450000X0.262500X0.450000X-0.262500X0.450000X0*%
%ADD27RoundRect,0.225000X-0.475000X-0.225000X0.475000X-0.225000X0.475000X0.225000X-0.475000X0.225000X0*%
%ADD28R,0.736600X0.609600*%
%ADD29RoundRect,0.150000X0.150000X-0.512500X0.150000X0.512500X-0.150000X0.512500X-0.150000X-0.512500X0*%
%ADD30RoundRect,0.250000X-0.250000X-0.475000X0.250000X-0.475000X0.250000X0.475000X-0.250000X0.475000X0*%
%ADD31RoundRect,0.250000X-0.450000X0.262500X-0.450000X-0.262500X0.450000X-0.262500X0.450000X0.262500X0*%
%ADD32RoundRect,0.225000X-0.225000X0.475000X-0.225000X-0.475000X0.225000X-0.475000X0.225000X0.475000X0*%
%ADD33RoundRect,0.250000X0.450000X-0.262500X0.450000X0.262500X-0.450000X0.262500X-0.450000X-0.262500X0*%
%ADD34R,0.600000X2.500000*%
%ADD35R,3.600000X3.400000*%
%ADD36R,0.300000X0.800000*%
%ADD37R,0.950000X1.000000*%
%ADD38R,0.400000X0.500000*%
%ADD39R,0.300000X0.500000*%
%ADD40RoundRect,0.200000X-0.275000X0.200000X-0.275000X-0.200000X0.275000X-0.200000X0.275000X0.200000X0*%
%ADD41RoundRect,0.250000X-0.615000X0.435000X-0.615000X-0.435000X0.615000X-0.435000X0.615000X0.435000X0*%
%ADD42RoundRect,0.125000X-0.125000X0.250000X-0.125000X-0.250000X0.125000X-0.250000X0.125000X0.250000X0*%
%ADD43R,0.889000X0.330200*%
%ADD44R,4.300000X1.450000*%
%ADD45R,4.300000X0.900000*%
%ADD46RoundRect,0.150000X-0.587500X-0.150000X0.587500X-0.150000X0.587500X0.150000X-0.587500X0.150000X0*%
%ADD47R,0.304800X1.000000*%
%ADD48R,0.965200X1.016000*%
%ADD49RoundRect,0.150000X-0.512500X-0.150000X0.512500X-0.150000X0.512500X0.150000X-0.512500X0.150000X0*%
%ADD50RoundRect,0.218750X0.256250X-0.218750X0.256250X0.218750X-0.256250X0.218750X-0.256250X-0.218750X0*%
%ADD51RoundRect,0.250000X-0.650000X1.000000X-0.650000X-1.000000X0.650000X-1.000000X0.650000X1.000000X0*%
%ADD52R,0.200000X0.800000*%
%ADD53R,0.800000X0.200000*%
%ADD54R,4.750000X4.750000*%
%ADD55RoundRect,0.218750X0.218750X0.256250X-0.218750X0.256250X-0.218750X-0.256250X0.218750X-0.256250X0*%
%ADD56R,0.800000X0.300000*%
%ADD57R,1.000000X0.950000*%
%ADD58RoundRect,0.250000X-0.650000X0.325000X-0.650000X-0.325000X0.650000X-0.325000X0.650000X0.325000X0*%
%ADD59RoundRect,0.250000X0.650000X-0.325000X0.650000X0.325000X-0.650000X0.325000X-0.650000X-0.325000X0*%
%ADD60R,1.300000X1.600000*%
%ADD61R,1.295400X3.149600*%
%ADD62R,1.400000X1.200000*%
G04 APERTURE END LIST*
D10*
X148115000Y-92365000D02*
X146535000Y-92365000D01*
X146535000Y-90785000D01*
X148115000Y-90785000D01*
X148115000Y-92365000D01*
G36*
X148115000Y-92365000D02*
G01*
X146535000Y-92365000D01*
X146535000Y-90785000D01*
X148115000Y-90785000D01*
X148115000Y-92365000D01*
G37*
X148115000Y-94865000D02*
X146535000Y-94865000D01*
X146535000Y-93285000D01*
X148115000Y-93285000D01*
X148115000Y-94865000D01*
G36*
X148115000Y-94865000D02*
G01*
X146535000Y-94865000D01*
X146535000Y-93285000D01*
X148115000Y-93285000D01*
X148115000Y-94865000D01*
G37*
X148115000Y-97365000D02*
X146535000Y-97365000D01*
X146535000Y-95785000D01*
X148115000Y-95785000D01*
X148115000Y-97365000D01*
G36*
X148115000Y-97365000D02*
G01*
X146535000Y-97365000D01*
X146535000Y-95785000D01*
X148115000Y-95785000D01*
X148115000Y-97365000D01*
G37*
X150615000Y-92365000D02*
X149035000Y-92365000D01*
X149035000Y-90785000D01*
X150615000Y-90785000D01*
X150615000Y-92365000D01*
G36*
X150615000Y-92365000D02*
G01*
X149035000Y-92365000D01*
X149035000Y-90785000D01*
X150615000Y-90785000D01*
X150615000Y-92365000D01*
G37*
X150615000Y-94865000D02*
X149035000Y-94865000D01*
X149035000Y-93285000D01*
X150615000Y-93285000D01*
X150615000Y-94865000D01*
G36*
X150615000Y-94865000D02*
G01*
X149035000Y-94865000D01*
X149035000Y-93285000D01*
X150615000Y-93285000D01*
X150615000Y-94865000D01*
G37*
X150615000Y-97365000D02*
X149035000Y-97365000D01*
X149035000Y-95785000D01*
X150615000Y-95785000D01*
X150615000Y-97365000D01*
G36*
X150615000Y-97365000D02*
G01*
X149035000Y-97365000D01*
X149035000Y-95785000D01*
X150615000Y-95785000D01*
X150615000Y-97365000D01*
G37*
X153115000Y-92365000D02*
X151535000Y-92365000D01*
X151535000Y-90785000D01*
X153115000Y-90785000D01*
X153115000Y-92365000D01*
G36*
X153115000Y-92365000D02*
G01*
X151535000Y-92365000D01*
X151535000Y-90785000D01*
X153115000Y-90785000D01*
X153115000Y-92365000D01*
G37*
X153115000Y-97365000D02*
X151535000Y-97365000D01*
X151535000Y-95785000D01*
X153115000Y-95785000D01*
X153115000Y-97365000D01*
G36*
X153115000Y-97365000D02*
G01*
X151535000Y-97365000D01*
X151535000Y-95785000D01*
X153115000Y-95785000D01*
X153115000Y-97365000D01*
G37*
X153155000Y-94865000D02*
X151575000Y-94865000D01*
X151575000Y-93285000D01*
X153155000Y-93285000D01*
X153155000Y-94865000D01*
G36*
X153155000Y-94865000D02*
G01*
X151575000Y-94865000D01*
X151575000Y-93285000D01*
X153155000Y-93285000D01*
X153155000Y-94865000D01*
G37*
D11*
X189550000Y-101450000D03*
X189550000Y-103000000D03*
D12*
X215700000Y-114490000D03*
X215700000Y-115760000D03*
X215700000Y-117030000D03*
X215700000Y-118300000D03*
X220650000Y-118300000D03*
X220650000Y-117030000D03*
X220650000Y-115760000D03*
X220650000Y-114490000D03*
D13*
X154200000Y-89150000D03*
X153850000Y-89150000D03*
X153500000Y-89150000D03*
X153150000Y-89150000D03*
X152800000Y-89150000D03*
X152450000Y-89150000D03*
X152100000Y-89150000D03*
X151750000Y-89150000D03*
X151400000Y-89150000D03*
X151050000Y-89150000D03*
X150700000Y-89150000D03*
X150350000Y-89150000D03*
X150000000Y-89150000D03*
X149650000Y-89150000D03*
X149300000Y-89150000D03*
X148950000Y-89150000D03*
X148600000Y-89150000D03*
X148250000Y-89150000D03*
X147900000Y-89150000D03*
X147550000Y-89150000D03*
X147200000Y-89150000D03*
X146850000Y-89150000D03*
X146500000Y-89150000D03*
X146150000Y-89150000D03*
X145800000Y-89150000D03*
X145450000Y-89150000D03*
D14*
X144900000Y-89700000D03*
X144900000Y-90050000D03*
X144900000Y-90400000D03*
X144900000Y-90750000D03*
X144900000Y-91100000D03*
X144900000Y-91450000D03*
X144900000Y-91800000D03*
X144900000Y-92150000D03*
X144900000Y-92500000D03*
X144900000Y-92850000D03*
X144900000Y-93200000D03*
X144900000Y-93550000D03*
X144900000Y-93900000D03*
X144900000Y-94250000D03*
X144900000Y-94600000D03*
X144900000Y-94950000D03*
X144900000Y-95300000D03*
X144900000Y-95650000D03*
X144900000Y-96000000D03*
X144900000Y-96350000D03*
X144900000Y-96700000D03*
X144900000Y-97050000D03*
X144900000Y-97400000D03*
X144900000Y-97750000D03*
X144900000Y-98100000D03*
X144900000Y-98450000D03*
D13*
X145450000Y-99000000D03*
X145800000Y-99000000D03*
X146150000Y-99000000D03*
X146500000Y-99000000D03*
X146850000Y-99000000D03*
X147200000Y-99000000D03*
X147550000Y-99000000D03*
X147900000Y-99000000D03*
X148250000Y-99000000D03*
X148600000Y-99000000D03*
X148950000Y-99000000D03*
X149300000Y-99000000D03*
X149650000Y-99000000D03*
X150000000Y-99000000D03*
X150350000Y-99000000D03*
X150700000Y-99000000D03*
X151050000Y-99000000D03*
X151400000Y-99000000D03*
X151750000Y-99000000D03*
X152100000Y-99000000D03*
X152450000Y-99000000D03*
X152800000Y-99000000D03*
X153150000Y-99000000D03*
X153500000Y-99000000D03*
X153850000Y-99000000D03*
X154200000Y-99000000D03*
D14*
X154750000Y-98450000D03*
X154750000Y-98100000D03*
X154750000Y-97750000D03*
X154750000Y-97400000D03*
X154750000Y-97050000D03*
X154750000Y-96700000D03*
X154750000Y-96350000D03*
X154750000Y-96000000D03*
X154750000Y-95650000D03*
X154750000Y-95300000D03*
X154750000Y-94950000D03*
X154750000Y-94600000D03*
X154750000Y-94250000D03*
X154750000Y-93900000D03*
X154750000Y-93550000D03*
X154750000Y-93200000D03*
X154750000Y-92850000D03*
X154750000Y-92500000D03*
X154750000Y-92150000D03*
X154750000Y-91800000D03*
X154750000Y-91450000D03*
X154750000Y-91100000D03*
X154750000Y-90750000D03*
X154750000Y-90400000D03*
X154750000Y-90050000D03*
X154750000Y-89700000D03*
D15*
X185500000Y-87115000D03*
X185500000Y-85565000D03*
D16*
X161000000Y-97250000D03*
D17*
X161000000Y-97750000D03*
X161000000Y-98250000D03*
D16*
X161000000Y-98750000D03*
X162000000Y-98750000D03*
D17*
X162000000Y-98250000D03*
X162000000Y-97750000D03*
D16*
X162000000Y-97250000D03*
D11*
X185650000Y-97575000D03*
X185650000Y-99125000D03*
D18*
X191975000Y-110600000D03*
X193525000Y-110600000D03*
D19*
X114737500Y-85262500D03*
X114737500Y-84312500D03*
X114737500Y-83362500D03*
X112462500Y-83362500D03*
X112462500Y-84312500D03*
X112462500Y-85262500D03*
D20*
X144950000Y-109775000D03*
X144950000Y-108125000D03*
D21*
X107695000Y-81070000D03*
X107695000Y-81870000D03*
D22*
X107695000Y-83070000D03*
X107695000Y-84070000D03*
X107695000Y-84570000D03*
X107695000Y-85570000D03*
D21*
X107695000Y-86770000D03*
X107695000Y-87570000D03*
X107695000Y-87570000D03*
X107695000Y-86770000D03*
D22*
X107695000Y-86070000D03*
X107695000Y-85070000D03*
X107695000Y-83570000D03*
X107695000Y-82570000D03*
D21*
X107695000Y-81870000D03*
X107695000Y-81070000D03*
D18*
X185450000Y-90900000D03*
X187000000Y-90900000D03*
D23*
X187800000Y-97562500D03*
X187800000Y-99637500D03*
D24*
X170800000Y-98417598D03*
X170800000Y-99687598D03*
X170800000Y-100957598D03*
X170800000Y-102227598D03*
X178000000Y-102227598D03*
X178000000Y-100957598D03*
X178000000Y-99687598D03*
X178000000Y-98417598D03*
D25*
X157275000Y-92800000D03*
X158925000Y-92800000D03*
D26*
X154482500Y-49350000D03*
X156307500Y-49350000D03*
D27*
X200660000Y-135250000D03*
X197060000Y-135250000D03*
X200660000Y-136550000D03*
X197060000Y-136550000D03*
D28*
X172589900Y-95100000D03*
X172589900Y-93830000D03*
X172589900Y-92560000D03*
X172589900Y-91290000D03*
X172589900Y-90020000D03*
X169110100Y-90020000D03*
X169110100Y-91290000D03*
X169110100Y-92560000D03*
X169110100Y-93830000D03*
X169110100Y-95100000D03*
D29*
X132100000Y-88350000D03*
X133050000Y-88350000D03*
X134000000Y-88350000D03*
X134000000Y-86075000D03*
X132100000Y-86075000D03*
D26*
X215242500Y-108615000D03*
X217067500Y-108615000D03*
D30*
X158875000Y-54500000D03*
X160775000Y-54500000D03*
D26*
X111487500Y-108400000D03*
X113312500Y-108400000D03*
D20*
X168600000Y-102497598D03*
X168600000Y-100847598D03*
D31*
X174262500Y-78287500D03*
X174262500Y-80112500D03*
D11*
X190500000Y-88625000D03*
X190500000Y-87075000D03*
D32*
X197300000Y-110650000D03*
X197300000Y-107050000D03*
X196000000Y-110650000D03*
X196000000Y-107050000D03*
D27*
X222245000Y-61240000D03*
X218645000Y-61240000D03*
X222245000Y-62540000D03*
X218645000Y-62540000D03*
D15*
X155550000Y-87675000D03*
X155550000Y-86125000D03*
D26*
X132087500Y-83612500D03*
X133912500Y-83612500D03*
X154482500Y-52300000D03*
X156307500Y-52300000D03*
D15*
X178400000Y-83225000D03*
X178400000Y-81675000D03*
D31*
X114750000Y-87087500D03*
X114750000Y-88912500D03*
D18*
X184175000Y-100850000D03*
X185725000Y-100850000D03*
D15*
X146100000Y-124875000D03*
X146100000Y-123325000D03*
D26*
X203275000Y-65600000D03*
X205100000Y-65600000D03*
D33*
X109000000Y-77712500D03*
X109000000Y-75887500D03*
D26*
X215242500Y-111565000D03*
X217067500Y-111565000D03*
D34*
X125280000Y-107125000D03*
X126280000Y-107125000D03*
X127280000Y-107125000D03*
X128280000Y-107125000D03*
X129280000Y-107125000D03*
X130280000Y-107125000D03*
X131280000Y-107125000D03*
X132280000Y-107125000D03*
X133280000Y-107125000D03*
X134280000Y-107125000D03*
X135280000Y-107125000D03*
X136280000Y-107125000D03*
X137280000Y-107125000D03*
X138280000Y-107125000D03*
X139280000Y-107125000D03*
D35*
X142080000Y-109225000D03*
X122480000Y-109225000D03*
D36*
X175750000Y-114750000D03*
X176250000Y-114750000D03*
X176750000Y-114750000D03*
X177250000Y-114750000D03*
X177750000Y-114750000D03*
X178250000Y-114750000D03*
X178750000Y-114750000D03*
X179250000Y-114750000D03*
X179750000Y-114750000D03*
X180250000Y-114750000D03*
X180750000Y-114750000D03*
X181250000Y-114750000D03*
X181750000Y-114750000D03*
X182250000Y-114750000D03*
X182750000Y-114750000D03*
X183250000Y-114750000D03*
X183750000Y-114750000D03*
X184250000Y-114750000D03*
X184750000Y-114750000D03*
X185250000Y-114750000D03*
X185750000Y-114750000D03*
X186250000Y-114750000D03*
X186750000Y-114750000D03*
X187250000Y-114750000D03*
X187750000Y-114750000D03*
X188250000Y-114750000D03*
X188750000Y-114750000D03*
X189250000Y-114750000D03*
X189750000Y-114750000D03*
X190250000Y-114750000D03*
D37*
X174525000Y-117450000D03*
X191475000Y-117450000D03*
D38*
X146450000Y-105900000D03*
D39*
X146950000Y-105900000D03*
X147450000Y-105900000D03*
D38*
X147950000Y-105900000D03*
X147950000Y-104900000D03*
D39*
X147450000Y-104900000D03*
X146950000Y-104900000D03*
D38*
X146450000Y-104900000D03*
D40*
X134650000Y-75075000D03*
X134650000Y-76725000D03*
D25*
X157275000Y-91100000D03*
X158925000Y-91100000D03*
D41*
X141250000Y-86500000D03*
X139100000Y-86500000D03*
X141250000Y-88200000D03*
X139100000Y-88200000D03*
D42*
X142080000Y-84650000D03*
X140810000Y-84650000D03*
X139540000Y-84650000D03*
X138270000Y-84650000D03*
X138270000Y-90050000D03*
X139540000Y-90050000D03*
X140810000Y-90050000D03*
X142080000Y-90050000D03*
D38*
X152150000Y-84150000D03*
D39*
X151650000Y-84150000D03*
X151150000Y-84150000D03*
D38*
X150650000Y-84150000D03*
X150650000Y-85150000D03*
D39*
X151150000Y-85150000D03*
X151650000Y-85150000D03*
D38*
X152150000Y-85150000D03*
D15*
X190450000Y-91075000D03*
X190450000Y-92625000D03*
D16*
X162000000Y-101550000D03*
D17*
X162000000Y-101050000D03*
X162000000Y-100550000D03*
D16*
X162000000Y-100050000D03*
X161000000Y-100050000D03*
D17*
X161000000Y-100550000D03*
X161000000Y-101050000D03*
D16*
X161000000Y-101550000D03*
D43*
X194030001Y-90449999D03*
X194030001Y-89800000D03*
X194030001Y-89150001D03*
X192369999Y-89150001D03*
X192369999Y-89800000D03*
X192369999Y-90449999D03*
D18*
X201250000Y-139700000D03*
X202800000Y-139700000D03*
D44*
X197350000Y-86975000D03*
X197400800Y-92625000D03*
D45*
X197350000Y-89800000D03*
D18*
X225520000Y-63680000D03*
X227070000Y-63680000D03*
D15*
X188750000Y-90925000D03*
X188750000Y-89375000D03*
D46*
X215457500Y-121070000D03*
X215457500Y-122970000D03*
X217332500Y-122020000D03*
D18*
X155425000Y-101850000D03*
X156975000Y-101850000D03*
D25*
X138225000Y-98200000D03*
X139875000Y-98200000D03*
D33*
X113900000Y-102862500D03*
X113900000Y-101037500D03*
D47*
X140349999Y-114898200D03*
X140850001Y-114898200D03*
X141350000Y-114898200D03*
X141849999Y-114898200D03*
X142350000Y-114898200D03*
X142850000Y-114898200D03*
X143350001Y-114898200D03*
X143850000Y-114898200D03*
X144349999Y-114898200D03*
X144850001Y-114898200D03*
D48*
X146549700Y-117590600D03*
X138650300Y-117590600D03*
D49*
X169775000Y-78200000D03*
X169775000Y-79150000D03*
X169775000Y-80100000D03*
X172050000Y-80100000D03*
X172050000Y-78200000D03*
D11*
X184600000Y-81675000D03*
X184600000Y-83225000D03*
D50*
X180400000Y-86837500D03*
X180400000Y-85262500D03*
D51*
X110800000Y-98100000D03*
X110800000Y-102100000D03*
D20*
X135800000Y-90025000D03*
X135800000Y-88375000D03*
D52*
X182000000Y-89450000D03*
X181600000Y-89450000D03*
X181200000Y-89450000D03*
X180800000Y-89450000D03*
X180400000Y-89450000D03*
X180000000Y-89450000D03*
X179600000Y-89450000D03*
X179200000Y-89450000D03*
X178800000Y-89450000D03*
X178400000Y-89450000D03*
X178000000Y-89450000D03*
X177600000Y-89450000D03*
D53*
X176850000Y-90200000D03*
X176850000Y-90600000D03*
X176850000Y-91000000D03*
X176850000Y-91400000D03*
X176850000Y-91800000D03*
X176850000Y-92200000D03*
X176850000Y-92600000D03*
X176850000Y-93000000D03*
X176850000Y-93400000D03*
X176850000Y-93800000D03*
X176850000Y-94200000D03*
X176850000Y-94600000D03*
D52*
X177600000Y-95350000D03*
X178000000Y-95350000D03*
X178400000Y-95350000D03*
X178800000Y-95350000D03*
X179200000Y-95350000D03*
X179600000Y-95350000D03*
X180000000Y-95350000D03*
X180400000Y-95350000D03*
X180800000Y-95350000D03*
X181200000Y-95350000D03*
X181600000Y-95350000D03*
X182000000Y-95350000D03*
D53*
X182750000Y-94600000D03*
X182750000Y-94200000D03*
X182750000Y-93800000D03*
X182750000Y-93400000D03*
X182750000Y-93000000D03*
X182750000Y-92600000D03*
X182750000Y-92200000D03*
X182750000Y-91800000D03*
X182750000Y-91400000D03*
X182750000Y-91000000D03*
X182750000Y-90600000D03*
X182750000Y-90200000D03*
D54*
X179800000Y-92400000D03*
D11*
X185450000Y-92600000D03*
X185450000Y-94150000D03*
D27*
X144000000Y-122950000D03*
X140400000Y-122950000D03*
X144000000Y-124250000D03*
X140400000Y-124250000D03*
D18*
X161025000Y-86850000D03*
X162575000Y-86850000D03*
D55*
X188712500Y-92600000D03*
X187137500Y-92600000D03*
X188787500Y-87100000D03*
X187212500Y-87100000D03*
D21*
X107695000Y-102460000D03*
X107695000Y-103260000D03*
D22*
X107695000Y-104460000D03*
X107695000Y-105460000D03*
X107695000Y-105960000D03*
X107695000Y-106960000D03*
D21*
X107695000Y-108160000D03*
X107695000Y-108960000D03*
X107695000Y-108960000D03*
X107695000Y-108160000D03*
D22*
X107695000Y-107460000D03*
X107695000Y-106460000D03*
X107695000Y-104960000D03*
X107695000Y-103960000D03*
D21*
X107695000Y-103260000D03*
X107695000Y-102460000D03*
D27*
X222245000Y-66240000D03*
X218645000Y-66240000D03*
X222245000Y-67540000D03*
X218645000Y-67540000D03*
D11*
X187800000Y-101450000D03*
X187800000Y-103000000D03*
D56*
X122200000Y-102550000D03*
X122200000Y-102050000D03*
X122200000Y-101550000D03*
X122200000Y-101050000D03*
X122200000Y-100550000D03*
X122200000Y-100050000D03*
X122200000Y-99550000D03*
X122200000Y-99050000D03*
X122200000Y-98550000D03*
X122200000Y-98050000D03*
X122200000Y-97550000D03*
X122200000Y-97050000D03*
X122200000Y-96550000D03*
X122200000Y-96050000D03*
X122200000Y-95550000D03*
X122200000Y-95050000D03*
X122200000Y-94550000D03*
X122200000Y-94050000D03*
X122200000Y-93550000D03*
X122200000Y-93050000D03*
X122200000Y-92550000D03*
X122200000Y-92050000D03*
X122200000Y-91550000D03*
X122200000Y-91050000D03*
X122200000Y-90550000D03*
X122200000Y-90050000D03*
X122200000Y-89550000D03*
X122200000Y-89050000D03*
X122200000Y-88550000D03*
X122200000Y-88050000D03*
D57*
X124900000Y-103775000D03*
X124900000Y-86825000D03*
D58*
X191700000Y-101475000D03*
X191700000Y-104425000D03*
D51*
X111400000Y-88650000D03*
X111400000Y-92650000D03*
D15*
X164850000Y-92325000D03*
X164850000Y-90775000D03*
D18*
X157325000Y-89400000D03*
X158875000Y-89400000D03*
D47*
X152749999Y-114898200D03*
X153250001Y-114898200D03*
X153750000Y-114898200D03*
X154249999Y-114898200D03*
X154750000Y-114898200D03*
X155250000Y-114898200D03*
X155750001Y-114898200D03*
X156250000Y-114898200D03*
X156749999Y-114898200D03*
X157250001Y-114898200D03*
D48*
X158949700Y-117590600D03*
X151050300Y-117590600D03*
D26*
X203275000Y-68550000D03*
X205100000Y-68550000D03*
D59*
X158400000Y-87575000D03*
X158400000Y-84625000D03*
D18*
X225520000Y-66690000D03*
X227070000Y-66690000D03*
D40*
X194250000Y-103075000D03*
X194250000Y-104725000D03*
D60*
X160900000Y-89050000D03*
X160900000Y-92350000D03*
X162900000Y-92350000D03*
X162900000Y-89050000D03*
D19*
X113925000Y-106562500D03*
X113925000Y-105612500D03*
X113925000Y-104662500D03*
X111650000Y-104662500D03*
X111650000Y-105612500D03*
X111650000Y-106562500D03*
D40*
X196100000Y-103075000D03*
X196100000Y-104725000D03*
D15*
X178450000Y-86450000D03*
X178450000Y-84900000D03*
D38*
X149500000Y-105900000D03*
D39*
X150000000Y-105900000D03*
X150500000Y-105900000D03*
D38*
X151000000Y-105900000D03*
X151000000Y-104900000D03*
D39*
X150500000Y-104900000D03*
X150000000Y-104900000D03*
D38*
X149500000Y-104900000D03*
D20*
X146800000Y-109675000D03*
X146800000Y-108025000D03*
D61*
X132454500Y-75900000D03*
X123945500Y-75900000D03*
D47*
X165049999Y-114898200D03*
X165550001Y-114898200D03*
X166050000Y-114898200D03*
X166549999Y-114898200D03*
X167050000Y-114898200D03*
X167550000Y-114898200D03*
X168050001Y-114898200D03*
X168550000Y-114898200D03*
X169049999Y-114898200D03*
X169550001Y-114898200D03*
D48*
X171249700Y-117590600D03*
X163350300Y-117590600D03*
D15*
X176650000Y-86425000D03*
X176650000Y-84875000D03*
D26*
X196902500Y-139920000D03*
X198727500Y-139920000D03*
D27*
X162650000Y-49800000D03*
X159050000Y-49800000D03*
X162650000Y-51100000D03*
X159050000Y-51100000D03*
D62*
X180400000Y-83450000D03*
X182600000Y-83450000D03*
X182600000Y-81850000D03*
X180400000Y-81850000D03*
D18*
X185475000Y-88800000D03*
X187025000Y-88800000D03*
M02*
