G04 #@! TF.GenerationSoftware,KiCad,Pcbnew,8.0.6*
G04 #@! TF.CreationDate,2026-05-25T09:03:44-07:00*
G04 #@! TF.ProjectId,ESP32P4C5_Board,45535033-3250-4344-9335-5f426f617264,rev?*
G04 #@! TF.SameCoordinates,Original*
G04 #@! TF.FileFunction,Paste,Top*
G04 #@! TF.FilePolarity,Positive*
%FSLAX46Y46*%
G04 Gerber Fmt 4.6, Leading zero omitted, Abs format (unit mm)*
G04 Created by KiCad (PCBNEW 8.0.6) date 2026-05-25 09:03:44*
%MOMM*%
%LPD*%
G01*
G04 APERTURE LIST*
G04 Aperture macros list*
%AMRoundRect*
0 Rectangle with rounded corners*
0 $1 Rounding radius*
0 $2 $3 $4 $5 $6 $7 $8 $9 X,Y pos of 4 corners*
0 Add a 4 corners polygon primitive as box body*
4,1,4,$2,$3,$4,$5,$6,$7,$8,$9,$2,$3,0*
0 Add four circle primitives for the rounded corners*
1,1,$1+$1,$2,$3*
1,1,$1+$1,$4,$5*
1,1,$1+$1,$6,$7*
1,1,$1+$1,$8,$9*
0 Add four rect primitives between the rounded corners*
20,1,$1+$1,$2,$3,$4,$5,0*
20,1,$1+$1,$4,$5,$6,$7,0*
20,1,$1+$1,$6,$7,$8,$9,0*
20,1,$1+$1,$8,$9,$2,$3,0*%
G04 Aperture macros list end*
%ADD10C,0.010000*%
%ADD11RoundRect,0.225000X-0.250000X0.225000X-0.250000X-0.225000X0.250000X-0.225000X0.250000X0.225000X0*%
%ADD12O,0.180000X0.650000*%
%ADD13O,0.650000X0.180000*%
%ADD14RoundRect,0.225000X0.250000X-0.225000X0.250000X0.225000X-0.250000X0.225000X-0.250000X-0.225000X0*%
%ADD15R,0.500000X0.400000*%
%ADD16R,0.500000X0.300000*%
%ADD17RoundRect,0.225000X-0.225000X-0.250000X0.225000X-0.250000X0.225000X0.250000X-0.225000X0.250000X0*%
%ADD18RoundRect,0.150000X0.512500X0.150000X-0.512500X0.150000X-0.512500X-0.150000X0.512500X-0.150000X0*%
%ADD19RoundRect,0.200000X0.275000X-0.200000X0.275000X0.200000X-0.275000X0.200000X-0.275000X-0.200000X0*%
%ADD20R,1.450000X0.600000*%
%ADD21R,1.450000X0.300000*%
%ADD22RoundRect,0.250000X-0.475000X0.337500X-0.475000X-0.337500X0.475000X-0.337500X0.475000X0.337500X0*%
%ADD23RoundRect,0.150000X-0.650000X-0.150000X0.650000X-0.150000X0.650000X0.150000X-0.650000X0.150000X0*%
%ADD24RoundRect,0.200000X-0.200000X-0.275000X0.200000X-0.275000X0.200000X0.275000X-0.200000X0.275000X0*%
%ADD25RoundRect,0.225000X-0.475000X-0.225000X0.475000X-0.225000X0.475000X0.225000X-0.475000X0.225000X0*%
%ADD26R,0.736600X0.609600*%
%ADD27RoundRect,0.150000X-0.512500X-0.150000X0.512500X-0.150000X0.512500X0.150000X-0.512500X0.150000X0*%
%ADD28RoundRect,0.225000X0.225000X0.250000X-0.225000X0.250000X-0.225000X-0.250000X0.225000X-0.250000X0*%
%ADD29RoundRect,0.250000X-0.262500X-0.450000X0.262500X-0.450000X0.262500X0.450000X-0.262500X0.450000X0*%
%ADD30RoundRect,0.250000X-0.450000X0.262500X-0.450000X-0.262500X0.450000X-0.262500X0.450000X0.262500X0*%
%ADD31RoundRect,0.225000X-0.225000X0.475000X-0.225000X-0.475000X0.225000X-0.475000X0.225000X0.475000X0*%
%ADD32R,1.500000X0.350000*%
%ADD33R,2.500000X1.500000*%
%ADD34RoundRect,0.250000X0.450000X-0.262500X0.450000X0.262500X-0.450000X0.262500X-0.450000X-0.262500X0*%
%ADD35R,0.300000X0.800000*%
%ADD36R,0.950000X1.000000*%
%ADD37R,0.400000X0.500000*%
%ADD38R,0.300000X0.500000*%
%ADD39RoundRect,0.200000X-0.275000X0.200000X-0.275000X-0.200000X0.275000X-0.200000X0.275000X0.200000X0*%
%ADD40RoundRect,0.150000X-0.150000X0.650000X-0.150000X-0.650000X0.150000X-0.650000X0.150000X0.650000X0*%
%ADD41R,0.889000X0.330200*%
%ADD42R,4.300000X1.450000*%
%ADD43R,4.300000X1.300000*%
%ADD44R,1.400000X1.200000*%
%ADD45R,0.304800X1.000000*%
%ADD46R,0.965200X1.016000*%
%ADD47RoundRect,0.218750X0.256250X-0.218750X0.256250X0.218750X-0.256250X0.218750X-0.256250X-0.218750X0*%
%ADD48RoundRect,0.250000X-0.650000X1.000000X-0.650000X-1.000000X0.650000X-1.000000X0.650000X1.000000X0*%
%ADD49R,0.200000X0.800000*%
%ADD50R,0.800000X0.200000*%
%ADD51R,4.750000X4.750000*%
%ADD52RoundRect,0.225000X0.475000X0.225000X-0.475000X0.225000X-0.475000X-0.225000X0.475000X-0.225000X0*%
%ADD53RoundRect,0.218750X0.218750X0.256250X-0.218750X0.256250X-0.218750X-0.256250X0.218750X-0.256250X0*%
%ADD54R,0.800000X0.300000*%
%ADD55R,1.000000X0.950000*%
%ADD56RoundRect,0.250000X-0.650000X0.325000X-0.650000X-0.325000X0.650000X-0.325000X0.650000X0.325000X0*%
%ADD57RoundRect,0.250000X1.000000X0.650000X-1.000000X0.650000X-1.000000X-0.650000X1.000000X-0.650000X0*%
%ADD58RoundRect,0.250000X0.650000X-0.325000X0.650000X0.325000X-0.650000X0.325000X-0.650000X-0.325000X0*%
%ADD59R,1.397000X0.558800*%
%ADD60R,1.300000X1.600000*%
%ADD61R,1.500000X0.650000*%
%ADD62R,1.295400X3.149600*%
G04 APERTURE END LIST*
D10*
X146715000Y-94990000D02*
X145135000Y-94990000D01*
X145135000Y-93410000D01*
X146715000Y-93410000D01*
X146715000Y-94990000D01*
G36*
X146715000Y-94990000D02*
G01*
X145135000Y-94990000D01*
X145135000Y-93410000D01*
X146715000Y-93410000D01*
X146715000Y-94990000D01*
G37*
X146715000Y-97490000D02*
X145135000Y-97490000D01*
X145135000Y-95910000D01*
X146715000Y-95910000D01*
X146715000Y-97490000D01*
G36*
X146715000Y-97490000D02*
G01*
X145135000Y-97490000D01*
X145135000Y-95910000D01*
X146715000Y-95910000D01*
X146715000Y-97490000D01*
G37*
X146715000Y-99990000D02*
X145135000Y-99990000D01*
X145135000Y-98410000D01*
X146715000Y-98410000D01*
X146715000Y-99990000D01*
G36*
X146715000Y-99990000D02*
G01*
X145135000Y-99990000D01*
X145135000Y-98410000D01*
X146715000Y-98410000D01*
X146715000Y-99990000D01*
G37*
X149215000Y-94990000D02*
X147635000Y-94990000D01*
X147635000Y-93410000D01*
X149215000Y-93410000D01*
X149215000Y-94990000D01*
G36*
X149215000Y-94990000D02*
G01*
X147635000Y-94990000D01*
X147635000Y-93410000D01*
X149215000Y-93410000D01*
X149215000Y-94990000D01*
G37*
X149215000Y-97490000D02*
X147635000Y-97490000D01*
X147635000Y-95910000D01*
X149215000Y-95910000D01*
X149215000Y-97490000D01*
G36*
X149215000Y-97490000D02*
G01*
X147635000Y-97490000D01*
X147635000Y-95910000D01*
X149215000Y-95910000D01*
X149215000Y-97490000D01*
G37*
X149215000Y-99990000D02*
X147635000Y-99990000D01*
X147635000Y-98410000D01*
X149215000Y-98410000D01*
X149215000Y-99990000D01*
G36*
X149215000Y-99990000D02*
G01*
X147635000Y-99990000D01*
X147635000Y-98410000D01*
X149215000Y-98410000D01*
X149215000Y-99990000D01*
G37*
X151715000Y-94990000D02*
X150135000Y-94990000D01*
X150135000Y-93410000D01*
X151715000Y-93410000D01*
X151715000Y-94990000D01*
G36*
X151715000Y-94990000D02*
G01*
X150135000Y-94990000D01*
X150135000Y-93410000D01*
X151715000Y-93410000D01*
X151715000Y-94990000D01*
G37*
X151715000Y-99990000D02*
X150135000Y-99990000D01*
X150135000Y-98410000D01*
X151715000Y-98410000D01*
X151715000Y-99990000D01*
G36*
X151715000Y-99990000D02*
G01*
X150135000Y-99990000D01*
X150135000Y-98410000D01*
X151715000Y-98410000D01*
X151715000Y-99990000D01*
G37*
X151755000Y-97490000D02*
X150175000Y-97490000D01*
X150175000Y-95910000D01*
X151755000Y-95910000D01*
X151755000Y-97490000D01*
G36*
X151755000Y-97490000D02*
G01*
X150175000Y-97490000D01*
X150175000Y-95910000D01*
X151755000Y-95910000D01*
X151755000Y-97490000D01*
G37*
D11*
X189550000Y-101450000D03*
X189550000Y-103000000D03*
D12*
X152800000Y-91775000D03*
X152450000Y-91775000D03*
X152100000Y-91775000D03*
X151750000Y-91775000D03*
X151400000Y-91775000D03*
X151050000Y-91775000D03*
X150700000Y-91775000D03*
X150350000Y-91775000D03*
X150000000Y-91775000D03*
X149650000Y-91775000D03*
X149300000Y-91775000D03*
X148950000Y-91775000D03*
X148600000Y-91775000D03*
X148250000Y-91775000D03*
X147900000Y-91775000D03*
X147550000Y-91775000D03*
X147200000Y-91775000D03*
X146850000Y-91775000D03*
X146500000Y-91775000D03*
X146150000Y-91775000D03*
X145800000Y-91775000D03*
X145450000Y-91775000D03*
X145100000Y-91775000D03*
X144750000Y-91775000D03*
X144400000Y-91775000D03*
X144050000Y-91775000D03*
D13*
X143500000Y-92325000D03*
X143500000Y-92675000D03*
X143500000Y-93025000D03*
X143500000Y-93375000D03*
X143500000Y-93725000D03*
X143500000Y-94075000D03*
X143500000Y-94425000D03*
X143500000Y-94775000D03*
X143500000Y-95125000D03*
X143500000Y-95475000D03*
X143500000Y-95825000D03*
X143500000Y-96175000D03*
X143500000Y-96525000D03*
X143500000Y-96875000D03*
X143500000Y-97225000D03*
X143500000Y-97575000D03*
X143500000Y-97925000D03*
X143500000Y-98275000D03*
X143500000Y-98625000D03*
X143500000Y-98975000D03*
X143500000Y-99325000D03*
X143500000Y-99675000D03*
X143500000Y-100025000D03*
X143500000Y-100375000D03*
X143500000Y-100725000D03*
X143500000Y-101075000D03*
D12*
X144050000Y-101625000D03*
X144400000Y-101625000D03*
X144750000Y-101625000D03*
X145100000Y-101625000D03*
X145450000Y-101625000D03*
X145800000Y-101625000D03*
X146150000Y-101625000D03*
X146500000Y-101625000D03*
X146850000Y-101625000D03*
X147200000Y-101625000D03*
X147550000Y-101625000D03*
X147900000Y-101625000D03*
X148250000Y-101625000D03*
X148600000Y-101625000D03*
X148950000Y-101625000D03*
X149300000Y-101625000D03*
X149650000Y-101625000D03*
X150000000Y-101625000D03*
X150350000Y-101625000D03*
X150700000Y-101625000D03*
X151050000Y-101625000D03*
X151400000Y-101625000D03*
X151750000Y-101625000D03*
X152100000Y-101625000D03*
X152450000Y-101625000D03*
X152800000Y-101625000D03*
D13*
X153350000Y-101075000D03*
X153350000Y-100725000D03*
X153350000Y-100375000D03*
X153350000Y-100025000D03*
X153350000Y-99675000D03*
X153350000Y-99325000D03*
X153350000Y-98975000D03*
X153350000Y-98625000D03*
X153350000Y-98275000D03*
X153350000Y-97925000D03*
X153350000Y-97575000D03*
X153350000Y-97225000D03*
X153350000Y-96875000D03*
X153350000Y-96525000D03*
X153350000Y-96175000D03*
X153350000Y-95825000D03*
X153350000Y-95475000D03*
X153350000Y-95125000D03*
X153350000Y-94775000D03*
X153350000Y-94425000D03*
X153350000Y-94075000D03*
X153350000Y-93725000D03*
X153350000Y-93375000D03*
X153350000Y-93025000D03*
X153350000Y-92675000D03*
X153350000Y-92325000D03*
D14*
X185500000Y-87115000D03*
X185500000Y-85565000D03*
D15*
X159600000Y-102800000D03*
D16*
X159600000Y-103300000D03*
X159600000Y-103800000D03*
D15*
X159600000Y-104300000D03*
X160600000Y-104300000D03*
D16*
X160600000Y-103800000D03*
X160600000Y-103300000D03*
D15*
X160600000Y-102800000D03*
D11*
X185650000Y-97575000D03*
X185650000Y-99125000D03*
D17*
X191975000Y-110600000D03*
X193525000Y-110600000D03*
D18*
X113725000Y-85250000D03*
X113725000Y-84300000D03*
X113725000Y-83350000D03*
X111450000Y-83350000D03*
X111450000Y-84300000D03*
X111450000Y-85250000D03*
D19*
X141550000Y-105225000D03*
X141550000Y-103575000D03*
D20*
X107695000Y-81070000D03*
X107695000Y-81870000D03*
D21*
X107695000Y-83070000D03*
X107695000Y-84070000D03*
X107695000Y-84570000D03*
X107695000Y-85570000D03*
D20*
X107695000Y-86770000D03*
X107695000Y-87570000D03*
X107695000Y-87570000D03*
X107695000Y-86770000D03*
D21*
X107695000Y-86070000D03*
X107695000Y-85070000D03*
X107695000Y-83570000D03*
X107695000Y-82570000D03*
D20*
X107695000Y-81870000D03*
X107695000Y-81070000D03*
D17*
X185450000Y-90900000D03*
X187000000Y-90900000D03*
D22*
X187800000Y-97562500D03*
X187800000Y-99637500D03*
D23*
X170800000Y-98417598D03*
X170800000Y-99687598D03*
X170800000Y-100957598D03*
X170800000Y-102227598D03*
X178000000Y-102227598D03*
X178000000Y-100957598D03*
X178000000Y-99687598D03*
X178000000Y-98417598D03*
D24*
X156125000Y-94050000D03*
X157775000Y-94050000D03*
D25*
X200660000Y-135250000D03*
X197060000Y-135250000D03*
X200660000Y-136550000D03*
X197060000Y-136550000D03*
D26*
X172589900Y-95100000D03*
X172589900Y-93830000D03*
X172589900Y-92560000D03*
X172589900Y-91290000D03*
X172589900Y-90020000D03*
X169110100Y-90020000D03*
X169110100Y-91290000D03*
X169110100Y-92560000D03*
X169110100Y-93830000D03*
X169110100Y-95100000D03*
D27*
X122262500Y-82450000D03*
X122262500Y-83400000D03*
X122262500Y-84350000D03*
X124537500Y-84350000D03*
X124537500Y-82450000D03*
D28*
X139875000Y-77775000D03*
X138325000Y-77775000D03*
D29*
X111987500Y-108700000D03*
X113812500Y-108700000D03*
D19*
X168600000Y-102497598D03*
X168600000Y-100847598D03*
D30*
X174612500Y-79987500D03*
X174612500Y-81812500D03*
D11*
X190500000Y-87075000D03*
X190500000Y-88625000D03*
D31*
X197300000Y-110650000D03*
X197300000Y-107050000D03*
X196000000Y-110650000D03*
X196000000Y-107050000D03*
D14*
X154150000Y-90300000D03*
X154150000Y-88750000D03*
D30*
X126650000Y-82487500D03*
X126650000Y-84312500D03*
D32*
X128200000Y-89750001D03*
X128200000Y-90250000D03*
X128200000Y-90750000D03*
X128200000Y-91250000D03*
X128200000Y-91750000D03*
X128200000Y-92250001D03*
X128200000Y-92750000D03*
X128200000Y-93250000D03*
X128200000Y-93750000D03*
X128200000Y-94250000D03*
X128200000Y-94750001D03*
X128200000Y-95250000D03*
X128200000Y-95750000D03*
X128200000Y-96250000D03*
X128200000Y-96750000D03*
X128200000Y-97250001D03*
X128200000Y-97750000D03*
X128200000Y-98250000D03*
X128200000Y-98750000D03*
X128200000Y-99250000D03*
X128200000Y-99750000D03*
X128200000Y-100250000D03*
D33*
X125099999Y-88050000D03*
X125099999Y-101950000D03*
D14*
X178400000Y-83225000D03*
X178400000Y-81675000D03*
D29*
X112037500Y-87300000D03*
X113862500Y-87300000D03*
D17*
X184175000Y-100850000D03*
X185725000Y-100850000D03*
D14*
X153137500Y-118112500D03*
X153137500Y-116562500D03*
D29*
X203275000Y-65600000D03*
X205100000Y-65600000D03*
D34*
X108900000Y-77700000D03*
X108900000Y-75875000D03*
D35*
X175750000Y-114750000D03*
X176250000Y-114750000D03*
X176750000Y-114750000D03*
X177250000Y-114750000D03*
X177750000Y-114750000D03*
X178250000Y-114750000D03*
X178750000Y-114750000D03*
X179250000Y-114750000D03*
X179750000Y-114750000D03*
X180250000Y-114750000D03*
X180750000Y-114750000D03*
X181250000Y-114750000D03*
X181750000Y-114750000D03*
X182250000Y-114750000D03*
X182750000Y-114750000D03*
X183250000Y-114750000D03*
X183750000Y-114750000D03*
X184250000Y-114750000D03*
X184750000Y-114750000D03*
X185250000Y-114750000D03*
X185750000Y-114750000D03*
X186250000Y-114750000D03*
X186750000Y-114750000D03*
X187250000Y-114750000D03*
X187750000Y-114750000D03*
X188250000Y-114750000D03*
X188750000Y-114750000D03*
X189250000Y-114750000D03*
X189750000Y-114750000D03*
X190250000Y-114750000D03*
D36*
X174525000Y-117450000D03*
X191475000Y-117450000D03*
D37*
X143650000Y-108300000D03*
D38*
X144150000Y-108300000D03*
X144650000Y-108300000D03*
D37*
X145150000Y-108300000D03*
X145150000Y-107300000D03*
D38*
X144650000Y-107300000D03*
X144150000Y-107300000D03*
D37*
X143650000Y-107300000D03*
D39*
X134950000Y-112550000D03*
X134950000Y-114200000D03*
D24*
X156125000Y-92350000D03*
X157775000Y-92350000D03*
D40*
X139805000Y-88712500D03*
X138535000Y-88712500D03*
X137265000Y-88712500D03*
X135995000Y-88712500D03*
X135995000Y-95912500D03*
X137265000Y-95912500D03*
X138535000Y-95912500D03*
X139805000Y-95912500D03*
D37*
X150750000Y-86775000D03*
D38*
X150250000Y-86775000D03*
X149750000Y-86775000D03*
D37*
X149250000Y-86775000D03*
X149250000Y-87775000D03*
D38*
X149750000Y-87775000D03*
X150250000Y-87775000D03*
D37*
X150750000Y-87775000D03*
D14*
X190450000Y-92625000D03*
X190450000Y-91075000D03*
D15*
X160600000Y-107200000D03*
D16*
X160600000Y-106700000D03*
X160600000Y-106200000D03*
D15*
X160600000Y-105700000D03*
X159600000Y-105700000D03*
D16*
X159600000Y-106200000D03*
X159600000Y-106700000D03*
D15*
X159600000Y-107200000D03*
D41*
X194030001Y-90449999D03*
X194030001Y-89800000D03*
X194030001Y-89150001D03*
X192369999Y-89150001D03*
X192369999Y-89800000D03*
X192369999Y-90449999D03*
D17*
X201250000Y-139700000D03*
X202800000Y-139700000D03*
D42*
X197350000Y-86975000D03*
X197400800Y-92625000D03*
D43*
X197350000Y-89800000D03*
D14*
X188750000Y-90925000D03*
X188750000Y-89375000D03*
D19*
X137350000Y-103175000D03*
X137350000Y-101525000D03*
D44*
X137650000Y-81375000D03*
X139850000Y-81375000D03*
X139850000Y-79675000D03*
X137650000Y-79675000D03*
D29*
X111987500Y-102700000D03*
X113812500Y-102700000D03*
D45*
X138749999Y-147098200D03*
X139250001Y-147098200D03*
X139750000Y-147098200D03*
X140249999Y-147098200D03*
X140750000Y-147098200D03*
X141250000Y-147098200D03*
X141750001Y-147098200D03*
X142250000Y-147098200D03*
X142749999Y-147098200D03*
X143250001Y-147098200D03*
D46*
X144949700Y-149790600D03*
X137050300Y-149790600D03*
D27*
X170125000Y-79900000D03*
X170125000Y-80850000D03*
X170125000Y-81800000D03*
X172400000Y-81800000D03*
X172400000Y-79900000D03*
D19*
X133950000Y-74875000D03*
X133950000Y-73225000D03*
D11*
X184600000Y-81675000D03*
X184600000Y-83225000D03*
D47*
X180400000Y-86837500D03*
X180400000Y-85262500D03*
D48*
X111300000Y-95500000D03*
X111300000Y-99500000D03*
D19*
X152000000Y-60900000D03*
X152000000Y-59250000D03*
D49*
X182000000Y-89450000D03*
X181600000Y-89450000D03*
X181200000Y-89450000D03*
X180800000Y-89450000D03*
X180400000Y-89450000D03*
X180000000Y-89450000D03*
X179600000Y-89450000D03*
X179200000Y-89450000D03*
X178800000Y-89450000D03*
X178400000Y-89450000D03*
X178000000Y-89450000D03*
X177600000Y-89450000D03*
D50*
X176850000Y-90200000D03*
X176850000Y-90600000D03*
X176850000Y-91000000D03*
X176850000Y-91400000D03*
X176850000Y-91800000D03*
X176850000Y-92200000D03*
X176850000Y-92600000D03*
X176850000Y-93000000D03*
X176850000Y-93400000D03*
X176850000Y-93800000D03*
X176850000Y-94200000D03*
X176850000Y-94600000D03*
D49*
X177600000Y-95350000D03*
X178000000Y-95350000D03*
X178400000Y-95350000D03*
X178800000Y-95350000D03*
X179200000Y-95350000D03*
X179600000Y-95350000D03*
X180000000Y-95350000D03*
X180400000Y-95350000D03*
X180800000Y-95350000D03*
X181200000Y-95350000D03*
X181600000Y-95350000D03*
X182000000Y-95350000D03*
D50*
X182750000Y-94600000D03*
X182750000Y-94200000D03*
X182750000Y-93800000D03*
X182750000Y-93400000D03*
X182750000Y-93000000D03*
X182750000Y-92600000D03*
X182750000Y-92200000D03*
X182750000Y-91800000D03*
X182750000Y-91400000D03*
X182750000Y-91000000D03*
X182750000Y-90600000D03*
X182750000Y-90200000D03*
D51*
X179800000Y-92400000D03*
D11*
X185450000Y-92600000D03*
X185450000Y-94150000D03*
D52*
X147537500Y-117837500D03*
X151137500Y-117837500D03*
X147537500Y-116537500D03*
X151137500Y-116537500D03*
D17*
X159875000Y-88100000D03*
X161425000Y-88100000D03*
D53*
X188712500Y-92600000D03*
X187137500Y-92600000D03*
X188787500Y-87100000D03*
X187212500Y-87100000D03*
D20*
X107695000Y-102460000D03*
X107695000Y-103260000D03*
D21*
X107695000Y-104460000D03*
X107695000Y-105460000D03*
X107695000Y-105960000D03*
X107695000Y-106960000D03*
D20*
X107695000Y-108160000D03*
X107695000Y-108960000D03*
X107695000Y-108960000D03*
X107695000Y-108160000D03*
D21*
X107695000Y-107460000D03*
X107695000Y-106460000D03*
X107695000Y-104960000D03*
X107695000Y-103960000D03*
D20*
X107695000Y-103260000D03*
X107695000Y-102460000D03*
D11*
X187800000Y-101450000D03*
X187800000Y-103000000D03*
D54*
X158350000Y-53900000D03*
X158350000Y-53400000D03*
X158350000Y-52900000D03*
X158350000Y-52400000D03*
X158350000Y-51900000D03*
X158350000Y-51400000D03*
X158350000Y-50900000D03*
X158350000Y-50400000D03*
X158350000Y-49900000D03*
X158350000Y-49400000D03*
X158350000Y-48900000D03*
X158350000Y-48400000D03*
X158350000Y-47900000D03*
X158350000Y-47400000D03*
X158350000Y-46900000D03*
X158350000Y-46400000D03*
X158350000Y-45900000D03*
X158350000Y-45400000D03*
X158350000Y-44900000D03*
X158350000Y-44400000D03*
X158350000Y-43900000D03*
X158350000Y-43400000D03*
X158350000Y-42900000D03*
X158350000Y-42400000D03*
X158350000Y-41900000D03*
X158350000Y-41400000D03*
X158350000Y-40900000D03*
X158350000Y-40400000D03*
X158350000Y-39900000D03*
X158350000Y-39400000D03*
D55*
X161050000Y-55125000D03*
X161050000Y-38175000D03*
D56*
X191700000Y-101475000D03*
X191700000Y-104425000D03*
D57*
X115100000Y-90700000D03*
X111100000Y-90700000D03*
D14*
X163700000Y-93575000D03*
X163700000Y-92025000D03*
D17*
X156175000Y-90650000D03*
X157725000Y-90650000D03*
D45*
X153549699Y-147757600D03*
X154049701Y-147757600D03*
X154549700Y-147757600D03*
X155049699Y-147757600D03*
X155549700Y-147757600D03*
X156049700Y-147757600D03*
X156549701Y-147757600D03*
X157049700Y-147757600D03*
X157549699Y-147757600D03*
X158049701Y-147757600D03*
D46*
X159749400Y-150450000D03*
X151850000Y-150450000D03*
D29*
X203275000Y-68550000D03*
X205100000Y-68550000D03*
D58*
X157300000Y-88775000D03*
X157300000Y-85825000D03*
D39*
X194250000Y-103075000D03*
X194250000Y-104725000D03*
D59*
X141204300Y-75955000D03*
X141204300Y-74685000D03*
X141204300Y-73415000D03*
X141204300Y-72145000D03*
X135895700Y-72145000D03*
X135895700Y-73415000D03*
X135895700Y-74685000D03*
X135895700Y-75955000D03*
D60*
X159750000Y-90300000D03*
X159750000Y-93600000D03*
X161750000Y-93600000D03*
X161750000Y-90300000D03*
D18*
X113725000Y-106650000D03*
X113725000Y-105700000D03*
X113725000Y-104750000D03*
X111450000Y-104750000D03*
X111450000Y-105700000D03*
X111450000Y-106650000D03*
D39*
X196100000Y-103075000D03*
X196100000Y-104725000D03*
D61*
X143650000Y-73540000D03*
X143650000Y-74810000D03*
X143650000Y-76080000D03*
X143650000Y-77350000D03*
X143650000Y-78620000D03*
X143650000Y-79890000D03*
X143650000Y-81160000D03*
X149050000Y-81160000D03*
X149050000Y-79890000D03*
X149050000Y-78620000D03*
X149050000Y-77350000D03*
X149050000Y-76080000D03*
X149050000Y-74810000D03*
X149050000Y-73540000D03*
D14*
X178450000Y-86450000D03*
X178450000Y-84900000D03*
D37*
X146500000Y-108275000D03*
D38*
X147000000Y-108275000D03*
X147500000Y-108275000D03*
D37*
X148000000Y-108275000D03*
X148000000Y-107275000D03*
D38*
X147500000Y-107275000D03*
X147000000Y-107275000D03*
D37*
X146500000Y-107275000D03*
D19*
X143300000Y-105225000D03*
X143300000Y-103575000D03*
D62*
X132554500Y-113300000D03*
X124045500Y-113300000D03*
D45*
X165049999Y-114898200D03*
X165550001Y-114898200D03*
X166050000Y-114898200D03*
X166549999Y-114898200D03*
X167050000Y-114898200D03*
X167550000Y-114898200D03*
X168050001Y-114898200D03*
X168550000Y-114898200D03*
X169049999Y-114898200D03*
X169550001Y-114898200D03*
D46*
X171249700Y-117590600D03*
X163350300Y-117590600D03*
D14*
X176650000Y-86425000D03*
X176650000Y-84875000D03*
D29*
X196902500Y-139920000D03*
X198727500Y-139920000D03*
D44*
X180400000Y-83450000D03*
X182600000Y-83450000D03*
X182600000Y-81850000D03*
X180400000Y-81850000D03*
D17*
X185475000Y-88800000D03*
X187025000Y-88800000D03*
D14*
X135650000Y-81400000D03*
X135650000Y-79850000D03*
M02*
