M48
; DRILL file {KiCad 8.0.6} date 2026-05-12T15:56:42-0700
; FORMAT={-:-/ absolute / metric / decimal}
; #@! TF.CreationDate,2026-05-12T15:56:42-07:00
; #@! TF.GenerationSoftware,Kicad,Pcbnew,8.0.6
; #@! TF.FileFunction,Plated,1,4,PTH
FMAT,2
METRIC
; #@! TA.AperFunction,Plated,PTH,ComponentDrill
T1C0.200
; #@! TA.AperFunction,Plated,PTH,ViaDrill
T2C0.300
; #@! TA.AperFunction,Plated,PTH,ComponentDrill
T3C0.600
; #@! TA.AperFunction,Plated,PTH,ComponentDrill
T4C1.000
; #@! TA.AperFunction,Plated,PTH,ComponentDrill
T5C1.100
; #@! TA.AperFunction,Plated,PTH,ComponentDrill
T6C3.200
%
G90
G05
T1
X118.7Y-94.1
X119.8Y-94.1
T2
X109.375Y-86.975
X109.45Y-81.55
X142.5Y-99.05
X142.925Y-90.05
X143.05Y-85.0
X143.6Y-85.5
X143.65Y-90.45
X143.75Y-83.55
X144.35Y-84.15
X144.9Y-88.6
X145.5Y-87.95
X145.6Y-94.6
X145.6Y-95.5
X145.65Y-90.75
X145.65Y-91.65
X145.65Y-97.2
X145.7Y-89.9
X146.55Y-89.9
X147.25Y-89.85
X147.55Y-98.25
X148.6Y-98.25
X149.2Y-89.9
X149.35Y-98.25
X149.8Y-81.8
X150.35Y-98.25
X150.6Y-89.9
X151.0Y-81.45
X151.05Y-98.3
X151.4Y-89.85
X151.75Y-98.25
X151.9Y-99.95
X152.2Y-81.65
X152.2Y-89.9
X153.35Y-82.05
X153.85Y-98.25
X153.9Y-100.05
X154.0Y-93.4
X154.0Y-97.2
X154.05Y-90.75
X154.05Y-91.6
X154.05Y-92.5
X154.05Y-94.25
X154.05Y-96.35
X154.45Y-100.65
X156.05Y-86.95
X159.8Y-91.95
X163.05Y-101.001
X163.3Y-97.1
X164.25Y-96.75
X164.25Y-101.05
X165.35Y-102.4
X166.25Y-103.6
X167.25Y-105.2
X170.0Y-85.85
X170.0Y-106.05
X170.65Y-86.357
X171.25Y-84.2
X171.6Y-85.35
X172.25Y-84.95
X172.45Y-86.4
X172.55Y-102.273
X173.15Y-86.05
X173.75Y-85.5
X174.05Y-93.95
X174.2Y-93.2
X174.35Y-86.4
X175.086Y-93.986
X176.1Y-85.75
X176.6Y-95.65
X177.3Y-96.1
X177.85Y-85.75
X178.1Y-90.7
X178.1Y-92.4
X178.1Y-94.1
X179.068Y-87.632
X179.35Y-81.85
X179.7Y-94.1
X179.8Y-90.7
X181.5Y-90.7
X181.5Y-92.4
X181.5Y-94.1
X181.575Y-88.325
X182.45Y-88.25
X182.85Y-89.2
X184.3Y-85.6
X184.3Y-86.75
X184.3Y-93.25
X184.5Y-84.65
X184.75Y-101.75
X185.35Y-89.75
X185.5Y-84.4
X185.55Y-83.2
X185.65Y-96.05
X185.95Y-103.0
X186.0Y-103.95
X186.2Y-89.2
X186.85Y-84.8
X186.85Y-85.9
X186.9Y-93.9
X186.9Y-95.0
X186.9Y-96.05
X187.05Y-87.95
X187.85Y-90.9
X187.9Y-88.55
X188.0Y-84.8
X188.0Y-85.9
X188.15Y-93.9
X188.15Y-95.0
X188.15Y-96.05
X188.75Y-88.6
X189.35Y-84.8
X189.35Y-85.9
X189.4Y-93.9
X189.4Y-95.0
X189.4Y-96.05
X189.6Y-88.6
X189.6Y-90.95
X189.8Y-89.8
X190.6Y-84.8
X190.6Y-85.9
X190.65Y-93.9
X190.65Y-95.0
X191.35Y-89.8
X191.65Y-91.7
X191.7Y-88.05
X191.95Y-93.1
X191.95Y-94.35
X191.95Y-95.6
X192.0Y-83.95
X192.0Y-85.2
X192.0Y-86.45
X193.0Y-89.8
X193.05Y-91.85
X193.05Y-93.1
X193.05Y-94.35
X193.05Y-95.6
X193.1Y-83.95
X193.1Y-85.2
X193.1Y-86.45
X193.1Y-87.7
X193.25Y-103.95
X193.7Y-90.95
X193.75Y-88.6
X194.25Y-83.95
X194.25Y-85.2
X194.25Y-86.45
X194.25Y-87.7
X194.3Y-91.8
X194.3Y-93.05
X194.3Y-94.3
X194.3Y-95.55
X195.31Y-88.52
X195.31Y-91.12
X195.45Y-83.9
X195.45Y-85.15
X195.6Y-94.5
X195.6Y-95.75
X196.37Y-88.5
X196.37Y-91.1
X196.55Y-83.9
X196.55Y-85.15
X196.7Y-94.5
X196.7Y-95.75
X197.5Y-88.5
X197.5Y-91.1
X197.55Y-103.5
X197.7Y-83.9
X197.7Y-85.15
X197.85Y-94.5
X197.85Y-95.75
X198.6Y-88.5
X198.6Y-91.1
X198.85Y-83.9
X198.85Y-85.15
X199.0Y-94.5
X199.0Y-95.75
X199.4Y-88.5
X199.4Y-91.1
T4
X113.02Y-112.3
X113.02Y-114.84
X115.56Y-112.3
X115.56Y-114.84
X118.1Y-112.3
X118.1Y-114.84
X126.92Y-126.1
X126.92Y-128.64
X129.46Y-126.1
X129.46Y-128.64
X132.0Y-126.1
X132.0Y-128.64
X139.85Y-74.61
X139.85Y-77.15
X142.39Y-74.61
X142.39Y-77.15
X144.93Y-74.61
X144.93Y-77.15
X152.125Y-74.56
X152.125Y-77.1
X154.665Y-74.56
X154.665Y-77.1
X157.205Y-74.56
X157.205Y-77.1
X159.745Y-74.56
X159.745Y-77.1
X162.285Y-74.56
X162.285Y-77.1
X164.825Y-74.56
X164.825Y-77.1
X167.365Y-74.56
X167.365Y-77.1
X174.64Y-74.5
X174.64Y-77.04
X177.18Y-74.5
X177.18Y-77.04
X179.72Y-74.5
X179.72Y-77.04
X182.26Y-74.5
X182.26Y-77.04
X184.8Y-74.5
X184.8Y-77.04
X187.34Y-74.5
X187.34Y-77.04
X189.88Y-74.5
X189.88Y-77.04
X226.35Y-37.925
X226.35Y-40.465
X226.35Y-43.005
X226.35Y-45.545
X226.35Y-48.085
X228.89Y-37.925
X228.89Y-40.465
X228.89Y-43.005
X228.89Y-45.545
X228.89Y-48.085
T5
X113.0Y-78.45
X115.5Y-78.45
X118.0Y-78.45
T6
X104.0Y-74.0
X104.0Y-116.0
X196.0Y-74.0
X196.0Y-116.0
T3
X102.9Y-80.0G85X102.3Y-80.0
G05
X102.9Y-88.64G85X102.3Y-88.64
G05
X102.9Y-101.39G85X102.3Y-101.39
G05
X102.9Y-110.03G85X102.3Y-110.03
G05
X107.33Y-80.0G85X106.23Y-80.0
G05
X107.33Y-88.64G85X106.23Y-88.64
G05
X107.33Y-101.39G85X106.23Y-101.39
G05
X107.33Y-110.03G85X106.23Y-110.03
G05
M30
